<?xml version="1.0" standalone="no"?>
<!DOCTYPE svg PUBLIC "-//W3C//DTD SVG 1.1//EN" "http://www.w3.org/Graphics/SVG/1.1/DTD/svg11.dtd" >
<svg xmlns="http://www.w3.org/2000/svg">
<metadata></metadata>
<defs>
<font id="fontbold" horiz-adv-x="1185" >
<font-face units-per-em="2048" ascent="1556" descent="-492" />
<missing-glyph horiz-adv-x="593" />
<glyph unicode="&#xfb01;" horiz-adv-x="1402" d="M41 0v59l184 82v797h-174v115h174v22q0 250 189 369q150 94 366 94q111 0 213.5 -16.5t149.5 -40.5q74 -38 74 -119q0 -56 -41.5 -91.5t-102.5 -35.5q-99 0 -133 61q-12 6 -29 38.5t-28 61.5l-11 29q-38 7 -75 7q-114 0 -199 -56q-59 -40 -84 -99t-25 -163v-61h539 l164 28v-940l186 -80v-61h-604v59l154 82v799h-439v-799l154 -80v-61h-602z" />
<glyph unicode="&#xfb02;" horiz-adv-x="1386" d="M41 0v59l184 82v797h-174v115h174v20q0 272 242 395q140 70 305 70q86 0 138.5 -5.5t138.5 -23.5l143 29v-1397l184 -80v-61h-602v59l154 82v1157l-66 127q-47 7 -82 7q-60 0 -117 -21t-88 -49q-48 -42 -67 -97t-19 -155v-57h228v-113h-228v-799l154 -80v-61h-602z" />
<glyph horiz-adv-x="0" />
<glyph horiz-adv-x="682" />
<glyph unicode="&#x9;" horiz-adv-x="593" />
<glyph unicode="&#xd;" horiz-adv-x="593" />
<glyph unicode=" "  horiz-adv-x="593" />
<glyph unicode="&#x09;" horiz-adv-x="593" />
<glyph unicode="&#xa0;" horiz-adv-x="593" />
<glyph unicode="!" horiz-adv-x="577" d="M109 1448h340l-117 -1104h-105zM123 104q0 129 158 129q151 0 151 -122q0 -62 -38 -94.5t-111 -32.5q-160 0 -160 120z" />
<glyph unicode="&#x22;" horiz-adv-x="768" d="M106 1376q0 43 29.5 68.5t79.5 25.5q49 0 78 -26t29 -70q0 -22 -7 -67q-7 -67 -13 -109t-10 -63.5t-15 -73.5t-21 -103h-82l-59 349q-9 65 -9 69zM446 1376q0 42 29.5 68t77.5 26q50 0 79.5 -26t29.5 -70h-3q0 -28 -6 -67q-7 -69 -13 -111t-9 -60.5t-15 -76t-20 -101.5 h-84l-57 349q-9 43 -9 69z" />
<glyph unicode="#" horiz-adv-x="1292" d="M61 399l29 150h215l55 282h-215l31 150h215l78 401h184l-78 -401h256l78 401h185l-78 -401h215l-31 -150h-215l-55 -282h215l-29 -150h-215l-78 -399h-184l78 399h-256l-78 -399h-184l77 399h-215zM489 549h256l56 282h-256z" />
<glyph unicode="$" horiz-adv-x="1163" d="M133 41v319h96l111 -264q73 -12 156 -12h36v504l-133 84q-82 51 -116 78t-62 61q-84 105 -84 211q0 151 110.5 250t284.5 117v141h105v-137q101 -3 231 -31q40 -8 150 -33v-307h-98l-107 254q-95 12 -139 12q-25 0 -37 -2v-461l145 -92q97 -61 137 -91.5t70 -68.5 q72 -90 72 -221q0 -177 -148 -284q-115 -81 -276 -93v-145h-105v145q-109 6 -245 31q-44 10 -79 18t-50 11.5t-25 5.5zM377 1096q0 -68 36 -110t119 -95v381q-155 -41 -155 -176zM637 100q46 11 84 41q74 56 74 158q0 71 -37 123q-27 37 -121 100v-422z" />
<glyph unicode="%" horiz-adv-x="1486" d="M61 1104q0 157 91.5 247.5t248.5 90.5q160 0 252 -88t92 -240q0 -153 -92 -245.5t-247 -92.5q-158 0 -251.5 88.5t-93.5 239.5zM145 0l1051 1434h164l-1051 -1434h-164zM233 1108q0 -100 45 -156.5t123 -56.5q80 0 126 57.5t46 157.5q0 101 -45 158t-125 57t-125 -57.5 t-45 -159.5zM741 309q0 156 91 247t249 91q159 0 251.5 -88t92.5 -240t-93.5 -244.5t-248.5 -92.5q-158 0 -250 88t-92 239zM913 311q0 -98 44.5 -154.5t121.5 -56.5q82 0 128 57t46 158q0 100 -45.5 156.5t-126.5 56.5q-78 0 -123 -57.5t-45 -159.5z" />
<glyph unicode="&#x26;" horiz-adv-x="1517" d="M66 362q0 121 79 204.5t230 150.5q-15 18 -40 45t-30 33q-58 68 -83 131t-25 137q0 155 106 245.5t289 90.5q160 0 255 -76t95 -205q0 -123 -71.5 -207t-206.5 -147l407 -445q67 111 64 269v100l-172 76v63h530v-61l-178 -76q0 -3 1 -20.5t1 -31t-2 -17.5 q-1 -131 -34.5 -218t-117.5 -180l78 -84l176 -78v-61h-383l-65 76q-95 -49 -181.5 -70.5t-191.5 -21.5q-237 0 -383.5 104t-146.5 274zM332 399q0 -135 85 -212.5t234 -77.5q146 0 240 49l-449 483q-57 -57 -83.5 -114.5t-26.5 -127.5zM428 1124q0 -59 27.5 -113.5 t89.5 -119.5l45 -47q55 43 90 90q57 85 57 190l2 -2q0 79 -40.5 123.5t-112.5 44.5q-73 0 -115.5 -44.5t-42.5 -121.5z" />
<glyph unicode="'" horiz-adv-x="430" d="M106 1376q0 43 29.5 68.5t79.5 25.5q49 0 78 -26t29 -70q0 -22 -7 -67q-7 -67 -13 -109t-10 -63.5t-15 -73.5t-21 -103h-82l-59 349q-9 65 -9 69z" />
<glyph unicode="(" horiz-adv-x="595" d="M61 528q0 311 91 556.5t282 449.5l84 -49q-213 -303 -213 -967q0 -136 7.5 -247.5t28.5 -240t65.5 -245.5t111.5 -213l-84 -53q-192 211 -282.5 456t-90.5 553z" />
<glyph unicode=")" horiz-adv-x="595" d="M61 -432q215 301 215 967q0 134 -8 247t-29.5 242t-66 245.5t-111.5 211.5l84 55q194 -213 284.5 -462t90.5 -550q0 -311 -91 -555t-282 -450z" />
<glyph unicode="*" horiz-adv-x="749" d="M35 1063v113l258 -25l-215 168l88 90l184 -213l-37 256h129l-28 -254l178 205l82 -84l-209 -168l258 25v-113l-258 20l209 -159l-82 -88l-178 200l28 -250h-129l37 252l-184 -202l-82 88l211 159z" />
<glyph unicode="+" horiz-adv-x="1126" d="M41 610v193h424v405h197v-403h423v-193h-423v-448h-197v446h-424z" />
<glyph unicode="," horiz-adv-x="598" d="M133 129q0 59 42 95t112 36q86 0 132 -49t46 -141q0 -163 -121 -248q-65 -44 -164 -70l-35 88q77 32 107 68t33 102q-2 1 -17 0.5t-16 1.5q-119 12 -119 117z" />
<glyph unicode="-" horiz-adv-x="550" d="M20 469v199h510v-197z" />
<glyph unicode="." horiz-adv-x="565" d="M127 113q0 70 38 103.5t118 33.5q153 0 153 -133q0 -74 -36 -107t-115 -33q-83 0 -120.5 32.5t-37.5 103.5z" />
<glyph unicode="/" horiz-adv-x="532" d="M0 -500l387 2048h145l-385 -2048h-147z" />
<glyph unicode="0" d="M70 664q0 352 142 546.5t400 194.5q241 0 373.5 -183t132.5 -515q0 -348 -141.5 -544t-394.5 -196q-96 0 -175 27.5t-134 77.5t-95 115t-63 145t-34 161.5t-11 170.5zM352 674q0 -79 3.5 -144t12 -135.5t25.5 -124t42.5 -97.5t64 -67.5t88.5 -23.5q51 0 91.5 24t65.5 58 t43.5 91t27 101.5t13 113.5t5 102.5t0.5 90.5v19v22v68.5t-2 77.5t-6 86.5t-12 84t-19.5 83t-29.5 71t-41 59.5t-55.5 37t-70.5 15q-51 0 -91.5 -24.5t-66 -58.5t-43.5 -92.5t-26.5 -103t-13 -115t-5 -104t-0.5 -92.5v-22z" />
<glyph unicode="1" d="M117 1067v74q189 57 327 123q111 53 215 135h111v-1258l236 -80v-61h-744v59l234 82v998z" />
<glyph unicode="2" d="M74 0v88q70 72 209 211q247 253 327 377q113 174 113 330q0 135 -71 207.5t-203 72.5q-64 0 -130 -14l-98 -268h-100v325q75 19 151 33q171 37 295 37q201 0 329 -101.5t128 -259.5q0 -91 -32 -168.5t-90.5 -149t-168.5 -177.5q-118 -114 -375 -332h504l103 207h102 l-33 -418h-960z" />
<glyph unicode="3" d="M125 63v336h98l111 -284q97 -9 117 -9q72 0 132.5 13.5t112.5 44t81.5 86.5t29.5 133q0 133 -75 206t-212 73h-82v106h103q96 0 159.5 68.5t63.5 193.5q0 242 -266 242q-82 0 -156 -12l-109 -267h-98v332q92 23 182 37q172 33 287 33q210 0 330.5 -87t120.5 -239 q0 -140 -98 -224.5t-261 -119.5q402 -45 402 -340q0 -179 -155 -290t-404 -111q-98 0 -226 28q-36 8 -83 21t-76 21z" />
<glyph unicode="4" d="M6 387v102l760 910h141v-842h207v-168h-207v-248l187 -80v-61h-619v61l191 78v248h-660zM223 557h447l2 545z" />
<glyph unicode="5" d="M125 63v336h96l111 -282q97 -11 123 -11q160 0 250 87t90 241q0 316 -381 316q-119 0 -254 -27v653h878v-217h-727v-289q131 31 232 31q252 0 395 -115.5t143 -318.5q0 -216 -152.5 -349.5t-398.5 -133.5q-105 0 -213 24q-61 13 -192 55z" />
<glyph unicode="6" d="M74 567q0 247 85.5 433t253 289.5t398.5 103.5q171 0 291 -35l-17 -94q-64 10 -124 10q-333 0 -486 -197q-91 -116 -102 -297q92 32 155 45t140 13q204 0 324 -111t120 -299q0 -217 -142 -339t-364 -122q-260 0 -396 156.5t-136 443.5zM362 474.5q0 -23.5 2 -68t6 -71.5 t12.5 -66t20 -63t29.5 -52t41.5 -43.5t55.5 -26t71 -10.5q104 0 162.5 91t58.5 241h2q0 303 -248 303q-47 0 -112.5 -11.5t-95.5 -21.5q-5 -57 -5 -113v-21v-67.5z" />
<glyph unicode="7" d="M135 895v481h983v-96q-126 -295 -192.5 -448.5t-176.5 -398t-206 -443.5h-314q379 559 695 1171h-588l-98 -266h-103z" />
<glyph unicode="8" d="M92 322q0 236 326 366l-39 23q-113 66 -167 141t-54 182q0 163 124 264t324 101q196 0 312 -87t116 -233q0 -112 -67 -182.5t-199 -130.5l66 -39q142 -82 201 -163.5t59 -196.5q0 -181 -139.5 -290.5t-370.5 -109.5q-138 0 -248 40t-177 122t-67 193zM336 332 q0 -117 70 -184.5t188 -67.5q110 0 177 61t67 162q0 42 -14.5 77.5t-45.5 66t-61.5 53t-81.5 53.5l-127 80q-91 -69 -131.5 -139.5t-40.5 -161.5zM403 1102q0 -69 40 -122.5t132 -105.5l103 -57q123 123 123 250q0 104 -53 165.5t-144 61.5t-146 -52.5t-55 -139.5z" />
<glyph unicode="9" d="M82 938q0 214 137.5 339.5t372.5 125.5q247 0 387 -156q141 -156 141 -456q0 -191 -59.5 -350t-169.5 -263q-191 -188 -510 -188q-138 0 -285 30l13 97q59 -4 108 -4q310 0 467 168q118 128 131 307q-148 -60 -297 -60q-200 0 -318 110.5t-118 299.5zM369 965 q0 -303 243 -303q82 0 209 30q6 51 6 142v-3v2q0 43 -0.5 66.5t-2.5 67.5t-6 70.5t-12 65.5t-19.5 63t-29.5 51.5t-40.5 42.5t-54.5 25.5t-70 10.5q-103 0 -163 -91.5t-60 -239.5z" />
<glyph unicode=":" horiz-adv-x="595" d="M145 115q0 71 37.5 104t116.5 33q156 0 156 -135q0 -75 -36 -108.5t-118 -33.5t-119 33.5t-37 106.5zM145 936q0 71 37.5 105t116.5 34q156 0 156 -137q0 -74 -36 -106.5t-118 -32.5t-119 32.5t-37 104.5z" />
<glyph unicode=";" horiz-adv-x="598" d="M133 129q0 60 41.5 95.5t112.5 35.5q86 0 132 -49t46 -141q0 -133 -73.5 -207.5t-211.5 -110.5l-35 88q76 32 105.5 68t34.5 102q-3 0 -16.5 1t-16.5 1q-119 12 -119 117zM143 936q0 71 37.5 105t116.5 34q156 0 156 -137q0 -74 -36 -106.5t-118 -32.5t-119 32.5 t-37 104.5z" />
<glyph unicode="&#x3c;" horiz-adv-x="1370" d="M72 664v77l1196 529v-213l-836 -355l836 -352v-213z" />
<glyph unicode="=" d="M53 377v190h1077v-190h-1077zM53 836v190h1077v-188z" />
<glyph unicode="&#x3e;" horiz-adv-x="1370" d="M86 135v213l836 354l-836 353v215l1196 -529v-77z" />
<glyph unicode="?" horiz-adv-x="960" d="M37 1047v323q3 1 72.5 19t111.5 26q161 31 252 31q202 0 328.5 -95.5t126.5 -279.5q0 -202 -170 -360l-183 -166q-49 -46 -62.5 -72t-16.5 -84q0 -5 -1 -31t-1 -34h-123q0 37 -6 73q-3 30 -3 56q1 45 14 74t62 104l107 164q92 145 92 280q0 126 -63 191t-185 65 q-76 0 -147 -14l-107 -270h-98zM276 104q0 123 158 123q73 0 111.5 -31.5t38.5 -91.5l2 2q0 -122 -154 -122q-156 0 -156 120z" />
<glyph unicode="@" horiz-adv-x="1636" d="M63 666q0 247 101 442t290.5 306.5t436.5 111.5q143 0 265.5 -38.5t215.5 -112.5t146 -191.5t53 -265.5q0 -143 -44 -259.5t-119.5 -191t-174 -114.5t-209.5 -40q-64 0 -80 37q-1 2 -18.5 21.5t-16.5 34.5q-15 26 25 184q-7 -9 -20.5 -27.5t-18.5 -25t-15 -20.5t-14 -19 t-12 -15.5t-12.5 -15t-11 -12.5t-12 -13.5l-12 -12l-13.5 -13.5q-106 -97 -189 -97q-82 0 -127 75t-45 210q0 127 38 246.5t105 202.5q153 188 400 188q73 0 190 -24l-98 -797q29 0 59 10q106 29 185.5 151.5t79.5 305.5q0 240 -137.5 379t-379.5 139q-161 0 -282 -53 t-194 -149.5t-108.5 -223.5t-35.5 -285q0 -281 169.5 -431t453.5 -152q111 0 311 34l14 -71q-115 -37 -133 -41q-147 -43 -256 -43q-342 0 -546 183.5t-204 492.5zM614 612q0 -84 12 -116.5t42 -32.5q19 0 41 12t84 60q19 15 143 122l57 467q-52 19 -96 19q-152 0 -223 -170 q-28 -64 -44 -161.5t-16 -199.5z" />
<glyph unicode="A" horiz-adv-x="1476" d="M-37 0v59l164 82l563 1323h146l499 -1321l166 -82v-61h-620v59l163 82l-145 414h-448l-162 -412l168 -82v-61h-494zM489 659h373l-117 332q-41 119 -57 178z" />
<glyph unicode="B" horiz-adv-x="1314" d="M45 0v59l186 80v1170l-186 80v61h660q119 0 198.5 -20.5t138.5 -65.5q58 -44 91.5 -114.5t33.5 -147.5q0 -98 -50.5 -178t-137.5 -123q-70 -33 -172 -49q115 -8 199 -43q110 -46 168.5 -128.5t58.5 -195.5q0 -84 -40 -162.5t-108 -128.5q-70 -49 -161 -71.5t-236 -22.5 h-643zM500 96h125q315 0 315 295q0 142 -83 220.5t-230 78.5h-127v-594zM500 784h121q122 0 187.5 84.5t65.5 210.5h3q0 127 -63.5 200t-188.5 73h-125v-568z" />
<glyph unicode="C" horiz-adv-x="1390" d="M76 688q0 208 82.5 372.5t232.5 268.5q205 141 492 141q182 0 426 -59v-342h-103l-106 283q-86 8 -139 8q-280 0 -429 -158q-163 -172 -163 -487q0 -265 114 -424q72 -97 180 -143t265 -46q50 0 166 11l129 282h102l-29 -338q-83 -24 -192 -49q-143 -31 -291 -31 q-184 0 -317.5 48t-231.5 147q-188 191 -188 516z" />
<glyph unicode="D" horiz-adv-x="1572" d="M45 0v59l186 80v1170l-186 80v61h694q199 0 325.5 -39.5t223.5 -130.5q207 -195 207 -526q0 -188 -65 -340.5t-189 -251.5q-101 -84 -231 -123t-308 -39h-657zM506 102h164q130 0 216.5 33.5t155.5 110.5q83 89 121.5 207t38.5 284q0 280 -129 447q-69 87 -162 125.5 t-233 38.5h-172v-1246z" />
<glyph unicode="E" horiz-adv-x="1267" d="M45 0v59l186 80v1170l-186 80v61h1100v-336h-94l-105 238h-440v-570h362l76 197h92v-481h-90l-78 188h-362v-584h455l129 238h94l-31 -340h-1108z" />
<glyph unicode="F" horiz-adv-x="1138" d="M45 0v59l184 82v1168l-184 80v61h1077v-330l-94 -2l-104 234h-420v-570h342l78 197h90v-481h-90l-78 188h-342v-545l235 -80v-61h-694z" />
<glyph unicode="G" horiz-adv-x="1527" d="M76 700q0 368 246 582q110 97 250.5 142.5t328.5 45.5q112 0 206.5 -13.5t246.5 -45.5v-342h-105l-104 279q-93 14 -168 14q-290 0 -445 -162q-163 -177 -163 -485q0 -281 137 -439q75 -90 173.5 -133t231.5 -43q71 0 150 11v358l-184 80v61h639v-61l-185 -78v-412 q-59 -17 -186 -45q-179 -37 -326 -37q-150 0 -280 42t-222 118q-115 98 -178 243t-63 320z" />
<glyph unicode="H" horiz-adv-x="1640" d="M45 0v59l186 82v1168l-186 80v61h645v-61l-184 -80v-494h629v494l-185 80v61h643v-61l-184 -80v-1168l184 -80v-61h-643v59l185 82v559h-629v-559l184 -80v-61h-645z" />
<glyph unicode="I" horiz-adv-x="735" d="M45 0v59l186 82v1166l-186 82v61h645v-61l-184 -80v-1168l184 -80v-61h-645z" />
<glyph unicode="J" horiz-adv-x="708" d="M-143 -231h161l70 -150q89 16 121.5 82.5t32.5 192.5v1415l-183 80v61h643v-61l-184 -80v-1303q0 -126 -31.5 -209.5t-105.5 -154.5q-71 -68 -153.5 -97.5t-200.5 -29.5q-99 0 -170 20v234z" />
<glyph unicode="K" horiz-adv-x="1447" d="M45 0v59l186 82v1166l-186 82v61h645v-61l-184 -80v-1168l182 -80v-61h-643zM535 754l520 565l-140 70v61h515v-61l-177 -80l-458 -459l501 -709l177 -80v-61h-418z" />
<glyph unicode="L" horiz-adv-x="1095" d="M45 0v59l186 80v1168l-186 82v61h645v-61l-184 -80v-1207h348l135 265h98l-34 -367h-1008z" />
<glyph unicode="M" horiz-adv-x="1867" d="M45 0v59l184 82v1166l-184 82v61h479l422 -1024l414 1024h463v-61l-185 -80v-1168l185 -80v-61h-629v59l180 82v1002l-477 -1159h-49l-473 1159v-1002l178 -80v-61h-508z" />
<glyph unicode="N" horiz-adv-x="1552" d="M45 0v59l186 82v1166l-186 82v61h406l755 -985v842l-178 82v61h508v-61l-184 -80v-1332h-109l-868 1147v-983l178 -80v-61h-508z" />
<glyph unicode="O" horiz-adv-x="1583" d="M76 678q0 166 52 311t146 251.5t233.5 168t305.5 61.5q210 0 368 -92.5t241 -255t83 -372.5q0 -172 -54.5 -318t-152 -248t-237 -159.5t-303.5 -57.5q-201 0 -356 89t-240.5 250.5t-85.5 371.5zM373 731q0 -296 114 -473.5t304 -177.5q104 0 185.5 54t130 145t73 201.5 t24.5 232.5h2q0 129 -25.5 243.5t-75.5 206.5t-132 145.5t-187 53.5q-79 0 -143.5 -28.5t-108.5 -78t-76.5 -111t-50.5 -134.5t-26 -141.5t-8 -137.5z" />
<glyph unicode="P" horiz-adv-x="1214" d="M45 0v59l186 80v1170l-186 80v61h592q153 0 249 -22.5t167 -73.5q70 -53 108.5 -134.5t38.5 -177.5q0 -201 -160 -323q-149 -109 -391 -109h-143v-469l205 -80v-61h-666zM506 707h76q329 0 329 333h2q0 150 -71.5 231t-218.5 81h-117v-645z" />
<glyph unicode="Q" horiz-adv-x="1628" d="M76 694q0 217 91 393.5t260.5 279.5t385.5 103q310 0 501 -197t191 -515q0 -172 -60 -321.5t-179.5 -258t-282.5 -149.5q59 -27 129 -60.5t122 -57t107 -46.5q230 -96 320 -96q46 0 123 26q17 6 96 41l45 -74q-127 -101 -214 -150.5t-161 -49.5q-155 0 -542 215 q-205 114 -306 178q-15 10 -40 25q-271 37 -428.5 228t-157.5 486zM373 737q0 -99 15 -192t47.5 -178t80 -148.5t117.5 -101t155 -37.5q79 0 144 29t108.5 79.5t76 113.5t50.5 136.5t26.5 142t8.5 136.5q0 85 -11.5 168.5t-42 171.5t-76.5 154t-121 108.5t-169 42.5 q-102 0 -182.5 -53t-128.5 -142t-73 -198.5t-25 -231.5z" />
<glyph unicode="R" horiz-adv-x="1370" d="M45 0v59l186 80v1170l-186 80v61h645q132 0 207.5 -18t134.5 -62q61 -46 95 -117.5t34 -156.5q0 -147 -87 -245.5t-245 -129.5l412 -578l174 -82v-61h-399l-465 690h-59v-549l184 -80v-61h-631zM492 776h131q117 0 184 81t67 220h3q0 129 -63.5 202t-190.5 73h-131v-576z " />
<glyph unicode="S" horiz-adv-x="1140" d="M104 57v338h99l110 -280q118 -15 154 -15q152 0 225 64q68 62 68 155q0 38 -10.5 71t-24 55t-41.5 47.5t-46.5 38.5t-55.5 38l-211 140q-80 54 -112.5 80.5t-59.5 58.5q-90 111 -90 229q0 75 25 139.5t69 110.5t103.5 78.5t128.5 48.5t145 16q116 0 270 -34 q30 -6 80.5 -17.5t62.5 -13.5v-330h-100l-107 273q-99 12 -139 12q-289 0 -289 -199q0 -73 38 -116.5t143 -112.5l219 -146q93 -62 133.5 -96t71.5 -74q73 -95 73 -229q0 -194 -149 -305q-128 -98 -332 -98q-119 0 -303 36q-17 3 -148 37z" />
<glyph unicode="T" horiz-adv-x="1228" d="M-6 1069v381h1239v-379l-98 -2l-105 279h-276v-1207l233 -80v-61h-741v59l233 82v1207h-282l-103 -279h-100z" />
<glyph unicode="U" horiz-adv-x="1472" d="M-18 1389v61h643v-61l-185 -80v-858q0 -181 78.5 -268t253.5 -87q193 0 277 86t84 275v850l-185 82v61h543v-61l-184 -80v-807q0 -139 -41 -242t-119 -165t-183 -92t-239 -30q-559 0 -559 467v867z" />
<glyph unicode="V" horiz-adv-x="1415" d="M-55 1389v61h622v-61l-164 -80l285 -807q36 -102 66 -203l387 1008l-164 82v61h498v-61l-168 -80l-564 -1332h-127l-503 1330z" />
<glyph unicode="W" horiz-adv-x="2140" d="M-55 1389v61h622v-61l-166 -80l217 -715q47 -143 66 -225l387 1081h125l303 -920q43 -129 53 -174l312 951l-168 82v61h504v-61l-170 -80l-496 -1325h-117l-354 1071l-387 -1071h-117l-444 1323z" />
<glyph unicode="X" horiz-adv-x="1392" d="M-25 0v59l166 82l420 570l-385 596l-168 82v61h633v-61l-156 -78l265 -410l278 410l-154 78v61h492v-61l-168 -80l-381 -512l428 -656l170 -80v-61h-643v59l164 78l-301 461l-303 -459l164 -78v-61h-521z" />
<glyph unicode="Y" horiz-adv-x="1288" d="M-55 1389v61h635v-61l-154 -78l299 -477l289 477l-152 78v61h492v-61l-168 -80l-391 -582v-586l235 -80v-61h-747v59l237 82v525l-407 641z" />
<glyph unicode="Z" horiz-adv-x="1251" d="M55 0v86l803 1255h-536l-103 -272h-102v381h1073v-86l-801 -1251h569l132 282h102l-35 -395h-1102z" />
<glyph unicode="[" horiz-adv-x="557" d="M154 -475v2003h368v-109h-174v-1786h174v-108h-368z" />
<glyph unicode="\" horiz-adv-x="532" d="M0 1548h145l387 -2048h-147z" />
<glyph unicode="]" horiz-adv-x="557" d="M31 -369h172v1788h-172v109h366v-2003h-366v106z" />
<glyph unicode="^" horiz-adv-x="1228" d="M160 629l413 899h82l414 -897l-201 -2l-254 583l-254 -583h-200z" />
<glyph unicode="_" horiz-adv-x="1036" d="M0 -156h1036v-129h-1036v129z" />
<glyph unicode="`" horiz-adv-x="575" d="M-6 1495h334l252 -317l-144 -2z" />
<glyph unicode="a" horiz-adv-x="1120" d="M55 256q0 100 62 166.5t176 91.5q91 21 309 43q31 2 64 6v244q0 64 -14.5 97t-51.5 52q-43 19 -108 19q-39 0 -68 -2l-96 -191h-174v209q9 2 62 16t93 23q167 45 275 45q141 0 233 -53q60 -35 84.5 -83t24.5 -130v-586q0 -33 2 -45q3 -10 13.5 -16t35.5 -12l133 -37v-56 l-149 -47q-80 -26 -148 -26q-57 0 -88 23.5t-51 80.5q-71 -35 -109 -53q-61 -30 -100 -40.5t-98 -10.5q-136 0 -224 75.5t-88 196.5zM326 293q0 -78 50.5 -121t145.5 -43q53 0 131 16l13 5v337q-36 -5 -166 -28q-94 -19 -134 -56.5t-40 -109.5z" />
<glyph unicode="b" horiz-adv-x="1261" d="M-10 1384v56l459 94v-576q131 59 157 68q69 27 109 38t82 11q171 0 287 -142.5t116 -352.5q0 -128 -47.5 -240t-130 -191.5t-199.5 -125.5t-252 -46q-56 0 -133.5 10t-116.5 17.5t-137 26.5v1296zM449 100q50 -6 98 -6q145 0 237 70q140 115 140 352q0 181 -88 293 q-82 104 -246 104q-71 0 -141 -20v-793z" />
<glyph unicode="c" horiz-adv-x="1017" d="M61 496q0 254 167.5 413.5t435.5 159.5q133 0 311 -53v-240h-170l-98 199q-29 0 -37 -2q-155 -13 -243.5 -136t-88.5 -296q0 -198 100 -310t289 -112q85 0 238 31l18 -82q-104 -33 -137 -43q-176 -48 -285 -48q-222 0 -361 145t-139 374z" />
<glyph unicode="d" horiz-adv-x="1282" d="M61 477q0 128 45 238.5t124 188t188.5 121.5t234.5 44q70 0 160 -22v280l-197 57v56l461 94v-1366l178 -55v-56l-442 -92v131q-33 -14 -81 -34t-81 -35q-69 -30 -106 -40t-86 -10q-167 0 -282.5 145.5t-115.5 354.5zM338 539q0 -178 85.5 -289t246.5 -111q65 0 143 23 v788q-84 13 -119 13q-164 0 -260 -115t-96 -309z" />
<glyph unicode="e" horiz-adv-x="1091" d="M61 506q0 132 48.5 248.5t134.5 193.5q142 127 346 127q127 0 224 -52t147 -146q30 -58 42 -125.5t17 -198.5h-680q0 -106 19 -174t65 -127q104 -131 301 -131q97 0 262 33l17 -82q-97 -31 -146 -45q-173 -50 -289 -50q-231 0 -369.5 145t-138.5 384zM340 641l405 39v-2 q-3 158 -45 225q-25 40 -58.5 57t-84.5 17q-103 0 -155.5 -81t-61.5 -255z" />
<glyph unicode="f" horiz-adv-x="776" d="M41 0v59l184 82v797h-174v115h172v55q0 192 139.5 306t372.5 114q109 0 256 -35v-203l-164 -2l-69 142q-14 2 -35 2q-102 0 -164 -56q-70 -64 -70 -213v-110h297v-113h-297v-799l228 -80v-61h-676z" />
<glyph unicode="g" horiz-adv-x="1169" d="M8 -219q0 77 96 141q63 41 158 82q-98 61 -98 133q0 49 51 103q84 91 172 147q-96 19 -164 66q-66 46 -102.5 113t-36.5 143q0 153 127 258.5t311 105.5q162 0 283 -72l364 93v-226l-307 78q58 -43 92 -104q33 -68 33 -137q0 -151 -123 -245.5t-321 -94.5q-49 0 -88 8 q-64 -80 -64 -119q0 -30 31 -51q31 -19 108 -19h285q87 0 135.5 -13t85.5 -46q74 -65 74 -174q0 -187 -188 -311q-79 -52 -187.5 -80.5t-224.5 -28.5q-221 0 -367 78q-135 76 -135 172zM229 -180q0 -83 87 -137t223 -54q149 0 252.5 66.5t103.5 163.5q0 60 -45 88 q-21 13 -49 17.5t-90 4.5h-303q-59 0 -91 11q-88 -88 -88 -160zM348 756q0 -187 94 -271q42 -39 107 -39q89 0 135.5 61.5t46.5 178.5h2q0 63 -18 129t-45 103q-52 73 -138 73q-85 0 -134.5 -62.5t-49.5 -172.5z" />
<glyph unicode="h" horiz-adv-x="1359" d="M35 1386v58l454 90v-571q91 37 170 65q91 32 122.5 39.5t78.5 7.5q64 0 125 -25t100 -69q46 -51 63 -110t17 -162v-568l185 -80v-61h-600v59l151 82v514q0 83 -14 127t-47 74q-55 55 -174 55q-85 0 -177 -14v-756l152 -80v-61h-600v59l184 82v1188z" />
<glyph unicode="i" horiz-adv-x="690" d="M41 0v59l184 82v740l-184 57v57l448 88v-942l185 -80v-61h-633zM193 1386q0 63 39 94t122 31q164 0 164 -120q0 -66 -39.5 -97.5t-122.5 -31.5q-85 0 -124 30t-39 94z" />
<glyph unicode="j" horiz-adv-x="665" d="M-143 -238h170l55 -141q85 26 118 84t33 178v998l-182 53v59l449 88v-1083q0 -129 -31 -208t-109 -148q-129 -117 -319 -117q-85 0 -184 18v219zM201 1386q0 125 161 125q164 0 164 -118q0 -131 -161 -131q-164 0 -164 124z" />
<glyph unicode="k" horiz-adv-x="1300" d="M35 1382v58l454 94v-1393l168 -80v-61h-616v59l184 82v1186zM522 571l367 361l-141 61v60h542v-58l-221 -77l-297 -261l383 -522l168 -74v-61h-383z" />
<glyph unicode="l" horiz-adv-x="684" d="M35 1382v58l454 94v-1393l185 -80v-61h-633v59l184 82v1186z" />
<glyph unicode="m" horiz-adv-x="2013" d="M37 938v57l455 88v-118q57 22 192 71q103 39 172 39q79 0 135 -29t101 -96q101 40 211 80q76 27 112 36t84 9q147 0 236 -92q46 -51 64 -110.5t18 -157.5v-574l186 -80v-61h-596v59l145 82v527q0 123 -51 180q-61 67 -184 67q-90 0 -197 -22q29 -74 29 -191v-561l145 -80 v-61h-551v59l142 82v525q0 137 -54 193t-186 56q-70 0 -156 -14v-760l148 -80v-61h-596v59l184 82v740z" />
<glyph unicode="n" horiz-adv-x="1359" d="M37 936v57l455 88v-118q164 64 167 65q91 32 122.5 39.5t78.5 7.5q64 0 125 -25t100 -69q46 -51 63 -110t17 -162v-568l185 -80v-61h-600v59l151 82v514q0 83 -14 127t-47 74q-55 55 -174 55q-85 0 -177 -14v-756l152 -80v-61h-600v59l184 82v738z" />
<glyph unicode="o" horiz-adv-x="1224" d="M61 502q0 257 155.5 415t408.5 158q239 0 388.5 -146.5t149.5 -387.5q0 -250 -156.5 -412t-402.5 -162t-394.5 146.5t-148.5 388.5zM342 541q0 -59 6.5 -116t25 -121.5t47.5 -112.5t79.5 -79.5t115.5 -31.5q78 0 133 39.5t82 106t38.5 133t11.5 141.5h2q0 49 -4.5 97.5 t-15.5 103.5t-32 100.5t-50.5 84t-74 60t-100.5 21.5q-126 0 -195 -111t-69 -315z" />
<glyph unicode="p" horiz-adv-x="1290" d="M29 -420l184 76v1223l-184 57v59l448 88v-125q65 30 141 62q138 55 207 55q171 0 287.5 -145t116.5 -355q0 -169 -79 -306t-219 -214.5t-313 -77.5q-62 0 -141 15v-334l228 -78v-61h-676v61zM477 94q59 -6 105 -6q147 0 241 88q129 123 129 344q0 110 -25 189t-70 122.5 t-99 62.5t-121 19t-160 -22v-797z" />
<glyph unicode="q" horiz-adv-x="1251" d="M61 479q0 294 222 469q158 121 366 121q127 0 240 -45l192 80v-1446l185 -78v-61h-633v61l184 78v436q-2 -1 -127 -55q-81 -36 -128 -49t-97 -13q-113 0 -205.5 65.5t-145.5 181t-53 255.5zM338 541q0 -99 25 -174.5t62 -117.5t85.5 -68.5t88 -35t77.5 -8.5q56 0 141 23 v786q-63 17 -127 17q-160 0 -256 -115t-96 -307z" />
<glyph unicode="r" horiz-adv-x="927" d="M37 936v59l452 88v-127q126 66 192.5 92.5t115.5 26.5q36 0 63.5 -9t73.5 -34v-260l-193 -2l-63 143h-37q-69 0 -152 -26v-746l228 -80v-61h-676v59l184 82v740z" />
<glyph unicode="s" horiz-adv-x="925" d="M92 41v248h133q40 -79 101 -195q31 -8 73 -8q201 0 201 145q0 49 -23 78.5t-90 69.5l-188 115q-66 39 -98.5 64.5t-53.5 57.5q-51 70 -51 154q0 135 101.5 220t263.5 85q73 0 209 -24q23 -5 72 -17t59 -14v-229h-133l-93 176q-40 6 -71 6q-80 0 -128 -34.5t-48 -94.5 q0 -42 27.5 -73.5t95.5 -70.5l180 -104q119 -69 160 -137q43 -72 43 -154q0 -143 -108 -235.5t-275 -92.5q-86 0 -209 27q-20 4 -51 11.5t-61.5 15.5t-37.5 10z" />
<glyph unicode="t" horiz-adv-x="811" d="M20 938v76q171 64 213 112q19 18 53.5 78t57.5 113h102v-264h342v-113h-342v-637q0 -95 31 -137q45 -51 141 -51q76 0 170 20l21 -86l-131 -33q-149 -39 -240 -39q-107 0 -176 50q-80 61 -80 209v702h-162z" />
<glyph unicode="u" horiz-adv-x="1333" d="M4 938v57l449 88v-698q0 -77 11 -121t38 -74q28 -31 70 -44t112 -13q60 0 180 19v729l-184 57v57l448 88v-913l179 -55v-58l-443 -88v119q-10 -3 -84.5 -31.5t-95.5 -33.5q-67 -26 -104 -36t-78 -10q-65 0 -127 20.5t-99 57.5q-47 47 -67.5 111t-20.5 164v551z" />
<glyph unicode="v" horiz-adv-x="1093" d="M-31 991v62h563v-60l-153 -73l170 -453q33 -97 59 -193l242 639l-145 78v62h430v-60l-127 -78l-412 -938h-123l-369 943z" />
<glyph unicode="w" horiz-adv-x="1673" d="M-31 991v62h557v-60l-155 -73l157 -445q31 -81 52 -162l270 740h115l198 -582q10 -30 47 -158l224 600l-154 78v62h434v-60l-129 -78l-383 -938h-119q-39 119 -237 713l-264 -713h-119l-357 943z" />
<glyph unicode="x" horiz-adv-x="1183" d="M0 0v59l160 78l307 373l-281 412l-153 69v62h547v-60l-113 -61l184 -264l187 258l-105 65v62h408v-60l-150 -75l-280 -330l317 -455l156 -72v-61h-553v59l104 62l-205 301l-215 -295l101 -66v-61h-416z" />
<glyph unicode="y" horiz-adv-x="1083" d="M-37 991v62h557v-60l-145 -71l174 -463q43 -113 63 -180l236 634l-143 78v62h419v-60l-123 -80l-452 -1091q-66 -160 -155.5 -228.5t-235.5 -68.5q-84 0 -166 18v215h166l53 -137q77 14 121.5 64.5t85.5 154.5l65 160l-387 920z" />
<glyph unicode="z" horiz-adv-x="1050" d="M72 0v88l590 862h-338l-107 -207h-102v310h854v-86l-596 -865h377l118 228h101v-330h-897z" />
<glyph unicode="{" horiz-adv-x="843" d="M78 541v10q77 20 122.5 43t72 61t35.5 85.5t9 125.5v170q0 154 18.5 228.5t70.5 132.5q57 63 143 94t217 37v-82q-72 -8 -116 -29.5t-72 -64.5q-30 -42 -40 -90t-10 -152v-125q0 -128 -11 -196t-40 -117q-60 -104 -225 -125q161 -18 225 -125q31 -51 40 -120t9 -191v-127 q0 -100 10.5 -150t38.5 -90q57 -80 191 -94v-84q-245 6 -358 131q-53 57 -71 130t-18 228v172q0 152 -46.5 214t-194.5 100z" />
<glyph unicode="|" horiz-adv-x="514" d="M188 -500v2048h138v-2048h-138z" />
<glyph unicode="}" horiz-adv-x="845" d="M78 -350q131 11 188 92q29 41 39 90.5t10 149.5v129q0 117 10.5 188t41.5 123q64 107 225 125q-166 21 -225 125q-29 49 -39.5 116t-10.5 195v127q0 101 -10 150t-39 92t-72.5 63.5t-117.5 28.5v84q249 -9 358 -129q53 -58 70.5 -131t17.5 -232v-170q0 -78 9.5 -125.5 t36.5 -85t73 -60t123 -42.5v-10q-148 -39 -194 -101t-46 -213v-172q0 -154 -18.5 -228.5t-69.5 -131.5q-59 -63 -145.5 -95t-214.5 -36v84z" />
<glyph unicode="~" horiz-adv-x="1228" d="M12 324q37 201 118 308t196 107q39 0 86 -11.5t74 -21.5t81 -32l133 -56q61 -24 89.5 -34.5t69 -20.5t71.5 -10q74 0 121 48.5t82 160.5l84 -12q-89 -414 -318 -414q-56 0 -123 21t-182 67l-105 43q-131 55 -192 55q-139 0 -201 -207z" />
<glyph unicode="&#xa1;" horiz-adv-x="577" d="M109 -391l116 1104h107l117 -1104h-340zM127 946q0 127 149 127q160 0 160 -121q0 -129 -157 -129q-152 0 -152 123z" />
<glyph unicode="&#xa2;" horiz-adv-x="1017" d="M61 496q0 231 140.5 385t371.5 182v162h105v-158h27q138 -9 270 -51v-240h-170l-90 195h-27h-10v-848q32 -4 49 -4q53 0 96.5 5.5t141.5 25.5l18 -82q-104 -33 -137 -43q-121 -29 -168 -37v-162h-105v154h-12q-221 -3 -360.5 142t-139.5 374zM338 541q0 -198 100 -310 q55 -61 135 -88v809q-113 -45 -174 -156t-61 -255z" />
<glyph unicode="&#xa3;" horiz-adv-x="1187" d="M63 47l52 49q78 77 100.5 126t22.5 151v284h-142v109h140v219q0 117 35 194t110 130q125 84 297 84q93 0 215 -27l180 -43v-336h-98l-103 277q-74 12 -135 12q-123 0 -177 -65t-54 -189v-256h315v-109h-313v-114q0 -147 -51 -230q-30 -48 -125 -143q73 43 147 43 q29 0 111 -16l211 -43q64 -13 84 -13q72 0 178 150l70 -39q-29 -74 -55 -126t-60 -98.5t-74.5 -70t-87.5 -23.5q-39 0 -145 25l-283 76q-63 18 -100 18q-38 0 -75 -14.5t-103 -52.5q-2 0 -25 -15z" />
<glyph unicode="&#xa5;" horiz-adv-x="1189" d="M-16 1317v59h612v-57l-154 -72l226 -456l215 454l-152 72v59h477v-57l-166 -76l-303 -553v-47h293v-100h-293v-121h293v-100h-293v-189l236 -74v-59h-748v57l238 76v186h-293v101h293v123h-293v100h289l-309 600z" />
<glyph unicode="&#xa6;" horiz-adv-x="464" d="M127 -260v520h211v-520h-211zM127 776v520h211v-518z" />
<glyph unicode="&#xa7;" horiz-adv-x="1175" d="M137 487q0 72 33 139t90 115q47 39 150 88q-88 55 -126 118.5t-38 152.5q0 144 119 229q46 34 111.5 54t133.5 20q77 0 191 -21l137 -30v-279h-107l-92 217q-13 0 -44 2t-44 2q-84 0 -131 -37t-47 -104q0 -60 31.5 -95.5t105.5 -78.5l183 -107q75 -45 115.5 -77.5 t70.5 -73.5q61 -78 61 -180q0 -219 -270 -342q87 -56 125.5 -120.5t38.5 -154.5q0 -141 -113 -227q-48 -37 -117 -60.5t-137 -23.5q-65 0 -182 22q-52 8 -139 31v277h104l92 -217q11 -1 37 -4t39 -3q193 0 193 154q0 55 -27.5 90.5t-103.5 81.5l-199 117q-75 46 -113.5 76 t-66.5 67q-64 76 -64 182zM344 565q0 -82 55 -137q17 -19 35.5 -30.5t108.5 -63.5l157 -92q66 59 94.5 110.5t28.5 112.5h2q0 35 -10 64t-22.5 48t-41 41.5t-48 34.5t-62.5 37l-166 101q-131 -114 -131 -226z" />
<glyph unicode="&#xa8;" horiz-adv-x="575" d="M-47 1317q0 57 33 89t94 32q60 0 93.5 -31t33.5 -88l2 2q0 -57 -32.5 -87t-94.5 -30q-129 0 -129 113zM375 1319q0 57 33 88t94 31q60 0 93.5 -29.5t33.5 -83.5q0 -59 -33 -90t-94 -31t-94 29.5t-33 85.5z" />
<glyph unicode="&#xa9;" horiz-adv-x="1677" d="M61 743q0 218 104.5 400t286 287.5t398.5 105.5q163 0 306.5 -61t243.5 -166t158 -250t58 -307t-60 -309t-162.5 -254.5t-246.5 -171t-305 -64.5t-306 61.5t-249 168.5t-165 252t-61 308zM229 743q0 -174 79 -322t220.5 -236.5t313.5 -88.5q130 0 244 53t193.5 142 t125 209t45.5 252q0 129 -44.5 246.5t-122.5 204t-190.5 137.5t-242.5 51q-174 0 -317.5 -88t-223.5 -236.5t-80 -323.5zM430 760q0 204 128.5 318t330.5 114q89 0 254 -39v-199h-72l-61 164q-23 2 -62 2q-154 0 -233.5 -95.5t-79.5 -254.5q0 -156 72 -248t225 -92 q43 0 80 6l67 164h72l-16 -199q-168 -45 -281 -45q-194 0 -309 106t-115 298z" />
<glyph unicode="&#xaa;" horiz-adv-x="751" d="M47 985q0 60 40.5 100.5t115.5 53.5q77 16 239 28v142q0 37 -9 56.5t-32 29.5q-32 12 -69 12q-7 0 -43 -4l-62 -111h-118v127q8 2 43 10.5t61 14.5q111 24 180 24q93 0 152 -30q40 -22 55.5 -50.5t15.5 -78.5v-334q0 -9 0.5 -14.5t1.5 -9.5t2 -6t4.5 -4t6 -2.5t8.5 -2 l10 -2.5l88 -33v-37l-100 -28q-73 -15 -96 -15q-37 0 -57.5 14t-34.5 46q-33 -17 -68 -31q-71 -29 -131 -29q-89 0 -146 45.5t-57 118.5zM227 1006q0 -45 32 -70t93 -25q27 0 84 11q4 2 6 2v192q-43 -5 -104 -16q-60 -9 -85.5 -31t-25.5 -63z" />
<glyph unicode="&#xab;" horiz-adv-x="864" d="M72 535l243 421h156l-244 -419l244 -414h-156zM381 535l242 421h159l-247 -419l247 -412l-157 -2z" />
<glyph unicode="&#xac;" d="M76 625v196h1022v-590l-180 -2v396h-842z" />
<glyph unicode="&#xad;" horiz-adv-x="550" d="M20 469v199h510v-197z" />
<glyph unicode="&#xae;" horiz-adv-x="1677" d="M61 743q0 218 104.5 400t286 287.5t398.5 105.5q163 0 306.5 -61t243.5 -166t158 -250t58 -307t-60 -309t-162.5 -254.5t-246.5 -171t-305 -64.5t-306 61.5t-249 168.5t-165 252t-61 308zM229 743q0 -174 79 -322t220.5 -236.5t313.5 -88.5q130 0 244 53t193.5 142 t125 209t45.5 252q0 129 -44.5 246.5t-122.5 204t-190.5 137.5t-242.5 51q-174 0 -317.5 -88t-223.5 -236.5t-80 -323.5zM473 373v37l102 47v641l-102 47v37h393q277 0 277 -201q0 -167 -178 -211l217 -313l100 -47v-37h-252l-254 385h-22v-301l102 -47v-37h-383zM754 807 h65q63 0 97 43t34 123q0 149 -135 149h-61v-315z" />
<glyph unicode="&#xaf;" horiz-adv-x="577" d="M-20 1251v152h618v-150z" />
<glyph unicode="&#xb0;" horiz-adv-x="843" d="M113 1219q0 128 90 218.5t217 90.5q129 0 220 -90t91 -219t-90 -220.5t-219 -91.5q-128 0 -218.5 91.5t-90.5 220.5zM238 1219q0 -74 54.5 -130.5t127.5 -56.5q75 0 130.5 56t55.5 131q0 73 -55 128.5t-129 55.5t-129 -54.5t-55 -129.5z" />
<glyph unicode="&#xb1;" d="M70 0v190h1036v-190h-1036zM70 805v192h424v406h196v-406h426v-192h-424v-449h-196v449h-426z" />
<glyph unicode="&#xb2;" horiz-adv-x="761" d="M41 563v55q124 116 129 121q164 156 213 224q78 109 78 208q0 75 -47 112.5t-125 37.5q-46 0 -82 -8l-68 -166h-71v217q17 3 52.5 11t51.5 11q130 23 207 23q132 0 218.5 -61.5t86.5 -155.5q0 -55 -24 -104.5t-57 -85.5t-95 -91q-98 -86 -262 -209h325l66 121h74 l-25 -260h-645z" />
<glyph unicode="&#xb3;" horiz-adv-x="763" d="M43 612v211h72l73 -176q33 -2 74 -2q227 0 227 158q0 79 -47 120.5t-135 41.5h-55v73h33q176 0 176 152q0 72 -42 105.5t-130 33.5q-43 0 -96 -6l-74 -162h-72v211q14 2 50 8.5t69 10.5q127 22 203 22q142 0 222.5 -52.5t80.5 -143.5q0 -158 -236 -207q43 -5 77.5 -13 t70.5 -23.5t60.5 -37t40 -55t15.5 -76.5q0 -107 -102.5 -175.5t-265.5 -68.5q-145 0 -289 51z" />
<glyph unicode="&#xb4;" horiz-adv-x="575" d="M31 1176l250 319h335l-440 -319h-145z" />
<glyph unicode="&#xb6;" horiz-adv-x="1239" d="M45 877q0 248 160 402.5t418 154.5h551v-119h-130v-1243q0 -117 -44 -217t-113 -162q-59 -53 -156 -83t-194 -30q-90 0 -170 19v231h157l68 -147q123 13 191.5 107.5t68.5 279.5v1245h-162v-928q-88 -18 -182 -18q-205 0 -334 141.5t-129 366.5z" />
<glyph unicode="&#xb7;" horiz-adv-x="595" d="M145 541q0 62 44.5 105.5t107.5 43.5q61 0 105 -44t44 -105q0 -63 -43.5 -107.5t-105.5 -44.5q-63 0 -107.5 44.5t-44.5 107.5z" />
<glyph unicode="&#xb8;" horiz-adv-x="577" d="M92 -428q97 51 138.5 95.5t41.5 96.5q0 77 -79 89v147h118v-66q170 -25 170 -163q0 -41 -21.5 -78.5t-55 -65t-83 -53t-95.5 -42.5t-103 -34z" />
<glyph unicode="&#xb9;" horiz-adv-x="763" d="M55 1192v63q130 35 212.5 70.5t148.5 85.5h88v-741l155 -49v-56h-512v56l154 49v565z" />
<glyph unicode="&#xba;" horiz-adv-x="788" d="M37 1126q0 151 99 245.5t267 94.5q160 0 255.5 -88.5t95.5 -228.5q0 -148 -101.5 -245t-263.5 -97q-160 0 -256 87t-96 232zM229 1147q0 -36 4 -69.5t16 -69.5t30.5 -62t49.5 -42.5t72 -16.5q82 0 121 66.5t39 172.5q0 45 -7.5 86.5t-25 83.5t-53 67.5t-84.5 25.5 q-78 0 -120 -63t-42 -179z" />
<glyph unicode="&#xbb;" horiz-adv-x="864" d="M88 123l248 420l-248 413h158l241 -411l-239 -422h-160zM397 123l244 420l-244 413h156l246 -411l-244 -422h-158z" />
<glyph unicode="&#xbc;" horiz-adv-x="1863" d="M51 1192v63q130 35 212.5 70.5t148.5 85.5h88v-741l155 -49v-56h-512v56l154 49v565zM416 -33l874 1446h170l-874 -1446h-170zM1067 225v74l492 547h114v-510h133v-111h-133v-121l119 -49v-55h-424v53l127 49v123h-428zM1208 336h287v323q-20 -22 -140 -158.5 t-147 -164.5z" />
<glyph unicode="&#xbd;" horiz-adv-x="1863" d="M39 1192v63q131 35 213.5 71t146.5 85h88v-741l156 -49v-56h-512v56l154 49v565zM403 -33l875 1446h172l-877 -1446h-170zM1159 0v55q15 14 64.5 60.5t64.5 60.5q147 135 213 223q78 106 78 209q0 75 -47.5 112.5t-126.5 37.5q-44 0 -80 -8l-70 -166h-71v217q15 3 51 11 t55 11q128 23 207 23q132 0 217.5 -61.5t85.5 -155.5q0 -55 -23.5 -104.5t-56.5 -86t-94 -90.5q-91 -83 -264 -209h326l67 121h72l-23 -260h-645z" />
<glyph unicode="&#xbe;" horiz-adv-x="1863" d="M31 612v211h71l76 -176q31 -2 72 -2q227 0 227 158q0 79 -46 120.5t-134 41.5h-57v73h32q177 0 177 152q0 72 -41.5 105.5t-128.5 33.5q-43 0 -99 -6l-74 -162h-71v211q15 2 51.5 8.5t67.5 10.5q127 22 202 22q142 0 224 -52.5t82 -143.5q0 -159 -238 -207q55 -7 97 -19 t83 -34t63.5 -60.5t22.5 -91.5q0 -107 -103.5 -175.5t-267.5 -68.5q-144 0 -288 51zM438 -33l875 1446h172l-877 -1446h-170zM1059 225v74l489 547h115v-510h135v-111h-135v-121l121 -49v-55h-424v53l125 49v123h-426zM1200 336h285v323q-24 -30 -138.5 -160.5 t-146.5 -162.5z" />
<glyph unicode="&#xbf;" horiz-adv-x="960" d="M35 -12q0 202 170 360l182 166q49 46 63 72t17 84q0 4 1 31t1 34h123q0 -37 6 -73q2 -20 2 -56q-1 -45 -14 -74t-62 -104l-106 -164q-92 -145 -92 -280q0 -126 62.5 -191t184.5 -65q77 0 148 14l106 270h99v-323q-2 -1 -72.5 -19t-112.5 -26q-161 -31 -252 -31 q-202 0 -328 95.5t-126 279.5zM377 952q0 123 153 123q156 0 156 -121q0 -123 -158 -123q-149 0 -149 123z" />
<glyph unicode="&#xc0;" horiz-adv-x="1476" d="M-31 0v59l164 82l563 1323h146l499 -1321l166 -82v-61h-620v59l164 82l-144 414h-450l-162 -412l168 -82v-61h-494zM373 1868h334l251 -318l-143 -2zM496 659h372l-114 332q-37 100 -58 178z" />
<glyph unicode="&#xc1;" horiz-adv-x="1476" d="M-31 0v59l164 82l563 1323h146l499 -1321l166 -82v-61h-620v59l164 82l-144 414h-450l-162 -412l168 -82v-61h-494zM496 659h372l-114 332q-37 100 -58 178zM588 1548l252 320h334l-441 -320h-145z" />
<glyph unicode="&#xc2;" horiz-adv-x="1476" d="M-31 0v59l164 82l563 1323h146l499 -1321l166 -82v-61h-620v59l164 82l-144 414h-450l-162 -412l168 -82v-61h-494zM401 1538l371 365l377 -365h-172l-205 135l-201 -135h-170zM496 659h372l-114 332q-37 100 -58 178z" />
<glyph unicode="&#xc3;" horiz-adv-x="1476" d="M-31 0v59l164 82l563 1323h146l499 -1321l166 -82v-61h-620v59l164 82l-144 414h-450l-162 -412l168 -82v-61h-494zM424 1661q75 97 154 162q33 28 84 28q47 0 102 -26l137 -66q48 -24 66 -24q19 0 45 19.5t94 84.5l68 -72q-29 -40 -74 -86.5t-80 -74.5q-34 -29 -82 -29 q-45 0 -102 27l-138 65q-50 25 -67 25q-18 0 -44 -21t-93 -84zM496 659h372l-114 332q-37 100 -58 178z" />
<glyph unicode="&#xc4;" horiz-adv-x="1476" d="M-31 0v59l164 82l563 1323h146l499 -1321l166 -82v-61h-620v59l164 82l-144 414h-450l-162 -412l168 -82v-61h-494zM430 1690q0 58 32.5 89t94.5 31q60 0 93.5 -30.5t33.5 -87.5v2q0 -57 -32.5 -87t-94.5 -30q-127 0 -127 113zM496 659h372l-114 332q-37 100 -58 178z M850 1692q0 57 33 87.5t96 30.5q60 0 92.5 -29t32.5 -83q0 -59 -33 -90t-94 -31t-94 29.5t-33 85.5z" />
<glyph unicode="&#xc5;" horiz-adv-x="1476" d="M-31 0v59l164 82l563 1323h146l499 -1321l166 -82v-61h-620v59l164 82l-144 414h-450l-162 -412l168 -82v-61h-494zM496 659h372l-114 332q-37 100 -58 178zM516 1724q0 177 264 177t264 -175q0 -182 -264 -182t-264 180zM657 1722q0 -47 34 -74.5t89 -27.5t89 27.5 t34 72.5q0 47 -35 76t-88 29t-88 -29t-35 -74z" />
<glyph unicode="&#xc6;" horiz-adv-x="1878" d="M-25 0v59l166 82l660 1307h966v-336h-94l-104 238h-404v-600h326l76 196h94v-487h-92l-76 194h-328v-551h420l127 238h98l-34 -340h-1039v59l168 82v512h-350l-244 -512l164 -80v-61h-500zM604 752h301v594h-31z" />
<glyph unicode="&#xc7;" horiz-adv-x="1390" d="M76 688q0 208 82.5 372.5t232.5 268.5q205 141 492 141q182 0 426 -59v-342h-103l-106 283q-86 8 -139 8q-280 0 -429 -158q-163 -172 -163 -487q0 -265 114 -424q72 -97 180 -143t265 -46q50 0 166 11l129 282h102l-29 -338q-83 -24 -192 -49q-112 -22 -227 -28v-46 q167 -25 167 -163q0 -51 -30.5 -95t-85.5 -77t-112 -56t-130 -45l-29 74q96 51 137.5 95.5t41.5 96.5q0 76 -80 89v127q-318 15 -492 192q-188 191 -188 516z" />
<glyph unicode="&#xc8;" horiz-adv-x="1267" d="M45 0v59l186 80v1170l-186 80v61h1100v-336h-94l-105 238h-440v-570h362l76 197h92v-481h-90l-78 188h-362v-584h455l129 238h94l-31 -340h-1108zM272 1868h334l252 -318l-143 -2z" />
<glyph unicode="&#xc9;" horiz-adv-x="1267" d="M45 0v59l186 80v1170l-186 80v61h1100v-336h-94l-105 238h-440v-570h362l76 197h92v-481h-90l-78 188h-362v-584h455l129 238h94l-31 -340h-1108zM492 1548l249 320h334l-440 -320h-143z" />
<glyph unicode="&#xca;" horiz-adv-x="1267" d="M45 0v59l186 80v1170l-186 80v61h1100v-336h-94l-105 238h-440v-570h362l76 197h92v-481h-90l-78 188h-362v-584h455l129 238h94l-31 -340h-1108zM274 1538l371 365l377 -365h-170l-207 135l-199 -135h-172z" />
<glyph unicode="&#xcb;" horiz-adv-x="1267" d="M45 0v59l186 80v1170l-186 80v61h1100v-336h-94l-105 238h-440v-570h362l76 197h92v-481h-90l-78 188h-362v-584h455l129 238h94l-31 -340h-1108zM301 1690q0 58 32.5 89t94.5 31q60 0 93.5 -30.5t33.5 -87.5v2q0 -57 -32.5 -87t-94.5 -30q-127 0 -127 113zM721 1692 q0 57 33 87.5t96 30.5q60 0 92.5 -29t32.5 -83q0 -59 -33 -90t-94 -31t-94 29.5t-33 85.5z" />
<glyph unicode="&#xcc;" horiz-adv-x="735" d="M-10 1868h334l251 -318l-143 -2zM45 0v59l186 82v1166l-186 82v61h645v-61l-184 -80v-1168l184 -80v-61h-645z" />
<glyph unicode="&#xcd;" horiz-adv-x="735" d="M45 0v59l186 82v1166l-186 82v61h645v-61l-184 -80v-1168l184 -80v-61h-645zM156 1548l250 320h333l-440 -320h-143z" />
<glyph unicode="&#xce;" horiz-adv-x="735" d="M-6 1538l371 365l376 -365h-172l-204 135l-201 -135h-170zM45 0v59l186 82v1166l-186 82v61h645v-61l-184 -80v-1168l184 -80v-61h-645z" />
<glyph unicode="&#xcf;" horiz-adv-x="735" d="M29 1690q0 58 32.5 89t94.5 31q60 0 93.5 -30.5t33.5 -87.5v2q0 -57 -32.5 -87t-94.5 -30q-127 0 -127 113zM45 0v59l186 82v1166l-186 82v61h645v-61l-184 -80v-1168l184 -80v-61h-645zM449 1692q0 57 33 87.5t96 30.5q60 0 92 -29t32 -83q0 -59 -33 -90t-94 -31 t-93.5 29.5t-32.5 85.5z" />
<glyph unicode="&#xd0;" horiz-adv-x="1572" d="M35 797v116h196v396l-186 80v61h694q199 0 325.5 -39.5t223.5 -130.5q207 -195 207 -526q0 -188 -65 -340.5t-189 -251.5q-101 -84 -231 -123t-308 -39h-657v59l186 80v658h-196zM506 102h164q130 0 216.5 33.5t155.5 110.5q83 89 121.5 207t38.5 284q0 280 -129 447 q-69 87 -162 125.5t-233 38.5h-172v-433h207v-116h-207v-697z" />
<glyph unicode="&#xd1;" horiz-adv-x="1552" d="M45 0v59l186 82v1166l-186 82v61h406l755 -985v842l-178 82v61h508v-61l-184 -80v-1332h-109l-868 1147v-983l178 -80v-61h-508zM432 1661q75 97 154 162q33 28 84 28q47 0 102 -26l137 -66q48 -24 66 -24q19 0 45 19.5t94 84.5l68 -72q-29 -40 -74 -86.5t-80 -74.5 q-32 -29 -82 -29q-45 0 -102 27l-137 65q-50 25 -68 25t-44 -21t-93 -84z" />
<glyph unicode="&#xd2;" horiz-adv-x="1583" d="M76 678q0 166 52 311t146 251.5t233.5 168t305.5 61.5q210 0 368 -92.5t241 -255t83 -372.5q0 -172 -54.5 -318t-152 -248t-237 -159.5t-303.5 -57.5q-201 0 -356 89t-240.5 250.5t-85.5 371.5zM373 731q0 -296 114 -473.5t304 -177.5q104 0 185.5 54t130 145t73 201.5 t24.5 232.5h2q0 129 -25.5 243.5t-75.5 206.5t-132 145.5t-187 53.5q-79 0 -143.5 -28.5t-108.5 -78t-76.5 -111t-50.5 -134.5t-26 -141.5t-8 -137.5zM403 1868h334l252 -318l-143 -2z" />
<glyph unicode="&#xd3;" horiz-adv-x="1583" d="M76 678q0 166 52 311t146 251.5t233.5 168t305.5 61.5q210 0 368 -92.5t241 -255t83 -372.5q0 -172 -54.5 -318t-152 -248t-237 -159.5t-303.5 -57.5q-201 0 -356 89t-240.5 250.5t-85.5 371.5zM373 731q0 -296 114 -473.5t304 -177.5q104 0 185.5 54t130 145t73 201.5 t24.5 232.5h2q0 129 -25.5 243.5t-75.5 206.5t-132 145.5t-187 53.5q-79 0 -143.5 -28.5t-108.5 -78t-76.5 -111t-50.5 -134.5t-26 -141.5t-8 -137.5zM616 1548l250 320h334l-440 -320h-144z" />
<glyph unicode="&#xd4;" horiz-adv-x="1583" d="M76 678q0 166 52 311t146 251.5t233.5 168t305.5 61.5q210 0 368 -92.5t241 -255t83 -372.5q0 -172 -54.5 -318t-152 -248t-237 -159.5t-303.5 -57.5q-201 0 -356 89t-240.5 250.5t-85.5 371.5zM373 731q0 -296 114 -473.5t304 -177.5q104 0 185.5 54t130 145t73 201.5 t24.5 232.5h2q0 129 -25.5 243.5t-75.5 206.5t-132 145.5t-187 53.5q-79 0 -143.5 -28.5t-108.5 -78t-76.5 -111t-50.5 -134.5t-26 -141.5t-8 -137.5zM440 1538l371 365l377 -365h-170l-207 135l-199 -135h-172z" />
<glyph unicode="&#xd5;" horiz-adv-x="1583" d="M76 678q0 166 52 311t146 251.5t233.5 168t305.5 61.5q210 0 368 -92.5t241 -255t83 -372.5q0 -172 -54.5 -318t-152 -248t-237 -159.5t-303.5 -57.5q-201 0 -356 89t-240.5 250.5t-85.5 371.5zM373 731q0 -296 114 -473.5t304 -177.5q104 0 185.5 54t130 145t73 201.5 t24.5 232.5h2q0 129 -25.5 243.5t-75.5 206.5t-132 145.5t-187 53.5q-79 0 -143.5 -28.5t-108.5 -78t-76.5 -111t-50.5 -134.5t-26 -141.5t-8 -137.5zM436 1661q75 97 154 162q33 28 84 28q47 0 102 -26l137 -66q48 -24 66 -24q19 0 45 19.5t94 84.5l68 -72 q-29 -40 -74 -86.5t-80 -74.5q-34 -29 -82 -29q-47 0 -102 27l-137 65q-50 25 -68 25t-44 -21t-93 -84z" />
<glyph unicode="&#xd6;" horiz-adv-x="1583" d="M76 678q0 166 52 311t146 251.5t233.5 168t305.5 61.5q210 0 368 -92.5t241 -255t83 -372.5q0 -172 -54.5 -318t-152 -248t-237 -159.5t-303.5 -57.5q-201 0 -356 89t-240.5 250.5t-85.5 371.5zM373 731q0 -296 114 -473.5t304 -177.5q104 0 185.5 54t130 145t73 201.5 t24.5 232.5h2q0 129 -25.5 243.5t-75.5 206.5t-132 145.5t-187 53.5q-79 0 -143.5 -28.5t-108.5 -78t-76.5 -111t-50.5 -134.5t-26 -141.5t-8 -137.5zM457 1690q0 58 32.5 89t94.5 31q60 0 93.5 -30.5t33.5 -87.5v2q0 -57 -32.5 -87t-94.5 -30q-127 0 -127 113zM877 1692 q0 57 33 87.5t96 30.5q60 0 92 -29t32 -83q0 -59 -32.5 -90t-93.5 -31t-94 29.5t-33 85.5z" />
<glyph unicode="&#xd7;" d="M70 309l374 373l-374 373l149 149l373 -375l373 375l149 -149l-375 -373l375 -373l-147 -149l-375 375l-373 -375z" />
<glyph unicode="&#xd8;" horiz-adv-x="1574" d="M72 692q0 217 92 394t262 280.5t385 103.5q103 0 183.5 -20t170.5 -66l86 129l84 -55l-88 -129q260 -211 260 -586q0 -169 -55.5 -313.5t-153.5 -246t-237.5 -159t-302.5 -57.5q-195 0 -355 88l-98 -143l-84 53l101 146q-250 205 -250 581zM365 737q0 -133 20 -228 t72 -204l600 918v-2q-50 74 -111.5 107.5t-152.5 33.5q-80 0 -146.5 -27t-112 -75t-79.5 -108.5t-53 -132.5t-28 -141.5t-9 -140.5zM514 221q62 -75 126 -108t151 -33q86 0 157 34.5t119.5 93.5t82 140t49 172t15.5 191q0 263 -98 428z" />
<glyph unicode="&#xd9;" horiz-adv-x="1472" d="M-18 1389v61h643v-61l-185 -80v-858q0 -181 78.5 -268t253.5 -87q193 0 277 86t84 275v850l-185 82v61h543v-61l-184 -80v-807q0 -139 -41 -242t-119 -165t-183 -92t-239 -30q-559 0 -559 467v867zM354 1868h334l250 -318l-141 -2z" />
<glyph unicode="&#xda;" horiz-adv-x="1472" d="M-18 1389v61h643v-61l-185 -80v-858q0 -181 78.5 -268t253.5 -87q193 0 277 86t84 275v850l-185 82v61h543v-61l-184 -80v-807q0 -139 -41 -242t-119 -165t-183 -92t-239 -30q-559 0 -559 467v867zM553 1546l252 320h334l-441 -320h-145z" />
<glyph unicode="&#xdb;" horiz-adv-x="1472" d="M-18 1389v61h643v-61l-185 -80v-858q0 -181 78.5 -268t253.5 -87q193 0 277 86t84 275v850l-185 82v61h543v-61l-184 -80v-807q0 -139 -41 -242t-119 -165t-183 -92t-239 -30q-559 0 -559 467v867zM401 1538l371 365l377 -365h-172l-205 135l-201 -135h-170z" />
<glyph unicode="&#xdc;" horiz-adv-x="1472" d="M-18 1389v61h643v-61l-185 -80v-858q0 -181 78.5 -268t253.5 -87q193 0 277 86t84 275v850l-185 82v61h543v-61l-184 -80v-807q0 -139 -41 -242t-119 -165t-183 -92t-239 -30q-559 0 -559 467v867zM430 1690q0 57 33 88.5t94 31.5q60 0 93.5 -30.5t33.5 -87.5v2 q0 -57 -32.5 -87t-94.5 -30q-127 0 -127 113zM852 1692q0 57 33 87.5t94 30.5q60 0 93.5 -29t33.5 -83q0 -59 -33 -90t-96 -31q-61 0 -93 29.5t-32 85.5z" />
<glyph unicode="&#xdd;" horiz-adv-x="1320" d="M-55 1389v61h635v-61l-154 -78l299 -477l289 477l-152 78v61h492v-61l-168 -80l-391 -582v-586l235 -80v-61h-747v59l237 82v525l-407 641zM532 1548l252 320h334l-440 -320h-146z" />
<glyph unicode="&#xde;" horiz-adv-x="1228" d="M61 0v59l185 82v1166l-185 79v62h644v-62l-185 -79v-76h142q91 0 165.5 -9.5t148.5 -36.5t124.5 -71t82 -117t31.5 -170q0 -105 -44 -189t-120 -136t-174 -79.5t-210 -27.5h-146v-254l207 -80v-61h-666zM520 492h76q332 0 332 333q0 150 -72 232t-219 82h-117v-647z" />
<glyph unicode="&#xdf;" horiz-adv-x="1359" d="M0 0v59l182 80v889q0 135 37 224t119 157q149 125 391 125q80 0 154 -16t136.5 -47.5t100 -86t37.5 -124.5q0 -60 -33 -110.5t-108 -109.5l-119 -90q-43 -33 -61.5 -59.5t-18.5 -56.5q0 -25 6.5 -42.5t27.5 -35t36 -26.5t55 -32l178 -98q116 -65 162.5 -131t46.5 -166 q0 -143 -108 -234.5t-277 -91.5q-59 0 -190 23q-24 4 -64 13.5t-68 17.5l-28 8v244h125q29 -53 104 -199q49 0 127 8q144 24 144 135q0 49 -26.5 81.5t-96.5 72.5l-180 102q-96 56 -140.5 120t-44.5 147q0 58 23.5 105t85.5 110l80 79q49 49 67.5 89.5t18.5 93.5 q0 89 -51.5 138.5t-145.5 49.5q-114 0 -174 -63q-37 -40 -49 -93.5t-12 -175.5v-1083h-449z" />
<glyph unicode="&#xe0;" horiz-adv-x="1120" d="M55 256q0 100 62 166.5t176 91.5q91 21 309 43q31 2 64 6v244q0 64 -14.5 97t-51.5 52q-43 19 -108 19q-39 0 -68 -2l-96 -191h-174v209q9 2 62 16t93 23q167 45 275 45q141 0 233 -53q60 -35 84.5 -83t24.5 -130v-586q0 -33 2 -45q3 -10 13.5 -16t35.5 -12l133 -37v-56 l-149 -47q-80 -26 -148 -26q-57 0 -88 23.5t-51 80.5q-71 -35 -109 -53q-61 -30 -100 -40.5t-98 -10.5q-136 0 -224 75.5t-88 196.5zM174 1495h334l252 -317l-144 -2zM326 293q0 -78 50.5 -121t145.5 -43q33 0 131 16q11 5 13 5v337q-36 -5 -166 -28q-94 -19 -134 -56.5 t-40 -109.5z" />
<glyph unicode="&#xe1;" horiz-adv-x="1120" d="M55 256q0 100 62 166.5t176 91.5q91 21 309 43q31 2 64 6v244q0 64 -14.5 97t-51.5 52q-43 19 -108 19q-39 0 -68 -2l-96 -191h-174v209q9 2 62 16t93 23q167 45 275 45q141 0 233 -53q60 -35 84.5 -83t24.5 -130v-586q0 -33 2 -45q3 -10 13.5 -16t35.5 -12l133 -37v-56 l-149 -47q-80 -26 -148 -26q-57 0 -88 23.5t-51 80.5q-71 -35 -109 -53q-61 -30 -100 -40.5t-98 -10.5q-136 0 -224 75.5t-88 196.5zM326 293q0 -78 50.5 -121t145.5 -43q33 0 131 16l13 5v337q-36 -5 -166 -28q-94 -19 -134 -56.5t-40 -109.5zM416 1176l252 319h333 l-440 -319h-145z" />
<glyph unicode="&#xe2;" horiz-adv-x="1120" d="M55 256q0 100 62 166.5t176 91.5q91 21 309 43q31 2 64 6v244q0 64 -14.5 97t-51.5 52q-43 19 -108 19q-39 0 -68 -2l-96 -191h-174v209q9 2 62 16t93 23q167 45 275 45q141 0 233 -53q60 -35 84.5 -83t24.5 -130v-586q0 -33 2 -45q3 -10 13.5 -16t35.5 -12l133 -37v-56 l-149 -47q-80 -26 -148 -26q-57 0 -88 23.5t-51 80.5q-71 -35 -109 -53q-61 -30 -100 -40.5t-98 -10.5q-136 0 -224 75.5t-88 196.5zM168 1165l371 365l376 -365h-172l-204 135l-201 -135h-170zM326 293q0 -78 50.5 -121t145.5 -43q33 0 131 16q11 5 13 5v337 q-36 -5 -166 -28q-94 -19 -134 -56.5t-40 -109.5z" />
<glyph unicode="&#xe3;" horiz-adv-x="1120" d="M55 256q0 100 62 166.5t176 91.5q91 21 309 43q31 2 64 6v244q0 64 -14.5 97t-51.5 52q-43 19 -108 19q-39 0 -68 -2l-96 -191h-174v209q9 2 62 16t93 23q167 45 275 45q141 0 233 -53q60 -35 84.5 -83t24.5 -130v-586q0 -33 2 -45q3 -10 13.5 -16t35.5 -12l133 -37v-56 l-149 -47q-80 -26 -148 -26q-57 0 -88 23.5t-51 80.5q-71 -35 -109 -53q-61 -30 -100 -40.5t-98 -10.5q-136 0 -224 75.5t-88 196.5zM188 1288q30 40 74.5 87t79.5 75q32 29 82 29q45 0 102 -27l138 -66q48 -24 67 -24q18 0 43 19t94 85l70 -71q-75 -97 -154 -162 q-34 -29 -84 -29q-45 0 -102 27l-137 65q-50 25 -66 25q-18 0 -46.5 -21.5t-92.5 -82.5zM326 293q0 -78 50.5 -121t145.5 -43q33 0 131 16q11 5 13 5v337q-36 -5 -166 -28q-94 -19 -134 -56.5t-40 -109.5z" />
<glyph unicode="&#xe4;" horiz-adv-x="1120" d="M55 256q0 100 62 166.5t176 91.5q91 21 309 43q31 2 64 6v244q0 64 -14.5 97t-51.5 52q-43 19 -108 19q-39 0 -68 -2l-96 -191h-174v209q9 2 62 16t93 23q167 45 275 45q141 0 233 -53q60 -35 84.5 -83t24.5 -130v-586q0 -33 2 -45q3 -10 13.5 -16t35.5 -12l133 -37v-56 l-149 -47q-80 -26 -148 -26q-57 0 -88 23.5t-51 80.5q-71 -35 -109 -53q-61 -30 -100 -40.5t-98 -10.5q-136 0 -224 75.5t-88 196.5zM211 1317q0 57 33 89t94 32q60 0 93.5 -31t33.5 -86q0 -57 -32.5 -87t-94.5 -30q-127 0 -127 113zM326 293q0 -78 50.5 -121t145.5 -43 q33 0 131 16q11 5 13 5v337q-36 -5 -166 -28q-94 -19 -134 -56.5t-40 -109.5zM633 1319q0 57 33 88t94 31q60 0 93.5 -29.5t33.5 -83.5q0 -59 -33 -90t-96 -31q-61 0 -93 29.5t-32 85.5z" />
<glyph unicode="&#xe5;" horiz-adv-x="1120" d="M55 256q0 100 62 166.5t176 91.5q91 21 309 43q31 2 64 6v244q0 64 -14.5 97t-51.5 52q-43 19 -108 19q-39 0 -68 -2l-96 -191h-174v209q9 2 62 16t93 23q167 45 275 45q141 0 233 -53q60 -35 84.5 -83t24.5 -130v-586q0 -33 2 -45q3 -10 13.5 -16t35.5 -12l133 -37v-56 l-149 -47q-80 -26 -148 -26q-57 0 -88 23.5t-51 80.5q-71 -35 -109 -53q-61 -30 -100 -40.5t-98 -10.5q-136 0 -224 75.5t-88 196.5zM285 1352q0 176 266 176q264 0 264 -174q0 -183 -264 -183q-266 0 -266 181zM326 293q0 -78 50.5 -121t145.5 -43q33 0 131 16q11 5 13 5 v337q-36 -5 -166 -28q-94 -19 -134 -56.5t-40 -109.5zM428 1350q0 -47 33.5 -75t87.5 -28t88.5 28t34.5 73q0 47 -34.5 75.5t-88.5 28.5q-53 0 -87 -28.5t-34 -73.5z" />
<glyph unicode="&#xe6;" horiz-adv-x="1660" d="M68 254q0 191 211 254q128 38 393 57v230q0 67 -14.5 100.5t-51.5 50.5q-36 19 -112 19q-6 0 -31 -1t-33 -1l-94 -191h-176v207q281 84 430 84q178 0 270 -105q128 105 307 105q130 0 225.5 -52t145.5 -149q33 -62 45 -128.5t14 -186.5h-679q3 -109 22 -173t64 -122 q104 -131 307 -131q102 0 254 33l18 -82q-143 -49 -244 -72t-202 -23q-244 0 -377 179q-84 -84 -185.5 -131.5t-199.5 -47.5q-132 0 -219.5 79t-87.5 198zM332 293q0 -70 46 -114t120 -44q42 0 79.5 10.5t94.5 38.5v303q-130 -16 -219 -41q-63 -20 -92 -56.5t-29 -96.5z M918 631l407 37q-3 89 -14 137t-37 88q-46 74 -137 74q-56 0 -98 -28.5t-66.5 -78t-37.5 -106t-17 -123.5z" />
<glyph unicode="&#xe7;" horiz-adv-x="1017" d="M61 496q0 255 167.5 414t435.5 159q133 0 311 -53v-240h-170l-98 199q-29 0 -37 -2q-155 -13 -243.5 -136t-88.5 -296q0 -198 100 -310t289 -112q85 0 238 31l18 -82q-104 -33 -137 -43q-137 -34 -201 -41v-50q76 -11 122 -51t46 -112q0 -41 -21.5 -78.5t-55 -65t-83 -53 t-95.5 -42.5t-103 -34l-29 74q96 51 137 95.5t41 96.5q0 76 -80 89v127q-207 12 -335 154.5t-128 361.5z" />
<glyph unicode="&#xe8;" horiz-adv-x="1091" d="M61 506q0 132 48.5 248.5t134.5 193.5q142 127 346 127q127 0 224 -52t147 -146q30 -58 42 -126t17 -200l-680 2q0 -106 19 -174t65 -127q104 -131 301 -131q97 0 262 33l17 -82q-97 -31 -146 -45q-173 -50 -289 -50q-231 0 -369.5 145t-138.5 384zM172 1495h334 l252 -317l-144 -2zM340 641l405 39v-2q-3 158 -45 225q-25 40 -58.5 57t-84.5 17q-103 0 -155.5 -81t-61.5 -255z" />
<glyph unicode="&#xe9;" horiz-adv-x="1091" d="M61 506q0 132 48.5 248.5t134.5 193.5q142 127 346 127q127 0 224 -52t147 -146q30 -58 42 -125.5t17 -198.5h-680q0 -106 19 -174t65 -127q104 -131 301 -131q97 0 262 33l17 -82q-97 -31 -146 -45q-173 -50 -289 -50q-231 0 -369.5 145t-138.5 384zM340 641l405 39v-2 q-3 161 -45 225q-25 40 -58.5 57t-84.5 17q-103 0 -155.5 -81t-61.5 -255zM428 1176l252 319h334l-441 -319h-145z" />
<glyph unicode="&#xea;" horiz-adv-x="1091" d="M61 506q0 132 48.5 248.5t134.5 193.5q142 127 346 127q127 0 224 -52t147 -146q30 -58 42 -125.5t17 -198.5h-680q0 -106 19 -174t65 -127q104 -131 301 -131q97 0 262 33l17 -82q-97 -31 -146 -45q-173 -50 -289 -50q-231 0 -369.5 145t-138.5 384zM213 1165l371 365 l377 -365h-170l-207 135l-199 -135h-172zM340 641l405 39v-2q-3 158 -45 225q-25 40 -58.5 57t-84.5 17q-103 0 -155.5 -81t-61.5 -255z" />
<glyph unicode="&#xeb;" horiz-adv-x="1091" d="M61 506q0 132 48.5 248.5t134.5 193.5q142 127 346 127q127 0 224 -52t147 -146q30 -58 42 -125.5t17 -198.5h-680q0 -106 19 -174t65 -127q104 -131 301 -131q97 0 262 33l17 -82q-97 -31 -146 -45q-173 -50 -289 -50q-231 0 -369.5 145t-138.5 384zM242 1317 q0 58 32.5 89.5t94.5 31.5q60 0 93.5 -31t33.5 -86q0 -57 -32.5 -87t-94.5 -30q-127 0 -127 113zM340 641l405 39v-2q-3 161 -45 225q-25 40 -58.5 57t-84.5 17q-103 0 -155.5 -81t-61.5 -255zM662 1319q0 57 33 88t96 31q60 0 92 -29.5t32 -83.5q0 -59 -33 -90t-94 -31 t-93.5 29.5t-32.5 85.5z" />
<glyph unicode="&#xec;" horiz-adv-x="690" d="M-41 1495h334l252 -317l-144 -2zM39 0v59l186 82v738l-186 57v57l450 88v-940l185 -80v-61h-635z" />
<glyph unicode="&#xed;" horiz-adv-x="690" d="M39 0v59l186 82v738l-186 57v57l450 88v-940l185 -80v-61h-635zM139 1176l252 319h334l-440 -319h-146z" />
<glyph unicode="&#xee;" horiz-adv-x="690" d="M-31 1165l371 365l377 -365h-170l-207 135l-199 -135h-172zM39 0v59l186 82v738l-186 57v57l450 88v-940l185 -80v-61h-635z" />
<glyph unicode="&#xef;" horiz-adv-x="690" d="M4 1317q0 58 32.5 89.5t94.5 31.5q60 0 93.5 -31t33.5 -88v2q0 -57 -32.5 -87t-94.5 -30q-127 0 -127 113zM39 0v59l186 82v738l-186 57v57l450 88v-940l185 -80v-61h-635zM424 1319q0 57 33 88t96 31q60 0 92.5 -29.5t32.5 -83.5q0 -59 -33 -90t-94 -31t-94 29.5 t-33 85.5z" />
<glyph unicode="&#xf0;" horiz-adv-x="1222" d="M68 502q0 272 145.5 420.5t402.5 148.5q103 0 238 -53q-21 250 -225 391l-125 -170l-90 66l110 157q-129 66 -291 66h-45v102q49 10 101 10q204 0 329 -47l113 150l90 -64l-94 -129q104 -50 180 -119t123 -147.5t75 -180.5t38 -203t10 -230q0 -178 -40.5 -318.5 t-104.5 -212.5q-153 -172 -412 -172q-236 0 -382 144.5t-146 390.5zM344 520q0 -55 7.5 -111.5t26.5 -116.5t48 -106t76.5 -76t107.5 -30q55 0 97 23t69.5 55t46.5 92.5t28.5 107t14.5 127.5t5.5 126t0.5 130v19v-2q0 39 -8 157q-108 33 -241 33q-279 0 -279 -428z" />
<glyph unicode="&#xf1;" horiz-adv-x="1357" d="M41 0v59l184 82v740l-184 57v57l448 88v-120q73 31 170 65q91 31 122.5 39t76.5 8q65 0 125.5 -25t101.5 -69q44 -51 61 -110t17 -162v-568l185 -80v-61h-600v59l151 82v514q0 84 -13 127.5t-46 73.5q-55 55 -174 55q-85 0 -177 -14v-756l152 -80v-61h-600zM307 1288 q81 104 154 162q34 29 84 29q45 0 102 -27l137 -66q48 -24 66 -24q19 0 45 19.5t94 84.5l68 -71q-30 -40 -74.5 -87t-79.5 -75q-34 -29 -82 -29q-47 0 -102 27l-137 65q-58 25 -68 25q-18 0 -45 -21t-92 -83z" />
<glyph unicode="&#xf2;" horiz-adv-x="1224" d="M61 502q0 257 155.5 415t408.5 158q239 0 388.5 -146.5t149.5 -387.5q0 -250 -156.5 -412t-402.5 -162t-394.5 146.5t-148.5 388.5zM225 1495h334l250 -317l-141 -2zM342 541q0 -59 6.5 -116t25 -121.5t47.5 -112.5t79.5 -79.5t115.5 -31.5q78 0 133 39.5t82 106 t38.5 133t11.5 141.5h2q0 49 -4.5 97.5t-15.5 103.5t-32 100.5t-50.5 84t-74 60t-100.5 21.5q-126 0 -195 -111t-69 -315z" />
<glyph unicode="&#xf3;" horiz-adv-x="1224" d="M61 502q0 257 155.5 415t408.5 158q239 0 388.5 -146.5t149.5 -387.5q0 -250 -156.5 -412t-402.5 -162t-394.5 146.5t-148.5 388.5zM342 541q0 -59 6.5 -116t25 -121.5t47.5 -112.5t79.5 -79.5t115.5 -31.5q78 0 133 39.5t82 106t38.5 133t11.5 141.5h2q0 49 -4.5 97.5 t-15.5 103.5t-32 100.5t-50.5 84t-74 60t-100.5 21.5q-126 0 -195 -111t-69 -315zM463 1176l252 319h334l-441 -319h-145z" />
<glyph unicode="&#xf4;" horiz-adv-x="1224" d="M61 502q0 257 155.5 415t408.5 158q239 0 388.5 -146.5t149.5 -387.5q0 -250 -156.5 -412t-402.5 -162t-394.5 146.5t-148.5 388.5zM244 1165l370 365l377 -365h-170l-207 135l-198 -135h-172zM342 541q0 -59 6.5 -116t25 -121.5t47.5 -112.5t79.5 -79.5t115.5 -31.5 q78 0 133 39.5t82 106t38.5 133t11.5 141.5h2q0 49 -4.5 97.5t-15.5 103.5t-32 100.5t-50.5 84t-74 60t-100.5 21.5q-126 0 -195 -111t-69 -315z" />
<glyph unicode="&#xf5;" horiz-adv-x="1224" d="M61 502q0 257 155.5 415t408.5 158q239 0 388.5 -146.5t149.5 -387.5q0 -250 -156.5 -412t-402.5 -162t-394.5 146.5t-148.5 388.5zM248 1288q30 41 74 88t79 74q32 29 82 29q46 0 103 -27l137 -66q48 -24 68 -24q18 0 43 19t94 85l69 -71q-77 -99 -153 -162 q-34 -29 -84 -29q-46 0 -103 27l-137 65q-50 25 -65 25q-18 0 -47.5 -22t-92.5 -82zM342 541q0 -59 6.5 -116t25 -121.5t47.5 -112.5t79.5 -79.5t115.5 -31.5q78 0 133 39.5t82 106t38.5 133t11.5 141.5h2q0 49 -4.5 97.5t-15.5 103.5t-32 100.5t-50.5 84t-74 60 t-100.5 21.5q-126 0 -195 -111t-69 -315z" />
<glyph unicode="&#xf6;" horiz-adv-x="1224" d="M61 502q0 257 155.5 415t408.5 158q239 0 388.5 -146.5t149.5 -387.5q0 -250 -156.5 -412t-402.5 -162t-394.5 146.5t-148.5 388.5zM283 1317q0 57 33 89t94 32q60 0 93.5 -31t33.5 -86q0 -57 -32.5 -87t-94.5 -30q-127 0 -127 113zM342 541q0 -59 6.5 -116t25 -121.5 t47.5 -112.5t79.5 -79.5t115.5 -31.5q78 0 133 39.5t82 106t38.5 133t11.5 141.5h2q0 49 -4.5 97.5t-15.5 103.5t-32 100.5t-50.5 84t-74 60t-100.5 21.5q-126 0 -195 -111t-69 -315zM705 1319q0 57 32.5 88t93.5 31q60 0 93.5 -29.5t33.5 -83.5q0 -59 -33 -90t-96 -31 q-124 0 -124 115z" />
<glyph unicode="&#xf7;" horiz-adv-x="1228" d="M96 608v195h1037v-195h-1037zM469 315q0 60 41.5 103t101.5 43q62 0 104 -42.5t42 -103.5v2q0 -60 -42 -102.5t-102 -42.5t-102.5 41.5t-42.5 101.5zM469 1090q0 60 41.5 101.5t101.5 41.5t103 -41.5t43 -101.5t-42 -103t-102 -43t-102.5 43t-42.5 103z" />
<glyph unicode="&#xf8;" horiz-adv-x="1230" d="M66 504q0 258 156.5 411.5t402.5 153.5q107 0 211 -35l71 135l82 -45l-69 -131q247 -165 247 -461q0 -167 -76.5 -297t-206 -199t-288.5 -69q-102 0 -201 35l-65 -123l-82 41l65 121q-247 155 -247 463zM340 539q0 -96 14.5 -164.5t53.5 -157.5l358 684l2 -2 q-38 35 -72 48.5t-86 13.5q-131 0 -200.5 -109t-69.5 -313zM469 141q64 -61 158 -61q123 0 193.5 112.5t70.5 307.5q0 90 -14.5 160t-49.5 155z" />
<glyph unicode="&#xf9;" horiz-adv-x="1333" d="M4 938v57l449 88v-698q0 -77 11 -121t38 -74q28 -31 70 -44t112 -13q60 0 180 19v729l-184 57v57l448 88v-913l179 -55v-60l-443 -86v119q-10 -3 -84.5 -31.5t-95.5 -33.5q-67 -26 -104 -36t-78 -10q-65 0 -127 20.5t-99 57.5q-47 47 -67.5 111t-20.5 164v551zM244 1495 h334l251 -317l-143 -2z" />
<glyph unicode="&#xfa;" horiz-adv-x="1333" d="M4 938v57l449 88v-698q0 -77 11 -121t38 -74q28 -31 70 -44t112 -13q60 0 180 19v729l-184 57v57l448 88v-913l179 -55v-58l-443 -88v119q-10 -3 -84.5 -31.5t-95.5 -33.5q-67 -26 -104 -36t-78 -10q-65 0 -127 20.5t-99 57.5q-47 47 -67.5 111t-20.5 164v551zM504 1176 l252 319h334l-441 -319h-145z" />
<glyph unicode="&#xfb;" horiz-adv-x="1333" d="M4 938v57l449 88v-698q0 -77 11 -121t38 -74q28 -31 70 -44t112 -13q60 0 180 19v729l-184 57v57l448 88v-913l179 -55v-60l-443 -86v119q-10 -3 -84.5 -31.5t-95.5 -33.5q-67 -26 -104 -36t-78 -10q-65 0 -127 20.5t-99 57.5q-47 47 -67.5 111t-20.5 164v551zM285 1165 l370 365l377 -365h-170l-207 135l-198 -135h-172z" />
<glyph unicode="&#xfc;" horiz-adv-x="1333" d="M4 938v57l449 88v-698q0 -77 11 -121t38 -74q28 -31 70 -44t112 -13q60 0 180 19v729l-184 57v57l448 88v-913l179 -55v-58l-443 -88v119q-10 -3 -84.5 -31.5t-95.5 -33.5q-67 -26 -104 -36t-78 -10q-65 0 -127 20.5t-99 57.5q-47 47 -67.5 111t-20.5 164v551zM336 1317 q0 58 32.5 89.5t94.5 31.5q60 0 93.5 -31t33.5 -86q0 -57 -32.5 -87t-94.5 -30q-127 0 -127 113zM756 1319q0 57 33 88t96 31q60 0 92.5 -29.5t32.5 -83.5q0 -59 -33 -90t-94 -31t-94 29.5t-33 85.5z" />
<glyph unicode="&#xfd;" horiz-adv-x="1099" d="M-37 991v62h557v-60l-145 -71l174 -463q43 -113 63 -180l236 634l-143 78v62h419v-60l-123 -80l-452 -1091q-66 -160 -155.5 -228.5t-235.5 -68.5q-84 0 -166 18v215h166l53 -137q77 14 121.5 64.5t85.5 154.5l65 160l-387 920zM399 1176l250 319h334l-440 -319h-144z " />
<glyph unicode="&#xfe;" horiz-adv-x="1292" d="M31 -420l184 76v1673l-184 57v60l448 88v-576q56 26 142 62q138 55 206 55q171 0 287.5 -145t116.5 -355q0 -169 -78.5 -305t-218 -213t-313.5 -77q-87 0 -142 12v-334l228 -78v-61h-676v61zM479 94q59 -6 105 -6q147 0 241 88q129 123 129 344q0 110 -25 189t-70 122.5 t-99 62.5t-121 19t-160 -22v-797z" />
<glyph unicode="&#xff;" horiz-adv-x="1083" d="M-37 991v62h557v-60l-145 -71l174 -463q43 -113 63 -180l236 634l-143 78v62h419v-60l-123 -80l-452 -1091q-66 -160 -155.5 -228.5t-235.5 -68.5q-84 0 -166 18v215h166l53 -137q77 14 121.5 64.5t85.5 154.5l65 160l-387 920zM246 1317q0 57 33 89t94 32q60 0 93.5 -31 t33.5 -88v2q0 -57 -32.5 -87t-94.5 -30q-127 0 -127 113zM668 1319q0 57 33 88t94 31q60 0 93.5 -29.5t33.5 -83.5q0 -59 -33 -90t-96 -31q-61 0 -93 29.5t-32 85.5z" />
<glyph unicode="&#x152;" horiz-adv-x="1984" d="M72 698q0 348 203 558t538 210q95 0 197 -18h856v-336h-92l-103 234h-424v-564h346l76 195h94v-481h-92l-76 190h-348v-590h441l122 240h95l-31 -336h-924q-112 -23 -194 -23q-308 0 -496 198t-188 523zM371 741q0 -300 116.5 -477.5t315.5 -177.5q48 0 85.5 9.5 t88.5 33.5v1178q-47 28 -85.5 38.5t-92.5 10.5q-108 0 -191.5 -50t-134.5 -136.5t-76.5 -195t-25.5 -233.5z" />
<glyph unicode="&#x153;" horiz-adv-x="1884" d="M61 502q0 257 155.5 415t408.5 158q121 0 228 -48t161 -126q38 47 69 70q129 104 299 104q129 0 226.5 -52t144.5 -146q30 -58 42 -125.5t17 -198.5h-679q0 -106 19.5 -174.5t66.5 -126.5q104 -131 301 -131q97 0 262 33l16 -82q-98 -31 -147 -45q-173 -50 -287 -50 q-122 0 -217.5 44t-149.5 124q-68 -86 -169 -132t-224 -46q-247 0 -395 146.5t-148 388.5zM342 541q0 -59 6.5 -116t25 -121.5t47.5 -112.5t79.5 -79.5t115.5 -31.5q63 0 111.5 27.5t77.5 69.5t47 99.5t24.5 111.5t6.5 112q0 49 -4.5 97.5t-15.5 103.5t-32 100.5t-50.5 84 t-74 60t-100.5 21.5q-126 0 -195 -111t-69 -315zM1135 641l405 39v-2q-6 160 -47 225q-25 40 -58 57t-85 17q-102 0 -154 -81t-61 -255z" />
<glyph unicode="&#x178;" horiz-adv-x="1318" d="M-55 1389v61h635v-61l-154 -78l299 -477l289 477l-152 78v61h492v-61l-168 -80l-391 -582v-586l235 -80v-61h-747v59l237 82v525l-407 641zM377 1688q0 58 32.5 89t94.5 31q60 0 93.5 -30.5t33.5 -85.5q0 -57 -32.5 -87t-94.5 -30q-127 0 -127 113zM799 1690 q0 118 127 118q60 0 93.5 -29t33.5 -83q0 -59 -33 -90t-96 -31q-61 0 -93 29.5t-32 85.5z" />
<glyph unicode="&#x2c6;" horiz-adv-x="575" d="M-88 1165l371 365l379 -365h-173l-204 135l-201 -135h-172z" />
<glyph unicode="&#x2dc;" horiz-adv-x="575" d="M-88 1288q30 40 74.5 87t79.5 75q34 29 81 29q48 0 103 -27l137 -66q55 -24 68 -24q18 0 43 19t94 85l70 -71q-30 -40 -74.5 -87t-79.5 -75q-34 -29 -82 -29q-47 0 -102 27l-138 65q-58 25 -67 25q-18 0 -45 -21t-92 -83z" />
<glyph unicode="&#x2000;" horiz-adv-x="951" />
<glyph unicode="&#x2001;" horiz-adv-x="1903" />
<glyph unicode="&#x2002;" horiz-adv-x="951" />
<glyph unicode="&#x2003;" horiz-adv-x="1903" />
<glyph unicode="&#x2004;" horiz-adv-x="634" />
<glyph unicode="&#x2005;" horiz-adv-x="475" />
<glyph unicode="&#x2006;" horiz-adv-x="317" />
<glyph unicode="&#x2007;" horiz-adv-x="317" />
<glyph unicode="&#x2008;" horiz-adv-x="237" />
<glyph unicode="&#x2009;" horiz-adv-x="380" />
<glyph unicode="&#x200a;" horiz-adv-x="105" />
<glyph unicode="&#x2010;" horiz-adv-x="550" d="M20 469v199h510v-197z" />
<glyph unicode="&#x2011;" horiz-adv-x="550" d="M20 469v199h510v-197z" />
<glyph unicode="&#x2012;" horiz-adv-x="550" d="M20 469v199h510v-197z" />
<glyph unicode="&#x2013;" horiz-adv-x="1024" d="M0 471v197h1024v-197h-1024z" />
<glyph unicode="&#x2014;" horiz-adv-x="2048" d="M0 469v201h2048v-199z" />
<glyph unicode="&#x2018;" horiz-adv-x="595" d="M131 1153q0 134 71.5 209t209.5 111l34 -89q-77 -33 -106.5 -68t-32.5 -102q32 0 35 -2q58 -4 89.5 -34.5t31.5 -81.5q0 -61 -42.5 -97t-113.5 -36q-85 0 -130.5 49t-45.5 141z" />
<glyph unicode="&#x2019;" horiz-adv-x="598" d="M133 1335q0 61 41.5 97t112.5 36q87 0 132.5 -48.5t45.5 -141.5q0 -134 -73.5 -208t-211.5 -109l-35 88q77 31 107 66.5t33 101.5q-7 0 -18 1t-15 1q-119 12 -119 116z" />
<glyph unicode="&#x201a;" horiz-adv-x="598" d="M133 129q0 60 41.5 95.5t112.5 35.5q86 0 132 -49t46 -141q0 -133 -73.5 -207.5t-211.5 -110.5l-35 88q77 32 107 68t33 102q-31 0 -33 2q-119 12 -119 117z" />
<glyph unicode="&#x201c;" horiz-adv-x="960" d="M96 1153q0 134 71.5 209t209.5 111l35 -89q-78 -33 -107.5 -68t-32.5 -102q32 0 35 -2q58 -4 88.5 -34.5t30.5 -81.5h2q0 -61 -42.5 -97t-113.5 -36q-85 0 -130.5 49t-45.5 141zM518 1153q0 133 72 208.5t209 111.5l32 -89q-76 -33 -105.5 -68t-33.5 -102q33 0 35 -2 q60 -4 91.5 -34.5t31.5 -81.5q0 -61 -42.5 -97t-113.5 -36q-85 0 -130.5 49t-45.5 141z" />
<glyph unicode="&#x201d;" horiz-adv-x="960" d="M109 1335q0 61 41 97t112 36q86 0 131 -48t45 -142h2q0 -134 -73 -208t-211 -109l-35 88q77 31 106.5 66.5t32.5 101.5q-6 0 -17.5 1t-15.5 1q-118 12 -118 116zM528 1335q0 61 42.5 97t113.5 36q86 0 131 -48t45 -142q0 -134 -72 -208.5t-210 -108.5l-35 88 q76 31 105 66.5t34 101.5q-6 0 -18 1t-15 1q-59 6 -90 35.5t-31 80.5z" />
<glyph unicode="&#x201e;" horiz-adv-x="960" d="M109 129q0 59 41.5 95t111.5 36q86 0 131 -49t45 -141h2q0 -133 -73 -207.5t-211 -110.5l-35 88q77 32 106.5 68t32.5 102q-31 0 -33 2q-118 12 -118 117zM528 129q0 59 43 95t113 36q86 0 131 -49t45 -141q0 -133 -72 -207.5t-210 -110.5l-35 88q76 32 105 68t34 102 q-31 0 -33 2q-59 6 -90 36t-31 81z" />
<glyph unicode="&#x2022;" horiz-adv-x="1038" d="M143 741q0 155 110 266t265 111q156 0 266.5 -110.5t110.5 -266.5q0 -155 -110 -264.5t-267 -109.5q-155 0 -265 109.5t-110 264.5z" />
<glyph unicode="&#x2026;" horiz-adv-x="2072" d="M195 121q0 61 43.5 105t105.5 44q63 0 107.5 -43.5t44.5 -105.5q0 -63 -44.5 -107.5t-107.5 -44.5q-62 0 -105.5 44.5t-43.5 107.5zM887 121q0 62 44 105.5t107 43.5q62 0 106 -44t44 -105q0 -63 -44 -107.5t-106 -44.5q-63 0 -107 44.5t-44 107.5zM1577 121 q0 61 43.5 105t105.5 44q63 0 107.5 -43.5t44.5 -105.5q0 -63 -43.5 -107.5t-105.5 -44.5q-63 0 -107.5 44.5t-44.5 107.5z" />
<glyph unicode="&#x202f;" horiz-adv-x="380" />
<glyph unicode="&#x2039;" horiz-adv-x="557" d="M72 532l241 424h158l-246 -421l248 -410l-158 -2z" />
<glyph unicode="&#x203a;" horiz-adv-x="557" d="M88 123l248 422l-248 411h158l243 -409l-243 -424h-158z" />
<glyph unicode="&#x205f;" horiz-adv-x="475" />
<glyph unicode="&#x20ac;" horiz-adv-x="1501" d="M31 537l43 102h225v20q0 55 2 82h-266l45 103h237q54 256 248.5 399t483.5 143q177 0 401 -59v-338h-90l-103 279q-33 8 -92 8q-132 0 -238 -32t-186 -114q-112 -115 -149 -286h528l-45 -103h-500q-2 -25 -2 -75v-27h459l-43 -102h-405q32 -206 167 -325.5t359 -119.5 q25 0 80 4.5t67 9.5l113 281h92l-24 -336q-263 -71 -457 -71q-286 0 -463 147t-211 410h-276z" />
<glyph unicode="&#x2122;" horiz-adv-x="1562" d="M0 1309v200h594v-198l-37 -2l-70 129h-112v-557l112 -37v-51h-376v49l112 39v557h-114l-70 -129h-39zM618 793v49l93 39v540l-93 37v51h269l182 -462l184 462h269v-49l-92 -39v-540l92 -37v-51h-334v49l90 39v442l-213 -541h-51l-215 539v-440l92 -37v-51h-273z" />
<glyph unicode="&#x25fc;" horiz-adv-x="1054" d="M0 0v1055h1055v-1055h-1055z" />
</font>
</defs>
</svg>
