<?xml version="1.0" standalone="no"?>
<!DOCTYPE svg PUBLIC "-//W3C//DTD SVG 1.1//EN" "http://www.w3.org/Graphics/SVG/1.1/DTD/svg11.dtd" >
<svg xmlns="http://www.w3.org/2000/svg">
<metadata></metadata>
<defs>
<font id="swiftbold_italic" horiz-adv-x="1118" >
<font-face units-per-em="2048" ascent="1556" descent="-492" />
<missing-glyph horiz-adv-x="559" />
<glyph unicode="&#xfb01;" horiz-adv-x="1232" d="M-293 -367q0 57 35 98.5t84 41.5q43 0 76 -33t71 -115q71 41 103.5 124t46.5 212l100 977h-176l12 102h174l9 76q21 190 160.5 292.5t361.5 102.5q179 0 263.5 -33t84.5 -118q0 -55 -37 -94t-90 -39q-58 0 -95.5 38t-96.5 154q-2 0 -13 2t-18 2.5t-12 -2.5 q-134 9 -195.5 -59.5t-77.5 -212.5l-12 -109h590l-111 -862q0 -10 2.5 -17.5t5 -10.5t8 -9t7.5 -8l147 174l47 -43q-154 -295 -348 -295q-108 0 -108 99q0 17 4 57l104 815h-358l-78 -719q-28 -273 -86 -403q-62 -140 -173 -218.5t-247 -78.5q-164 0 -164 112z" />
<glyph unicode="&#xfb02;" horiz-adv-x="1224" d="M-293 -362q0 54 36 94.5t83 40.5q41 0 72 -31.5t75 -120.5q73 48 105 120t45 222l100 975h-176l12 102h174l9 76q20 184 156.5 288.5t351.5 104.5q106 0 202 -24l142 24l-164 -1331q0 -32 22 -45l148 172l47 -45q-84 -149 -169.5 -218t-180.5 -69q-57 0 -82 25.5 t-25 79.5q0 31 2 47l148 1182l-64 112q-6 0 -14 2t-11 2.5t-8 -2.5q-114 8 -183 -54t-85 -216l-12 -111h248l-13 -100h-243l-78 -731q-31 -301 -117 -449q-139 -239 -399 -239q-154 0 -154 117z" />
<glyph horiz-adv-x="0" />
<glyph horiz-adv-x="682" />
<glyph unicode="&#x9;" horiz-adv-x="559" />
<glyph unicode="&#xd;" horiz-adv-x="559" />
<glyph unicode=" "  horiz-adv-x="559" />
<glyph unicode="&#x09;" horiz-adv-x="559" />
<glyph unicode="&#xa0;" horiz-adv-x="559" />
<glyph unicode="!" horiz-adv-x="665" d="M109 90q0 72 40 112t113 40q71 0 104 -27.5t33 -85.5v2q0 -149 -155 -149q-135 0 -135 108zM227 360l43 867q1 12 2 34q1 30 2.5 44.5t5 38t9.5 34.5t17 26t27 21.5t39 11.5t54 5q135 0 135 -88q0 -16 -4 -40t-10 -52.5t-8 -38.5l-189 -863h-123z" />
<glyph unicode="&#x22;" horiz-adv-x="806" d="M164 1307q-3 47 0 69q6 43 39 68.5t82 25.5t74 -25.5t20 -70.5q-2 -18 -17 -67l-100 -349h-84zM502 1307q0 55 2 69q4 42 37.5 68t81.5 26q49 0 74.5 -26t19.5 -70q-2 -15 -15 -67l-102 -349h-82z" />
<glyph unicode="#" horiz-adv-x="1292" d="M61 399l29 150h215l55 282h-215l31 150h215l78 401h184l-78 -401h256l78 401h185l-78 -401h215l-31 -150h-215l-55 -282h215l-29 -150h-215l-78 -399h-184l78 399h-256l-78 -399h-184l77 399h-215zM489 549h256l56 282h-256z" />
<glyph unicode="$" horiz-adv-x="1099" d="M61 61l41 326h91l71 -283q66 -14 123 -14q4 0 18.5 1t24.5 1l66 508l-117 86q-101 73 -147 150t-46 172q0 92 35 162.5t96.5 113.5t133.5 67t159 33l17 123h96l-16 -121q151 -12 315 -57l-37 -317h-88l-72 266q-64 10 -129 10l-63 -475l104 -82q113 -86 157 -161t44 -179 q0 -173 -120 -279t-306 -126l-16 -125h-97l17 123q-183 24 -355 77zM418 1071q0 -63 33 -108t106 -101l53 420q-94 -19 -143 -72.5t-49 -138.5zM516 104q85 17 133.5 79t48.5 153q0 68 -28.5 110t-94.5 97z" />
<glyph unicode="%" horiz-adv-x="1378" d="M-43 0l1272 1436h192l-1271 -1436h-193zM55 1083q0 161 100 259t263 98q146 0 230.5 -79.5t84.5 -217.5q0 -158 -99.5 -258.5t-256.5 -100.5v-2q-149 0 -235.5 80.5t-86.5 220.5zM238 1081q0 -80 36 -123t105 -43q82 0 128 60t46 166q0 80 -37.5 124t-107.5 44 q-78 0 -124 -61.5t-46 -166.5zM649 283q0 160 100 258t263 98q146 0 230.5 -80.5t84.5 -218.5q0 -158 -100 -258t-258 -100h2q-150 0 -236 80t-86 221zM831 279q0 -80 36.5 -123t105.5 -43q81 0 127.5 60t46.5 165q0 81 -38 124.5t-108 43.5q-78 0 -124 -61t-46 -166z" />
<glyph unicode="&#x26;" horiz-adv-x="1406" d="M76 344q0 75 24.5 137t65.5 105t98 74t120 46.5t132 18.5q-153 23 -226 87.5t-73 197.5q0 79 31.5 143t83 104.5t119.5 68t136.5 39t139.5 11.5q297 0 297 -129q0 -56 -38.5 -96.5t-90.5 -40.5q-58 0 -94.5 39t-83.5 135q-124 -7 -186 -92.5t-62 -218.5 q0 -64 20.5 -105.5t61.5 -61t84.5 -26t107.5 -6.5h650l-13 -96h-155q-2 -174 -40 -304t-115 -222t-199.5 -138.5t-290.5 -46.5q-236 0 -370 100t-134 277zM346 358q0 -126 81.5 -197t227.5 -71q140 0 230 41q25 12 34.5 26.5t12.5 45.5l59 475h-241q-72 0 -129.5 -8 t-110.5 -30t-88 -57t-55.5 -92t-20.5 -133z" />
<glyph unicode="'" horiz-adv-x="552" d="M223 1307q0 55 2 69q6 43 39 68.5t80 25.5q49 0 75 -26t21 -70q-12 -54 -16 -67l-100 -349h-84z" />
<glyph unicode="(" horiz-adv-x="571" d="M92 233q0 226 52.5 471t142.5 439q94 200 248 360h124q-50 -72 -85.5 -144.5t-75.5 -182.5q-83 -223 -136 -524t-53 -554q0 -297 60 -477q15 -46 45 -100h-131q-65 91 -109 207q-82 215 -82 505z" />
<glyph unicode=")" horiz-adv-x="571" d="M-90 -479q89 124 162 327q82 223 135 524t53 554q0 300 -59 477q-17 49 -45 100h131q190 -265 190 -712q0 -227 -52 -471t-144 -439q-98 -210 -246 -360h-125z" />
<glyph unicode="*" horiz-adv-x="778" d="M43 1083l14 111l252 -23l-192 164l96 90l156 -211l-4 252h127l-60 -249l201 202l69 -84l-227 -164l258 23l-14 -111l-252 21l188 -158l-92 -88l-151 199v-246h-129l67 250l-207 -203l-69 88l227 158z" />
<glyph unicode="+" horiz-adv-x="1169" d="M74 594v205h428v420h207v-418h428v-205h-428v-442h-207v440h-428z" />
<glyph unicode="," horiz-adv-x="550" d="M33 -246q109 106 151 254h-14q-45 0 -69.5 26.5t-24.5 74.5q0 72 40 112.5t109 40.5q135 0 135 -139q0 -106 -73 -230t-187 -208z" />
<glyph unicode="-" horiz-adv-x="608" d="M61 463l23 192h487l-24 -192h-486z" />
<glyph unicode="." horiz-adv-x="550" d="M70 88q0 87 36 125.5t117 38.5q71 0 104 -27.5t33 -85.5q0 -82 -37 -120.5t-116 -38.5q-71 0 -104 25.5t-33 82.5z" />
<glyph unicode="/" horiz-adv-x="641" d="M0 -481l496 2048h145l-494 -2048h-147z" />
<glyph unicode="0" d="M78 455q0 78 9 162t30.5 175.5t53 176t79.5 161t106.5 133t138.5 90t171 33.5q180 0 276 -123.5t96 -353.5q0 -80 -9 -165t-29.5 -178t-51.5 -178t-79 -162.5t-107.5 -134.5t-140.5 -90.5t-175 -33.5q-181 0 -274.5 124t-93.5 364zM334 305q0 -126 35 -184t112 -58 q63 0 113.5 56.5t82 150.5t53.5 200t32.5 222.5t15 198t4.5 145.5l2 -2q0 135 -35.5 195.5t-115.5 60.5q-63 0 -114 -57.5t-82 -153.5t-53 -202.5t-32 -225.5t-14 -200t-4 -146z" />
<glyph unicode="1" d="M152 1044l10 78q173 54 377 156q69 35 98 55.5t57 52.5h109l-156 -1257l221 -66l-6 -63h-706l8 61l244 66l122 999z" />
<glyph unicode="2" d="M-10 0l12 96q120 107 264 254q204 207 312 346q155 199 155 371q0 118 -55 166.5t-172 58.5q-5 -8 -24.5 -44t-28 -50t-29.5 -42t-37.5 -40.5t-41.5 -23.5t-52 -11q-58 0 -95.5 35.5t-37.5 91.5q0 66 53 101q50 35 152.5 56t214.5 21q207 0 319.5 -80.5t112.5 -226.5 q0 -92 -51 -194.5t-142 -196.5q-174 -180 -577 -485h452l133 213h86l-69 -416h-854z" />
<glyph unicode="3" d="M39 145q0 55 37 94.5t90 39.5q22 0 41 -6t38 -22.5t32 -30.5t32 -44t29.5 -48t32.5 -58q156 14 237.5 87.5t81.5 223.5q0 254 -295 258h-41l13 96h34q164 5 250 87.5t86 244.5q0 106 -52.5 163t-154.5 60q-8 -15 -25 -49.5t-26 -51t-27 -42.5t-33.5 -38t-39.5 -22 t-51 -10q-55 0 -91 37t-36 94q0 66 61 105q46 29 143 49t195 20q188 0 293.5 -81.5t105.5 -227.5q0 -90 -31 -160t-87 -115.5t-125.5 -72.5t-155.5 -39q58 -4 108.5 -17.5t96 -38.5t78.5 -59.5t52 -85.5t19 -112q0 -85 -33.5 -153.5t-88 -112.5t-127 -73.5t-146 -41.5 t-149.5 -12q-53 0 -104 5t-118 20t-108 51t-41 89z" />
<glyph unicode="4" d="M-12 373l14 119l778 894h138l-103 -841h172l-22 -170h-170l-31 -246l178 -66l-6 -63h-610l8 61l207 66l32 246h-585zM188 545h404l72 557z" />
<glyph unicode="5" d="M20 141q0 58 38 98t94 40q61 0 106.5 -52t97.5 -159q342 24 342 366q0 126 -69 193t-199 67q-128 0 -246 -39l86 711h758l-22 -197h-633l-43 -342q70 17 105.5 22t88.5 5q190 0 312 -98t122 -283q0 -221 -160 -357t-421 -136q-64 0 -122.5 8t-113.5 25.5t-88 50t-33 77.5 z" />
<glyph unicode="6" d="M78 449q0 140 38.5 287t102.5 270q198 380 580 380q130 0 266 -43l-10 -88q-89 21 -168 21q-141 0 -233.5 -51t-161.5 -168q-69 -118 -115 -322q135 66 270 66q152 0 245 -91.5t93 -240.5q0 -219 -140 -360.5t-356 -141.5q-199 0 -305 124.5t-106 357.5zM328 338 q0 -281 168 -281q49 0 88.5 28t64.5 70.5t41.5 95.5t23.5 101t7 90q0 122 -50 179t-157 57q-75 0 -154 -35q-32 -144 -32 -305z" />
<glyph unicode="7" d="M102 0q449 557 791 1159h-518l-131 -258h-90l57 465h874l-12 -98l-659 -1268h-312z" />
<glyph unicode="8" d="M66 287q0 247 368 397l-51 39q-102 76 -144 141t-42 156q0 160 125.5 261t324.5 101q179 0 286 -76.5t107 -203.5q0 -119 -79.5 -195.5t-239.5 -144.5l51 -35q104 -74 157.5 -155.5t53.5 -190.5q0 -183 -135.5 -298.5t-353.5 -115.5q-195 0 -311.5 87t-116.5 233z M295 291q0 -109 58 -171.5t159 -62.5q105 0 169 69t64 183h3q0 81 -37 139.5t-140 133.5l-71 53q-205 -167 -205 -344zM418 1096q0 -64 33 -109.5t110 -103.5l96 -72q90 78 132 140t42 145q0 89 -53.5 142.5t-142.5 53.5q-94 0 -155.5 -55t-61.5 -141z" />
<glyph unicode="9" d="M55 20l11 91q88 -21 155 -21q149 0 245 55t165 179q61 107 102 286q-141 -61 -264 -61q-158 0 -249 91t-91 249q0 214 139 353.5t357 139.5q198 0 302.5 -123.5t104.5 -355.5q0 -132 -38.5 -277t-98.5 -266q-188 -380 -580 -380q-133 0 -260 40zM391 899q0 -231 201 -231 q35 0 86 10.5t74 26.5q28 143 28 321l2 -2q0 268 -159 268q-64 0 -112 -41t-72.5 -104.5t-36 -126t-11.5 -121.5z" />
<glyph unicode=":" horiz-adv-x="571" d="M68 86q0 87 37 126.5t118 39.5q70 0 102.5 -27.5t32.5 -87.5q0 -82 -37 -121t-116 -39q-70 0 -103.5 26.5t-33.5 82.5zM160 897q0 85 36 124.5t117 39.5q71 0 104.5 -27.5t33.5 -87.5q0 -82 -37.5 -121t-116.5 -39q-70 0 -103.5 27t-33.5 84z" />
<glyph unicode=";" horiz-adv-x="626" d="M55 -246q116 111 154 252q-57 0 -83 25.5t-26 79.5q0 69 40 110t108 41q135 0 135 -141v2q0 -107 -73 -230t-187 -208zM193 897q0 87 36 125.5t117 38.5q71 0 104 -27.5t33 -85.5q0 -82 -37 -121t-116 -39q-71 0 -104 26t-33 83z" />
<glyph unicode="&#x3c;" horiz-adv-x="1370" d="M92 653v78l1196 529v-213l-835 -355l835 -352v-213z" />
<glyph unicode="=" horiz-adv-x="1185" d="M74 367v190h1077v-190h-1077zM74 825v191h1077v-189z" />
<glyph unicode="&#x3e;" horiz-adv-x="1370" d="M106 125v213l836 354l-836 352v216l1197 -529v-78z" />
<glyph unicode="?" horiz-adv-x="1007" d="M117 1272q0 68 63 106q53 30 144 49t182 19q189 0 294 -77.5t105 -215.5q0 -154 -172 -350l-209 -238q-49 -54 -58.5 -73.5t-14.5 -61.5l-11 -70h-139l10 72q3 19 5.5 33t4 25t6.5 23t6.5 17.5t10 21t11 20.5t15.5 27t19 32l117 192q43 71 67 116.5t44 112t20 130.5 q0 97 -47 136.5t-139 41.5q-8 -15 -27 -49t-26.5 -47.5t-24 -38.5t-27.5 -35.5t-28 -24t-35.5 -18t-40.5 -4.5q-55 0 -90 36t-35 93zM190 92q0 73 39.5 111.5t114.5 38.5q72 0 103.5 -27t31.5 -90h2q0 -143 -151 -143q-73 0 -106.5 26t-33.5 84z" />
<glyph unicode="@" horiz-adv-x="1636" d="M84 666q12 185 80.5 343.5t182 272.5t273 179t345.5 65q143 0 263 -38.5t208 -112.5t133.5 -191.5t36.5 -265.5q-8 -143 -59 -259.5t-131 -191t-180.5 -114.5t-211.5 -40q-117 0 -113 74q2 27 9.5 68.5t16.5 83t11 51.5q-48 -62 -65 -83t-38.5 -45t-45.5 -46 q-111 -97 -195 -97q-83 0 -123 74.5t-32 210.5q8 127 53.5 246.5t118.5 202.5q162 188 409 188q74 0 191 -24l-148 -797q30 0 57 10q109 29 196.5 151.5t98.5 305.5q14 241 -114.5 379.5t-370.5 138.5q-161 0 -285 -53t-203.5 -149.5t-123.5 -223.5t-54 -285 q-17 -281 144 -431t446 -152q112 0 312 34l12 -71q-119 -37 -137 -41q-147 -43 -260 -43q-225 0 -389.5 82.5t-247 236t-70.5 357.5zM631 612q-3 -57 0.5 -89t14 -46t30.5 -14q19 0 41.5 12t87.5 60q34 25 151 122l86 467q-52 19 -96 19q-153 0 -233 -170 q-32 -64 -54 -161.5t-28 -199.5z" />
<glyph unicode="A" horiz-adv-x="1298" d="M-143 0l6 61l178 68l684 1311h145l258 -1309l170 -68l-6 -63h-561l6 61l144 68l-74 434h-406l-200 -432l129 -68l-8 -63h-465zM444 653h347l-58 328q-17 85 -28 203z" />
<glyph unicode="B" horiz-adv-x="1218" d="M-47 0l8 61l197 68l139 1171l-182 68l8 62h594q73 0 131 -7t116 -27.5t96.5 -54.5t62.5 -91.5t24 -135.5q0 -171 -108.5 -269t-282.5 -120q356 -33 356 -322q0 -88 -28 -157.5t-75.5 -115t-114 -75.5t-139.5 -42.5t-155 -12.5h-647zM391 84h135q162 0 245 84.5t83 243.5 q0 129 -74.5 197.5t-204.5 68.5h-114zM469 762h111q154 0 231.5 96t77.5 254h2q0 119 -57 176.5t-175 57.5h-120z" />
<glyph unicode="C" horiz-adv-x="1253" d="M72 555q0 187 52.5 349t151.5 284t252.5 192t343.5 70q65 0 133.5 -8t115.5 -17.5t128 -27.5l-45 -336h-86l-71 276q-58 6 -93 6q-129 0 -234 -43t-175.5 -116t-119 -173t-70 -211t-21.5 -233q0 -244 101.5 -358.5t316.5 -114.5q55 0 120 10l189 312h88l-72 -338 q-240 -98 -463 -98q-261 0 -401.5 148.5t-140.5 426.5z" />
<glyph unicode="D" horiz-adv-x="1431" d="M-47 0l8 61l193 68l137 1171l-176 68l8 62h602q120 0 215 -17.5t174 -58t131 -105t80.5 -159.5t28.5 -220q0 -196 -52.5 -356t-153.5 -274.5t-255 -177t-350 -62.5h-590zM391 96h115q122 0 222 45.5t167 121.5t112.5 176.5t66 207.5t20.5 219q0 467 -392 467h-167z" />
<glyph unicode="E" horiz-adv-x="1144" d="M-47 0l8 61l199 66l137 1173l-182 68l8 62h1005l-41 -332h-81l-68 248h-397l-68 -580h303l103 197h92l-58 -469h-88l-59 188h-303l-70 -598h391l160 246h94l-75 -330h-1010z" />
<glyph unicode="F" horiz-adv-x="1032" d="M-47 0l8 61l193 68l137 1171l-176 68l8 62h1001l-41 -332h-84l-69 248h-395l-66 -580h301l102 197h91l-54 -469h-90l-59 188h-301l-66 -551l219 -68l-8 -63h-651z" />
<glyph unicode="G" horiz-adv-x="1368" d="M76 547q0 197 54 362t156.5 286t261 189t357.5 68q137 0 387 -57l-37 -334h-90l-73 276q-13 1 -57.5 3.5t-63.5 2.5q-133 0 -241 -43.5t-180 -117.5t-120.5 -176t-70 -215.5t-21.5 -239.5q0 -182 68.5 -285t207.5 -135q130 -30 211 -30q14 0 27 1l25 2l41 369l-177 66 l9 63h618l-8 -61l-199 -68l-45 -395q-248 -101 -469 -101q-277 0 -424 146.5t-147 423.5z" />
<glyph unicode="H" horiz-adv-x="1501" d="M-47 0l8 61l199 68l135 1171l-180 68l8 62h612l-8 -62l-192 -68l-60 -520h567l60 520l-180 68l8 62h618l-8 -62l-197 -68l-137 -1169l180 -68l-6 -63h-618l6 61l199 68l65 561h-567l-66 -559l176 -68l-8 -63h-614z" />
<glyph unicode="I" horiz-adv-x="696" d="M-47 0l8 61l199 68l137 1171l-182 68l8 62h618l-6 -62l-198 -68l-138 -1169l183 -68l-9 -63h-620z" />
<glyph unicode="J" horiz-adv-x="690" d="M-279 -373q0 55 36 99.5t93 44.5q45 0 80 -35t72 -115q113 34 137 258l168 1421l-184 68l8 62h621l-9 -62l-192 -68l-148 -1267q-18 -152 -54.5 -239t-106.5 -154q-132 -129 -318 -129q-102 0 -152.5 27t-50.5 89z" />
<glyph unicode="K" horiz-adv-x="1304" d="M-47 0l8 61l195 68l139 1171l-180 68l8 62h616l-6 -62l-196 -68l-138 -1169l183 -68l-9 -63h-620zM498 774l528 526l-125 68l6 62h520l-8 -62l-198 -68l-494 -454l414 -715l178 -68l-8 -63h-375z" />
<glyph unicode="L" horiz-adv-x="997" d="M-47 0l8 66l199 63l137 1171l-182 68l8 62h618l-8 -62l-196 -68l-142 -1210h328l158 240h92l-76 -330h-944z" />
<glyph unicode="M" horiz-adv-x="1767" d="M-47 0l8 61l195 68l176 1171l-182 68l8 62h442l266 -1024l486 1024h450l-6 -62l-194 -68l-105 -1169l180 -68l-6 -63h-602l8 61l180 68l95 1032l-555 -1161h-64l-295 1165l-131 -1034l174 -68l-8 -63h-520z" />
<glyph unicode="N" horiz-adv-x="1390" d="M-51 0l6 61l199 68l137 1171l-182 68l8 62h387l543 -992l102 862l-180 68l6 62h502l-7 -62l-192 -68l-154 -1316h-88l-637 1153l-116 -1006l180 -68l-6 -63h-508z" />
<glyph unicode="O" horiz-adv-x="1349" d="M76 559q0 125 26.5 249t83 239.5t136 204t195 141.5t251.5 53q245 0 374.5 -157.5t129.5 -432.5q0 -142 -30.5 -274t-90 -242.5t-142 -192.5t-192.5 -128t-235 -46t-222.5 44t-159 123t-93 185t-31.5 234zM338 530q0 -456 270 -456q93 0 166 57.5t116.5 144.5t72 200 t39 212.5t10.5 192.5l2 -2q0 235 -67 351t-206 116q-70 0 -128.5 -32t-99 -85t-72.5 -125t-51 -146t-31 -155.5t-16.5 -147t-4.5 -125.5z" />
<glyph unicode="P" horiz-adv-x="1157" d="M-47 0l8 61l197 68l139 1171l-182 68l8 62h588q446 0 446 -357q0 -194 -132.5 -318t-342.5 -124q-67 0 -139 20l12 78q10 0 25 -1t20 -1q140 0 216.5 98.5t76.5 268.5q0 132 -61.5 192t-190.5 60h-100l-142 -1215l219 -68l-8 -63h-657z" />
<glyph unicode="Q" horiz-adv-x="1351" d="M61 555q0 126 27 251t84 240.5t138 204.5t197.5 142t252.5 53q243 0 371.5 -160t128.5 -434q0 -133 -29.5 -260.5t-87.5 -243t-156.5 -204t-224.5 -128.5q45 -23 100 -52t88 -46l197 -98q98 -49 162.5 -69.5t124.5 -20.5q70 0 192 58q2 1 3.5 1.5t3 1.5t3.5 2l41 -67v2 q-230 -193 -368 -193q-56 0 -115.5 20t-161.5 74q-183 99 -389 236q-14 9 -68 43.5t-108 71.5q-200 36 -303 185t-103 390zM324 530q0 -97 12 -173t40.5 -143t83.5 -103.5t134 -36.5q94 0 167.5 58t117 145.5t72 201.5t38.5 213t10 193q0 232 -66.5 346.5t-205.5 114.5 q-69 0 -127.5 -32t-99.5 -85t-72.5 -124.5t-50.5 -146t-31.5 -156t-17 -147t-4.5 -125.5z" />
<glyph unicode="R" horiz-adv-x="1269" d="M-47 0l8 61l197 68l139 1171l-182 68l8 62h573q73 0 133 -7.5t120.5 -29t102 -56t67.5 -92.5t26 -135q0 -177 -107 -283t-282 -127l358 -569l172 -65l-10 -66h-371l-393 674h-49l-64 -543l176 -68l-8 -63h-614zM473 758h98q153 0 231.5 98.5t78.5 253.5v-2 q0 113 -59 175.5t-171 62.5h-108z" />
<glyph unicode="S" horiz-adv-x="1024" d="M25 66l38 340h91l73 -297q86 -13 133 -13q138 0 220 64.5t82 191.5q0 70 -34.5 122t-101.5 101l-186 144q-193 149 -193 336q0 125 64 216t169.5 135t237.5 44q138 0 369 -59l-37 -330h-92l-67 276q-67 13 -123 13q-129 0 -209 -58t-80 -170q0 -114 127 -211l192 -145 q109 -82 156 -164.5t47 -189.5q0 -185 -134.5 -306.5t-338.5 -121.5q-92 0 -278 47q-81 21 -125 35z" />
<glyph unicode="T" horiz-adv-x="1105" d="M51 1067l41 363h1102l-45 -363h-88l-68 272h-243l-140 -1208l224 -68l-9 -63h-698l8 61l236 68l139 1210h-240l-133 -272h-86z" />
<glyph unicode="U" horiz-adv-x="1406" d="M86 1368l8 62h619l-8 -62l-193 -68l-98 -866q-11 -79 -11 -119q0 -114 68 -174.5t193 -60.5q168 0 246.5 83.5t99.5 264.5l102 872l-180 68l8 62h539l-9 -62l-192 -68l-98 -843q-29 -248 -166.5 -369t-388.5 -121q-137 0 -240.5 39t-165 122t-61.5 202q0 30 8 104 l102 866z" />
<glyph unicode="V" horiz-adv-x="1282" d="M10 1368l6 62h562l-9 -62l-139 -68l170 -909q0 -1 14 -115l490 1024l-129 68l8 62h469l-6 -62l-178 -68l-682 -1310h-144l-258 1310z" />
<glyph unicode="W" horiz-adv-x="1998" d="M10 1368l6 62h551l-8 -62l-137 -68l127 -768q14 -88 24 -225l490 1123h137l139 -918q19 -128 27 -238l453 1026l-129 68l6 62h471l-6 -62l-183 -68l-628 -1316h-158l-166 1073l-469 -1073h-156l-221 1316z" />
<glyph unicode="X" horiz-adv-x="1402" d="M-51 0l6 61l178 68l463 604l-287 567l-172 68l6 62h578l-8 -62l-140 -68l211 -409l275 409l-123 68l6 62h477l-8 -62l-176 -68l-397 -512l331 -657l174 -68l-8 -63h-581l8 61l143 68l-252 492l-329 -490l129 -68l-9 -63h-495z" />
<glyph unicode="Y" horiz-adv-x="1198" d="M10 1368l6 62h574l-8 -62l-144 -68l226 -567l348 567l-133 68l8 62h479l-6 -62l-174 -68l-477 -706l-56 -463l219 -68l-8 -63h-692l8 61l232 68l57 469l-289 702z" />
<glyph unicode="Z" horiz-adv-x="1187" d="M-6 0l12 88l881 1245h-498l-135 -272h-92l45 369h987l-10 -72l-891 -1262h512l184 310h86l-76 -406h-1005z" />
<glyph unicode="[" horiz-adv-x="569" d="M55 -475l244 1984h352l-10 -96h-149l-222 -1790h150l-10 -98h-355z" />
<glyph unicode="\" horiz-adv-x="641" d="M0 1567h145l496 -2048h-147z" />
<glyph unicode="]" horiz-adv-x="569" d="M-90 -475l10 96h150l221 1792h-150l13 96h352l-244 -1984h-352z" />
<glyph unicode="^" horiz-adv-x="1214" d="M158 623l407 886h82l408 -886h-197l-252 577l-250 -577h-198z" />
<glyph unicode="_" horiz-adv-x="1024" d="M0 -154h1024v-102h-1024v102z" />
<glyph unicode="`" horiz-adv-x="569" d="M-10 1513h295l186 -319h-129z" />
<glyph unicode="a" horiz-adv-x="1120" d="M49 332q0 143 44.5 277t123.5 227q179 215 488 215q98 0 270 -33l-103 -842q0 -10 3 -17t4.5 -9.5t10 -9t9.5 -7.5l148 174l47 -41q-65 -124 -150 -203q-94 -88 -196 -88q-60 0 -87.5 25t-27.5 76q0 33 2 45l20 160q-88 -131 -191 -219.5t-200 -88.5q-100 0 -157.5 96 t-57.5 263zM303 334q0 -107 15.5 -152t50.5 -45q19 0 44 15.5t99 72.5q46 36 152 123l71 582q-56 20 -106 20q-165 0 -244 -168q-37 -78 -59.5 -200.5t-22.5 -247.5z" />
<glyph unicode="b" horiz-adv-x="1056" d="M-4 1374l8 58l467 75l-94 -768q42 63 87 116.5t98 101.5t110.5 76t111.5 28q101 0 159 -94t58 -258q0 -150 -45 -284.5t-127 -231.5q-179 -209 -477 -209q-146 0 -293 36l166 1323zM299 106q74 -22 121 -22q160 0 239 158q38 77 62 202.5t24 255.5q0 108 -14 151.5 t-49 43.5q-23 0 -56.5 -20.5t-107.5 -81.5q-25 -20 -71 -58.5t-78 -64.5z" />
<glyph unicode="c" horiz-adv-x="854" d="M55 356q0 140 42 267.5t115.5 223.5t182 153t234.5 57q115 0 176 -33.5t61 -93.5q0 -62 -39 -105t-96 -43q-46 0 -86.5 40.5t-87.5 135.5q-64 -18 -114 -71.5t-79 -128t-44 -159.5t-15 -175q0 -291 158 -291q94 0 272 139l49 -55q-118 -127 -214.5 -182t-200.5 -55 q-147 0 -230.5 99.5t-83.5 276.5z" />
<glyph unicode="d" horiz-adv-x="1148" d="M55 334q0 157 48.5 291t136.5 231q176 195 438 195q28 0 92 -11l39 303l-234 31l9 58l475 75l-166 -1329q0 -8 1 -14.5t4.5 -11t5.5 -6.5t7 -6t7 -5l149 174l47 -41q-85 -152 -169 -222.5t-179 -70.5q-58 0 -84.5 24.5t-26.5 76.5q0 31 2 47l23 176q-88 -137 -198 -231.5 t-214 -94.5q-101 0 -157 95t-56 266zM309 332q0 -100 16 -148q15 -46 45 -45h3q32 0 125 70q29 23 190 156l68 565l2 -2q-69 20 -119 20q-164 0 -246 -162q-36 -73 -60 -202.5t-24 -251.5z" />
<glyph unicode="e" horiz-adv-x="913" d="M55 367q0 140 45.5 272.5t122.5 224.5q78 93 180.5 143t214.5 50q118 0 181 -52t63 -149q0 -95 -54.5 -166.5t-156.5 -111.5q-123 -51 -348 -68q-4 -20 -4 -68q0 -303 172 -303q56 0 121.5 36t152.5 104l54 -62q-231 -240 -428 -240q-148 0 -232 103.5t-84 286.5z M305 588q154 16 236 63q46 28 74 82t28 115q0 51 -25.5 79.5t-72.5 28.5q-104 0 -170 -120q-55 -102 -70 -248z" />
<glyph unicode="f" horiz-adv-x="630" d="M-293 -362q0 54 37 96.5t84 42.5q41 0 75.5 -34.5t71.5 -111.5q70 43 103 126t45 208l98 973h-174l12 102h174l11 109q12 109 51.5 178.5t112.5 114.5q122 78 288 78q129 0 181.5 -38t52.5 -93q0 -42 -33.5 -82.5t-89.5 -40.5q-18 0 -33 3t-29.5 13t-23 16t-23 26 t-19.5 27t-23 36.5t-23 37.5q-62 -9 -94 -41q-28 -30 -39 -60.5t-21 -123.5l-18 -160h248l-13 -100h-245l-76 -729q-33 -305 -115 -447q-66 -116 -167 -177.5t-228 -61.5q-77 0 -117.5 29t-40.5 84z" />
<glyph unicode="g" horiz-adv-x="1052" d="M-92 -250q0 60 92 143t209 150q-96 48 -96 119q0 48 50.5 99t178.5 132q-133 17 -206 89t-73 188q0 164 128.5 275.5t318.5 111.5q149 0 252 -76l332 86l-27 -209l-258 72q68 -82 68 -191q0 -103 -59.5 -186.5t-153 -127.5t-197.5 -44q-27 0 -45 4q-27 -26 -41 -40 t-27.5 -35t-13.5 -36q0 -23 18 -35.5t64 -21.5l330 -67q142 -31 180 -72q47 -47 47 -117q0 -97 -57 -181t-149 -138.5t-203.5 -85.5t-223.5 -31q-74 0 -149 14.5t-140.5 41.5t-107 71t-41.5 98zM92 -229q0 -62 79.5 -103t197.5 -41q96 0 189.5 32t151.5 84t58 105 q0 35 -33 57.5t-112 39.5l-353 80q-69 -73 -82 -88q-96 -112 -96 -166zM303 655q0 -94 36 -143t105 -49q63 0 108.5 50t65 119t19.5 144h2q0 94 -36 144.5t-103 50.5q-62 0 -108.5 -51.5t-67.5 -121.5t-21 -143z" />
<glyph unicode="h" horiz-adv-x="1105" d="M0 1374l6 58l475 77l-96 -772q98 156 206.5 238t215.5 82q69 0 106 -33.5t37 -97.5q0 -6 -1 -23t-1 -24l-88 -697q1 -11 -0.5 -15t3 -10.5t5 -8t6.5 -7t7 -6.5l149 174l45 -43q-71 -138 -162 -214.5t-186 -76.5q-111 0 -111 105q0 4 5 49l90 702l2 23q3 43 -29 43 q-23 0 -59.5 -23t-106.5 -83q-54 -44 -141 -127l-82 -664h-229l165 1343z" />
<glyph unicode="i" horiz-adv-x="606" d="M0 768q152 293 346 293q59 0 86 -24.5t27 -78.5q0 -29 -4 -45l-97 -737q0 -9 2.5 -16.5t5 -11t7 -8.5t6.5 -7l149 174l47 -45v2q-75 -143 -164 -219t-182 -76q-58 0 -85 26.5t-27 80.5q0 33 2 49l100 731q0 12 -3.5 19.5t-11.5 15t-9 8.5l-150 -168zM254 1294 q0 75 41 116.5t117 41.5q123 0 123 -111q0 -74 -41 -113.5t-117 -39.5q-59 0 -91 27t-32 79z" />
<glyph unicode="j" horiz-adv-x="573" d="M-256 -367q0 53 36 95.5t81 42.5q42 0 71.5 -29.5t75.5 -116.5q69 43 97.5 119t39.5 190l95 916q2 14 -1 22t-12 16t-10 9l-147 -168l-47 35q78 151 162 224t180 73q60 0 87 -25t27 -78q0 -29 -2 -45l-96 -882q-17 -156 -48.5 -236.5t-99.5 -142.5q-65 -59 -152 -93 t-173 -34q-164 0 -164 108zM272 1292q0 75 40.5 117.5t113.5 42.5q123 0 123 -111q0 -73 -40 -113t-114 -40q-59 0 -91 26.5t-32 77.5z" />
<glyph unicode="k" horiz-adv-x="1019" d="M0 1374l6 58l467 77l-182 -1509h-232l168 1343zM375 567q298 223 348 267q-37 62 -37 96q0 56 47.5 88.5t130.5 32.5q142 0 142 -86q0 -39 -38 -81.5t-128 -99.5l-252 -159q143 -301 174 -353q11 -19 30 -54.5t31 -56t17 -24.5l151 168l47 -41q-61 -117 -148.5 -200.5 t-172.5 -83.5q-48 0 -81.5 37.5t-76.5 129.5q-106 228 -184 420z" />
<glyph unicode="l" horiz-adv-x="559" d="M0 1374l6 58l469 77l-164 -1335q0 -7 1.5 -13t3 -9.5t4.5 -7t4.5 -4.5t5 -3.5t4.5 -3.5l147 172l47 -45q-74 -141 -163.5 -214t-182.5 -73q-57 0 -83.5 25t-26.5 80q0 4 1 20t1 23l153 1222z" />
<glyph unicode="m" horiz-adv-x="1695" d="M0 762q80 150 164 222.5t180 72.5q115 0 115 -103q0 -29 -2 -43l-23 -176q206 322 416 322q69 0 106 -32t37 -91q0 -42 -2 -60l-18 -139q83 138 193.5 230t226.5 92q70 0 108.5 -33.5t38.5 -95.5q0 -35 -2 -51l-90 -709q0 -9 4.5 -16t10.5 -12.5t7 -6.5l148 172l47 -41 q-70 -138 -161 -213.5t-185 -75.5q-58 0 -84.5 25.5t-26.5 79.5q0 29 2 41l90 708q0 2 1.5 13t1.5 14q0 41 -29 41q-25 0 -57 -20t-109 -86q-46 -37 -143 -129l-82 -662h-230l103 827q6 31 2 35q1 17 -6.5 26t-20.5 9q-20 0 -47.5 -17.5t-89.5 -68.5q-68 -56 -168 -149 l-82 -662h-229l104 856q-1 9 -4.5 16t-7 10.5t-8.5 7.5t-6 5l-148 -170z" />
<glyph unicode="n" horiz-adv-x="1150" d="M0 764q77 148 162 220.5t184 72.5q111 0 111 -101q0 -29 -2 -45l-23 -176q98 156 206 239t212 83q69 0 107 -34t38 -95q0 -35 -2 -51l-90 -701q0 -10 2.5 -17t4 -9.5t7.5 -8t7 -6.5l149 172l47 -43q-74 -140 -163.5 -214.5t-184.5 -74.5q-108 0 -108 101q0 33 2 49 l92 704q0 1 1 12t1 15q0 41 -29 41q-17 0 -59.5 -27.5t-87.5 -66.5q-114 -96 -160 -139l-80 -664h-231l106 852q0 10 -3 18t-6 11.5t-9 8.5t-8 7l-148 -170z" />
<glyph unicode="o" horiz-adv-x="1028" d="M55 418q0 177 71 325t194.5 233t271.5 85q177 0 279 -117.5t102 -322.5q0 -180 -71.5 -330.5t-195 -237t-270.5 -86.5q-179 0 -280 119.5t-101 331.5zM301 340q0 -279 152 -279q63 0 113.5 49.5t79 121.5t47.5 161.5t25.5 160t6.5 126.5v-2q0 149 -38 219t-116 70 q-64 0 -114 -51t-78.5 -124t-47 -164.5t-24.5 -161.5t-6 -126z" />
<glyph unicode="p" horiz-adv-x="1128" d="M-127 -471l6 55l207 76l147 1196q0 13 -2.5 20t-12.5 14.5t-11 8.5l-148 -168l-45 35q85 155 166 225t176 70q60 0 88.5 -25.5t28.5 -79.5q0 -3 -1 -18t-1 -23l-25 -176q228 322 412 322q100 0 156.5 -94t56.5 -260q0 -154 -44.5 -287t-127.5 -230q-85 -97 -197.5 -151.5 t-226.5 -54.5q-55 0 -117 16l-43 -340l232 -76l-6 -55h-668zM371 111q54 -25 118 -25q172 0 248 178q76 179 76 449q0 102 -14 143t-49 41q-36 0 -164 -104q-95 -76 -148 -125z" />
<glyph unicode="q" horiz-adv-x="1077" d="M51 334q0 142 42.5 270.5t120 228.5t198 159t266.5 59q72 0 180 -33l143 65l-176 -1421l191 -78l-8 -55h-631l8 55l213 76l78 639q-35 -53 -77.5 -104.5t-97 -104t-116.5 -85t-119 -32.5q-64 0 -109 36t-66.5 94.5t-30.5 115t-9 115.5zM307 296q0 -9 0.5 -28t2.5 -31 t4.5 -28.5t7.5 -27.5t11.5 -21.5t16 -15.5t21.5 -5q27 0 88 43t135.5 106.5t87.5 73.5l70 566l2 -2q-70 24 -125 24q-58 0 -106 -23.5t-81 -61t-58 -91t-39 -107.5t-23 -116t-12 -111.5t-3 -99.5v-18.5v-25.5z" />
<glyph unicode="r" horiz-adv-x="837" d="M4 762q153 295 344 295q115 0 115 -101q0 -13 -4 -67q-21 -152 -27 -189q93 155 135 210q113 147 219 147q52 0 80.5 -27.5t28.5 -71.5q0 -69 -40 -127.5t-105 -58.5q-10 0 -20 2t-17 4t-16.5 7.5t-14 8.5t-14 11.5t-12 10.5t-12.5 12.5t-11 11.5q-43 -38 -107.5 -108 t-101.5 -116l-76 -616h-231l106 852q0 8 -1.5 14t-4.5 11t-5 7.5t-7 7t-6 5.5l-150 -170z" />
<glyph unicode="s" horiz-adv-x="763" d="M-10 125q0 52 38 89.5t89 37.5q52 0 86.5 -34.5t93.5 -143.5l16 2q74 6 117 47t43 108q0 35 -17.5 66.5t-62.5 73.5l-184 176q-63 60 -90 111t-27 112q0 129 107.5 210t279.5 81q128 0 194 -36.5t66 -96.5q0 -56 -37 -98t-88 -42t-86 43.5t-79 139.5q-65 -5 -103.5 -39.5 t-38.5 -91.5q0 -66 84 -144l156 -147q72 -68 99.5 -119.5t27.5 -120.5q0 -152 -109 -240.5t-293 -88.5q-129 0 -205.5 40t-76.5 105z" />
<glyph unicode="t" horiz-adv-x="700" d="M25 938l12 102h170l31 240h231l-31 -240h297l-10 -100h-299l-84 -676q0 -8 -1 -23t-1 -18q0 -57 39 -57q22 0 52 19.5t87 70.5q39 33 105 96l59 -49q-91 -128 -193 -217q-65 -56 -120.5 -81t-116.5 -25q-72 0 -111 41.5t-39 119.5q0 44 2 62l93 735h-172z" />
<glyph unicode="u" horiz-adv-x="1150" d="M0 770q148 291 344 291q59 0 86 -24t27 -76q0 -18 -4 -46l-93 -706q-2 -12 -2 -31q0 -41 29 -41q25 0 57 21.5t111 89.5q40 34 141 129l82 663h230l-105 -864q0 -10 2 -17.5t4.5 -10.5t7.5 -7.5t7 -7.5l149 174l47 -41q-165 -291 -346 -291q-58 0 -85 25t-27 76 q0 33 2 47l22 180q-203 -330 -418 -330q-69 0 -107 34.5t-38 96.5q0 9 1 31.5t1 24.5l92 698q2 12 -1.5 19.5t-11 13.5t-9.5 8l-150 -166z" />
<glyph unicode="v" horiz-adv-x="960" d="M-10 772q96 289 270 289q22 0 40 -6.5t30.5 -15.5t23 -28t17 -35.5t12.5 -47t9.5 -52t8.5 -61.5q35 -240 60 -465q2 -23 7 -75t9 -93q119 227 172 357q49 117 86 219q-8 11 -27 35.5t-25.5 35t-16.5 29.5t-13.5 37t-3.5 41q0 57 46 91t112 34q143 0 143 -103 q0 -30 -17 -82.5t-53 -128.5t-58.5 -123t-67 -131t-45.5 -87q-120 -223 -232 -400l-168 -31l-139 869q-4 26 -29 43l-102 -146z" />
<glyph unicode="w" horiz-adv-x="1523" d="M-10 772q98 289 270 289q45 0 71 -18.5t38 -61.5q27 -99 51 -276q43 -318 57 -484l305 809l140 17l127 -854q111 190 192 405q7 18 59 156q-7 10 -21.5 30.5t-20.5 29.5t-16 26.5t-14 30t-7.5 30t-3.5 35.5q0 57 46 92t113 35q68 0 102.5 -27t34.5 -75q0 -90 -182 -437 q-97 -189 -159 -300.5t-132 -217.5l-159 -31l-115 736l-268 -705l-189 -31l-137 873q-1 8 -5 15t-7 10t-8.5 8t-6.5 6l-104 -146z" />
<glyph unicode="x" horiz-adv-x="1024" d="M31 82q0 70 80 162q132 144 290 284l-157 332q-11 18 -29 25l-100 -144l-54 31q52 151 113 220t141 69q47 0 73 -24.5t63 -102.5l139 -293q23 23 71.5 79.5t65.5 80.5q-47 74 -47 139q0 57 38 89t107 32q59 0 94 -26.5t35 -71.5q0 -75 -120 -203q-77 -82 -207 -199 l182 -387q4 -8 9 -12.5t11 -6.5t7 -3l100 143l53 -33q-38 -117 -104.5 -199.5t-147.5 -82.5q-51 0 -76 22t-59 96l-160 344q-27 -27 -88 -97.5t-90 -106.5q51 -79 51 -136t-40 -89.5t-111 -32.5q-63 0 -98 26.5t-35 75.5z" />
<glyph unicode="y" horiz-adv-x="978" d="M-129 -369q0 58 35.5 100t85.5 42q41 0 72.5 -34.5t60.5 -92.5q43 21 74 51.5t75 93.5q53 77 105 168l-189 893q-6 21 -32 37l-101 -144l-51 31q100 285 268 285q60 0 90.5 -37.5t53.5 -140.5q0 -13 22 -123q7 -36 43 -234q29 -162 43 -305q69 144 146 324q58 128 88 211 q-46 61 -64 99t-18 79q0 56 45.5 91.5t112.5 35.5q137 0 137 -103q0 -32 -19.5 -84t-74.5 -169q-75 -165 -263 -533q-102 -194 -194 -352q-176 -299 -383 -299q-80 0 -124 28t-44 82z" />
<glyph unicode="z" horiz-adv-x="897" d="M-16 37q0 34 67 115l627 753q-50 -34 -92.5 -46.5t-108.5 -12.5q-59 0 -239 22l-101 -149l-51 31q42 120 96 198q77 105 191 105q28 0 64.5 -4.5t65 -10t83.5 -17t90 -17.5q40 -9 51 -9q19 0 28.5 5.5t24.5 25.5q26 29 62 29q26 0 42.5 -15.5t16.5 -38.5q0 -20 -8 -33.5 t-47 -60.5l-641 -766q52 33 99.5 45.5t123.5 12.5q75 0 289 -19l100 148l51 -33q-35 -117 -88 -201q-39 -64 -79 -88t-105 -24q-90 0 -324 51q-90 20 -114 20q-20 0 -28.5 -7t-29.5 -38q-15 -24 -49 -24q-30 0 -48.5 14.5t-18.5 38.5z" />
<glyph unicode="{" horiz-adv-x="835" d="M57 541l2 10q152 39 206 101.5t73 213.5l20 170q20 155 47.5 229.5t86.5 131.5q64 63 153.5 94t220.5 37l-10 -82q-72 -8 -119 -29.5t-82 -64.5q-34 -43 -49.5 -92t-27.5 -150l-17 -125q-15 -128 -34 -196t-54 -117q-74 -105 -242 -125q162 -18 211 -125 q24 -51 25.5 -130t-12.5 -181l-17 -127q-12 -101 -8 -150.5t29 -89.5q25 -43 66.5 -65t111.5 -29l-10 -84q-246 6 -344 131q-45 58 -54 130t11 228l20 172q19 152 -20.5 214t-182.5 100z" />
<glyph unicode="|" horiz-adv-x="514" d="M188 -500v2048h138v-2048h-138z" />
<glyph unicode="}" horiz-adv-x="835" d="M-76 -434l10 84q132 11 201 92q34 41 50 91t28 149l16 129q13 116 32 187.5t56 123.5q76 107 240 125q-161 21 -209 125q-23 49 -25 117.5t13 193.5l16 127q12 101 8 150.5t-28 91.5q-23 42 -64 63t-112 29l10 84q127 -4 209.5 -35.5t132.5 -93.5q45 -59 54 -132.5 t-11 -230.5l-21 -170q-16 -96 -2 -157.5t60 -95.5t145 -60l-2 -10q-152 -39 -205.5 -101t-72.5 -213l-21 -172q-20 -156 -47 -229.5t-86 -130.5q-128 -122 -375 -131z" />
<glyph unicode="~" horiz-adv-x="1228" d="M12 324q37 201 118 308t196 107q39 0 86 -11.5t74 -21.5t81 -32l133 -56q61 -24 89.5 -34.5t69 -20.5t71.5 -10q74 0 121 48.5t82 160.5l84 -12q-89 -414 -318 -414q-39 0 -91 13t-92 28t-122 47l-105 43q-131 55 -192 55q-139 0 -201 -207z" />
<glyph unicode="&#xa1;" horiz-adv-x="663" d="M57 -309q0 16 4 40t10.5 52t8.5 39l188 862h121l-41 -866q-1 -12 -2 -36t-2 -35t-3 -30.5t-5 -28.5t-8.5 -24t-13 -22t-19 -16t-26 -13t-33.5 -7t-43 -3q-136 0 -136 88zM219 913q0 150 156 150q135 0 135 -109q0 -72 -40.5 -111.5t-113.5 -39.5q-71 0 -104 26.5 t-33 83.5z" />
<glyph unicode="&#xa2;" horiz-adv-x="856" d="M55 356q0 175 62 326t178.5 250.5t265.5 118.5l17 104h96l-17 -100q101 -4 155 -36.5t54 -88.5q0 -62 -39 -105t-96 -43q-56 0 -106 62l-115 -705q77 19 225 133l49 -55q-162 -174 -297 -219l-20 -135h-96l18 117q-2 0 -6.5 -1t-8 -1t-5.5 2q-146 -4 -230 97t-84 279z M305 424q0 -240 109 -281l133 813q-82 -28 -138.5 -114t-80 -192t-23.5 -226z" />
<glyph unicode="&#xa3;" horiz-adv-x="1101" d="M-39 37q0 58 54.5 92t142.5 47q15 45 24.5 88t13 70.5t11.5 93.5l29 234h-140l13 100h137l30 242q13 109 48.5 170.5t109.5 107.5q149 94 367 94q166 0 246 -41q53 -27 53 -92q0 -54 -37.5 -93.5t-89.5 -39.5q-51 0 -88.5 40.5t-87.5 133.5q-2 0 -9.5 1t-12.5 1.5 t-7 -0.5q-96 6 -172 -94q-34 -42 -50 -82.5t-26 -124.5l-28 -221h321l-12 -102h-322l-16 -148q-9 -90 -28.5 -141.5t-61.5 -98.5q-38 -44 -119 -100l10 -14q119 61 182 61q59 0 172 -23t189 -46l215 215l49 -45q-109 -159 -160 -220q-70 -80 -115.5 -110.5t-97.5 -30.5 q-44 0 -163 29l-93 24q-237 62 -245 64q-60 -105 -162 -105q-33 0 -53.5 17.5t-20.5 46.5z" />
<glyph unicode="&#xa4;" horiz-adv-x="1366" d="M104 1225l89 88l194 -197q73 54 142.5 79.5t154.5 25.5q155 0 291 -103l194 195l88 -88l-192 -195q52 -73 77 -140.5t25 -150.5t-24.5 -149.5t-77.5 -138.5l197 -197l-88 -88l-195 196q-135 -104 -293 -104q-149 0 -295 100l-194 -192l-88 88l194 195q-104 128 -104 292 q0 151 100 287zM342 739q0 -139 100 -239.5t240 -100.5q141 0 240.5 99.5t99.5 240.5t-99.5 241.5t-240.5 100.5q-140 0 -240 -101t-100 -241z" />
<glyph unicode="&#xa5;" horiz-adv-x="1101" d="M10 1305l8 59h568l-8 -59l-142 -64l162 -541l279 541l-134 64l9 59h477l-8 -59l-174 -64l-394 -655h236l-8 -92h-246l-14 -111h245l-12 -92h-244l-22 -166l217 -64l-8 -61h-693l9 59l231 64l23 168h-246l12 92h244l16 111h-246l11 92h239l-215 655z" />
<glyph unicode="&#xa6;" horiz-adv-x="458" d="M127 -260v520h205v-520h-205zM127 776v520h205v-518z" />
<glyph unicode="&#xa7;" horiz-adv-x="1097" d="M92 -233q0 54 36 93.5t85 39.5q47 0 80.5 -34t91.5 -142q91 8 145 55.5t54 128.5q0 54 -26 87.5t-101 76.5l-113 63q-53 31 -87 56t-65.5 60t-46 79t-14.5 100q0 130 81 216.5t232 144.5q-82 54 -117.5 111t-35.5 132q0 155 120.5 253.5t311.5 98.5q68 0 124 -10 t99 -40.5t43 -78.5q0 -53 -36 -93t-83 -40q-52 0 -91.5 41t-84.5 129l-18 -2q-79 -7 -128.5 -56.5t-49.5 -117.5q0 -56 34.5 -91.5t114.5 -80.5l80 -47q119 -69 171 -133t52 -166q0 -240 -315 -360q82 -50 119 -108.5t37 -137.5q0 -160 -121.5 -261.5t-313.5 -101.5 q-68 0 -124 11t-98 43t-42 82zM338 516q0 -60 36.5 -105.5t121.5 -91.5q70 -39 82 -47q81 63 122 116t41 124q0 62 -34 106t-115 89q-68 39 -88 51q-166 -109 -166 -242z" />
<glyph unicode="&#xa8;" horiz-adv-x="571" d="M84 1305q0 66 36 103.5t99 37.5q51 0 79 -24.5t28 -67.5h2q0 -63 -37.5 -100t-100.5 -37q-51 0 -78.5 22.5t-27.5 65.5zM479 1311q0 62 36.5 98.5t100.5 36.5q50 0 78.5 -25.5t28.5 -70.5q0 -60 -37.5 -96.5t-99.5 -36.5q-51 0 -79 25t-28 69z" />
<glyph unicode="&#xa9;" horiz-adv-x="1677" d="M61 743q0 218 104.5 400t286 287.5t398.5 105.5q163 0 306.5 -61t243.5 -166t158 -250t58 -307t-60 -309t-162.5 -254.5t-246.5 -171t-305 -64.5t-306 61.5t-249 168.5t-165 252t-61 308zM229 743q0 -174 79 -322t220.5 -236.5t313.5 -88.5q130 0 244 53t193.5 142 t125 209t45.5 252q0 129 -44.5 246.5t-122.5 204t-190.5 137.5t-242.5 51q-174 0 -317.5 -88t-223.5 -236.5t-80 -323.5zM430 760q0 204 128.5 318t330.5 114q89 0 254 -39v-199h-72l-61 164q-23 2 -62 2q-154 0 -233.5 -95.5t-79.5 -254.5q0 -156 72 -248t225 -92 q43 0 80 6l67 164h72l-16 -199q-168 -45 -281 -45q-194 0 -309 106t-115 298z" />
<glyph unicode="&#xaa;" horiz-adv-x="765" d="M115 975q0 181 104 301q111 129 311 129q80 0 183 -23l-62 -503q0 -13 17 -21l86 100l30 -26q-44 -81 -94 -125q-61 -55 -131 -55q-41 0 -59.5 16t-18.5 51q0 21 2 29l11 84q-56 -83 -118 -132.5t-122 -49.5q-64 0 -101.5 60.5t-37.5 164.5zM295 979q0 -67 8 -93t29 -26 t84 49q26 21 52.5 42.5t31.5 25.5l43 350q-28 12 -60 12q-88 0 -137 -90q-23 -46 -37 -119.5t-14 -150.5z" />
<glyph unicode="&#xab;" horiz-adv-x="892" d="M96 524l277 404h164l-279 -402l182 -393h-164zM391 524l275 404h165l-280 -402l184 -393h-166z" />
<glyph unicode="&#xac;" horiz-adv-x="1185" d="M96 778v197h1022v-590l-180 -2v395h-842z" />
<glyph unicode="&#xad;" horiz-adv-x="608" d="M61 463l23 192h487l-24 -192h-486z" />
<glyph unicode="&#xae;" horiz-adv-x="1677" d="M61 743q0 218 104.5 400t286 287.5t398.5 105.5q163 0 306.5 -61t243.5 -166t158 -250t58 -307t-60 -309t-162.5 -254.5t-246.5 -171t-305 -64.5t-306 61.5t-249 168.5t-165 252t-61 308zM229 743q0 -174 79 -322t220.5 -236.5t313.5 -88.5q130 0 244 53t193.5 142 t125 209t45.5 252q0 129 -44.5 246.5t-122.5 204t-190.5 137.5t-242.5 51q-174 0 -317.5 -88t-223.5 -236.5t-80 -323.5zM473 373v37l102 47v641l-102 47v37h393q277 0 277 -201q0 -167 -178 -211l217 -313l100 -47v-37h-252l-254 385h-22v-301l102 -47v-37h-383zM754 807 h65q63 0 97 43t34 123q0 149 -135 149h-61v-315z" />
<glyph unicode="&#xaf;" horiz-adv-x="569" d="M78 1264l18 139h609l-19 -139h-608z" />
<glyph unicode="&#xb0;" horiz-adv-x="835" d="M111 1204q0 126 89.5 215.5t215.5 89.5q128 0 217.5 -89t89.5 -216q0 -126 -89.5 -216.5t-215.5 -90.5t-216.5 90t-90.5 217zM233 1204q0 -74 55 -129t128 -55q74 0 129 55t55 129t-54 128t-128 54t-129.5 -54.5t-55.5 -127.5z" />
<glyph unicode="&#xb1;" horiz-adv-x="1185" d="M70 0v190h1036v-190h-1036zM70 805v192h424v406h196v-406h426v-192h-424v-449h-196v449h-426z" />
<glyph unicode="&#xb2;" horiz-adv-x="729" d="M86 553l8 59q27 22 59.5 51t51.5 47t67 64.5t66 63.5q126 122 177.5 201.5t51.5 154.5q0 64 -32 95t-101 36q-5 -9 -20.5 -36.5t-23.5 -39t-24 -28.5t-35 -24t-44 -7q-38 0 -64 23.5t-26 58.5q0 30 23 52t54 33t74 17.5t70.5 8t56.5 1.5q142 0 217.5 -47.5t75.5 -136.5 q0 -114 -113 -221q-98 -95 -389 -295h293l84 125h66l-45 -256h-578z" />
<glyph unicode="&#xb3;" horiz-adv-x="731" d="M102 645q0 37 27.5 62.5t65.5 25.5q39 0 66.5 -26t72.5 -107q88 5 137 50.5t49 133.5q0 83 -59 121q-25 17 -50 23t-75 6h-35l8 63h29q215 3 215 199q0 111 -98 127q-3 0 -10.5 1t-10.5 1q-12 -27 -22.5 -46.5t-27 -42t-38 -34.5t-47.5 -12q-40 0 -65 24t-25 62 q0 108 266 108q131 0 200.5 -47.5t69.5 -138.5q0 -104 -72.5 -161t-187.5 -70q112 -10 172 -59.5t60 -131.5q0 -111 -100.5 -173t-258.5 -62q-36 0 -70 3t-81 12t-76 32t-29 57z" />
<glyph unicode="&#xb4;" horiz-adv-x="567" d="M209 1194l301 319h301l-469 -319h-133z" />
<glyph unicode="&#xb6;" horiz-adv-x="1239" d="M92 877q19 163 107 290t228 197t310 70h549l-14 -119h-129l-154 -1243q-13 -117 -69.5 -216.5t-133.5 -162.5q-66 -53 -166.5 -83t-197.5 -30q-91 0 -166 19l27 231h157l52 -147q124 13 203.5 107.5t101.5 279.5l153 1245h-162l-114 -928q-91 -18 -185 -18 q-120 0 -218 71t-146.5 188.5t-32.5 248.5z" />
<glyph unicode="&#xb7;" horiz-adv-x="550" d="M125 532q0 62 43 106t106 44q60 0 104 -44.5t44 -105.5q0 -62 -43.5 -105.5t-104.5 -43.5q-62 0 -105.5 43.5t-43.5 105.5z" />
<glyph unicode="&#xb8;" horiz-adv-x="571" d="M92 -408q86 45 129 91t43 102t-57 78l18 137h113l-10 -68q67 -9 100 -39t33 -90q0 -159 -336 -286z" />
<glyph unicode="&#xb9;" horiz-adv-x="729" d="M176 553l6 41l166 41l78 584l-242 -48l6 52q293 92 353 161h82l-99 -749l148 -41l-4 -41h-494z" />
<glyph unicode="&#xba;" horiz-adv-x="694" d="M74 1014q0 161 103.5 273t254.5 112q125 0 195.5 -71.5t70.5 -197.5q0 -163 -105 -277t-257 -114q-124 0 -193 73t-69 202zM254 956q0 -80 22.5 -117.5t71.5 -37.5q47 0 82 43.5t52 108.5t24.5 121.5t7.5 101.5l2 -2q0 86 -22 124.5t-72 38.5q-45 0 -80 -41t-53 -104 t-26.5 -123.5t-8.5 -112.5z" />
<glyph unicode="&#xbb;" horiz-adv-x="892" d="M66 133l282 402l-184 393h164l178 -391l-275 -404h-165zM360 133l281 402l-184 393h164l180 -391l-277 -404h-164z" />
<glyph unicode="&#xbc;" horiz-adv-x="1830" d="M160 553l6 41l164 41l78 584l-240 -48l6 52q289 91 352 161h82l-100 -749l149 -41l-6 -41h-491zM430 -35l1016 1424h137l-1018 -1424h-135zM1094 217l10 78l489 536h113l-66 -505h111l-14 -109h-111l-18 -135l116 -41l-6 -41h-415l6 41l135 41l18 135h-368zM1229 326h248 l47 331z" />
<glyph unicode="&#xbd;" horiz-adv-x="1830" d="M176 553l6 41l166 41l78 584l-242 -48l6 52q293 92 353 161h82l-99 -749l148 -41l-4 -41h-494zM383 -35l1014 1424h137l-1014 -1424h-137zM1141 0l6 59q84 68 246 226q127 124 178 203t51 153q0 64 -32 95t-103 36q-38 -73 -57 -94q-38 -41 -89 -41q-38 0 -64 23.5 t-26 58.5q0 30 23 52t54 33t74.5 17.5t71 8t56.5 1.5q142 0 217.5 -47.5t75.5 -136.5q0 -114 -113 -221q-125 -115 -391 -295h295l84 125h65l-47 -256h-575z" />
<glyph unicode="&#xbe;" horiz-adv-x="1830" d="M102 645q0 37 27.5 62.5t65.5 25.5q39 0 66.5 -26t72.5 -107q88 5 137 50.5t49 133.5q0 83 -59 121q-25 17 -50 23t-75 6h-35l8 63h29q215 3 215 199q0 111 -98 127q-3 0 -10.5 1t-10.5 1q-12 -27 -22.5 -46.5t-27 -42t-38 -34.5t-47.5 -12q-40 0 -65 24t-25 62 q0 108 266 108q131 0 200.5 -47.5t69.5 -138.5q0 -104 -72.5 -161t-187.5 -70q112 -10 172 -59.5t60 -131.5q0 -111 -100.5 -173t-258.5 -62q-36 0 -70 3t-81 12t-76 32t-29 57zM446 -35l1016 1424h137l-1015 -1424h-138zM1094 217l10 78l489 536h115l-68 -505h111l-14 -109 h-111l-18 -135l116 -41l-6 -41h-415l6 41l135 41l18 135h-368zM1229 326h248l49 331z" />
<glyph unicode="&#xbf;" horiz-adv-x="1005" d="M66 -109q0 155 172 351l208 237q49 55 59 74t15 61l10 70h140l-11 -72q-2 -17 -4 -29t-5 -24.5t-4 -19t-6 -18.5t-6.5 -16t-9.5 -18t-11 -19t-14 -25t-17 -29l-117 -193q-44 -72 -67 -116.5t-43.5 -111t-20.5 -130.5q0 -97 47 -136.5t139 -41.5q8 15 27 49t26.5 47.5 t24 38.5t27.5 35.5t28 24t35.5 18t40.5 4.5q55 0 90 -36t35 -93q0 -69 -63 -107q-53 -29 -143.5 -48t-182.5 -19q-189 0 -294 77t-105 215zM489 920q0 143 152 143q72 0 105.5 -26.5t33.5 -84.5q0 -149 -153 -149q-73 0 -105.5 27.5t-32.5 89.5z" />
<glyph unicode="&#xc0;" horiz-adv-x="1298" d="M-143 0l6 61l178 68l684 1311h145l258 -1309l170 -68l-6 -63h-561l6 61l144 68l-74 434h-406l-200 -432l129 -68l-8 -63h-465zM444 653h347l-58 328q-17 85 -28 203zM477 1886h295l186 -319h-131z" />
<glyph unicode="&#xc1;" horiz-adv-x="1298" d="M-143 0l6 61l178 68l684 1311h145l258 -1309l170 -68l-6 -63h-561l6 61l144 68l-74 434h-406l-200 -432l129 -68l-8 -63h-465zM444 653h347l-58 328q-17 85 -28 203zM598 1567l301 319h299l-469 -319h-131z" />
<glyph unicode="&#xc2;" horiz-adv-x="1298" d="M-143 0l6 61l178 68l684 1311h145l258 -1309l170 -68l-6 -63h-561l6 61l144 68l-74 434h-406l-200 -432l129 -68l-8 -63h-465zM416 1550l411 363l324 -361l-160 -2l-190 150l-223 -150h-162zM444 653h347l-58 328q-17 85 -28 203z" />
<glyph unicode="&#xc3;" horiz-adv-x="1298" d="M-143 0l6 61l178 68l684 1311h145l258 -1309l170 -68l-6 -63h-561l6 61l144 68l-74 434h-406l-200 -432l129 -68l-8 -63h-465zM444 653h347l-58 328q-17 85 -28 203zM459 1677q32 40 80.5 87t85.5 75q39 31 84 31t96 -29l123 -65q45 -25 61 -25q19 0 46.5 19.5t99.5 84.5 l59 -71q-34 -40 -83 -87.5t-85 -74.5q-39 -31 -84 -31q-43 0 -96 29l-123 66q-43 24 -61 24t-47.5 -21.5t-98.5 -82.5z" />
<glyph unicode="&#xc4;" horiz-adv-x="1298" d="M-143 0l6 61l178 68l684 1311h145l258 -1309l170 -68l-6 -63h-561l6 61l144 68l-74 434h-406l-200 -432l129 -68l-8 -63h-465zM444 653h347l-58 328q-17 85 -28 203zM492 1677q0 66 36 104t99 38q50 0 78 -25t28 -68q0 -63 -36.5 -100t-98.5 -37q-51 0 -78.5 22.5 t-27.5 65.5zM887 1683q0 62 36.5 99t100.5 37q49 0 76.5 -25.5t27.5 -71.5q0 -60 -37 -96.5t-100 -36.5q-49 0 -76.5 25t-27.5 69z" />
<glyph unicode="&#xc5;" horiz-adv-x="1298" d="M-143 0l6 61l178 68l684 1311h145l258 -1309l170 -68l-6 -63h-561l6 61l144 68l-74 434h-406l-200 -432l129 -68l-8 -63h-465zM444 653h347l-58 328q-17 85 -28 203zM551 1716q0 96 73.5 147.5t211.5 51.5q124 0 182.5 -37.5t58.5 -114.5q0 -97 -74 -149.5t-210 -52.5 q-242 0 -242 155zM717 1720q0 -75 82 -75q54 0 83 27.5t29 78.5q0 80 -86 80q-51 0 -79.5 -29.5t-28.5 -81.5z" />
<glyph unicode="&#xc6;" horiz-adv-x="1636" d="M-180 0l8 61l178 66l742 1303h864l-41 -326h-82l-70 242h-372l-70 -609h285l100 197h92l-57 -471h-86l-60 190h-284l-66 -569h373l158 246h90l-76 -330h-932l8 61l144 66l61 526h-291l-268 -524l131 -68l-8 -61h-471zM481 737h256l70 615z" />
<glyph unicode="&#xc7;" horiz-adv-x="1263" d="M72 555q0 187 52.5 349t151.5 284t252.5 192t343.5 70q65 0 133.5 -8t115.5 -17.5t128 -27.5l-45 -336h-86l-71 276q-58 6 -93 6q-129 0 -234 -43t-175.5 -116t-119 -173t-70 -211t-21.5 -233q0 -244 101.5 -358.5t316.5 -114.5q55 0 120 10l189 312h88l-72 -338 q-197 -82 -387 -94l-6 -52q67 -9 100 -39t33 -90q0 -159 -336 -286l-32 75q86 45 129 91t43 102q0 55 -58 78l17 117q-246 11 -377 159t-131 416z" />
<glyph unicode="&#xc8;" horiz-adv-x="1144" d="M-47 0l8 61l199 66l137 1173l-182 68l8 62h1005l-41 -332h-81l-68 248h-397l-68 -580h303l103 197h92l-58 -469h-88l-59 188h-303l-70 -598h391l160 246h94l-75 -330h-1010zM414 1886h295l184 -319h-129z" />
<glyph unicode="&#xc9;" horiz-adv-x="1144" d="M-47 0l8 61l199 66l137 1173l-182 68l8 62h1005l-41 -332h-81l-68 248h-397l-68 -580h303l103 197h92l-58 -469h-88l-59 188h-303l-70 -598h391l160 246h94l-75 -330h-1010zM528 1567l301 319h299l-466 -319h-134z" />
<glyph unicode="&#xca;" horiz-adv-x="1144" d="M-47 0l8 61l199 66l137 1173l-182 68l8 62h1005l-41 -332h-81l-68 248h-397l-68 -580h303l103 197h92l-58 -469h-88l-59 188h-303l-70 -598h391l160 246h94l-75 -330h-1010zM315 1550l412 363l324 -361l-160 -2l-191 150l-223 -150h-162z" />
<glyph unicode="&#xcb;" horiz-adv-x="1144" d="M-47 0l8 61l199 66l137 1173l-182 68l8 62h1005l-41 -332h-81l-68 248h-397l-68 -580h303l103 197h92l-58 -469h-88l-59 188h-303l-70 -598h391l160 246h94l-75 -330h-1010zM406 1677q0 66 36 104t99 38q50 0 78 -25t28 -68q0 -63 -36.5 -100t-98.5 -37q-51 0 -78.5 22.5 t-27.5 65.5zM801 1683q0 62 36.5 99t100.5 37q49 0 76.5 -25.5t27.5 -71.5q0 -60 -37 -96.5t-100 -36.5q-49 0 -76.5 25t-27.5 69z" />
<glyph unicode="&#xcc;" horiz-adv-x="696" d="M-47 0l8 61l199 68l137 1171l-182 68l8 62h618l-6 -62l-198 -68l-138 -1169l183 -68l-9 -63h-620zM135 1886h295l184 -319h-129z" />
<glyph unicode="&#xcd;" horiz-adv-x="696" d="M-47 0l8 61l199 68l137 1171l-182 68l8 62h618l-6 -62l-198 -68l-138 -1169l183 -68l-9 -63h-620zM285 1567l301 319h299l-469 -319h-131z" />
<glyph unicode="&#xce;" horiz-adv-x="696" d="M-47 0l8 61l199 68l137 1171l-182 68l8 62h618l-6 -62l-198 -68l-138 -1169l183 -68l-9 -63h-620zM78 1550l411 363l324 -361l-160 -2l-188 150l-225 -150h-162z" />
<glyph unicode="&#xcf;" horiz-adv-x="696" d="M-47 0l8 61l199 68l137 1171l-182 68l8 62h618l-6 -62l-198 -68l-138 -1169l183 -68l-9 -63h-620zM141 1677q0 66 36 104t99 38q51 0 79 -25t28 -68q0 -63 -36.5 -100t-98.5 -37q-51 0 -79 22.5t-28 65.5zM537 1683q0 62 36.5 99t100.5 37q49 0 76.5 -25.5t27.5 -71.5 q0 -60 -37 -96.5t-100 -36.5q-49 0 -76.5 25t-27.5 69z" />
<glyph unicode="&#xd0;" horiz-adv-x="1417" d="M-47 0l8 61l193 68l82 686h-189l10 100h189l45 385l-176 68l8 62h600q152 0 264.5 -28.5t197 -93t127 -174.5t42.5 -266q0 -196 -53 -356t-154 -274t-255.5 -176t-350.5 -62h-588zM391 96h115q123 0 223.5 45.5t167 121t112 176.5t65.5 208.5t20 220.5h2q0 105 -21 187 t-66.5 146t-123 98t-183.5 34h-167l-50 -415h199l-10 -101h-199z" />
<glyph unicode="&#xd1;" horiz-adv-x="1400" d="M-51 0l6 61l199 68l137 1171l-182 68l8 62h387l543 -992l102 862l-180 68l6 62h502l-7 -62l-192 -68l-154 -1316h-88l-637 1153l-116 -1006l180 -68l-6 -63h-508zM481 1667q34 40 83 87.5t85 74.5q39 29 82 29q45 0 96 -27l125 -68q40 -22 62 -22q17 0 43.5 19t101.5 83 l58 -71q-93 -105 -168 -162q-39 -29 -82 -29q-46 0 -97 29l-125 65q-41 23 -61 23q-17 0 -45.5 -21t-99.5 -82z" />
<glyph unicode="&#xd2;" horiz-adv-x="1349" d="M76 559q0 125 26.5 249t83 239.5t136 204t195 141.5t251.5 53q245 0 374.5 -157.5t129.5 -432.5q0 -142 -30.5 -274t-90 -242.5t-142 -192.5t-192.5 -128t-235 -46t-222.5 44t-159 123t-93 185t-31.5 234zM338 530q0 -456 270 -456q93 0 166 57.5t116.5 144.5t72 200 t39 212.5t10.5 192.5l2 -2q0 235 -67 351t-206 116q-70 0 -128.5 -32t-99 -85t-72.5 -125t-51 -146t-31 -155.5t-16.5 -147t-4.5 -125.5zM453 1886h295l186 -319h-131z" />
<glyph unicode="&#xd3;" horiz-adv-x="1349" d="M76 559q0 125 26.5 249t83 239.5t136 204t195 141.5t251.5 53q245 0 374.5 -157.5t129.5 -432.5q0 -142 -30.5 -274t-90 -242.5t-142 -192.5t-192.5 -128t-235 -46t-222.5 44t-159 123t-93 185t-31.5 234zM338 530q0 -456 270 -456q93 0 166 57.5t116.5 144.5t72 200 t39 212.5t10.5 192.5l2 -2q0 235 -67 351t-206 116q-70 0 -128.5 -32t-99 -85t-72.5 -125t-51 -146t-31 -155.5t-16.5 -147t-4.5 -125.5zM584 1567l301 319h299l-467 -319h-133z" />
<glyph unicode="&#xd4;" horiz-adv-x="1349" d="M76 559q0 125 26.5 249t83 239.5t136 204t195 141.5t251.5 53q245 0 374.5 -157.5t129.5 -432.5q0 -142 -30.5 -274t-90 -242.5t-142 -192.5t-192.5 -128t-235 -46t-222.5 44t-159 123t-93 185t-31.5 234zM338 530q0 -456 270 -456q93 0 166 57.5t116.5 144.5t72 200 t39 212.5t10.5 192.5l2 -2q0 235 -67 351t-206 116q-70 0 -128.5 -32t-99 -85t-72.5 -125t-51 -146t-31 -155.5t-16.5 -147t-4.5 -125.5zM424 1550l412 363l323 -361l-160 -2l-190 150l-223 -150h-162z" />
<glyph unicode="&#xd5;" horiz-adv-x="1349" d="M76 559q0 125 26.5 249t83 239.5t136 204t195 141.5t251.5 53q245 0 374.5 -157.5t129.5 -432.5q0 -142 -30.5 -274t-90 -242.5t-142 -192.5t-192.5 -128t-235 -46t-222.5 44t-159 123t-93 185t-31.5 234zM338 530q0 -456 270 -456q93 0 166 57.5t116.5 144.5t72 200 t39 212.5t10.5 192.5l2 -2q0 235 -67 351t-206 116q-70 0 -128.5 -32t-99 -85t-72.5 -125t-51 -146t-31 -155.5t-16.5 -147t-4.5 -125.5zM438 1677q34 40 83 87.5t85 74.5q36 31 84 31q43 0 94 -29l125 -65q45 -25 62 -25t43.5 19.5t101.5 84.5l58 -71q-34 -40 -83 -87.5 t-85 -74.5q-36 -31 -82 -31t-97 29l-125 66q-43 24 -61 24q-17 0 -45 -21t-98 -83z" />
<glyph unicode="&#xd6;" horiz-adv-x="1349" d="M76 559q0 125 26.5 249t83 239.5t136 204t195 141.5t251.5 53q245 0 374.5 -157.5t129.5 -432.5q0 -142 -30.5 -274t-90 -242.5t-142 -192.5t-192.5 -128t-235 -46t-222.5 44t-159 123t-93 185t-31.5 234zM338 530q0 -456 270 -456q93 0 166 57.5t116.5 144.5t72 200 t39 212.5t10.5 192.5l2 -2q0 235 -67 351t-206 116q-70 0 -128.5 -32t-99 -85t-72.5 -125t-51 -146t-31 -155.5t-16.5 -147t-4.5 -125.5zM489 1677q0 66 37 104t101 38q49 0 77.5 -25t28.5 -68q0 -63 -37 -100t-100 -37q-51 0 -79 22.5t-28 65.5zM885 1683q0 62 37 99 t100 37q51 0 78.5 -25.5t27.5 -71.5q0 -60 -37.5 -96.5t-99.5 -36.5q-51 0 -78.5 25t-27.5 69z" />
<glyph unicode="&#xd7;" horiz-adv-x="1228" d="M113 319l372 373l-372 371l147 151l373 -374l375 374l149 -149l-375 -373l375 -373l-149 -149l-373 373l-373 -373z" />
<glyph unicode="&#xd8;" horiz-adv-x="1333" d="M76 561q0 123 26.5 246.5t82.5 239t134.5 204.5t193 143t247.5 54q102 0 221 -43l76 149l80 -41l-80 -149q121 -99 166 -215.5t45 -288.5q0 -178 -48.5 -339t-136 -282.5t-218.5 -193.5t-287 -72q-108 0 -218 47l-75 -147l-82 43l78 147q-116 93 -160.5 212t-44.5 286z M338 516q0 -92 8 -150t29 -120l534 1024q-38 41 -76 58.5t-92 17.5q-70 0 -129 -34t-99.5 -88.5t-72.5 -129.5t-50.5 -151t-30.5 -158.5t-16.5 -147t-4.5 -121.5zM430 158q38 -47 76.5 -65.5t95.5 -18.5q80 0 145.5 43t108.5 115.5t74 157.5t47.5 180t23.5 172.5t7 144.5 q0 178 -45 293z" />
<glyph unicode="&#xd9;" horiz-adv-x="1421" d="M86 1368l8 62h619l-8 -62l-193 -68l-98 -866q-11 -79 -11 -119q0 -114 68 -174.5t193 -60.5q168 0 246.5 83.5t99.5 264.5l102 872l-180 68l8 62h539l-9 -62l-192 -68l-98 -843q-29 -248 -166.5 -369t-388.5 -121q-137 0 -240.5 39t-165 122t-61.5 202q0 30 8 104 l102 866zM500 1886h295l186 -319h-131z" />
<glyph unicode="&#xda;" horiz-adv-x="1421" d="M86 1368l8 62h619l-8 -62l-193 -68l-98 -866q-11 -79 -11 -119q0 -114 68 -174.5t193 -60.5q168 0 246.5 83.5t99.5 264.5l102 872l-180 68l8 62h539l-9 -62l-192 -68l-98 -843q-29 -248 -166.5 -369t-388.5 -121q-137 0 -240.5 39t-165 122t-61.5 202q0 30 8 104 l102 866zM651 1567l301 319h299l-467 -319h-133z" />
<glyph unicode="&#xdb;" horiz-adv-x="1421" d="M86 1368l8 62h619l-8 -62l-193 -68l-98 -866q-11 -79 -11 -119q0 -114 68 -174.5t193 -60.5q168 0 246.5 83.5t99.5 264.5l102 872l-180 68l8 62h539l-9 -62l-192 -68l-98 -843q-29 -248 -166.5 -369t-388.5 -121q-137 0 -240.5 39t-165 122t-61.5 202q0 30 8 104 l102 866zM481 1550l412 363l324 -361l-160 -2l-189 150l-225 -150h-162z" />
<glyph unicode="&#xdc;" horiz-adv-x="1421" d="M86 1368l8 62h619l-8 -62l-193 -68l-98 -866q-11 -79 -11 -119q0 -114 68 -174.5t193 -60.5q168 0 246.5 83.5t99.5 264.5l102 872l-180 68l8 62h539l-9 -62l-192 -68l-98 -843q-29 -248 -166.5 -369t-388.5 -121q-137 0 -240.5 39t-165 122t-61.5 202q0 30 8 104 l102 866zM528 1677q0 66 37 104t101 38q49 0 77.5 -25t28.5 -68q0 -63 -37 -100t-100 -37q-51 0 -79 22.5t-28 65.5zM924 1683q0 62 37 99t100 37q51 0 78.5 -25.5t27.5 -71.5q0 -60 -37.5 -96.5t-99.5 -36.5q-51 0 -78.5 25t-27.5 69z" />
<glyph unicode="&#xdd;" horiz-adv-x="1140" d="M10 1368l6 62h574l-8 -62l-144 -68l226 -567l348 567l-133 68l8 62h479l-6 -62l-174 -68l-477 -706l-56 -463l219 -68l-8 -63h-692l8 61l232 68l57 469l-289 702zM559 1567l301 319h299l-467 -319h-133z" />
<glyph unicode="&#xde;" horiz-adv-x="1120" d="M-41 0l6 61l199 68l137 1171l-182 68l8 62h621l-9 -62l-198 -65l-13 -103h174q94 0 168.5 -18.5t134 -58.5t91.5 -110.5t32 -168.5q0 -192 -128.5 -315t-329.5 -123q-77 0 -148 14l10 82q18 -2 43 -2q143 0 218 96t75 268q0 136 -58 194t-189 58h-101l-117 -985l220 -68 l-9 -63h-655z" />
<glyph unicode="&#xdf;" horiz-adv-x="1167" d="M-322 -362q0 53 36 92t85 39q41 0 75 -32.5t69 -107.5q69 38 98 118t43 216l115 1071q26 249 161.5 365.5t387.5 116.5q189 0 292 -63t103 -177q0 -48 -16 -86t-52.5 -72t-76 -59.5t-105.5 -61.5q-45 -25 -68.5 -40t-49 -36.5t-36 -43.5t-10.5 -50q5 -22 11 -38t20 -33 t18 -22t28 -26.5t28 -25.5l108 -102q88 -81 122 -134.5t34 -136.5q0 -68 -28 -130.5t-79 -104.5q-106 -90 -293 -90q-127 0 -193.5 35.5t-66.5 103.5q0 51 37 90t88 39q44 0 77.5 -37t84.5 -141q85 6 130.5 45.5t45.5 107.5q0 36 -16.5 64.5t-61.5 70.5q-17 29 -75.5 67 t-81.5 77q-70 63 -107 120t-37 119q0 35 12.5 68.5t29.5 58.5t49.5 55.5t56.5 49.5t67 51l56 41q60 44 91 88t31 103q0 72 -51.5 113.5t-142.5 41.5q-145 0 -205 -73.5t-76 -225.5l-104 -907q-21 -183 -51.5 -288.5t-81.5 -180.5q-69 -102 -160 -158.5t-197 -56.5 q-168 0 -168 113z" />
<glyph unicode="&#xe0;" horiz-adv-x="1120" d="M49 332q0 143 44.5 277t123.5 227q179 215 488 215q98 0 270 -33l-103 -842q0 -10 3 -17t4.5 -9.5t10 -9t9.5 -7.5l148 174l47 -41q-65 -124 -150 -203q-94 -88 -196 -88q-115 0 -115 101q0 33 2 45l20 160q-88 -131 -191 -219.5t-200 -88.5q-100 0 -157.5 96t-57.5 263z M303 334q0 -107 15.5 -152t50.5 -45q19 0 44 15.5t99 72.5q46 36 152 123l71 582q-56 20 -106 20q-165 0 -244 -168q-37 -78 -59.5 -200.5t-22.5 -247.5zM401 1513h295l187 -319h-131z" />
<glyph unicode="&#xe1;" horiz-adv-x="1120" d="M49 332q0 143 44.5 277t123.5 227q179 215 488 215q98 0 270 -33l-103 -842q0 -10 3 -17t4.5 -9.5t10 -9t9.5 -7.5l148 174l47 -41q-65 -124 -150 -203q-94 -88 -196 -88q-115 0 -115 101q0 33 2 45l20 160q-88 -131 -191 -219.5t-200 -88.5q-100 0 -157.5 96t-57.5 263z M303 334q0 -107 15.5 -152t50.5 -45q19 0 44 15.5t99 72.5q46 36 152 123l71 582q-56 20 -106 20q-165 0 -244 -168q-37 -78 -59.5 -200.5t-22.5 -247.5zM528 1194l301 319h299l-466 -319h-134z" />
<glyph unicode="&#xe2;" horiz-adv-x="1120" d="M49 332q0 143 44.5 277t123.5 227q179 215 488 215q98 0 270 -33l-103 -842q0 -10 3 -17t4.5 -9.5t10 -9t9.5 -7.5l148 174l47 -41q-65 -124 -150 -203q-94 -88 -196 -88q-115 0 -115 101q0 33 2 45l20 160q-88 -131 -191 -219.5t-200 -88.5q-100 0 -157.5 96t-57.5 263z M303 334q0 -107 15.5 -152t50.5 -45q19 0 44 15.5t99 72.5q46 36 152 123l71 582q-56 20 -106 20q-165 0 -244 -168q-37 -78 -59.5 -200.5t-22.5 -247.5zM313 1178l412 362l324 -360l-160 -2l-189 149l-225 -149h-162z" />
<glyph unicode="&#xe3;" horiz-adv-x="1120" d="M49 332q0 143 44.5 277t123.5 227q179 215 488 215q98 0 270 -33l-103 -842q0 -10 3 -17t4.5 -9.5t10 -9t9.5 -7.5l148 174l47 -41q-65 -124 -150 -203q-94 -88 -196 -88q-115 0 -115 101q0 33 2 45l20 160q-88 -131 -191 -219.5t-200 -88.5q-100 0 -157.5 96t-57.5 263z M303 334q0 -107 15.5 -152t50.5 -45q19 0 44 15.5t99 72.5q46 36 152 123l71 582q-56 20 -106 20q-165 0 -244 -168q-37 -78 -59.5 -200.5t-22.5 -247.5zM362 1305q78 91 166 161q39 31 84 31q46 0 97 -29l122 -65q50 -25 64 -25q17 0 43 19.5t100 85.5l60 -72 q-34 -40 -83 -87.5t-85 -74.5q-35 -30 -84 -30q-45 0 -94 28l-125 66q-43 24 -62 24q-18 0 -46.5 -21t-98.5 -83z" />
<glyph unicode="&#xe4;" horiz-adv-x="1120" d="M49 332q0 143 44.5 277t123.5 227q179 215 488 215q98 0 270 -33l-103 -842q0 -10 3 -17t4.5 -9.5t10 -9t9.5 -7.5l148 174l47 -41q-65 -124 -150 -203q-94 -88 -196 -88q-115 0 -115 101q0 33 2 45l20 160q-88 -131 -191 -219.5t-200 -88.5q-100 0 -157.5 96t-57.5 263z M303 334q0 -107 15.5 -152t50.5 -45q19 0 44 15.5t99 72.5q46 36 152 123l71 582q-56 20 -106 20q-165 0 -244 -168q-37 -78 -59.5 -200.5t-22.5 -247.5zM406 1305q0 66 36 103.5t99 37.5q51 0 78.5 -24.5t27.5 -67.5q0 -63 -36.5 -100t-98.5 -37q-51 0 -78.5 22.5 t-27.5 65.5zM801 1311q0 62 36.5 98.5t100.5 36.5q50 0 77 -25t27 -71q0 -60 -37 -96.5t-100 -36.5q-49 0 -76.5 25t-27.5 69z" />
<glyph unicode="&#xe5;" horiz-adv-x="1120" d="M49 332q0 143 44.5 277t123.5 227q179 215 488 215q98 0 270 -33l-103 -842q0 -10 3 -17t4.5 -9.5t10 -9t9.5 -7.5l148 174l47 -41q-65 -124 -150 -203q-94 -88 -196 -88q-115 0 -115 101q0 33 2 45l20 160q-88 -131 -191 -219.5t-200 -88.5q-100 0 -157.5 96t-57.5 263z M303 334q0 -107 15.5 -152t50.5 -45q19 0 44 15.5t99 72.5q46 36 152 123l71 582q-56 20 -106 20q-165 0 -244 -168q-37 -78 -59.5 -200.5t-22.5 -247.5zM459 1341q0 94 73.5 145.5t210.5 51.5q124 0 183 -37.5t59 -114.5q0 -97 -74 -148.5t-211 -51.5q-241 0 -241 155z M625 1343q0 -75 82 -75q54 0 83 28t29 80q0 78 -86 78q-50 0 -79 -29.5t-29 -81.5z" />
<glyph unicode="&#xe6;" horiz-adv-x="1415" d="M35 221q0 193 192 266q53 20 123 35.5t109.5 22t142.5 20.5l31 236q4 40 4 49q0 122 -162 115q-44 -98 -90.5 -150.5t-112.5 -52.5q-50 0 -76 26t-26 76q0 128 172 162q122 25 231 25q184 0 236 -113q158 119 315 119q114 0 177 -53.5t63 -149.5q0 -73 -29.5 -129.5 t-78.5 -93t-123 -62t-152 -39t-176 -20.5q-6 -44 -6 -82q0 -139 44 -214t126 -75q56 0 116.5 30.5t161.5 109.5l53 -62q-114 -118 -218 -177.5t-212 -59.5q-83 0 -138.5 32.5t-98.5 106.5q-142 -139 -324 -139q-131 0 -202.5 63t-71.5 178zM272 227q0 -68 33.5 -103.5 t95.5 -35.5q145 0 166 184l27 209q-172 -27 -229 -63q-41 -25 -67 -77t-26 -114zM805 586q165 23 235 65q46 26 75.5 81t29.5 116q0 108 -103 108q-99 0 -163 -110q-20 -36 -34.5 -81t-20 -73.5t-19.5 -105.5z" />
<glyph unicode="&#xe7;" horiz-adv-x="856" d="M55 356q0 140 42 267.5t115.5 223.5t182 153t234.5 57q115 0 176 -33.5t61 -93.5q0 -62 -39 -105t-96 -43q-46 0 -86.5 40.5t-87.5 135.5q-64 -18 -114 -71.5t-79 -128t-44 -159.5t-15 -175q0 -291 158 -291q94 0 272 139l49 -55q-106 -114 -192.5 -169.5t-175.5 -65.5 l-6 -50q66 -9 98.5 -39.5t32.5 -89.5q0 -159 -336 -286l-31 75q84 45 127 91t43 102q0 55 -55 78l14 123q-117 20 -182.5 117t-65.5 253z" />
<glyph unicode="&#xe8;" horiz-adv-x="919" d="M55 367q0 140 45.5 272.5t122.5 224.5q78 93 180.5 143t214.5 50q118 0 181 -52t63 -149q0 -95 -54.5 -166.5t-156.5 -111.5q-123 -51 -348 -68q-4 -20 -4 -68q0 -303 172 -303q56 0 121.5 36t152.5 104l54 -62q-231 -240 -428 -240q-148 0 -232 103.5t-84 286.5z M293 1513h295l186 -319h-131zM305 588q154 16 236 63q46 28 74 82t28 115q0 51 -25.5 79.5t-72.5 28.5q-104 0 -170 -120q-55 -102 -70 -248z" />
<glyph unicode="&#xe9;" horiz-adv-x="919" d="M55 367q0 140 45.5 272.5t122.5 224.5q78 93 180.5 143t214.5 50q118 0 181 -52t63 -149q0 -95 -54.5 -166.5t-156.5 -111.5q-123 -51 -348 -68q-4 -20 -4 -68q0 -303 172 -303q56 0 121.5 36t152.5 104l54 -62q-231 -240 -428 -240q-148 0 -232 103.5t-84 286.5z M305 588q154 16 236 63q46 28 74 82t28 115q0 51 -25.5 79.5t-72.5 28.5q-104 0 -170 -120q-55 -102 -70 -248zM428 1194l301 319h299l-467 -319h-133z" />
<glyph unicode="&#xea;" horiz-adv-x="919" d="M55 367q0 140 45.5 272.5t122.5 224.5q78 93 180.5 143t214.5 50q118 0 181 -52t63 -149q0 -95 -54.5 -166.5t-156.5 -111.5q-123 -51 -348 -68q-4 -20 -4 -68q0 -303 172 -303q56 0 121.5 36t152.5 104l54 -62q-231 -240 -428 -240q-148 0 -232 103.5t-84 286.5z M246 1178l411 362l324 -360l-160 -2l-190 149l-223 -149h-162zM305 588q154 16 236 63q46 28 74 82t28 115q0 51 -25.5 79.5t-72.5 28.5q-104 0 -170 -120q-55 -102 -70 -248z" />
<glyph unicode="&#xeb;" horiz-adv-x="919" d="M55 367q0 140 45.5 272.5t122.5 224.5q78 93 180.5 143t214.5 50q118 0 181 -52t63 -149q0 -95 -54.5 -166.5t-156.5 -111.5q-123 -51 -348 -68q-4 -20 -4 -68q0 -303 172 -303q56 0 121.5 36t152.5 104l54 -62q-231 -240 -428 -240q-148 0 -232 103.5t-84 286.5z M305 588q154 16 236 63q46 28 74 82t28 115q0 51 -25.5 79.5t-72.5 28.5q-104 0 -170 -120q-55 -102 -70 -248zM309 1305q0 66 36 103.5t99 37.5q51 0 79 -24.5t28 -67.5q0 -63 -36.5 -100t-98.5 -37q-51 0 -79 22.5t-28 65.5zM705 1311q0 62 36.5 98.5t100.5 36.5 q50 0 77 -25t27 -71q0 -60 -37 -96.5t-100 -36.5q-49 0 -76.5 25t-27.5 69z" />
<glyph unicode="&#xec;" horiz-adv-x="606" d="M0 768q152 293 346 293q59 0 86 -24.5t27 -78.5q0 -29 -4 -45l-97 -737q0 -9 2.5 -16.5t5 -11t7 -8.5t6.5 -7l149 174l47 -43q-75 -143 -164 -219t-182 -76q-58 0 -85 26.5t-27 80.5q0 33 2 49l100 731q0 12 -3.5 19.5t-11.5 15t-9 8.5l-150 -168zM55 1513h295l187 -319 h-131z" />
<glyph unicode="&#xed;" horiz-adv-x="606" d="M0 768q152 293 346 293q59 0 86 -24.5t27 -78.5q0 -29 -4 -45l-97 -737q0 -9 2.5 -16.5t5 -11t7 -8.5t6.5 -7l149 174l47 -43q-75 -143 -164 -219t-182 -76q-58 0 -85 26.5t-27 80.5q0 33 2 49l100 731q0 12 -3.5 19.5t-11.5 15t-9 8.5l-150 -168zM156 1194l301 319h299 l-467 -319h-133z" />
<glyph unicode="&#xee;" horiz-adv-x="606" d="M-8 1178l411 362l324 -360l-160 -2l-188 149l-225 -149h-162zM0 768q152 293 346 293q59 0 86 -24.5t27 -78.5q0 -29 -4 -45l-97 -737q0 -9 2.5 -16.5t5 -11t7 -8.5t6.5 -7l149 174l47 -43q-75 -143 -164 -219t-182 -76q-58 0 -85 26.5t-27 80.5q0 33 2 49l100 731 q0 12 -3.5 19.5t-11.5 15t-9 8.5l-150 -168z" />
<glyph unicode="&#xef;" horiz-adv-x="606" d="M0 768q152 293 346 293q59 0 86 -24.5t27 -78.5q0 -29 -4 -45l-97 -737q0 -9 2.5 -16.5t5 -11t7 -8.5t6.5 -7l149 174l47 -43q-75 -143 -164 -219t-182 -76q-58 0 -85 26.5t-27 80.5q0 33 2 49l100 731q0 12 -3.5 19.5t-11.5 15t-9 8.5l-150 -168zM53 1305q0 66 36 103.5 t99 37.5q51 0 79 -24.5t28 -67.5q0 -63 -36.5 -100t-98.5 -37q-51 0 -79 22.5t-28 65.5zM449 1311q0 62 36.5 98.5t100.5 36.5q50 0 77 -25t27 -71q0 -60 -37 -96.5t-100 -36.5q-49 0 -76.5 25t-27.5 69z" />
<glyph unicode="&#xf0;" horiz-adv-x="1028" d="M61 418q0 176 70.5 324t192.5 233.5t268 85.5q95 0 162 -33q4 137 -28 207.5t-122 124.5l-74 -146l-96 39l72 146q-60 18 -125 18q-73 0 -150 -22l13 90q68 20 113.5 26.5t111.5 6.5q54 0 96 -9l72 154l104 -41l-69 -137q94 -42 156.5 -106.5t96 -154t47 -188 t13.5 -231.5q0 -80 -6.5 -157t-23.5 -162t-43 -158t-69 -141t-98 -115.5t-132.5 -76t-170.5 -28.5q-180 0 -280.5 119.5t-100.5 331.5zM305 338q0 -277 154 -277q255 0 286 717q6 16 8 30.5t0.5 35t-1.5 22.5v70q-94 33 -144 33q-73 0 -129.5 -47.5t-88 -117t-52 -160 t-27 -164t-6.5 -142.5z" />
<glyph unicode="&#xf1;" horiz-adv-x="1150" d="M0 764q77 148 162 220.5t184 72.5q111 0 111 -101q0 -29 -2 -45l-23 -176q98 156 206 239t212 83q69 0 107 -34t38 -95q0 -35 -2 -51l-90 -701q0 -10 2.5 -17t4 -9.5t7.5 -8t7 -6.5l149 172l47 -43q-74 -140 -163.5 -214.5t-184.5 -74.5q-108 0 -108 101q0 33 2 49 l92 704q0 1 1 12t1 15q0 41 -29 41q-17 0 -59.5 -27.5t-87.5 -66.5q-114 -96 -160 -139l-80 -664h-231l106 852q0 10 -3 18t-6 11.5t-9 8.5t-8 7l-148 -170zM307 1305q81 95 168 161q39 31 84 31t96 -29l123 -65q45 -25 62 -25q18 0 44.5 19.5t100.5 85.5l59 -72 q-85 -100 -167 -162q-38 -30 -84 -30q-48 0 -97 28l-123 66q-43 24 -61 24t-46.5 -21t-98.5 -83z" />
<glyph unicode="&#xf2;" horiz-adv-x="1028" d="M55 418q0 177 71 325t194.5 233t271.5 85q177 0 279 -117.5t102 -322.5q0 -180 -71.5 -330.5t-195 -237t-270.5 -86.5q-179 0 -280 119.5t-101 331.5zM299 1513h295l184 -319h-129zM301 340q0 -279 152 -279q63 0 113.5 49.5t79 121.5t47.5 161.5t25.5 160t6.5 126.5v-2 q0 149 -38 219t-116 70q-64 0 -114 -51t-78.5 -124t-47 -164.5t-24.5 -161.5t-6 -126z" />
<glyph unicode="&#xf3;" horiz-adv-x="1028" d="M55 418q0 177 71 325t194.5 233t271.5 85q177 0 279 -117.5t102 -322.5q0 -180 -71.5 -330.5t-195 -237t-270.5 -86.5q-179 0 -280 119.5t-101 331.5zM301 340q0 -279 152 -279q63 0 113.5 49.5t79 121.5t47.5 161.5t25.5 160t6.5 126.5v-2q0 149 -38 219t-116 70 q-64 0 -114 -51t-78.5 -124t-47 -164.5t-24.5 -161.5t-6 -126zM406 1194l301 319h299l-467 -319h-133z" />
<glyph unicode="&#xf4;" horiz-adv-x="1028" d="M55 418q0 177 71 325t194.5 233t271.5 85q177 0 279 -117.5t102 -322.5q0 -180 -71.5 -330.5t-195 -237t-270.5 -86.5q-179 0 -280 119.5t-101 331.5zM229 1178l412 362l324 -360l-160 -2l-189 149l-225 -149h-162zM301 340q0 -279 152 -279q63 0 113.5 49.5t79 121.5 t47.5 161.5t25.5 160t6.5 126.5v-2q0 149 -38 219t-116 70q-64 0 -114 -51t-78.5 -124t-47 -164.5t-24.5 -161.5t-6 -126z" />
<glyph unicode="&#xf5;" horiz-adv-x="1028" d="M55 418q0 177 71 325t194.5 233t271.5 85q177 0 279 -117.5t102 -322.5q0 -180 -71.5 -330.5t-195 -237t-270.5 -86.5q-179 0 -280 119.5t-101 331.5zM262 1305q81 95 168 161q36 31 84 31q43 0 94 -29l125 -65q45 -25 62 -25q18 0 44.5 19.5t100.5 85.5l57 -72 q-80 -94 -166 -162q-38 -30 -83 -30q-48 0 -97 28l-123 66q-48 24 -63 24q-17 0 -45 -21t-98 -83zM301 340q0 -279 152 -279q63 0 113.5 49.5t79 121.5t47.5 161.5t25.5 160t6.5 126.5v-2q0 149 -38 219t-116 70q-64 0 -114 -51t-78.5 -124t-47 -164.5t-24.5 -161.5t-6 -126 z" />
<glyph unicode="&#xf6;" horiz-adv-x="1028" d="M55 418q0 177 71 325t194.5 233t271.5 85q177 0 279 -117.5t102 -322.5q0 -180 -71.5 -330.5t-195 -237t-270.5 -86.5q-179 0 -280 119.5t-101 331.5zM301 340q0 -279 152 -279q63 0 113.5 49.5t79 121.5t47.5 161.5t25.5 160t6.5 126.5v-2q0 149 -38 219t-116 70 q-64 0 -114 -51t-78.5 -124t-47 -164.5t-24.5 -161.5t-6 -126zM311 1305q0 66 36 103.5t99 37.5q51 0 79 -24.5t28 -67.5q0 -63 -36.5 -100t-98.5 -37q-51 0 -79 22.5t-28 65.5zM707 1311q0 62 36.5 98.5t100.5 36.5q50 0 77 -25t27 -71q0 -60 -37 -96.5t-100 -36.5 q-49 0 -76.5 25t-27.5 69z" />
<glyph unicode="&#xf7;" horiz-adv-x="1228" d="M117 598v195h1036v-195h-1036zM489 305q0 60 42 103t102 43q61 0 103 -42t42 -104v2q0 -60 -41.5 -102.5t-101.5 -42.5t-103 41.5t-43 101.5zM489 1079q0 60 42 102t102 42t102.5 -42t42.5 -102t-41.5 -102.5t-101.5 -42.5t-103 42.5t-43 102.5z" />
<glyph unicode="&#xf8;" horiz-adv-x="1024" d="M45 420q0 164 64.5 309t189.5 238.5t283 93.5q58 0 120 -17l54 119l71 -33l-57 -116q99 -65 145 -160t46 -236q0 -178 -71 -328t-194 -236.5t-270 -86.5q-54 0 -121 19l-51 -113l-72 33l54 112q-191 122 -191 402zM287 334q0 -87 18 -160l344 758l2 -2q-20 23 -41 32 t-53 9q-64 0 -114 -52t-78.5 -126.5t-47 -167.5t-24.5 -164t-6 -127zM352 98q25 -24 44 -32.5t48 -8.5q64 0 115 50.5t80 124t48 164.5t25.5 162t6.5 128q0 87 -21 164z" />
<glyph unicode="&#xf9;" horiz-adv-x="1150" d="M0 770q148 291 344 291q59 0 86 -24t27 -76q0 -18 -4 -46l-93 -706q-2 -12 -2 -31q0 -41 29 -41q25 0 57 21.5t111 89.5q40 34 141 129l82 663h230l-105 -864q0 -10 2 -17.5t4.5 -10.5t7.5 -7.5t7 -7.5l149 174l47 -41q-165 -291 -346 -291q-58 0 -85 25t-27 76 q0 33 2 47l22 180q-203 -330 -418 -330q-69 0 -107 34.5t-38 96.5q0 9 1 31.5t1 24.5l92 698q2 12 -1.5 19.5t-11 13.5t-9.5 8l-150 -166zM301 1513h295l184 -319h-129z" />
<glyph unicode="&#xfa;" horiz-adv-x="1150" d="M0 770q148 291 344 291q59 0 86 -24t27 -76q0 -18 -4 -46l-93 -706q-2 -12 -2 -31q0 -41 29 -41q25 0 57 21.5t111 89.5q40 34 141 129l82 663h230l-105 -864q0 -10 2 -17.5t4.5 -10.5t7.5 -7.5t7 -7.5l149 174l47 -41q-165 -291 -346 -291q-58 0 -85 25t-27 76 q0 33 2 47l22 180q-203 -330 -418 -330q-69 0 -107 34.5t-38 96.5q0 9 1 31.5t1 24.5l92 698q2 12 -1.5 19.5t-11 13.5t-9.5 8l-150 -166zM446 1194l302 319h299l-469 -319h-132z" />
<glyph unicode="&#xfb;" horiz-adv-x="1150" d="M0 770q148 291 344 291q59 0 86 -24t27 -76q0 -18 -4 -46l-93 -706q-2 -12 -2 -31q0 -41 29 -41q25 0 57 21.5t111 89.5q40 34 141 129l82 663h230l-105 -864q0 -10 2 -17.5t4.5 -10.5t7.5 -7.5t7 -7.5l149 174l47 -41q-165 -291 -346 -291q-58 0 -85 25t-27 76 q0 33 2 47l22 180q-203 -330 -418 -330q-69 0 -107 34.5t-38 96.5q0 9 1 31.5t1 24.5l92 698q2 12 -1.5 19.5t-11 13.5t-9.5 8l-150 -166zM266 1178l412 362l323 -360l-159 -2l-189 149l-225 -149h-162z" />
<glyph unicode="&#xfc;" horiz-adv-x="1150" d="M0 770q148 291 344 291q59 0 86 -24t27 -76q0 -18 -4 -46l-93 -706q-2 -12 -2 -31q0 -41 29 -41q25 0 57 21.5t111 89.5q40 34 141 129l82 663h230l-105 -864q0 -10 2 -17.5t4.5 -10.5t7.5 -7.5t7 -7.5l149 174l47 -41q-165 -291 -346 -291q-58 0 -85 25t-27 76 q0 33 2 47l22 180q-203 -330 -418 -330q-69 0 -107 34.5t-38 96.5q0 9 1 31.5t1 24.5l92 698q2 12 -1.5 19.5t-11 13.5t-9.5 8l-150 -166zM336 1305q0 66 36.5 103.5t100.5 37.5q50 0 78.5 -24.5t28.5 -67.5q0 -63 -37.5 -100t-100.5 -37q-51 0 -78.5 22.5t-27.5 65.5z M731 1311q0 62 37 98.5t100 36.5q51 0 79 -25t28 -71q0 -60 -37.5 -96.5t-99.5 -36.5q-51 0 -79 25t-28 69z" />
<glyph unicode="&#xfd;" horiz-adv-x="915" d="M-129 -369q0 58 35.5 100t85.5 42q41 0 72.5 -34.5t60.5 -92.5q43 21 74 51.5t75 93.5q53 77 105 168l-189 893q-6 21 -32 37l-101 -144l-51 31q100 285 268 285q60 0 90.5 -37.5t53.5 -140.5q0 -13 22 -123q7 -36 43 -234q29 -162 43 -305q69 144 146 324q58 128 88 211 q-46 61 -64 99t-18 79q0 56 45.5 91.5t112.5 35.5q137 0 137 -103q0 -32 -19.5 -84t-74.5 -169q-75 -165 -263 -533q-102 -194 -194 -352q-176 -299 -383 -299q-80 0 -124 28t-44 82zM446 1194l302 319h299l-469 -319h-132z" />
<glyph unicode="&#xfe;" horiz-adv-x="1142" d="M-123 -471l8 55l205 76l201 1622q0 13 -3 20t-12.5 14t-11.5 9l-147 -168l-45 35q85 155 166 225t176 70q60 0 88 -25.5t28 -79.5q0 -3 -1 -18t-1 -23l-75 -602q225 322 411 322q99 0 156 -94.5t57 -259.5q0 -154 -44.5 -287t-129.5 -230q-83 -97 -195.5 -151.5 t-226.5 -54.5q-57 0 -119 16l-43 -340l234 -76l-8 -55h-668zM375 111q57 -25 119 -25q171 0 247 178q76 172 76 449h2q0 101 -14.5 142.5t-48.5 41.5q-6 0 -13.5 -2t-16.5 -6.5l-17 -8.5t-20 -12.5t-19 -13.5t-21 -15.5l-20 -15t-20.5 -16t-18.5 -14.5q-78 -63 -146 -125z " />
<glyph unicode="&#xff;" horiz-adv-x="978" d="M-129 -369q0 58 35.5 100t85.5 42q41 0 72.5 -34.5t60.5 -92.5q43 21 74 51.5t75 93.5q53 77 105 168l-189 893q-6 21 -32 37l-101 -144l-51 31q100 285 268 285q60 0 90.5 -37.5t53.5 -140.5q0 -13 22 -123q7 -36 43 -234q29 -162 43 -305q69 144 146 324q58 128 88 211 q-46 61 -64 99t-18 79q0 56 45.5 91.5t112.5 35.5q137 0 137 -103q0 -32 -19.5 -84t-74.5 -169q-75 -165 -263 -533q-102 -194 -194 -352q-176 -299 -383 -299q-80 0 -124 28t-44 82zM268 1305q0 66 36.5 103.5t101.5 37.5q49 0 77.5 -24.5t28.5 -67.5q0 -63 -37 -100 t-100 -37q-51 0 -79 22.5t-28 65.5zM664 1311q0 62 37 98.5t100 36.5q51 0 78.5 -25t27.5 -71q0 -60 -37.5 -96.5t-99.5 -36.5q-51 0 -78.5 25t-27.5 69z" />
<glyph unicode="&#x152;" horiz-adv-x="1839" d="M76 573q0 127 26.5 250t83.5 236t138 199t199 137t257 51q108 0 191 -16h844l-41 -332h-84l-70 248h-379l-67 -580h288l101 197h90l-56 -469h-88l-57 188h-289l-69 -598h374l162 246h94l-75 -330h-865q-110 -18 -188 -18q-251 0 -385.5 153.5t-134.5 437.5zM336 537 q0 -217 78 -336t217 -119q149 0 237 131l115 1006q-65 131 -217 131q-79 0 -146.5 -43t-113 -115t-80 -158t-53.5 -180t-28 -173t-9 -144z" />
<glyph unicode="&#x153;" horiz-adv-x="1521" d="M55 412q0 177 72 326.5t197 236t274 86.5q94 0 161 -35.5t124 -116.5q155 152 344 152q116 0 179.5 -53t63.5 -150q0 -91 -55 -163.5t-153 -112.5q-107 -45 -349 -70q-4 -35 -4 -76q0 -131 45 -223q39 -74 125 -74q56 0 121 36t156 106l51 -64q-113 -113 -218 -175 t-218 -62q-145 0 -228 122q-134 -122 -309 -122q-173 0 -276 117t-103 315zM305 362q0 -290 162 -290q60 0 107.5 46.5t74.5 113.5t44.5 152t23.5 152t6 123h2q0 302 -156 302q-68 0 -121 -58.5t-83 -150.5t-45 -192.5t-15 -197.5zM915 590q104 15 153 28.5t87 38.5 q46 29 73 83t27 114q0 53 -26.5 81t-75.5 28q-54 0 -97.5 -32.5t-71.5 -87.5t-45 -118.5t-24 -134.5z" />
<glyph unicode="&#x178;" horiz-adv-x="1140" d="M10 1368l6 62h574l-8 -62l-144 -68l226 -567l348 567l-133 68l8 62h479l-6 -62l-174 -68l-477 -706l-56 -463l219 -68l-8 -63h-692l8 61l232 68l57 469l-289 702zM432 1677q0 66 36 104t99 38q51 0 79 -25t28 -68q0 -63 -36.5 -100t-98.5 -37q-51 0 -79 22.5t-28 65.5z M827 1683q0 62 37 99t101 37q49 0 76.5 -25.5t27.5 -71.5q0 -60 -37 -96.5t-100 -36.5q-49 0 -77 25t-28 69z" />
<glyph unicode="&#x2c6;" horiz-adv-x="569" d="M16 1178l412 362l326 -360l-160 -2l-191 149l-223 -149h-164z" />
<glyph unicode="&#x2dc;" horiz-adv-x="569" d="M37 1305q75 92 166 161q39 31 84 31t96 -29l123 -65q45 -25 61 -25q18 0 45.5 19.5t100.5 85.5l59 -72q-34 -40 -83 -87.5t-85 -74.5q-38 -30 -84 -30q-45 0 -96 28l-123 66q-43 24 -61 24t-47.5 -21.5t-98.5 -82.5z" />
<glyph unicode="&#x2000;" horiz-adv-x="957" />
<glyph unicode="&#x2001;" horiz-adv-x="1915" />
<glyph unicode="&#x2002;" horiz-adv-x="957" />
<glyph unicode="&#x2003;" horiz-adv-x="1915" />
<glyph unicode="&#x2004;" horiz-adv-x="638" />
<glyph unicode="&#x2005;" horiz-adv-x="478" />
<glyph unicode="&#x2006;" horiz-adv-x="319" />
<glyph unicode="&#x2007;" horiz-adv-x="319" />
<glyph unicode="&#x2008;" horiz-adv-x="239" />
<glyph unicode="&#x2009;" horiz-adv-x="383" />
<glyph unicode="&#x200a;" horiz-adv-x="106" />
<glyph unicode="&#x2010;" horiz-adv-x="608" d="M61 463l23 192h487l-24 -192h-486z" />
<glyph unicode="&#x2011;" horiz-adv-x="608" d="M61 463l23 192h487l-24 -192h-486z" />
<glyph unicode="&#x2012;" horiz-adv-x="608" d="M61 463l23 192h487l-24 -192h-486z" />
<glyph unicode="&#x2013;" horiz-adv-x="1024" d="M-10 473l20 172h1014l-20 -172h-1014z" />
<glyph unicode="&#x2014;" horiz-adv-x="2048" d="M92 473l21 172h1833l-21 -172h-1833z" />
<glyph unicode="&#x2018;" horiz-adv-x="548" d="M164 1014q0 106 73 229t187 209l68 -70q-110 -107 -152 -254h14q45 0 70 -27t25 -75q0 -71 -40.5 -112.5t-109.5 -41.5q-135 0 -135 142z" />
<glyph unicode="&#x2019;" horiz-adv-x="548" d="M158 942q109 106 151 254h-14q-45 0 -69.5 27t-24.5 75q0 71 40 112.5t109 41.5q135 0 135 -141q0 -106 -73 -229.5t-187 -209.5z" />
<glyph unicode="&#x201a;" horiz-adv-x="550" d="M111 -246q111 105 153 254h-16q-44 0 -68 26.5t-24 74.5q0 72 39.5 112.5t107.5 40.5q135 0 135 -139q0 -106 -73 -229.5t-185 -208.5z" />
<glyph unicode="&#x201c;" horiz-adv-x="915" d="M133 1014q0 106 73 229.5t185 208.5l68 -70h2q-112 -106 -154 -254h17q44 0 68 -26.5t24 -73.5q0 -72 -40 -113t-108 -41q-135 0 -135 140zM539 1014q0 106 73 229.5t185 208.5l69 -70q-111 -105 -153 -254h16q44 0 68 -26.5t24 -73.5q0 -72 -39.5 -113t-107.5 -41 q-135 0 -135 140z" />
<glyph unicode="&#x201d;" horiz-adv-x="915" d="M113 942q109 106 151 254h-14q-45 0 -69.5 27t-24.5 75q0 71 40 112.5t109 41.5q135 0 135 -141q0 -106 -73 -229.5t-187 -209.5zM518 942q110 107 152 254h-15q-45 0 -69.5 27t-24.5 75q0 71 40.5 112.5t109.5 41.5q135 0 135 -141q0 -106 -73 -229.5t-187 -209.5z" />
<glyph unicode="&#x201e;" horiz-adv-x="892" d="M-6 -246q111 105 153 254h-16q-44 0 -68 26.5t-24 74.5q0 72 39.5 112.5t107.5 40.5q136 0 136 -139q0 -106 -73 -229.5t-186 -208.5zM399 -246q112 106 154 254h-16q-44 0 -68.5 27t-24.5 74q0 71 40 112t108 41q135 0 135 -139q0 -106 -73 -229.5t-185 -208.5z" />
<glyph unicode="&#x2022;" horiz-adv-x="1024" d="M150 733q0 154 108 262.5t262 108.5t263.5 -108.5t109.5 -262.5t-108.5 -262.5t-262.5 -108.5t-263 108.5t-109 262.5z" />
<glyph unicode="&#x2026;" horiz-adv-x="2048" d="M166 119q0 60 43 103.5t104 43.5q62 0 106 -43t44 -104q0 -62 -43.5 -106t-106.5 -44q-60 0 -103.5 43.5t-43.5 106.5zM850 119q0 61 43 104t106 43q60 0 104 -43t44 -104q0 -62 -43.5 -106t-104.5 -44q-62 0 -105.5 43.5t-43.5 106.5zM1532 119q0 60 43 103.5t104 43.5 q62 0 106 -43t44 -104q0 -62 -43.5 -106t-104.5 -44q-62 0 -105.5 43.5t-43.5 106.5z" />
<glyph unicode="&#x202f;" horiz-adv-x="383" />
<glyph unicode="&#x2039;" horiz-adv-x="606" d="M96 524l277 404h164l-281 -404l184 -391h-164z" />
<glyph unicode="&#x203a;" horiz-adv-x="606" d="M66 133l282 404l-184 391h162l180 -391l-277 -404h-163z" />
<glyph unicode="&#x205f;" horiz-adv-x="478" />
<glyph unicode="&#x20ac;" horiz-adv-x="1454" d="M-6 537l55 102h225l2 20q9 62 13 82h-266l57 103h233q34 134 100 243.5t161 191t224 126.5t281 45q65 0 133.5 -8t115.5 -17.5t128 -27.5l-45 -336h-86l-72 276q-58 6 -92 6q-122 0 -223 -38t-172.5 -107.5t-119.5 -157.5t-75 -196h549l-57 -103h-500q-3 -11 -5 -23.5 t-4 -28t-3 -23.5q0 -4 -1 -13.5t-1 -13.5h459l-56 -102h-411q6 -229 107 -336t310 -107q56 0 121 10l189 312h88l-72 -338q-240 -98 -463 -98q-257 0 -397.5 143.5t-144.5 413.5h-285z" />
<glyph unicode="&#x2122;" horiz-adv-x="1562" d="M31 1309v200h594v-198l-37 -2l-70 129h-112v-557l112 -37v-51h-377v49l113 39v557h-115l-69 -129h-39zM649 793v49l92 39v540l-92 37v51h269l182 -462l184 462h268v-49l-92 -39v-540l92 -37v-51h-333v49l90 39v442l-213 -541h-52l-215 539v-440l93 -37v-51h-273z" />
<glyph unicode="&#x25fc;" horiz-adv-x="1064" d="M0 0v1065h1065v-1065h-1065z" />
</font>
</defs>
</svg>
