<?xml version="1.0" standalone="no"?>
<!DOCTYPE svg PUBLIC "-//W3C//DTD SVG 1.1//EN" "http://www.w3.org/Graphics/SVG/1.1/DTD/svg11.dtd" >
<svg xmlns="http://www.w3.org/2000/svg">
<metadata></metadata>
<defs>
<font id="swiftextrabold_italic" horiz-adv-x="1212" >
<font-face units-per-em="2048" ascent="1556" descent="-492" />
<missing-glyph horiz-adv-x="606" />
<glyph unicode="&#xfb01;" horiz-adv-x="1263" d="M-287 -350q0 68 39 114t96 46q49 0 86 -38t78 -132q32 24 53.5 61.5t33.5 92t16 85t10 88.5l96 973h-168l15 117h165l7 59q18 170 158.5 285t365.5 115q73 0 125 -2.5t103 -9t84 -19t59.5 -32.5t38.5 -49t12 -69q0 -64 -43.5 -107.5t-108.5 -43.5q-67 0 -106 40.5 t-111 180.5q-21 6 -65 6q-56 0 -96 -19t-62.5 -55.5t-33.5 -77.5t-17 -98l-11 -104h601l-109 -860q0 -11 5 -19t10 -10l5 -2l134 166l55 -53q-90 -159 -183.5 -232.5t-201.5 -73.5q-70 0 -102.5 30t-32.5 95q0 18 4 54l102 788h-299l-71 -698q-29 -274 -95 -416 q-69 -150 -185.5 -227.5t-272.5 -77.5q-183 0 -183 129z" />
<glyph unicode="&#xfb02;" horiz-adv-x="1320" d="M-287 -348q0 65 39 111.5t94 46.5q46 0 81.5 -37.5t82.5 -137.5q52 45 77 117t38 219l94 969h-166l15 117h165l7 59q18 170 158.5 285t365.5 115q139 0 268 -33l170 22l-158 -1308q0 -11 5 -19t11 -10l5 -2l133 166l55 -53q-90 -159 -183.5 -232.5t-201.5 -73.5 q-70 0 -102.5 30t-32.5 95q0 18 4 54l144 1153l-54 100q-49 6 -51 6q-32 0 -57 -3.5t-57 -18t-54.5 -39.5t-40.5 -71.5t-24 -111.5l-11 -110h228l-15 -117h-223l-73 -696q-29 -273 -95 -418q-138 -305 -467 -305q-89 0 -131.5 32t-42.5 99z" />
<glyph horiz-adv-x="0" />
<glyph horiz-adv-x="682" />
<glyph unicode="&#x9;" horiz-adv-x="606" />
<glyph unicode="&#xd;" horiz-adv-x="606" />
<glyph unicode=" "  horiz-adv-x="606" />
<glyph unicode="&#x09;" horiz-adv-x="606" />
<glyph unicode="&#xa0;" horiz-adv-x="606" />
<glyph unicode="!" horiz-adv-x="645" d="M76 106q0 78 46 120t132 42t126 -30.5t40 -96.5q0 -161 -178 -161q-80 0 -123 32.5t-43 93.5zM207 362l14 830q1 115 7 142q13 71 76 93q38 13 102 13q163 0 163 -94q0 -19 -5.5 -48.5t-16 -71.5l-12.5 -50l-187 -814h-141z" />
<glyph unicode="&#x22;" horiz-adv-x="757" d="M100 1307q0 61 2 77q6 46 45.5 75.5t94.5 29.5q57 0 87.5 -29.5t24.5 -79.5q-7 -38 -18 -73l-113 -363h-96zM461 1307q0 61 2 77q6 46 45 75.5t94 29.5q57 0 88 -30t25 -79q-5 -31 -19 -73l-112 -363h-97z" />
<glyph unicode="#" horiz-adv-x="1292" d="M59 389l33 170h195l51 262h-195l33 170h195l78 391h225l-78 -391h215l78 391h225l-78 -391h195l-33 -170h-194l-52 -262h195l-33 -170h-194l-76 -389h-226l76 389h-215l-76 -389h-225l76 389h-195zM512 559h215l51 262h-215z" />
<glyph unicode="$" d="M90 61l41 326h119l74 -278q77 -9 108 -9q37 0 72 4l59 457l-151 115q-101 76 -145 151t-44 170q0 79 26 142.5t68 104t103 70.5t122 45.5t134 24.5l16 134h119l-18 -134q142 -12 333 -59l-41 -317h-116l-66 254q-66 12 -123 12l-59 -449l106 -84q117 -93 162 -170 t45 -182q0 -93 -35 -167.5t-96.5 -122.5t-136.5 -77t-164 -42l-16 -134h-119l18 134q-194 23 -395 81zM510 1075q0 -17 3.5 -33t7 -27.5t13.5 -26t15.5 -22t20.5 -21.5t20 -19t24 -20t23 -19l49 381q-176 -43 -176 -193zM602 123q63 17 100 71t37 128q0 55 -18.5 92 t-67.5 78z" />
<glyph unicode="%" horiz-adv-x="1599" d="M10 0l1340 1436h239l-1339 -1436h-240zM41 1057q0 172 108.5 276.5t288.5 104.5q161 0 254.5 -86t93.5 -234q0 -170 -109.5 -276.5t-283.5 -108.5q-165 0 -258.5 86t-93.5 238zM270 1053q0 -77 33 -118.5t94 -41.5q74 0 117 59.5t43 161.5q0 77 -34 119.5t-97 42.5 q-72 0 -114 -59.5t-42 -163.5zM827 307q0 171 109.5 276t288.5 105q161 0 254.5 -86t93.5 -235q0 -170 -110 -277.5t-283 -107.5q-165 0 -259 86.5t-94 238.5zM1057 303q0 -77 33 -118.5t94 -41.5q74 0 116.5 59t42.5 160q0 78 -34.5 121t-96.5 43q-72 0 -113.5 -60 t-41.5 -163z" />
<glyph unicode="&#x26;" horiz-adv-x="1441" d="M61 350q0 77 26 139t69 103.5t102.5 71t122.5 44.5t133 21q-163 25 -235 92.5t-72 194.5q0 81 34.5 145.5t88.5 104t126.5 65t143 35.5t143.5 10q322 0 322 -151q0 -69 -45.5 -118.5t-108.5 -49.5q-66 0 -106.5 41t-102.5 168q-51 -6 -88 -35t-56 -73t-27.5 -90t-8.5 -97 q0 -54 15.5 -91.5t37 -57t62.5 -30t73.5 -12.5t88.5 -2h626l-12 -106h-149q-8 -361 -171 -533t-497 -172q-256 0 -395.5 100t-139.5 283zM406 360q0 -123 72.5 -188.5t209.5 -65.5q107 0 186 27q24 9 32.5 19.5t11.5 37.5l59 482h-205q-87 0 -150.5 -14.5t-114 -49 t-76 -96.5t-25.5 -152z" />
<glyph unicode="'" horiz-adv-x="567" d="M223 1307q-3 36 2 77q4 46 44 75.5t96 29.5q57 0 86.5 -29.5t23.5 -79.5q-3 -33 -16 -73l-115 -363h-96z" />
<glyph unicode="(" horiz-adv-x="606" d="M82 248q0 215 50.5 450.5t137.5 425.5q98 213 262 379h164q-41 -58 -65 -100.5t-53 -108.5q-102 -232 -166 -564.5t-64 -627.5q0 -138 17.5 -271t46.5 -218q17 -49 41 -92h-170q-46 68 -72.5 118.5t-50.5 120.5q-78 216 -78 488z" />
<glyph unicode=")" horiz-adv-x="606" d="M-98 -479q41 58 65 100.5t53 108.5q102 232 166 564.5t64 627.5q0 138 -17.5 271t-46.5 218q-17 49 -41 92h172q199 -294 199 -727q0 -215 -50.5 -450.5t-137.5 -425.5q-98 -215 -262 -379h-164z" />
<glyph unicode="*" horiz-adv-x="872" d="M61 1030l15 119l274 -25l-217 170l113 107l172 -225l-23 254h154l-72 -250l213 209l78 -95l-246 -170l279 25l-15 -119l-274 21l207 -156l-103 -104l-161 208l12 -251h-156l84 251l-223 -208l-78 104l248 156z" />
<glyph unicode="+" d="M86 573v246h418v418h246v-418h417v-246h-417v-419h-246v419h-418z" />
<glyph unicode="," horiz-adv-x="608" d="M53 -231q63 59 99 115.5t53 125.5h-8q-56 2 -81.5 29.5t-25.5 85.5q0 76 45 120t123 44q154 0 154 -148q0 -116 -74.5 -240.5t-200.5 -219.5z" />
<glyph unicode="-" horiz-adv-x="645" d="M61 459l27 223h535l-29 -223h-533z" />
<glyph unicode="." horiz-adv-x="606" d="M74 104q0 97 42.5 141t137.5 44q84 0 124 -31t40 -96q0 -96 -42.5 -139t-137.5 -43q-164 0 -164 124z" />
<glyph unicode="/" horiz-adv-x="651" d="M0 -500l496 2048h155l-493 -2048h-158z" />
<glyph unicode="0" d="M96 463q0 83 9.5 169t32 177t55.5 174t83 157t111 128.5t143 86t177 31.5q193 0 300 -125.5t107 -351.5q0 -85 -9 -172t-31 -180.5t-54 -177.5t-81.5 -160t-111.5 -131.5t-146 -88t-181 -32.5q-197 0 -300.5 127.5t-103.5 368.5zM408 279q0 -113 29 -159t100 -46 q55 0 100.5 59.5t73 157.5t47.5 207.5t29.5 227t13.5 197.5t4 136q0 118 -29.5 169.5t-95.5 51.5q-57 0 -103 -57.5t-74.5 -154.5t-48.5 -205t-29 -228.5t-13 -204t-4 -151.5z" />
<glyph unicode="1" d="M156 0l8 72l266 71l115 949l-361 -74l13 94q197 68 350 141q88 41 127.5 67.5t70.5 65.5h146l-152 -1243l236 -71l-8 -72h-811z" />
<glyph unicode="2" d="M4 0l12 102q92 84 318 310q200 203 284 323q123 179 123 328q0 105 -44.5 158t-137.5 59q-8 -14 -27 -49.5t-30 -55t-32 -48.5t-40 -44t-47 -27t-59 -12q-66 0 -109 42t-43 106q0 71 49 108q119 86 385 86q477 0 477 -309q0 -89 -40.5 -179.5t-114.5 -166.5 q-157 -165 -625 -495h451l127 200h112l-69 -436h-920z" />
<glyph unicode="3" d="M55 162q0 66 44 113t106 47q25 0 48 -7t43.5 -25t34 -30.5t31.5 -43t25 -42t25 -47.5t20 -41q258 23 258 303q0 132 -73 187t-207 55h-62l14 117h50q167 0 248 80.5t81 246.5q0 84 -40.5 141t-120.5 64q-7 -15 -23.5 -50.5t-26 -54.5t-28.5 -47.5t-36.5 -43t-45 -26 t-58.5 -11.5q-66 0 -106.5 42.5t-40.5 110.5q0 73 51 109q53 37 150 58.5t219 21.5q212 0 325 -81t113 -233q0 -331 -403 -387q74 -9 134.5 -30t112.5 -57t81.5 -95.5t29.5 -136.5q0 -86 -35.5 -154t-91.5 -111t-131 -71t-149.5 -39.5t-151.5 -11.5q-36 0 -70.5 2t-86 7.5 t-93.5 18t-81 31t-61 50t-22 71.5z" />
<glyph unicode="4" d="M18 352l19 146l733 888h207l-103 -841h170l-24 -193h-170l-25 -209l183 -71l-9 -72h-671l8 72l211 71l26 209h-555zM236 545h358l78 549z" />
<glyph unicode="5" d="M41 160q0 67 46 113t114 46q65 0 114 -51t113 -186q283 32 283 350q0 117 -66.5 178.5t-193.5 61.5q-129 0 -256 -41l90 735h821l-27 -223h-667l-37 -312q112 23 205 23q96 0 178 -23t147 -68.5t102 -121.5t37 -176q0 -218 -167.5 -351.5t-442.5 -133.5q-42 0 -84.5 3 t-101 14t-102 29.5t-74.5 53t-31 80.5z" />
<glyph unicode="6" d="M84 453q0 211 76 426q89 247 262 377t412 130q141 0 301 -43l-13 -104q-97 21 -186 21q-134 0 -220 -45t-151 -148q-61 -102 -106 -299q125 43 248 43q155 0 252.5 -93.5t97.5 -242.5q0 -224 -148 -366t-381 -142q-212 0 -328 127.5t-116 358.5zM401 305q0 -231 134 -231 q53 0 92.5 42.5t59 107.5t28 122.5t8.5 106.5q0 114 -42.5 161.5t-145.5 47.5q-63 0 -97 -11q-37 -164 -37 -346z" />
<glyph unicode="7" d="M92 0q231 231 452 527t388 593h-498l-149 -289h-117l65 535h928l-12 -104l-629 -1262h-428z" />
<glyph unicode="8" d="M74 293q0 123 87 215.5t273 169.5l-33 27q-110 89 -153 158.5t-43 154.5q0 164 133 266t348 102q192 0 307 -77t115 -207q0 -56 -19.5 -104t-47.5 -80.5t-75 -64.5t-84.5 -50.5t-93.5 -42.5l23 -19q57 -46 88.5 -75.5t69 -75t54.5 -96.5t17 -111q0 -189 -137.5 -302.5 t-367.5 -113.5q-214 0 -337.5 87.5t-123.5 238.5zM352 299q0 -107 51.5 -166t143.5 -59q91 0 143.5 57.5t52.5 155.5q0 83 -35.5 138.5t-152.5 149.5l-43 35q-160 -133 -160 -311zM479 1102q0 -34 9.5 -63t30.5 -54t39 -41t50 -41l99 -78q81 77 113 139t32 136 q0 85 -48.5 132.5t-133.5 47.5t-138 -49.5t-53 -128.5z" />
<glyph unicode="9" d="M82 20l12 105q86 -19 160 -19q152 0 237.5 44t151.5 157q64 109 100 281q-113 -43 -243 -43q-166 0 -257 91.5t-91 258.5q0 215 145.5 353t372.5 138q214 0 327 -125.5t113 -363.5q0 -201 -68 -412q-86 -258 -253 -381.5t-429 -123.5q-73 0 -131 8t-147 32zM481 887 q0 -107 43 -155t138 -48q70 0 102 18q29 167 29 357q0 115 -28.5 168t-90.5 53q-47 0 -83.5 -30t-56.5 -74t-32.5 -101t-16.5 -101.5t-4 -86.5z" />
<glyph unicode=":" horiz-adv-x="608" d="M63 102q0 97 43 141t138 44q84 0 124 -31t40 -96q0 -96 -43 -139.5t-138 -43.5q-164 0 -164 125zM150 891q0 97 42.5 140.5t137.5 43.5q84 0 124 -31t40 -96q0 -95 -43 -138.5t-138 -43.5q-163 0 -163 125z" />
<glyph unicode=";" horiz-adv-x="645" d="M41 -231q63 59 99 115.5t53 125.5q-61 0 -88 27.5t-27 87.5q0 76 45 120t123 44q153 0 153 -148q0 -117 -74.5 -241t-201.5 -219zM164 893q0 97 42.5 140.5t137.5 43.5q84 0 124 -31t40 -96q0 -96 -42.5 -139t-137.5 -43q-164 0 -164 125z" />
<glyph unicode="&#x3c;" horiz-adv-x="1386" d="M92 662v94l1213 542v-251l-787 -338l787 -338v-252z" />
<glyph unicode="=" horiz-adv-x="1245" d="M88 350v221h1108v-221h-1108zM88 844v221h1108v-221h-1108z" />
<glyph unicode="&#x3e;" horiz-adv-x="1386" d="M123 119v252l786 338l-786 338v251l1212 -542v-94z" />
<glyph unicode="?" horiz-adv-x="1024" d="M94 1260q0 81 64 118q56 32 149 52t191 20q212 0 324 -77.5t112 -223.5q0 -86 -47 -176.5t-150 -200.5l-200 -217q-55 -61 -63 -75.5t-13 -55.5l-8 -62h-170l6 54q7 66 16 90t57 115l101 186q4 7 11 20q44 79 64.5 121.5t40 111.5t19.5 138q0 148 -123 148 q-16 -22 -36.5 -58.5t-36.5 -64t-38 -55.5t-52.5 -43t-69.5 -15q-64 0 -106 42.5t-42 107.5zM164 100q0 82 46 125t132 43t127 -32.5t41 -100.5q0 -75 -46 -115t-134 -40q-166 0 -166 120z" />
<glyph unicode="@" horiz-adv-x="1667" d="M86 686q13 250 131.5 442t316.5 295t445 103q115 0 216 -23t186.5 -71.5t145.5 -119.5t91 -172.5t24 -224.5q-6 -122 -41.5 -222.5t-91.5 -170t-131 -117.5t-158 -70t-173 -22q-48 0 -85 18t-36 62q2 25 9 64.5t16 81.5t10 49q-43 -61 -57.5 -81t-36.5 -46.5t-46 -48.5 q-106 -95 -192 -95q-83 0 -124.5 76.5t-33.5 210.5q6 126 50 246t116 203q159 188 410 188q84 0 192 -24l-139 -793q17 0 53 8q51 14 99 50.5t89 92.5t68 137t31 175q12 238 -116.5 375t-367.5 137q-160 0 -283 -52t-201 -148t-120 -222t-51 -283q-10 -186 64 -318 t211 -196.5t325 -64.5q108 0 313 37l13 -76q-119 -39 -137 -43q-162 -43 -261 -43q-183 0 -329 53.5t-238 148t-138 221t-38 273.5zM659 616q-3 -84 6 -114.5t37 -30.5q14 0 21.5 1.5t34 16t69.5 46.5q62 48 142 124l80 463q-46 17 -84 17q-149 0 -228 -168 q-30 -62 -51 -158t-27 -197z" />
<glyph unicode="A" horiz-adv-x="1357" d="M-143 0l8 72l186 71l694 1297h191l248 -1297l174 -71l-8 -72h-629l8 72l135 71l-63 406h-375l-188 -406l118 -71l-8 -72h-491zM471 645h320l-46 270q-18 104 -28 218z" />
<glyph unicode="B" horiz-adv-x="1296" d="M-51 0l8 72l201 71l141 1143l-184 72l10 72h684q72 0 130.5 -7.5t115.5 -29t95 -56t61.5 -92t23.5 -133.5q0 -80 -24 -143t-64 -104.5t-98.5 -71.5t-119.5 -45.5t-136 -24.5q65 -5 118 -15t108 -32.5t92.5 -56t61 -87.5t23.5 -124q0 -92 -29.5 -164t-78.5 -117 t-119 -74.5t-145 -41t-162 -11.5h-713zM457 96h90q162 0 243.5 82.5t81.5 241.5q0 120 -65.5 186t-185.5 66h-95zM539 768h86q78 0 135 26.5t90 75t48 108.5t15 134q0 112 -52 166.5t-159 54.5h-94z" />
<glyph unicode="C" horiz-adv-x="1306" d="M72 553q0 191 56.5 354.5t160.5 284.5t261.5 189.5t350.5 68.5q70 0 146 -9.5t125.5 -19.5t134.5 -30l-41 -334h-115l-70 268q-39 2 -94 2q-121 0 -220.5 -44.5t-165 -118t-110.5 -172t-65 -204t-20 -217.5q0 -241 98 -353t309 -112q26 0 84 7l190 303h117l-74 -340 q-247 -96 -491 -96q-266 0 -416.5 152.5t-150.5 420.5z" />
<glyph unicode="D" horiz-adv-x="1505" d="M-51 0l8 72l201 71l141 1143l-184 72l10 72h618q91 0 165 -6.5t147 -23t129 -44t104 -70.5t79.5 -100.5t49 -136.5t17.5 -177q0 -260 -93 -455t-279.5 -306t-447.5 -111h-665zM465 106h70q118 0 215.5 45.5t161.5 120t108.5 174t64 204.5t19.5 214q0 459 -371 459h-121z " />
<glyph unicode="E" horiz-adv-x="1202" d="M-51 0l8 72l201 71l141 1143l-184 72l10 72h1077l-43 -343h-106l-74 246h-365l-69 -559h264l113 191h116l-59 -469h-117l-67 182h-263l-69 -582h346l174 234h119l-78 -330h-1075z" />
<glyph unicode="F" horiz-adv-x="1110" d="M-51 0l8 72l201 71l141 1143l-184 72l10 72h1077l-43 -343h-106l-74 246h-365l-67 -559h260l115 191h116l-57 -469h-119l-67 182h-263l-65 -535l238 -71l-11 -72h-745z" />
<glyph unicode="G" horiz-adv-x="1427" d="M72 539q0 276 101 480.5t299 317.5t472 113q161 0 418 -59l-41 -334h-113l-71 266q-90 4 -119 4q-128 0 -232.5 -44t-175 -118t-118.5 -175t-69.5 -211.5t-21.5 -229.5q0 -256 148 -373q97 -72 274 -72h39l45 371l-182 72l8 71h694l-10 -71l-200 -72l-50 -399 q-241 -96 -483 -96q-293 0 -452.5 146t-159.5 413z" />
<glyph unicode="H" horiz-adv-x="1587" d="M-51 0l8 72l201 71l141 1143l-184 72l10 72h692l-8 -72l-201 -72l-61 -502h512l61 502l-184 72l10 72h692l-8 -72l-200 -72l-142 -1143l185 -71l-11 -72h-692l8 72l201 71l68 545h-512l-68 -545l184 -71l-10 -72h-692z" />
<glyph unicode="I" horiz-adv-x="765" d="M-51 0l8 72l201 71l141 1143l-184 72l10 72h692l-8 -72l-201 -72l-141 -1143l184 -71l-10 -72h-692z" />
<glyph unicode="J" horiz-adv-x="755" d="M-281 -367q0 68 43.5 115t104.5 47q51 0 89 -39t81 -133q72 31 90 191l180 1472l-182 72l8 72h694l-10 -72l-201 -72l-151 -1241q-19 -154 -44 -235t-71 -142q-136 -174 -401 -174q-54 0 -91.5 5t-71 19.5t-50.5 43t-17 71.5z" />
<glyph unicode="K" horiz-adv-x="1409" d="M-51 0l8 72l201 71l141 1143l-184 72l10 72h692l-8 -72l-201 -72l-141 -1143l184 -71l-10 -72h-692zM567 776l529 510l-117 72l8 72h545l-8 -72l-201 -72l-469 -420l422 -723l184 -71l-8 -72h-446z" />
<glyph unicode="L" horiz-adv-x="1044" d="M-51 0l10 78l199 65l141 1143l-184 72l10 72h692l-8 -72l-201 -72l-145 -1190h287l168 234h116l-73 -330h-1012z" />
<glyph unicode="M" horiz-adv-x="1843" d="M-51 0l8 72l201 71l178 1143l-182 72l8 72h514l235 -959l463 959h520l-8 -72l-200 -72l-111 -1143l182 -71l-8 -72h-666l11 72l172 71l100 967l-545 -1110h-88l-260 1120l-133 -977l166 -71l-10 -72h-547z" />
<glyph unicode="N" horiz-adv-x="1449" d="M-61 0l8 72l200 71l142 1143l-185 72l11 72h438l524 -916l97 772l-183 72l8 72h543l-8 -72l-201 -72l-159 -1296h-123l-627 1083l-117 -930l185 -71l-9 -72h-544z" />
<glyph unicode="O" horiz-adv-x="1429" d="M72 569q0 130 29.5 256.5t91 239.5t147.5 198.5t206.5 136t260.5 50.5q182 0 307.5 -78.5t184.5 -213.5t59 -316q0 -134 -29.5 -260.5t-90 -238.5t-146.5 -195.5t-207 -132t-262 -48.5q-255 0 -403 162t-148 440zM401 510q0 -218 59.5 -322t194.5 -104q88 0 157 56 t109.5 141.5t67 199t36 215t9.5 203.5q0 221 -60 327.5t-192 106.5q-78 0 -141.5 -42.5t-103.5 -115t-68.5 -157t-42 -182.5t-19.5 -175.5t-6 -150.5z" />
<glyph unicode="P" horiz-adv-x="1239" d="M-51 0l8 72l201 71l141 1143l-184 72l10 72h666q101 0 179.5 -17.5t143.5 -58t100 -114.5t35 -179q0 -198 -136.5 -320.5t-358.5 -122.5q-74 0 -140 19l11 96q10 0 25 -1t18 -1q112 0 177.5 99t65.5 266q0 128 -51.5 182.5t-171.5 54.5h-74l-147 -1190l227 -71l-10 -72 h-735z" />
<glyph unicode="Q" horiz-adv-x="1441" d="M72 559q0 132 30 259.5t92.5 241.5t149 201t208.5 138t263 51q138 0 243.5 -47t171 -131t98 -195t32.5 -246q0 -127 -29.5 -249t-86.5 -231t-150 -194.5t-211 -129.5q66 -32 125.5 -64t66.5 -35l164 -80q93 -45 145 -65t70 -22.5t57 -2.5q59 0 205 64l49 -88 q-114 -94 -219 -146.5t-176 -52.5q-60 0 -123 22.5t-176 84.5q-178 93 -375 229q-22 16 -69 47t-92 62q-223 30 -343 187.5t-120 391.5zM401 512q0 -218 59.5 -322t194.5 -104q88 0 157 56t109.5 141.5t67 199t36 215t9.5 203.5q0 221 -60 327.5t-192 106.5 q-78 0 -141.5 -42.5t-103.5 -115t-68.5 -157t-42 -182.5t-19.5 -175.5t-6 -150.5z" />
<glyph unicode="R" horiz-adv-x="1388" d="M-51 0l8 72l201 71l141 1143l-184 72l10 72h676q73 0 133.5 -7t122.5 -28t104.5 -54.5t69 -91.5t26.5 -135q0 -180 -103.5 -281.5t-283.5 -132.5l347 -557l182 -67l-10 -76h-445l-373 662h-41l-63 -519l174 -71l-10 -72h-682zM543 758h82q77 0 134.5 29t90 79.5t48 112 t15.5 133.5q0 104 -54 162.5t-157 58.5h-88z" />
<glyph unicode="S" horiz-adv-x="1087" d="M20 66l41 340h119l74 -291q80 -9 127 -9q291 0 291 232q0 31 -9 59t-20 47t-34.5 43t-37.5 36t-45 36l-186 150q-186 150 -186 327q0 107 42 188.5t114.5 129.5t161 72t190.5 24q78 0 160 -14t235 -50l-41 -329h-119l-63 262q-74 14 -125 14q-129 0 -199 -54t-70 -155 q0 -54 25.5 -96t87.5 -92l201 -160q119 -95 165 -175.5t46 -192.5q0 -189 -140.5 -308.5t-363.5 -119.5q-101 0 -277 43q-85 18 -164 43z" />
<glyph unicode="T" horiz-adv-x="1093" d="M20 1067l46 363h1140l-45 -363h-117l-65 266h-201l-145 -1190l235 -71l-8 -72h-801l11 72l254 71l145 1190h-199l-137 -266h-113z" />
<glyph unicode="U" horiz-adv-x="1478" d="M92 1358l8 72h695l-11 -72l-200 -72l-103 -846q-8 -82 -8 -114q0 -113 61 -171.5t179 -58.5q141 0 214 72t93 233l108 885l-182 72l8 72h586l-8 -72l-201 -72l-102 -831q-30 -250 -172.5 -369t-399.5 -119q-231 0 -363 100t-132 275q0 43 10 115l102 829z" />
<glyph unicode="V" horiz-adv-x="1327" d="M0 1358l8 72h631l-10 -72l-135 -72l145 -883q2 -14 4 -44t4 -44l463 971l-119 72l10 72h500l-8 -72l-186 -72l-693 -1296h-188l-248 1296z" />
<glyph unicode="W" horiz-adv-x="2031" d="M0 1358l8 72h608l-8 -72l-131 -72l90 -620q26 -191 33 -336l473 1100h174l115 -822q9 -69 33 -309l420 987l-119 72l8 72h502l-8 -72l-193 -72l-621 -1306h-219l-141 1015l-438 -1015h-213l-201 1306z" />
<glyph unicode="X" horiz-adv-x="1488" d="M-51 0l8 72l190 71l453 592l-278 551l-175 72l9 72h641l-11 -72l-135 -72l195 -373l250 373l-117 72l8 72h502l-8 -72l-185 -72l-387 -495l322 -648l176 -71l-8 -72h-639l8 72l135 71l-235 453l-297 -453l121 -71l-11 -72h-532z" />
<glyph unicode="Y" horiz-adv-x="1273" d="M0 1358l8 72h641l-10 -72l-137 -72l209 -526l329 526l-122 72l8 72h522l-8 -72l-185 -72l-485 -686l-55 -457l235 -71l-8 -72h-799l9 72l254 71l55 457l-289 686z" />
<glyph unicode="Z" horiz-adv-x="1253" d="M-10 0l12 102l887 1221h-467l-139 -266h-117l47 373h1051l-11 -80l-903 -1244h488l188 300h113l-80 -406h-1069z" />
<glyph unicode="[" horiz-adv-x="569" d="M41 -469l242 1972h395l-12 -106h-150l-217 -1759h150l-13 -107h-395z" />
<glyph unicode="\" horiz-adv-x="651" d="M0 1548h156l495 -2048h-157z" />
<glyph unicode="]" horiz-adv-x="569" d="M-109 -469l13 107h149l217 1759h-149l12 106h395l-241 -1972h-396z" />
<glyph unicode="^" horiz-adv-x="1214" d="M135 610l422 901h100l422 -901h-239l-234 531l-233 -531h-238z" />
<glyph unicode="_" horiz-adv-x="1024" d="M0 -154h1024v-102h-1024v102z" />
<glyph unicode="`" horiz-adv-x="569" d="M-94 1513h364l232 -319h-174z" />
<glyph unicode="a" horiz-adv-x="1193" d="M43 360q0 141 45 270t127 224q186 213 518 213q130 0 324 -41l-101 -831q0 -8 7 -15.5t13 -10.5l7 -3l133 164l55 -49q-80 -144 -157 -213q-106 -95 -228 -95q-73 0 -106 29.5t-33 95.5q0 38 2 52l17 116q-186 -299 -387 -299q-108 0 -172 106t-64 287zM369 373 q0 -114 12.5 -158.5t44.5 -44.5q18 0 42 15t89 65q76 58 119 96l72 588q-40 16 -86 16q-72 0 -120 -30t-85 -97q-40 -75 -64 -198t-24 -252z" />
<glyph unicode="b" horiz-adv-x="1124" d="M0 1366l8 66l531 73l-88 -725q84 139 185.5 218t197.5 79q113 0 176 -100.5t63 -278.5q0 -317 -178 -516q-95 -106 -214.5 -155.5t-277.5 -49.5q-172 0 -344 41l162 1317zM369 111q58 -17 94 -17q130 0 199 127q38 72 63 205t25 264q0 101 -14 142.5t-46 41.5 q-35 0 -129 -77q-82 -66 -121 -99z" />
<glyph unicode="c" horiz-adv-x="929" d="M51 375q0 108 26.5 210.5t79 191.5t125 156t171.5 105.5t211 38.5q136 0 208 -38.5t72 -112.5q0 -77 -47 -127.5t-117 -50.5q-56 0 -101 48t-97 165q-63 -23 -107.5 -84t-65.5 -141t-29.5 -151t-8.5 -141q0 -138 40.5 -211t116.5 -73q109 0 283 145l57 -67 q-118 -136 -225 -197t-231 -61q-170 0 -265.5 104.5t-95.5 290.5z" />
<glyph unicode="d" horiz-adv-x="1204" d="M51 362q0 153 49 284t138 226q86 92 202 142.5t250 50.5q6 0 34.5 -1t45.5 -1l33 272l-232 31l9 66l542 73l-157 -1308q0 -11 5 -19t10 -10l5 -2l133 166l56 -53q-90 -158 -184 -232t-202 -74q-70 0 -102.5 30t-32.5 95q0 18 4 54l15 118q-86 -147 -185.5 -225 t-199.5 -78q-112 0 -174 103.5t-62 291.5zM371 360q0 -65 6.5 -107.5t20.5 -62.5q13 -20 32 -20h2q33 3 129 78q66 52 121 98l72 592q-49 10 -86 10q-144 0 -211 -131q-34 -66 -60 -204t-26 -253z" />
<glyph unicode="e" horiz-adv-x="989" d="M51 383q0 136 44 267.5t118 221.5q171 205 440 205q295 0 295 -221q0 -224 -268 -305q-96 -30 -320 -45v-45q0 -147 43.5 -218t133.5 -71q54 0 117.5 31.5t166.5 109.5l64 -75q-252 -258 -482 -258q-166 0 -259 107t-93 296zM362 606q93 10 138.5 22t79.5 34 q47 29 75.5 84t28.5 118q0 46 -25 73.5t-69 27.5q-106 0 -168 -127q-42 -89 -60 -232z" />
<glyph unicode="f" horiz-adv-x="700" d="M-287 -350q0 63 40.5 111.5t94.5 48.5q47 0 85 -39t79 -131q40 27 65.5 89.5t32 103t13.5 117.5q1 4 1 6t0.5 5t0.5 6l94 973h-166l15 117h163l7 69q10 118 58 195t136 125q122 67 289 67q73 0 126 -11.5t79.5 -27t41.5 -39.5t18 -40t3 -37q0 -11 -3.5 -26.5t-13.5 -34.5 t-24.5 -34.5t-39 -26.5t-54.5 -11q-60 0 -95 36t-97 144q-26 -4 -49 -16.5t-31 -24.5q-3 -6 -9 -14.5t-8.5 -13.5t-6.5 -18.5t-6.5 -36.5t-6.5 -60l-17 -164h228l-15 -117h-225l-70 -698q-12 -128 -36 -239.5t-54 -176.5q-68 -148 -185.5 -226.5t-272.5 -78.5 q-90 0 -137.5 33t-47.5 96z" />
<glyph unicode="g" horiz-adv-x="1105" d="M-82 -242q0 54 74.5 126t208.5 147q-97 50 -97 121q0 54 53.5 107t198.5 144q-142 22 -216 93.5t-74 187.5q0 172 136 282.5t347 110.5q179 0 293 -92l315 98l-29 -241l-233 80q29 -41 40 -77t11 -91q0 -84 -38.5 -154.5t-101 -115t-139.5 -69t-157 -24.5q-27 0 -47 2 q-74 -71 -74 -100q0 -39 68 -53l329 -72q149 -32 195 -78q53 -50 53 -123q0 -122 -85.5 -224.5t-232.5 -162t-321 -59.5q-197 0 -337 69.5t-140 167.5zM135 -217q0 -56 81.5 -94.5t199.5 -38.5q137 0 245.5 57t108.5 129q0 33 -36 53.5t-132 42.5l-321 72q-18 -18 -58 -65 q-88 -104 -88 -156zM360 647q0 -155 121 -155q49 0 84.5 34t53 86.5t25 101t7.5 93.5q0 164 -114 164q-41 0 -73 -24t-51 -59.5t-31.5 -81t-17 -84.5t-4.5 -75z" />
<glyph unicode="h" horiz-adv-x="1183" d="M0 1366l8 66l543 75l-90 -737q79 142 189.5 224.5t219.5 82.5q78 0 121 -38.5t43 -108.5q0 -22 -4 -68l-86 -665q0 -11 5 -19t11 -10l5 -2l133 166l55 -53q-90 -159 -183.5 -232.5t-201.5 -73.5q-70 0 -102.5 30t-32.5 95q0 18 4 54l88 663q2 23 2 33q0 37 -22 37 q-17 0 -43.5 -18t-83.5 -66q-81 -72 -129 -117l-84 -684h-297l163 1335z" />
<glyph unicode="i" horiz-adv-x="665" d="M0 772q94 167 179.5 236t199.5 69q73 0 107 -29t34 -92l-4 -49l-90 -710q0 -11 5 -19t10 -10l5 -2l134 166l55 -53q-90 -159 -183.5 -232.5t-201.5 -73.5q-70 0 -102.5 30t-32.5 95q0 18 4 54l92 700q0 11 -6.5 19.5t-13.5 10.5l-7 3l-131 -156zM246 1315q0 168 194 168 q160 0 160 -127q0 -80 -49.5 -121t-144.5 -41q-160 0 -160 121z" />
<glyph unicode="j" horiz-adv-x="643" d="M-254 -350q0 62 40.5 109.5t92.5 47.5q46 0 81 -37.5t81 -134.5q13 10 24.5 24t20.5 26.5t16.5 33t12.5 33t10.5 37.5t8 35.5t6 39t4 35.5t3.5 36.5t3 31.5l88 885q0 11 -7 19.5t-13 10.5l-7 3l-131 -156l-53 43q94 167 179.5 236t199.5 69q73 0 107 -29t34 -92 q0 -13 -4 -49l-92 -852q-19 -176 -50 -258.5t-102 -144.5t-167 -97.5t-191 -35.5q-195 0 -195 131zM268 1315q0 168 195 168q160 0 160 -127q0 -79 -50 -120.5t-145 -41.5q-160 0 -160 121z" />
<glyph unicode="k" horiz-adv-x="1114" d="M0 1366l8 66l531 73l-185 -1505h-299l166 1335zM453 578l311 237q-49 70 -49 117q0 63 57 99t158 36q172 0 172 -98q0 -81 -125 -156l-258 -158l155 -344l66 -143l141 158l54 -50q-75 -144 -166.5 -220t-188.5 -76q-59 0 -96.5 45t-89.5 174q-98 250 -141 379z" />
<glyph unicode="l" horiz-adv-x="620" d="M0 1366l8 66l531 73l-158 -1308q0 -11 5 -19t10 -10l5 -2l134 166l55 -53q-90 -159 -183.5 -232.5t-201.5 -73.5q-70 0 -102.5 30t-32.5 95q0 18 4 54l147 1183z" />
<glyph unicode="m" horiz-adv-x="1779" d="M0 772q94 167 179.5 236t199.5 69q73 0 107 -29t34 -92q0 -13 -4 -49l-16 -137q86 147 193 227t216 80q75 0 118.5 -39t43.5 -106q0 -47 -4 -74l-12 -88q79 142 190.5 224.5t220.5 82.5q78 0 121 -38.5t43 -108.5q0 -22 -4 -68l-86 -665q0 -11 5 -19t11 -10l5 -2l133 166 l55 -53q-90 -159 -183.5 -232.5t-201.5 -73.5q-70 0 -102.5 30t-32.5 95q0 18 4 54l88 663q2 23 2 33q0 37 -23 37q-17 0 -43 -17.5t-83 -66.5q-104 -93 -130 -117l-83 -684h-299l100 811q4 40 4 47q0 12 -6 19.5t-15 7.5q-12 0 -24 -7t-47 -34q-74 -59 -185 -160l-83 -684 h-297l102 852q0 11 -6.5 19.5t-13.5 10.5l-7 3l-131 -156z" />
<glyph unicode="n" horiz-adv-x="1224" d="M0 772q94 167 179.5 236t199.5 69q73 0 107 -29t34 -92q0 -13 -4 -49l-16 -137q79 142 190.5 224.5t220.5 82.5q78 0 121 -38.5t43 -108.5q0 -22 -4 -68l-86 -665q0 -11 5.5 -19t10.5 -10l5 -2l133 166l55 -53q-90 -159 -183.5 -232.5t-201.5 -73.5q-70 0 -102.5 30 t-32.5 95q0 18 4 54l88 663q2 23 2 33q0 37 -23 37q-17 0 -43.5 -18t-83.5 -66q-81 -72 -129 -117l-83 -684h-300l105 852q0 11 -6.5 19.5t-13.5 10.5l-7 3l-131 -156z" />
<glyph unicode="o" horiz-adv-x="1107" d="M51 434q0 177 76 325t208.5 233t291.5 85q200 0 315 -121t115 -331q0 -182 -76.5 -333t-208.5 -238t-291 -87q-203 0 -316.5 123t-113.5 344zM362 322q0 -240 132 -240q59 0 105 52t71.5 126t42.5 166t22.5 160.5t5.5 120.5q0 136 -31 196t-100 60q-60 0 -106.5 -54 t-72 -130t-42.5 -170.5t-22 -164t-5 -122.5z" />
<glyph unicode="p" horiz-adv-x="1185" d="M-123 -479l8 61l191 82l147 1188q0 11 -6.5 19.5t-12.5 10.5l-7 3l-131 -156l-54 43q94 167 179.5 236t199.5 69q73 0 107 -29t34 -92q0 -13 -4 -49l-16 -127q91 146 190 221.5t199 75.5q109 0 171.5 -100t62.5 -275q0 -325 -179 -522q-88 -95 -200 -147.5t-228 -52.5 q-49 0 -112 14l-41 -330l225 -82l-8 -61h-715zM430 113q45 -17 92 -17q152 0 217 170q70 179 70 432q0 96 -13 136t-44 40q-20 0 -47.5 -16t-88.5 -63q-31 -25 -51.5 -42t-38.5 -33.5t-26 -23.5z" />
<glyph unicode="q" horiz-adv-x="1142" d="M51 362q0 199 79 358.5t231 253t352 93.5q31 0 61.5 -4.5t70 -13.5t58.5 -13l170 64l-176 -1436l162 -82l-8 -61h-652l9 61l192 82l74 602q-189 -299 -387 -299q-54 0 -97 27.5t-68.5 69t-42 96.5t-22.5 104t-6 98zM375 322q0 -8 0.5 -26.5t2.5 -30t4.5 -28t7 -27 t10.5 -20.5t14.5 -15t19.5 -5q12 0 33 11t42 25t50.5 37t47.5 38t44 37t31 26l74 590q-46 16 -90 16q-53 0 -97 -23t-73.5 -60t-52 -89.5t-35 -104.5t-20.5 -112.5t-10.5 -106.5t-2.5 -92v-16.5v-23.5z" />
<glyph unicode="r" horiz-adv-x="862" d="M0 772q94 167 179.5 236t199.5 69q73 0 107 -29t34 -92q0 -13 -4 -49l-18 -147q36 62 59 99.5t57.5 84.5t63.5 72t66.5 43t76.5 18q53 0 83 -33t30 -88q0 -47 -15.5 -95.5t-53.5 -87t-91 -38.5q-25 0 -47.5 9.5t-33 18t-29 28t-23.5 24.5q-10 -7 -34.5 -30.5t-47 -46 t-46.5 -47.5t-26 -27l-81 -664h-300l105 852q0 11 -6.5 19.5t-13.5 10.5l-7 3l-131 -156z" />
<glyph unicode="s" horiz-adv-x="811" d="M-10 145q0 64 45.5 109t107.5 45q61 0 99 -41.5t98 -175.5l16 2q127 24 127 145q0 59 -69 125l-189 183q-79 76 -107 126.5t-28 118.5q0 136 110.5 215.5t301.5 79.5q157 0 228 -42t71 -111t-40 -117.5t-97 -48.5q-54 0 -94.5 46.5t-94.5 172.5q-108 -19 -108 -119 q0 -38 18.5 -67.5t77.5 -85.5l147 -142q72 -69 99.5 -123t27.5 -127q0 -155 -114.5 -244t-311.5 -89q-156 0 -238.5 43.5t-82.5 121.5z" />
<glyph unicode="t" horiz-adv-x="718" d="M10 940l15 117h159l29 223h297l-27 -223h287l-14 -117h-287l-82 -659q0 -7 -1 -20t-1 -15q0 -53 39 -53q34 0 119 69q70 60 104 92l68 -61q-90 -124 -191 -209q-124 -104 -270 -104q-86 0 -131 43.5t-45 126.5q0 43 2 59l90 731h-160z" />
<glyph unicode="u" horiz-adv-x="1226" d="M0 772q94 167 179.5 236t199.5 69q73 0 107 -29t34 -92q0 -13 -4 -49l-86 -661q-2 -16 -2 -45q0 -31 21 -31q19 0 44 16.5t87 71.5q64 54 129 119l84 680h297l-103 -860q0 -11 5.5 -19t10.5 -10l5 -2l133 166l55 -53q-90 -159 -183.5 -232.5t-201.5 -73.5 q-70 0 -102.5 30t-32.5 95q0 36 2 54l18 137q-182 -322 -415 -322q-73 0 -116.5 41.5t-43.5 112.5l4 72l86 659q0 11 -6.5 19.5t-13.5 10.5l-7 3l-131 -156z" />
<glyph unicode="v" horiz-adv-x="1019" d="M-10 782q88 295 297 295q83 0 117 -54t57 -226q21 -150 49 -447q2 -24 5.5 -63.5t6.5 -83.5q115 212 164 338q61 152 68 168q-13 19 -38 49.5t-37.5 47.5t-23 50t-10.5 74q0 63 59.5 105t131.5 42q174 0 174 -114q0 -99 -220 -507q-7 -12 -10 -18q-154 -286 -248 -430 l-225 -35l-137 867q-2 10 -9 19.5t-13 13.5l-7 4l-90 -132z" />
<glyph unicode="w" horiz-adv-x="1601" d="M-10 782q43 144 119.5 219.5t179.5 75.5q92 0 127 -69q27 -50 49 -215q33 -244 44 -340.5t15 -200.5l283 786l182 31l121 -856q104 192 158 330q22 55 35.5 89t15.5 40.5t5 13t11 25.5q-13 18 -38 49t-37 48t-22.5 50t-10.5 74q0 63 59 105t131 42q174 0 174 -114 q0 -99 -229 -525q-154 -286 -248 -430l-211 -39l-110 697l-238 -658l-248 -39l-135 877q-1 8 -8 16t-14 12l-7 3l-92 -134z" />
<glyph unicode="x" horiz-adv-x="1058" d="M20 92q0 41 20 80t71 94q50 53 147.5 145.5t128.5 123.5l-156 321q-4 7 -10.5 11.5t-10.5 5.5l-5 1l-90 -131l-62 37q38 144 111 220.5t172 76.5q58 0 90.5 -29t75.5 -120l125 -264l98 116q-57 85 -57 160q0 63 46.5 100t125.5 37q68 0 109.5 -29.5t41.5 -80.5 q0 -44 -34 -97.5t-121 -146.5q-45 -47 -164 -156l178 -374q4 -7 10.5 -11.5t11.5 -5.5h5l88 131l63 -41q-86 -286 -276 -286q-66 0 -100 27.5t-74 113.5l-144 309l-133 -164q53 -85 53 -147q0 -65 -47.5 -102t-130.5 -37q-73 0 -114.5 29.5t-41.5 82.5z" />
<glyph unicode="y" horiz-adv-x="1040" d="M-113 -352q0 67 40 114.5t96 47.5q15 0 28.5 -5t24 -10.5t22.5 -19t18.5 -21t17.5 -26t14.5 -25.5t13.5 -27.5t12 -23.5q46 19 73 42.5t64 76.5q43 60 86 151l-200 922q-2 9 -10.5 17t-16.5 12l-8 4l-88 -132l-62 37q43 141 120 218t175 77q80 0 121 -58t70 -218l34 -191 q18 -105 25 -147q13 -87 25 -215q31 67 116 264q46 109 78 195q-65 82 -86.5 125t-21.5 96q0 60 58.5 104.5t131.5 44.5q91 0 131.5 -28t40.5 -86q0 -57 -78 -236q-85 -194 -305 -627q-86 -167 -170 -307q-85 -142 -178 -207t-213 -65q-199 0 -199 127z" />
<glyph unicode="z" horiz-adv-x="937" d="M-20 37q0 44 88 145l620 721q-56 -48 -104.5 -65t-132.5 -17q-32 0 -66.5 3t-84.5 9.5t-67 8.5l-88 -131l-61 39q44 135 100 204q84 113 211 113q77 0 293 -45q50 -8 68 -8q19 0 30 4.5t29 21.5q25 29 68 29q30 0 47.5 -16t17.5 -43q0 -20 -8.5 -35t-42.5 -55l-659 -760 q54 43 110 59.5t148 16.5q101 0 266 -13l96 137l62 -41q-25 -110 -93 -219q-43 -68 -86 -94t-112 -26q-103 0 -324 51q-105 22 -133 22q-23 0 -32.5 -7.5t-26.5 -39.5q-15 -29 -56 -29q-35 0 -56 16t-21 44z" />
<glyph unicode="{" horiz-adv-x="835" d="M27 547v10q77 21 124.5 45t77 62.5t43.5 84.5t23 121l22 177q19 155 49 232t93 136q69 63 165.5 95t235.5 36l-12 -96q-127 -14 -186 -90q-34 -41 -50 -89.5t-28 -146.5l-17 -135q-13 -118 -34.5 -188t-57.5 -123q-76 -106 -242 -127q159 -18 211 -125q27 -60 28 -151 t-11 -160l-17 -138q-12 -95 -8 -145t27 -88q44 -76 164 -90l-13 -98q-137 5 -225.5 37t-142.5 96q-48 57 -58.5 134.5t7.5 231.5l22 178q16 95 3.5 156t-56 95.5t-137.5 62.5z" />
<glyph unicode="|" horiz-adv-x="514" d="M174 -500v2048h166v-2048h-166z" />
<glyph unicode="}" horiz-adv-x="833" d="M-78 -444l12 98q125 14 189 90q31 39 47.5 89t28.5 144l16 138q8 66 15 108.5t27.5 101.5t51.5 101q76 107 240 125q-159 21 -209 127q-24 50 -28 120t10 191l16 135q12 98 9 146.5t-25 89.5q-44 76 -166 90l12 96q136 -4 225.5 -36t143.5 -95q48 -59 58.5 -135.5 t-7.5 -232.5l-23 -177q-14 -92 -2.5 -152.5t55.5 -96.5t138 -64v-10q-148 -40 -199 -102t-70 -212l-22 -178q-19 -154 -48.5 -231.5t-92.5 -134.5q-69 -64 -165.5 -96t-236.5 -37z" />
<glyph unicode="~" horiz-adv-x="1243" d="M4 313q38 221 125 344t205 123q40 0 85.5 -10.5t75 -22t80.5 -32.5l134 -56q4 -2 26.5 -11.5t29.5 -12.5t27 -11t30 -11t28 -9t30.5 -8t28.5 -4t31 -2q74 0 119.5 47.5t79.5 159.5h100q-12 -61 -26.5 -115.5t-43 -122.5t-63.5 -116.5t-88.5 -81.5t-116.5 -33 q-42 0 -102.5 16.5t-96 30.5t-100.5 41l-104 45q-133 57 -197 57q-69 0 -117 -50t-80 -155h-100z" />
<glyph unicode="&#xa1;" horiz-adv-x="643" d="M20 -289q0 19 6 49t16.5 70.5t12.5 50.5l187 813h141l-14 -829q-1 -115 -7 -142q-13 -71 -76 -93q-38 -13 -102 -13q-164 0 -164 94zM170 915q0 162 178 162q80 0 123 -33t43 -94q0 -78 -46 -120t-132 -42t-126 30.5t-40 96.5z" />
<glyph unicode="&#xa2;" horiz-adv-x="909" d="M51 375q0 127 37 245.5t105 214.5t172 160t229 78l16 121h119l-16 -119q113 -6 172 -44t59 -105q0 -77 -47 -127.5t-117 -50.5q-56 0 -106 53l-86 -631q93 27 223 135l57 -67q-155 -180 -303 -234l-20 -158h-119l18 134h-32q-170 0 -265.5 104.5t-95.5 290.5zM371 444 q0 -219 98 -270l109 784q-61 -25 -105 -85.5t-64.5 -139.5t-29 -149t-8.5 -140z" />
<glyph unicode="&#xa3;" horiz-adv-x="1214" d="M8 55q0 67 60 101.5t135 40.5q25 79 45 249l24 205h-147l14 117h148l26 209q14 111 47.5 176.5t102.5 112.5q153 110 416 110q189 0 274 -53q53 -30 53 -104q0 -68 -45.5 -115t-111.5 -47q-57 0 -97.5 42t-103.5 167q-28 4 -39 4q-56 0 -97 -33t-59 -102 q-22 -92 -32 -174l-25 -193h309l-14 -117h-309l-11 -106q-9 -89 -29.5 -145t-58.5 -97q-34 -37 -137 -102l16 -23q78 49 111 61.5t74 12.5q50 0 174.5 -26.5t193.5 -47.5l189 205l59 -55q-80 -131 -159 -224q-72 -83 -121.5 -115t-106.5 -32q-59 0 -153 25l-105 28l-252 66 q-63 -96 -166 -96q-41 0 -66.5 20.5t-25.5 54.5z" />
<glyph unicode="&#xa4;" horiz-adv-x="1243" d="M115 354l135 138q-49 74 -66.5 129t-17.5 131q0 73 18 129t66 135l-135 133l110 111l135 -134q77 46 132.5 63t130.5 17q73 0 128 -17.5t132 -64.5l135 136l110 -111l-135 -133q48 -78 66 -135t18 -129q0 -74 -17.5 -129t-66.5 -131l135 -138l-110 -108l-135 131 q-77 -46 -132 -63t-128 -17q-77 0 -132 17.5t-131 66.5l-135 -135zM379 752q0 -100 71 -171t171 -71q101 0 172 71t71 171t-71 170.5t-172 70.5q-100 0 -171 -70.5t-71 -170.5z" />
<glyph unicode="&#xa5;" horiz-adv-x="1214" d="M27 1294l8 70h641l-10 -70l-138 -67l142 -500l254 500l-123 67l8 70h522l-8 -70l-184 -67l-383 -617h243l-10 -106h-266l-12 -101h266l-14 -106h-267l-22 -160l235 -67l-8 -70h-801l11 70l254 67l20 160h-266l12 106h266l15 101h-267l11 106h254l-211 617z" />
<glyph unicode="&#xa6;" horiz-adv-x="464" d="M106 -262v524h252v-524h-252zM106 786v525h252v-525h-252z" />
<glyph unicode="&#xa7;" horiz-adv-x="1214" d="M113 -199q0 63 41 109.5t96 46.5q58 0 98 -39.5t107 -165.5q67 10 108 46t41 102q0 50 -24 80t-97 73l-104 62q-44 26 -74 46t-62.5 49t-52 59t-32.5 70t-13 87q0 255 332 362q-91 57 -130.5 115.5t-39.5 136.5q0 155 127.5 250.5t333.5 95.5q46 0 89 -5t95 -18.5 t83.5 -46t31.5 -79.5q0 -65 -40 -112.5t-95 -47.5q-59 0 -101.5 41.5t-105.5 161.5l-14 -2q-68 -15 -103 -53t-35 -92q0 -24 11 -46.5t22 -37t37.5 -34.5t36.5 -26.5t41 -25.5l84 -52q48 -29 74 -46.5t60.5 -47t51 -57t29 -68t12.5 -88.5q0 -253 -334 -360q90 -47 132 -109 t42 -149q0 -149 -127 -243.5t-327 -94.5q-305 0 -305 153zM403 520q0 -108 129 -180l107 -59q135 103 135 225q0 61 -36.5 109.5t-114.5 91.5l-82 45q-138 -99 -138 -232z" />
<glyph unicode="&#xa8;" horiz-adv-x="571" d="M57 1307q0 75 43 115t123 40q65 0 100 -28t35 -80q0 -68 -44 -108t-119 -40q-65 0 -101.5 27t-36.5 74zM516 1313q0 71 45 110t127 39q62 0 95.5 -27.5t33.5 -78.5q0 -69 -45.5 -109.5t-122.5 -40.5q-63 0 -98 28t-35 79z" />
<glyph unicode="&#xa9;" horiz-adv-x="1677" d="M61 743q0 218 104.5 400t286 287.5t398.5 105.5q163 0 306.5 -61t243.5 -166t158 -250t58 -307t-60 -309t-162.5 -254.5t-246.5 -171t-305 -64.5t-306 61.5t-249 168.5t-165 252t-61 308zM229 743q0 -174 79 -322t220.5 -236.5t313.5 -88.5q130 0 244 53t193.5 142 t125 209t45.5 252q0 129 -44.5 246.5t-122.5 204t-190.5 137.5t-242.5 51q-174 0 -317.5 -88t-223.5 -236.5t-80 -323.5zM430 760q0 204 128.5 318t330.5 114q89 0 254 -39v-199h-72l-61 164q-23 2 -62 2q-154 0 -233.5 -95.5t-79.5 -254.5q0 -156 72 -248t225 -92 q43 0 80 6l67 164h72l-16 -199q-168 -45 -281 -45q-194 0 -309 106t-115 298z" />
<glyph unicode="&#xaa;" horiz-adv-x="794" d="M109 967q0 179 106 297q114 129 322 129q82 0 200 -25l-61 -500q0 -5 4 -9.5t8 -6.5l4 -2l82 98l35 -28q-52 -86 -98 -127q-64 -58 -142 -58q-46 0 -66 18t-20 58q0 21 2 31l9 69q-114 -180 -240 -180q-66 0 -105.5 64.5t-39.5 171.5zM311 975q0 -68 7.5 -94.5 t27.5 -26.5q21 0 82 47q23 18 43.5 33.5t30.5 23.5l43 355q-20 8 -53 8q-45 0 -74.5 -17.5t-52.5 -58.5q-25 -44 -39.5 -118.5t-14.5 -151.5z" />
<glyph unicode="&#xab;" horiz-adv-x="1024" d="M102 530l293 418h205l-293 -418l193 -403h-205zM455 530l293 418h206l-297 -418l197 -403h-207z" />
<glyph unicode="&#xac;" horiz-adv-x="1243" d="M88 840v225h1086v-715h-230v490h-856z" />
<glyph unicode="&#xad;" horiz-adv-x="645" d="M61 459l27 223h535l-29 -223h-533z" />
<glyph unicode="&#xae;" horiz-adv-x="1677" d="M61 743q0 218 104.5 400t286 287.5t398.5 105.5q163 0 306.5 -61t243.5 -166t158 -250t58 -307t-60 -309t-162.5 -254.5t-246.5 -171t-305 -64.5t-306 61.5t-249 168.5t-165 252t-61 308zM229 743q0 -174 79 -322t220.5 -236.5t313.5 -88.5q130 0 244 53t193.5 142 t125 209t45.5 252q0 129 -44.5 246.5t-122.5 204t-190.5 137.5t-242.5 51q-174 0 -317.5 -88t-223.5 -236.5t-80 -323.5zM473 373v37l102 47v641l-102 47v37h393q277 0 277 -201q0 -167 -178 -211l217 -313l100 -47v-37h-252l-254 385h-22v-301l102 -47v-37h-383zM754 807 h65q63 0 97 43t34 123q0 149 -135 149h-61v-315z" />
<glyph unicode="&#xaf;" horiz-adv-x="567" d="M94 1260l21 170h661l-20 -170h-662z" />
<glyph unicode="&#xb0;" horiz-adv-x="835" d="M104 1198q0 130 91.5 221.5t222.5 91.5q130 0 221.5 -91.5t91.5 -221.5q0 -129 -92 -221t-221 -92t-221.5 92t-92.5 221zM252 1198q0 -64 51 -115t115 -51t115 51t51 115t-51 115t-115 51t-115 -51t-51 -115z" />
<glyph unicode="&#xb1;" horiz-adv-x="1245" d="M100 0v225h1024v-225h-1024zM100 823v221h410v392h225v-392h410v-221h-410v-432h-225v432h-410z" />
<glyph unicode="&#xb2;" horiz-adv-x="757" d="M98 553l8 61q64 55 205 187q148 139 206 225t58 166q0 62 -28 93.5t-88 35.5q-7 -11 -22.5 -37.5t-25 -40t-26 -31t-36.5 -25t-46 -7.5q-41 0 -68.5 25t-27.5 63q0 116 282 116q310 0 310 -186q0 -114 -101 -207q-100 -97 -405 -297h293l82 121h73l-45 -262h-598z" />
<glyph unicode="&#xb3;" horiz-adv-x="759" d="M117 647q0 40 28.5 68t69.5 28q42 0 71 -28t76 -113q82 6 124 52.5t42 129.5q0 76 -53 117q-25 17 -50.5 23t-76.5 6h-41l8 69h33q215 0 215 197q0 100 -86 119q-12 4 -20 4q-18 -56 -53 -97.5t-85 -41.5q-44 0 -71 25.5t-27 66.5q0 112 273 112q138 0 211 -48t73 -140 q0 -56 -21.5 -99t-60 -69.5t-83 -41.5t-97.5 -21q114 -12 174 -61.5t60 -131.5q0 -106 -99.5 -169.5t-265.5 -63.5q-37 0 -72.5 3t-85 12.5t-80 33t-30.5 59.5z" />
<glyph unicode="&#xb4;" horiz-adv-x="567" d="M362 1194l312 319h364l-499 -319h-177z" />
<glyph unicode="&#xb6;" horiz-adv-x="1280" d="M88 877q19 163 107 290t228 197t310 70h600l-16 -140h-129l-152 -1222q-12 -107 -65.5 -210t-128.5 -165q-72 -59 -180.5 -94t-210.5 -35q-61 0 -99 6t-94 23l31 256h180l51 -158q109 9 180.5 103t92.5 272l151 1224h-162l-112 -907q-91 -18 -185 -18q-123 0 -221 70 t-145.5 187t-30.5 251z" />
<glyph unicode="&#xb7;" horiz-adv-x="608" d="M129 541q0 72 51 123t123 51q71 0 121.5 -51t50.5 -123q0 -71 -50.5 -121.5t-121.5 -50.5q-72 0 -123 50.5t-51 121.5z" />
<glyph unicode="&#xb8;" horiz-adv-x="571" d="M80 -414q107 55 149.5 97t42.5 92q0 26 -13.5 41t-47.5 24l20 160h150l-8 -61q94 -21 129 -47t35 -95q0 -26 -9 -50.5t-22 -45t-36.5 -41t-43 -35t-52.5 -31.5t-55 -27t-58.5 -24.5t-55 -20.5t-54 -18t-45.5 -16z" />
<glyph unicode="&#xb9;" horiz-adv-x="757" d="M182 553l6 43l172 43l76 569l-235 -45l8 58q80 26 125.5 41.5t124 52.5t106.5 69h94l-98 -745l154 -43l-6 -43h-527z" />
<glyph unicode="&#xba;" horiz-adv-x="720" d="M66 1001q0 161 107.5 273t264.5 112q131 0 206 -72.5t75 -199.5q0 -165 -108.5 -279t-266.5 -114q-132 0 -205 74t-73 206zM268 934q0 -146 86 -146q37 0 66.5 31t46.5 75t28 99t15 97t4 75q0 82 -20 118t-66 36q-38 0 -67.5 -31.5t-46.5 -77t-28 -101.5t-14.5 -99 t-3.5 -76z" />
<glyph unicode="&#xbb;" horiz-adv-x="1024" d="M72 127l297 418l-197 403h207l190 -403l-290 -418h-207zM424 127l295 418l-195 403h205l195 -403l-295 -418h-205z" />
<glyph unicode="&#xbc;" horiz-adv-x="1896" d="M160 553l6 43l172 43l76 569l-236 -45l8 58q299 96 357 163h94l-98 -745l153 -43l-6 -43h-526zM444 -35l1033 1424h145l-1034 -1424h-144zM1139 211l12 86l475 534h135l-65 -505h110l-16 -115h-111l-16 -125l119 -43l-6 -43h-437l7 43l137 43l16 125h-360zM1280 326h233 l50 329z" />
<glyph unicode="&#xbd;" horiz-adv-x="1896" d="M182 553l6 43l172 43l76 569l-235 -45l8 58q80 26 125.5 41.5t124 52.5t106.5 69h94l-98 -745l154 -43l-6 -43h-527zM406 -35l1032 1424h145l-1032 -1424h-145zM1174 0l8 61q64 53 207 187q149 141 206.5 226t57.5 165q0 62 -29 93.5t-90 35.5q-2 -3 -11.5 -21t-12.5 -23 t-12.5 -20.5t-15 -21t-15 -17t-18 -16.5t-20 -11t-23.5 -8.5t-26 -2.5q-41 0 -68.5 25t-27.5 63q0 116 283 116q309 0 309 -186q0 -113 -102 -207q-110 -107 -406 -297h295l82 121h74l-47 -262h-598z" />
<glyph unicode="&#xbe;" horiz-adv-x="1896" d="M117 647q0 40 28.5 68t69.5 28q42 0 71 -28t76 -113q82 6 124 52.5t42 129.5q0 76 -53 117q-25 17 -50.5 23t-76.5 6h-41l8 69h33q215 0 215 197q0 100 -86 119q-12 4 -20 4q-18 -56 -53 -97.5t-85 -41.5q-44 0 -71 25.5t-27 66.5q0 112 273 112q138 0 211 -48t73 -140 q0 -56 -21.5 -99t-60 -69.5t-83 -41.5t-97.5 -21q114 -12 174 -61.5t60 -131.5q0 -106 -99.5 -169.5t-265.5 -63.5q-37 0 -72.5 3t-85 12.5t-80 33t-30.5 59.5zM467 -35l1032 1424h146l-1033 -1424h-145zM1139 211l12 86l475 534h137l-67 -505h110l-16 -115h-111l-16 -125 l119 -43l-6 -43h-437l7 43l137 43l16 125h-360zM1280 326h233l52 329z" />
<glyph unicode="&#xbf;" horiz-adv-x="1024" d="M41 -90q0 86 47 176.5t150 200.5l200 217q55 61 63 75.5t13 55.5l8 61h170l-6 -53q-7 -66 -16 -89.5t-58 -115.5l-100 -186q-4 -7 -11 -20q-44 -79 -64.5 -121.5t-40 -111.5t-19.5 -138q0 -148 123 -148q16 22 36.5 58.5t36.5 64t38 55.5t52.5 43t69.5 15q64 0 106 -42.5 t42 -107.5q0 -81 -64 -118q-56 -32 -149 -52t-191 -20q-212 0 -324 77.5t-112 223.5zM465 924q0 75 46 115t134 40q81 0 123.5 -31t42.5 -90q0 -82 -46 -124.5t-132 -42.5t-127 32.5t-41 100.5z" />
<glyph unicode="&#xc0;" horiz-adv-x="1357" d="M-143 0l8 72l186 71l694 1297h191l248 -1297l174 -71l-8 -72h-629l8 72l135 71l-63 406h-375l-188 -406l118 -71l-8 -72h-491zM453 1886h364l232 -319h-175zM471 645h320l-46 270q-18 104 -28 218z" />
<glyph unicode="&#xc1;" horiz-adv-x="1357" d="M-143 0l8 72l186 71l694 1297h191l248 -1297l174 -71l-8 -72h-629l8 72l135 71l-63 406h-375l-188 -406l118 -71l-8 -72h-491zM471 645h320l-46 270q-18 104 -28 218zM623 1567l311 319h364l-499 -319h-176z" />
<glyph unicode="&#xc2;" horiz-adv-x="1357" d="M-143 0l8 72l186 71l694 1297h191l248 -1297l174 -71l-8 -72h-629l8 72l135 71l-63 406h-375l-188 -406l118 -71l-8 -72h-491zM434 1546l436 381l349 -381h-205l-174 129l-201 -129h-205zM471 645h320l-46 270q-18 104 -28 218z" />
<glyph unicode="&#xc3;" horiz-adv-x="1357" d="M-143 0l8 72l186 71l694 1297h191l248 -1297l174 -71l-8 -72h-629l8 72l135 71l-63 406h-375l-188 -406l118 -71l-8 -72h-491zM471 645h320l-46 270q-18 104 -28 218zM477 1690q56 63 180 153q42 29 93 29t110 -27l119 -55q45 -25 70 -25q18 0 40.5 15.5t100.5 81.5 l80 -97q-56 -63 -180 -153q-42 -29 -93 -29t-110 27l-119 55q-45 25 -70 25q-18 0 -40.5 -15.5t-100.5 -81.5z" />
<glyph unicode="&#xc4;" horiz-adv-x="1357" d="M-143 0l8 72l186 71l694 1297h191l248 -1297l174 -71l-8 -72h-629l8 72l135 71l-63 406h-375l-188 -406l118 -71l-8 -72h-491zM471 645h320l-46 270q-18 104 -28 218zM471 1679q0 75 43 115.5t123 40.5q65 0 100 -28.5t35 -80.5q0 -67 -44.5 -107t-119.5 -40 q-65 0 -101 26.5t-36 73.5zM930 1686q0 71 45 110t127 39q62 0 95.5 -27.5t33.5 -78.5q0 -69 -45.5 -109.5t-122.5 -40.5q-63 0 -98 28t-35 79z" />
<glyph unicode="&#xc5;" horiz-adv-x="1357" d="M-143 0l8 72l186 71l694 1297h191l248 -1297l174 -71l-8 -72h-629l8 72l135 71l-63 406h-375l-188 -406l118 -71l-8 -72h-491zM471 645h320l-46 270q-18 104 -28 218zM559 1743q0 209 318 209q142 0 207 -38.5t65 -121.5q0 -106 -80.5 -160.5t-237.5 -54.5 q-139 0 -205.5 40.5t-66.5 125.5zM762 1743q0 -37 18 -53.5t58 -16.5q108 0 108 107q0 40 -18.5 57.5t-61.5 17.5q-104 0 -104 -112z" />
<glyph unicode="&#xc6;" horiz-adv-x="1708" d="M-225 0l8 72l186 71l764 1287h955l-41 -332h-107l-76 235h-354l-70 -592h263l110 187h117l-57 -469h-117l-66 186h-264l-65 -549h352l168 234h110l-78 -330h-1003l10 72l135 71l62 502h-301l-262 -502l120 -71l-8 -72h-491zM467 741h264l74 607z" />
<glyph unicode="&#xc7;" horiz-adv-x="1316" d="M72 553q0 191 56.5 354.5t160.5 284.5t261.5 189.5t350.5 68.5q70 0 146 -9.5t125.5 -19.5t134.5 -30l-41 -334h-115l-70 268q-39 2 -94 2q-121 0 -220.5 -44.5t-165 -118t-110.5 -172t-65 -204t-20 -217.5q0 -241 98 -353t309 -112q26 0 84 7l190 303h117l-74 -340 q-188 -73 -395 -92l-6 -45q94 -21 129 -47t35 -95q0 -26 -9 -51t-21.5 -45t-36 -40.5t-43.5 -35t-53 -31.5t-54.5 -27t-58.5 -24.5t-54.5 -20.5t-53.5 -18.5t-46 -15.5l-27 98q107 55 150 97t43 92q0 26 -14 41t-48 24l19 142q-242 15 -378 165.5t-136 405.5z" />
<glyph unicode="&#xc8;" horiz-adv-x="1202" d="M-51 0l8 72l201 71l141 1143l-184 72l10 72h1077l-43 -343h-106l-74 246h-365l-69 -559h264l113 191h116l-59 -469h-117l-67 182h-263l-69 -582h346l174 234h119l-78 -330h-1075zM379 1886h364l232 -319h-174z" />
<glyph unicode="&#xc9;" horiz-adv-x="1202" d="M-51 0l8 72l201 71l141 1143l-184 72l10 72h1077l-43 -343h-106l-74 246h-365l-69 -559h264l113 191h116l-59 -469h-117l-67 182h-263l-69 -582h346l174 234h119l-78 -330h-1075zM524 1567l312 319h364l-500 -319h-176z" />
<glyph unicode="&#xca;" horiz-adv-x="1202" d="M-51 0l8 72l201 71l141 1143l-184 72l10 72h1077l-43 -343h-106l-74 246h-365l-69 -559h264l113 191h116l-59 -469h-117l-67 182h-263l-69 -582h346l174 234h119l-78 -330h-1075zM340 1546l436 381l348 -381h-204l-175 129l-200 -129h-205z" />
<glyph unicode="&#xcb;" horiz-adv-x="1202" d="M-51 0l8 72l201 71l141 1143l-184 72l10 72h1077l-43 -343h-106l-74 246h-365l-69 -559h264l113 191h116l-59 -469h-117l-67 182h-263l-69 -582h346l174 234h119l-78 -330h-1075zM387 1679q0 75 43 115.5t123 40.5q65 0 100 -28.5t35 -80.5q0 -67 -44.5 -107t-119.5 -40 q-65 0 -101 26.5t-36 73.5zM846 1686q0 71 45 110t127 39q62 0 95.5 -27.5t33.5 -78.5q0 -69 -45.5 -109.5t-122.5 -40.5q-63 0 -98 28t-35 79z" />
<glyph unicode="&#xcc;" horiz-adv-x="765" d="M-51 0l8 72l201 71l141 1143l-184 72l10 72h692l-8 -72l-201 -72l-141 -1143l184 -71l-10 -72h-692zM129 1886h365l231 -319h-174z" />
<glyph unicode="&#xcd;" horiz-adv-x="765" d="M-51 0l8 72l201 71l141 1143l-184 72l10 72h692l-8 -72l-201 -72l-141 -1143l184 -71l-10 -72h-692zM301 1567l311 319h365l-500 -319h-176z" />
<glyph unicode="&#xce;" horiz-adv-x="765" d="M-51 0l8 72l201 71l141 1143l-184 72l10 72h692l-8 -72l-201 -72l-141 -1143l184 -71l-10 -72h-692zM96 1546l436 381l349 -381h-205l-174 129l-201 -129h-205z" />
<glyph unicode="&#xcf;" horiz-adv-x="765" d="M-51 0l8 72l201 71l141 1143l-184 72l10 72h692l-8 -72l-201 -72l-141 -1143l184 -71l-10 -72h-692zM125 1679q0 75 43 115.5t123 40.5q65 0 100 -28.5t35 -80.5q0 -67 -44.5 -107t-119.5 -40q-65 0 -101 26.5t-36 73.5zM584 1686q0 71 45 110t127 39q62 0 95.5 -27.5 t33.5 -78.5q0 -69 -45.5 -109.5t-122.5 -40.5q-63 0 -98 28t-35 79z" />
<glyph unicode="&#xd0;" horiz-adv-x="1478" d="M-51 0l8 72l201 71l82 650h-193l12 114h193l47 379l-184 72l10 72h614q129 0 228 -13.5t190 -50.5t149.5 -98.5t93 -161.5t34.5 -236q0 -261 -94 -456t-281.5 -304.5t-448.5 -109.5h-661zM465 106h70q101 0 186.5 31.5t147 87t108 128t74.5 159t41.5 175.5t13.5 181 q0 100 -20 180t-62.5 143t-116.5 97.5t-176 34.5h-119l-51 -416h203l-12 -114h-203z" />
<glyph unicode="&#xd1;" horiz-adv-x="1460" d="M-61 0l8 72l200 71l142 1143l-185 72l11 72h438l524 -916l97 772l-183 72l8 72h543l-8 -72l-201 -72l-159 -1296h-123l-627 1083l-117 -930l185 -71l-9 -72h-544zM516 1679q62 67 182 154q42 29 90 29q54 0 113 -27l117 -55q50 -25 72 -25q18 0 41 16t100 80l80 -96 q-54 -61 -181 -153q-37 -29 -92 -29q-59 0 -110 26l-119 56q-60 24 -72 24q-18 0 -39 -15t-100 -81z" />
<glyph unicode="&#xd2;" horiz-adv-x="1429" d="M72 569q0 130 29.5 256.5t91 239.5t147.5 198.5t206.5 136t260.5 50.5q182 0 307.5 -78.5t184.5 -213.5t59 -316q0 -134 -29.5 -260.5t-90 -238.5t-146.5 -195.5t-207 -132t-262 -48.5q-255 0 -403 162t-148 440zM401 510q0 -218 59.5 -322t194.5 -104q88 0 157 56 t109.5 141.5t67 199t36 215t9.5 203.5q0 221 -60 327.5t-192 106.5q-78 0 -141.5 -42.5t-103.5 -115t-68.5 -157t-42 -182.5t-19.5 -175.5t-6 -150.5zM414 1886h364l232 -319h-174z" />
<glyph unicode="&#xd3;" horiz-adv-x="1429" d="M72 569q0 130 29.5 256.5t91 239.5t147.5 198.5t206.5 136t260.5 50.5q182 0 307.5 -78.5t184.5 -213.5t59 -316q0 -134 -29.5 -260.5t-90 -238.5t-146.5 -195.5t-207 -132t-262 -48.5q-255 0 -403 162t-148 440zM401 510q0 -218 59.5 -322t194.5 -104q88 0 157 56 t109.5 141.5t67 199t36 215t9.5 203.5q0 221 -60 327.5t-192 106.5q-78 0 -141.5 -42.5t-103.5 -115t-68.5 -157t-42 -182.5t-19.5 -175.5t-6 -150.5zM578 1567l311 319h364l-499 -319h-176z" />
<glyph unicode="&#xd4;" horiz-adv-x="1429" d="M72 569q0 130 29.5 256.5t91 239.5t147.5 198.5t206.5 136t260.5 50.5q182 0 307.5 -78.5t184.5 -213.5t59 -316q0 -134 -29.5 -260.5t-90 -238.5t-146.5 -195.5t-207 -132t-262 -48.5q-255 0 -403 162t-148 440zM401 510q0 -218 59.5 -322t194.5 -104q88 0 157 56 t109.5 141.5t67 199t36 215t9.5 203.5q0 221 -60 327.5t-192 106.5q-78 0 -141.5 -42.5t-103.5 -115t-68.5 -157t-42 -182.5t-19.5 -175.5t-6 -150.5zM436 1546l436 381l349 -381h-205l-174 129l-201 -129h-205z" />
<glyph unicode="&#xd5;" horiz-adv-x="1429" d="M72 569q0 130 29.5 256.5t91 239.5t147.5 198.5t206.5 136t260.5 50.5q182 0 307.5 -78.5t184.5 -213.5t59 -316q0 -134 -29.5 -260.5t-90 -238.5t-146.5 -195.5t-207 -132t-262 -48.5q-255 0 -403 162t-148 440zM401 510q0 -218 59.5 -322t194.5 -104q88 0 157 56 t109.5 141.5t67 199t36 215t9.5 203.5q0 221 -60 327.5t-192 106.5q-78 0 -141.5 -42.5t-103.5 -115t-68.5 -157t-42 -182.5t-19.5 -175.5t-6 -150.5zM471 1690q56 63 180 153q42 29 92 29q52 0 111 -27l119 -55q45 -25 69 -25q18 0 41.5 16t100.5 81l80 -97 q-54 -61 -181 -153q-42 -29 -92 -29q-51 0 -110 27l-119 55q-45 25 -70 25q-18 0 -40.5 -15.5t-100.5 -81.5z" />
<glyph unicode="&#xd6;" horiz-adv-x="1429" d="M72 569q0 130 29.5 256.5t91 239.5t147.5 198.5t206.5 136t260.5 50.5q182 0 307.5 -78.5t184.5 -213.5t59 -316q0 -134 -29.5 -260.5t-90 -238.5t-146.5 -195.5t-207 -132t-262 -48.5q-255 0 -403 162t-148 440zM401 510q0 -218 59.5 -322t194.5 -104q88 0 157 56 t109.5 141.5t67 199t36 215t9.5 203.5q0 221 -60 327.5t-192 106.5q-78 0 -141.5 -42.5t-103.5 -115t-68.5 -157t-42 -182.5t-19.5 -175.5t-6 -150.5zM481 1679q0 75 43 115.5t123 40.5q65 0 100 -28.5t35 -80.5q0 -67 -44.5 -107t-119.5 -40q-65 0 -101 26.5t-36 73.5z M940 1686q0 71 45 110t127 39q62 0 95.5 -27.5t33.5 -78.5q0 -69 -45.5 -109.5t-122.5 -40.5q-63 0 -98 28t-35 79z" />
<glyph unicode="&#xd7;" horiz-adv-x="1243" d="M98 348l361 361l-361 360l183 182l360 -360l363 360l182 -182l-363 -360l363 -361l-182 -182l-363 360l-360 -360z" />
<glyph unicode="&#xd8;" horiz-adv-x="1402" d="M72 573q0 132 29.5 258.5t91 238.5t147 196.5t206 134t259.5 49.5q124 0 237 -41l93 170l79 -43l-92 -168q131 -99 182.5 -221t51.5 -301q0 -134 -29.5 -261t-90 -239.5t-146.5 -196.5t-207 -133t-262 -49q-130 0 -236 49l-88 -168l-82 46l90 163q-127 91 -180 217.5 t-53 298.5zM399 492q0 -121 25 -213l528 964q-37 49 -75.5 69.5t-94.5 20.5q-68 0 -124.5 -35t-95 -92t-68.5 -134t-47.5 -154.5t-28.5 -161t-15 -146.5t-4 -118zM473 180q38 -54 77.5 -75t100.5 -21q66 0 122 34.5t94 90t68 131t47.5 152t28.5 158.5t15 144.5t4 116.5 q0 128 -29 232z" />
<glyph unicode="&#xd9;" horiz-adv-x="1488" d="M92 1358l8 72h695l-11 -72l-200 -72l-103 -846q-8 -82 -8 -114q0 -113 61 -171.5t179 -58.5q141 0 214 72t93 233l108 885l-182 72l8 72h586l-8 -72l-201 -72l-102 -831q-30 -250 -172.5 -369t-399.5 -119q-231 0 -363 100t-132 275q0 43 10 115l102 829zM481 1886h365 l231 -319h-174z" />
<glyph unicode="&#xda;" horiz-adv-x="1488" d="M92 1358l8 72h695l-11 -72l-200 -72l-103 -846q-8 -82 -8 -114q0 -113 61 -171.5t179 -58.5q141 0 214 72t93 233l108 885l-182 72l8 72h586l-8 -72l-201 -72l-102 -831q-30 -250 -172.5 -369t-399.5 -119q-231 0 -363 100t-132 275q0 43 10 115l102 829zM641 1567 l311 319h365l-500 -319h-176z" />
<glyph unicode="&#xdb;" horiz-adv-x="1488" d="M92 1358l8 72h695l-11 -72l-200 -72l-103 -846q-8 -82 -8 -114q0 -113 61 -171.5t179 -58.5q141 0 214 72t93 233l108 885l-182 72l8 72h586l-8 -72l-201 -72l-102 -831q-30 -250 -172.5 -369t-399.5 -119q-231 0 -363 100t-132 275q0 43 10 115l102 829zM496 1546 l436 381l348 -381h-205l-174 129l-201 -129h-204z" />
<glyph unicode="&#xdc;" horiz-adv-x="1488" d="M92 1358l8 72h695l-11 -72l-200 -72l-103 -846q-8 -82 -8 -114q0 -113 61 -171.5t179 -58.5q141 0 214 72t93 233l108 885l-182 72l8 72h586l-8 -72l-201 -72l-102 -831q-30 -250 -172.5 -369t-399.5 -119q-231 0 -363 100t-132 275q0 43 10 115l102 829zM510 1679 q0 75 43 115.5t123 40.5q65 0 100 -28.5t35 -80.5q0 -67 -44.5 -107t-119.5 -40q-65 0 -101 26.5t-36 73.5zM969 1686q0 71 45 110t127 39q62 0 95.5 -27.5t33.5 -78.5q0 -69 -45.5 -109.5t-122.5 -40.5q-63 0 -98 28t-35 79z" />
<glyph unicode="&#xdd;" horiz-adv-x="1140" d="M0 1358l8 72h641l-10 -72l-137 -72l209 -526l329 526l-122 72l8 72h522l-8 -72l-185 -72l-485 -686l-55 -457l235 -71l-8 -72h-799l9 72l254 71l55 457l-289 686zM584 1567l311 319h365l-500 -319h-176z" />
<glyph unicode="&#xde;" horiz-adv-x="1214" d="M-51 0l8 72l201 71l141 1143l-184 72l10 72h692l-8 -72l-201 -72l-12 -102h168q99 0 176.5 -18t139.5 -59t95 -114t33 -176q0 -195 -131 -319.5t-334 -124.5q-68 0 -159 22l12 94q8 0 22 -1t15 -1q115 0 180.5 97t65.5 268q0 129 -49.5 182t-170.5 53h-75l-117 -944 l227 -71l-10 -72h-735z" />
<glyph unicode="&#xdf;" horiz-adv-x="1298" d="M-297 -350q0 65 40 111t97 46q46 0 83.5 -38.5t76.5 -128.5q14 10 26 24t21 26t17 32t13 32t10 37t7.5 35t6 38t4 34.5t3.5 36.5t3 32l108 1041q15 144 58 241.5t119 156.5t179 84.5t248 25.5q221 0 338 -61t117 -177q0 -34 -11.5 -64.5t-26.5 -51.5t-43.5 -45.5 t-47.5 -37t-55.5 -35t-51.5 -32.5q-4 -3 -33.5 -20.5t-38.5 -23.5t-31 -24t-30.5 -31t-17 -33t-8.5 -42q0 -20 5.5 -38t19 -35.5t22.5 -27.5t29.5 -29t27.5 -26l86 -86l29 -29l29 -29t24.5 -26t23.5 -28.5t18 -27t17 -32t10.5 -33t8.5 -39.5t2 -43q0 -66 -29 -128.5 t-80 -106.5q-110 -94 -313 -94q-143 0 -218 40.5t-75 116.5q0 62 45.5 112t102.5 50q50 0 84 -43.5t86 -173.5q68 8 104.5 45t36.5 100q0 35 -10 57.5t-41 53.5q-43 43 -170 164q-142 131 -142 248q0 69 38 126.5t130 124.5l64 48q78 57 102 85q47 54 47 119q0 71 -50 108.5 t-144 37.5q-77 0 -127.5 -18t-80 -59t-44 -91t-23.5 -129l-104 -864q-39 -304 -90 -416q-68 -143 -183 -222t-257 -79q-98 0 -144.5 31.5t-46.5 97.5z" />
<glyph unicode="&#xe0;" horiz-adv-x="1193" d="M43 360q0 141 45 270t127 224q186 213 518 213q130 0 324 -41l-101 -831q0 -8 7 -15.5t13 -10.5l7 -3l133 164l55 -49q-80 -144 -157 -213q-106 -95 -228 -95q-73 0 -106 29.5t-33 95.5q0 38 2 52l17 116q-186 -299 -387 -299q-108 0 -172 106t-64 287zM356 1513h365 l231 -319h-174zM369 373q0 -114 12.5 -158.5t44.5 -44.5q18 0 42 15t89 65q76 58 119 96l72 588q-40 16 -86 16q-72 0 -120 -30t-85 -97q-40 -75 -64 -198t-24 -252z" />
<glyph unicode="&#xe1;" horiz-adv-x="1193" d="M43 360q0 141 45 270t127 224q186 213 518 213q130 0 324 -41l-101 -831q0 -8 7 -15.5t13 -10.5l7 -3l133 164l55 -49q-80 -144 -157 -213q-106 -95 -228 -95q-73 0 -106 29.5t-33 95.5q0 38 2 52l17 116q-186 -299 -387 -299q-108 0 -172 106t-64 287zM369 373 q0 -114 12.5 -158.5t44.5 -44.5q18 0 42 15t89 65q76 58 119 96l72 588q-40 16 -86 16q-72 0 -120 -30t-85 -97q-40 -75 -64 -198t-24 -252zM559 1194l311 319h365l-500 -319h-176z" />
<glyph unicode="&#xe2;" horiz-adv-x="1193" d="M43 360q0 141 45 270t127 224q186 213 518 213q130 0 324 -41l-101 -831q0 -8 7 -15.5t13 -10.5l7 -3l133 164l55 -49q-80 -144 -157 -213q-106 -95 -228 -95q-73 0 -106 29.5t-33 95.5q0 38 2 52l17 116q-186 -299 -387 -299q-108 0 -172 106t-64 287zM332 1174l436 380 l348 -380h-205l-174 129l-200 -129h-205zM369 373q0 -114 12.5 -158.5t44.5 -44.5q18 0 42 15t89 65q76 58 119 96l72 588q-40 16 -86 16q-72 0 -120 -30t-85 -97q-40 -75 -64 -198t-24 -252z" />
<glyph unicode="&#xe3;" horiz-adv-x="1193" d="M43 360q0 141 45 270t127 224q186 213 518 213q130 0 324 -41l-101 -831q0 -8 7 -15.5t13 -10.5l7 -3l133 164l55 -49q-80 -144 -157 -213q-106 -95 -228 -95q-73 0 -106 29.5t-33 95.5q0 38 2 52l17 116q-186 -299 -387 -299q-108 0 -172 106t-64 287zM365 1317 q56 63 180 153q42 29 92 29q54 0 111 -26l118 -56q43 -24 70 -24q18 0 41 16t100 80l80 -96q-58 -66 -180 -154q-42 -29 -92 -29q-52 0 -111 27l-119 55q-45 25 -69 25q-19 0 -42.5 -16t-99.5 -80zM369 373q0 -114 12.5 -158.5t44.5 -44.5q18 0 42 15t89 65q76 58 119 96 l72 588q-40 16 -86 16q-72 0 -120 -30t-85 -97q-40 -75 -64 -198t-24 -252z" />
<glyph unicode="&#xe4;" horiz-adv-x="1193" d="M43 360q0 141 45 270t127 224q186 213 518 213q130 0 324 -41l-101 -831q0 -8 7 -15.5t13 -10.5l7 -3l133 164l55 -49q-80 -144 -157 -213q-106 -95 -228 -95q-73 0 -106 29.5t-33 95.5q0 38 2 52l17 116q-186 -299 -387 -299q-108 0 -172 106t-64 287zM369 373 q0 -114 12.5 -158.5t44.5 -44.5q18 0 42 15t89 65q76 58 119 96l72 588q-40 16 -86 16q-72 0 -120 -30t-85 -97q-40 -75 -64 -198t-24 -252zM379 1307q0 75 43 115t123 40q65 0 100 -28t35 -80q0 -68 -44.5 -108t-119.5 -40q-64 0 -100.5 27t-36.5 74zM838 1313q0 71 45 110 t127 39q62 0 95.5 -27.5t33.5 -78.5q0 -69 -45.5 -109.5t-122.5 -40.5q-63 0 -98 28t-35 79z" />
<glyph unicode="&#xe5;" horiz-adv-x="1193" d="M43 360q0 141 45 270t127 224q186 213 518 213q130 0 324 -41l-101 -831q0 -8 7 -15.5t13 -10.5l7 -3l133 164l55 -49q-80 -144 -157 -213q-106 -95 -228 -95q-73 0 -106 29.5t-33 95.5q0 38 2 52l17 116q-186 -299 -387 -299q-108 0 -172 106t-64 287zM369 373 q0 -114 12.5 -158.5t44.5 -44.5q18 0 42 15t89 65q76 58 119 96l72 588q-40 16 -86 16q-72 0 -120 -30t-85 -97q-40 -75 -64 -198t-24 -252zM467 1366q0 209 317 209q142 0 207.5 -38.5t65.5 -121.5q0 -106 -80.5 -160.5t-237.5 -54.5q-139 0 -205.5 40.5t-66.5 125.5z M670 1366q0 -37 17.5 -53.5t57.5 -16.5q109 0 109 107q0 40 -18.5 58t-61.5 18q-104 0 -104 -113z" />
<glyph unicode="&#xe6;" horiz-adv-x="1511" d="M41 229q0 233 254 295q133 32 342 58l27 215q4 28 4 41q0 65 -33.5 92.5t-110.5 27.5q-51 -113 -104 -161.5t-125 -48.5q-123 0 -123 124q0 67 48 109.5t110 56.5q128 29 280 29q91 0 159.5 -26t96.5 -70q86 57 161.5 81.5t166.5 24.5q135 0 205.5 -57t70.5 -166 q0 -166 -141.5 -250.5t-443.5 -99.5v-43q0 -289 174 -289q59 0 122 31t162 110l64 -75q-98 -109 -225.5 -183.5t-253.5 -74.5q-86 0 -143 30t-101 99q-60 -60 -150 -94.5t-184 -34.5q-151 0 -230 64t-79 185zM334 231q0 -129 121 -129q55 0 95 41.5t48 106.5l27 225 q-145 -27 -181 -42q-17 -7 -28 -15q-37 -23 -59.5 -74t-22.5 -113zM887 602q155 22 211 55q46 26 77 84.5t31 120.5q0 103 -100 103q-88 0 -150 -109q-25 -43 -40 -99t-29 -155z" />
<glyph unicode="&#xe7;" horiz-adv-x="933" d="M51 375q0 108 26.5 210.5t79 191.5t125 156t171.5 105.5t211 38.5q136 0 208 -38.5t72 -112.5q0 -77 -47 -127.5t-117 -50.5q-56 0 -101 48t-97 165q-63 -23 -107.5 -84t-65.5 -141t-29.5 -151t-8.5 -141q0 -138 40.5 -211t116.5 -73q109 0 283 145l57 -67 q-104 -121 -200 -182.5t-201 -71.5l-6 -45q94 -21 129 -47t35 -95q0 -26 -9 -51t-21.5 -45t-36 -40.5t-43.5 -35t-53 -31.5t-54.5 -27t-58.5 -24.5t-54.5 -20.5t-53.5 -18.5t-46 -15.5l-27 98q107 55 149.5 97t42.5 92q0 26 -13.5 41t-47.5 24l20 148q-129 28 -198.5 128.5 t-69.5 258.5z" />
<glyph unicode="&#xe8;" horiz-adv-x="989" d="M51 383q0 136 44 267.5t118 221.5q171 205 440 205q295 0 295 -221q0 -224 -268 -305q-96 -30 -320 -45v-45q0 -147 43.5 -218t133.5 -71q54 0 117.5 31.5t166.5 109.5l64 -75q-252 -258 -482 -258q-166 0 -259 107t-93 296zM258 1513h365l231 -319h-174zM362 606 q93 10 138.5 22t79.5 34q47 29 75.5 84t28.5 118q0 46 -25 73.5t-69 27.5q-106 0 -168 -127q-42 -89 -60 -232z" />
<glyph unicode="&#xe9;" horiz-adv-x="989" d="M51 383q0 136 44 267.5t118 221.5q171 205 440 205q295 0 295 -221q0 -224 -268 -305q-96 -30 -320 -45v-45q0 -147 43.5 -218t133.5 -71q54 0 117.5 31.5t166.5 109.5l64 -75q-252 -258 -482 -258q-166 0 -259 107t-93 296zM362 606q93 10 138.5 22t79.5 34 q47 29 75.5 84t28.5 118q0 46 -25 73.5t-69 27.5q-106 0 -168 -127q-42 -89 -60 -232zM446 1194l312 319h364l-499 -319h-177z" />
<glyph unicode="&#xea;" horiz-adv-x="989" d="M51 383q0 136 44 267.5t118 221.5q171 205 440 205q295 0 295 -221q0 -224 -268 -305q-96 -30 -320 -45v-45q0 -147 43.5 -218t133.5 -71q54 0 117.5 31.5t166.5 109.5l64 -75q-252 -258 -482 -258q-166 0 -259 107t-93 296zM268 1174l437 380l348 -380h-205l-174 129 l-201 -129h-205zM362 606q93 10 138.5 22t79.5 34q47 29 75.5 84t28.5 118q0 46 -25 73.5t-69 27.5q-106 0 -168 -127q-42 -89 -60 -232z" />
<glyph unicode="&#xeb;" horiz-adv-x="989" d="M51 383q0 136 44 267.5t118 221.5q171 205 440 205q295 0 295 -221q0 -224 -268 -305q-96 -30 -320 -45v-45q0 -147 43.5 -218t133.5 -71q54 0 117.5 31.5t166.5 109.5l64 -75q-252 -258 -482 -258q-166 0 -259 107t-93 296zM283 1307q0 75 43 115t123 40q65 0 100 -28 t35 -80q0 -68 -44.5 -108t-119.5 -40q-64 0 -100.5 27t-36.5 74zM362 606q93 10 138.5 22t79.5 34q47 29 75.5 84t28.5 118q0 46 -25 73.5t-69 27.5q-106 0 -168 -127q-42 -89 -60 -232zM741 1313q0 71 45 110t127 39q62 0 95.5 -27.5t33.5 -78.5q0 -69 -45.5 -109.5 t-122.5 -40.5q-63 0 -98 28t-35 79z" />
<glyph unicode="&#xec;" horiz-adv-x="665" d="M0 772q94 167 179.5 236t199.5 69q73 0 107 -29t34 -92l-4 -49l-90 -710q0 -11 5 -19t10 -10l5 -2l134 166l55 -53q-90 -159 -183.5 -232.5t-201.5 -73.5q-70 0 -102.5 30t-32.5 95q0 18 4 54l92 700q0 11 -6.5 19.5t-13.5 10.5l-7 3l-131 -156zM4 1513h365l231 -319 h-174z" />
<glyph unicode="&#xed;" horiz-adv-x="665" d="M0 772q94 167 179.5 236t199.5 69q73 0 107 -29t34 -92l-4 -49l-90 -710q0 -11 5 -19t10 -10l5 -2l134 166l55 -53q-90 -159 -183.5 -232.5t-201.5 -73.5q-70 0 -102.5 30t-32.5 95q0 18 4 54l92 700q0 11 -6.5 19.5t-13.5 10.5l-7 3l-131 -156zM170 1194l311 319h365 l-500 -319h-176z" />
<glyph unicode="&#xee;" horiz-adv-x="665" d="M-4 1174l436 380l348 -380h-205l-174 129l-200 -129h-205zM0 772q94 167 179.5 236t199.5 69q73 0 107 -29t34 -92l-4 -49l-90 -710q0 -11 5 -19t10 -10l5 -2l134 166l55 -53q-90 -159 -183.5 -232.5t-201.5 -73.5q-70 0 -102.5 30t-32.5 95q0 18 4 54l92 700 q0 11 -6.5 19.5t-13.5 10.5l-7 3l-131 -156z" />
<glyph unicode="&#xef;" horiz-adv-x="665" d="M0 772q94 167 179.5 236t199.5 69q73 0 107 -29t34 -92l-4 -49l-90 -710q0 -11 5 -19t10 -10l5 -2l134 166l55 -53q-90 -159 -183.5 -232.5t-201.5 -73.5q-70 0 -102.5 30t-32.5 95q0 18 4 54l92 700q0 11 -6.5 19.5t-13.5 10.5l-7 3l-131 -156zM16 1307q0 75 43 115 t123 40q65 0 100 -28t35 -80q0 -68 -44 -108t-119 -40q-65 0 -101.5 27t-36.5 74zM475 1313q0 71 45 110t127 39q62 0 95.5 -27.5t33.5 -78.5q0 -69 -45.5 -109.5t-122.5 -40.5q-63 0 -98 28t-35 79z" />
<glyph unicode="&#xf0;" horiz-adv-x="1101" d="M51 434q0 177 76 325t208 233t290 85q79 0 145 -20q20 190 -158 293l-75 -142l-105 45l68 133q-64 17 -113 17q-63 0 -158 -27l13 111q71 22 116.5 28.5t118.5 6.5q53 0 96 -4l70 149l113 -45l-64 -133q91 -31 158.5 -88.5t107 -125.5t63.5 -157.5t32 -170.5t8 -177 q0 -118 -15.5 -225.5t-57 -215.5t-104.5 -186t-166.5 -127t-236.5 -49q-203 0 -316.5 123t-113.5 344zM362 315q0 -233 134 -233q45 0 82.5 26.5t62.5 67t45 100t31.5 114.5t20 123.5t12.5 113t7 95.5q1 12 1 17q2 29 4 54.5t3 41.5t1 37v72q-75 21 -119 21 q-61 0 -109.5 -34t-78.5 -93.5t-50.5 -126t-30 -145.5t-13 -136.5t-3.5 -114.5z" />
<glyph unicode="&#xf1;" horiz-adv-x="1224" d="M0 772q94 167 179.5 236t199.5 69q73 0 107 -29t34 -92q0 -13 -4 -49l-16 -137q79 142 190.5 224.5t220.5 82.5q78 0 121 -38.5t43 -108.5q0 -22 -4 -68l-86 -665q0 -11 5.5 -19t10.5 -10l5 -2l133 166l55 -53q-90 -159 -183.5 -232.5t-201.5 -73.5q-70 0 -102.5 30 t-32.5 95q0 18 4 54l88 663q2 23 2 33q0 37 -23 37q-17 0 -43.5 -18t-83.5 -66q-81 -72 -129 -117l-83 -684h-300l105 852q0 11 -6.5 19.5t-13.5 10.5l-7 3l-131 -156zM317 1317q54 61 181 153q42 29 92 29q53 0 110 -26l119 -56q43 -24 70 -24q18 0 41 16t100 80l80 -96 q-58 -66 -180 -154q-42 -29 -92 -29q-52 0 -111 27l-119 55q-45 25 -69 25q-19 0 -42.5 -16t-99.5 -80z" />
<glyph unicode="&#xf2;" horiz-adv-x="1107" d="M51 434q0 177 76 325t208.5 233t291.5 85q200 0 315 -121t115 -331q0 -182 -76.5 -333t-208.5 -238t-291 -87q-203 0 -316.5 123t-113.5 344zM266 1513h365l231 -319h-174zM362 322q0 -240 132 -240q59 0 105 52t71.5 126t42.5 166t22.5 160.5t5.5 120.5q0 136 -31 196 t-100 60q-60 0 -106.5 -54t-72 -130t-42.5 -170.5t-22 -164t-5 -122.5z" />
<glyph unicode="&#xf3;" horiz-adv-x="1107" d="M51 434q0 177 76 325t208.5 233t291.5 85q200 0 315 -121t115 -331q0 -182 -76.5 -333t-208.5 -238t-291 -87q-203 0 -316.5 123t-113.5 344zM362 322q0 -240 132 -240q59 0 105 52t71.5 126t42.5 166t22.5 160.5t5.5 120.5q0 136 -31 196t-100 60q-60 0 -106.5 -54 t-72 -130t-42.5 -170.5t-22 -164t-5 -122.5zM416 1194l311 319h365l-500 -319h-176z" />
<glyph unicode="&#xf4;" horiz-adv-x="1107" d="M51 434q0 177 76 325t208.5 233t291.5 85q200 0 315 -121t115 -331q0 -182 -76.5 -333t-208.5 -238t-291 -87q-203 0 -316.5 123t-113.5 344zM244 1174l436 380l348 -380h-205l-174 129l-200 -129h-205zM362 322q0 -240 132 -240q59 0 105 52t71.5 126t42.5 166 t22.5 160.5t5.5 120.5q0 136 -31 196t-100 60q-60 0 -106.5 -54t-72 -130t-42.5 -170.5t-22 -164t-5 -122.5z" />
<glyph unicode="&#xf5;" horiz-adv-x="1107" d="M51 434q0 177 76 325t208.5 233t291.5 85q200 0 315 -121t115 -331q0 -182 -76.5 -333t-208.5 -238t-291 -87q-203 0 -316.5 123t-113.5 344zM281 1317q59 64 182 153q42 29 90 29q56 0 113 -26l116 -56q48 -24 72 -24q18 0 41 16t100 80l80 -96q-58 -66 -180 -154 q-42 -29 -92 -29q-54 0 -111 27l-119 55q-50 25 -71 25q-18 0 -40 -15.5t-100 -80.5zM362 322q0 -240 132 -240q59 0 105 52t71.5 126t42.5 166t22.5 160.5t5.5 120.5q0 136 -31 196t-100 60q-60 0 -106.5 -54t-72 -130t-42.5 -170.5t-22 -164t-5 -122.5z" />
<glyph unicode="&#xf6;" horiz-adv-x="1107" d="M51 434q0 177 76 325t208.5 233t291.5 85q200 0 315 -121t115 -331q0 -182 -76.5 -333t-208.5 -238t-291 -87q-203 0 -316.5 123t-113.5 344zM285 1307q0 75 43 115t123 40q65 0 100 -28t35 -80q0 -68 -44.5 -108t-119.5 -40q-64 0 -100.5 27t-36.5 74zM362 322 q0 -240 132 -240q59 0 105 52t71.5 126t42.5 166t22.5 160.5t5.5 120.5q0 136 -31 196t-100 60q-60 0 -106.5 -54t-72 -130t-42.5 -170.5t-22 -164t-5 -122.5zM743 1313q0 71 45 110t127 39q62 0 95.5 -27.5t33.5 -78.5q0 -69 -45 -109.5t-122 -40.5q-63 0 -98.5 28 t-35.5 79z" />
<glyph unicode="&#xf7;" horiz-adv-x="1243" d="M131 602v225h1024v-225h-1024zM473 309q0 69 49.5 118.5t118.5 49.5q71 0 119.5 -48.5t48.5 -119.5q0 -69 -49.5 -118.5t-118.5 -49.5t-118.5 49.5t-49.5 118.5zM473 1110q0 69 49 117.5t119 48.5q69 0 117.5 -48.5t48.5 -117.5q0 -70 -48.5 -119t-117.5 -49t-118.5 49.5 t-49.5 118.5z" />
<glyph unicode="&#xf8;" horiz-adv-x="1099" d="M31 434q0 133 44.5 252t121 205t184 136t227.5 50q63 0 125 -14l58 133l63 -29l-55 -127q120 -60 177.5 -161.5t57.5 -255.5q0 -182 -75.5 -332.5t-207.5 -237t-292 -86.5q-41 0 -117 13l-53 -125l-64 26l54 119q-126 56 -187 162t-61 272zM334 317q0 -83 18 -143 l322 752q-25 45 -92 45q-59 0 -105 -55t-72 -133.5t-43 -175t-22.5 -167.5t-5.5 -123zM393 111q23 -21 41 -29t43 -8q60 0 107.5 53.5t74.5 129.5t44.5 170t23.5 164t6 122q0 69 -18 145z" />
<glyph unicode="&#xf9;" horiz-adv-x="1226" d="M0 772q94 167 179.5 236t199.5 69q73 0 107 -29t34 -92q0 -13 -4 -49l-86 -661q-2 -16 -2 -45q0 -31 21 -31q19 0 44 16.5t87 71.5q64 54 129 119l84 680h297l-103 -860q0 -11 5.5 -19t10.5 -10l5 -2l133 166l55 -53q-90 -159 -183.5 -232.5t-201.5 -73.5 q-70 0 -102.5 30t-32.5 95q0 36 2 54l18 137q-182 -322 -415 -322q-73 0 -116.5 41.5t-43.5 112.5l4 72l86 659q0 11 -6.5 19.5t-13.5 10.5l-7 3l-131 -156zM229 1513h365l231 -319h-174z" />
<glyph unicode="&#xfa;" horiz-adv-x="1226" d="M0 772q94 167 179.5 236t199.5 69q73 0 107 -29t34 -92q0 -13 -4 -49l-86 -661q-2 -16 -2 -45q0 -31 21 -31q19 0 44 16.5t87 71.5q64 54 129 119l84 680h297l-103 -860q0 -11 5.5 -19t10.5 -10l5 -2l133 166l55 -53q-90 -159 -183.5 -232.5t-201.5 -73.5 q-70 0 -102.5 30t-32.5 95q0 36 2 54l18 137q-182 -322 -415 -322q-73 0 -116.5 41.5t-43.5 112.5l4 72l86 659q0 11 -6.5 19.5t-13.5 10.5l-7 3l-131 -156zM449 1194l311 319h364l-499 -319h-176z" />
<glyph unicode="&#xfb;" horiz-adv-x="1226" d="M0 772q94 167 179.5 236t199.5 69q73 0 107 -29t34 -92q0 -13 -4 -49l-86 -661q-2 -16 -2 -45q0 -31 21 -31q19 0 44 16.5t87 71.5q64 54 129 119l84 680h297l-103 -860q0 -11 5.5 -19t10.5 -10l5 -2l133 166l55 -53q-90 -159 -183.5 -232.5t-201.5 -73.5 q-70 0 -102.5 30t-32.5 95q0 36 2 54l18 137q-182 -322 -415 -322q-73 0 -116.5 41.5t-43.5 112.5l4 72l86 659q0 11 -6.5 19.5t-13.5 10.5l-7 3l-131 -156zM281 1174l436 380l348 -380h-205l-174 129l-201 -129h-204z" />
<glyph unicode="&#xfc;" horiz-adv-x="1226" d="M0 772q94 167 179.5 236t199.5 69q73 0 107 -29t34 -92q0 -13 -4 -49l-86 -661q-2 -16 -2 -45q0 -31 21 -31q19 0 44 16.5t87 71.5q64 54 129 119l84 680h297l-103 -860q0 -11 5.5 -19t10.5 -10l5 -2l133 166l55 -53q-90 -159 -183.5 -232.5t-201.5 -73.5 q-70 0 -102.5 30t-32.5 95q0 36 2 54l18 137q-182 -322 -415 -322q-73 0 -116.5 41.5t-43.5 112.5l4 72l86 659q0 11 -6.5 19.5t-13.5 10.5l-7 3l-131 -156zM309 1307q0 75 43 115t123 40q65 0 100 -28t35 -80q0 -68 -44.5 -108t-119.5 -40q-64 0 -100.5 27t-36.5 74z M768 1313q0 71 45 110t127 39q62 0 95.5 -27.5t33.5 -78.5q0 -69 -45.5 -109.5t-122.5 -40.5q-63 0 -98 28t-35 79z" />
<glyph unicode="&#xfd;" horiz-adv-x="915" d="M-113 -352q0 67 40 114.5t96 47.5q15 0 28.5 -5t24 -10.5t22.5 -19t18.5 -21t17.5 -26t14.5 -25.5t13.5 -27.5t12 -23.5q46 19 73 42.5t64 76.5q43 60 86 151l-200 922q-2 9 -10.5 17t-16.5 12l-8 4l-88 -132l-62 37q43 141 120 218t175 77q80 0 121 -58t70 -218l34 -191 q18 -105 25 -147q13 -87 25 -215q31 67 116 264q46 109 78 195q-65 82 -86.5 125t-21.5 96q0 60 58.5 104.5t131.5 44.5q91 0 131.5 -28t40.5 -86q0 -57 -78 -236q-85 -194 -305 -627q-86 -167 -170 -307q-85 -142 -178 -207t-213 -65q-199 0 -199 127zM463 1194l311 319 h365l-500 -319h-176z" />
<glyph unicode="&#xfe;" horiz-adv-x="1214" d="M-113 -479l9 61l190 82l197 1614q0 11 -6.5 19.5t-13.5 10.5l-7 3l-131 -156l-53 43q94 167 179.5 236t199.5 69q73 0 107 -29t34 -92q0 -13 -4 -49l-66 -553q91 146 190 221.5t199 75.5q109 0 171.5 -100t62.5 -275q0 -326 -178 -522q-88 -95 -200 -147.5t-228 -52.5 q-50 0 -113 14l-41 -330l225 -82l-8 -61h-715zM440 113q45 -17 92 -17q153 0 218 170q69 176 69 432q0 96 -13 136t-44 40q-20 0 -46.5 -16t-88.5 -63q-34 -27 -117 -99z" />
<glyph unicode="&#xff;" horiz-adv-x="1040" d="M-113 -352q0 67 40 114.5t96 47.5q15 0 28.5 -5t24 -10.5t22.5 -19t18.5 -21t17.5 -26t14.5 -25.5t13.5 -27.5t12 -23.5q46 19 73 42.5t64 76.5q43 60 86 151l-200 922q-2 9 -10.5 17t-16.5 12l-8 4l-88 -132l-62 37q43 141 120 218t175 77q80 0 121 -58t70 -218l34 -191 q18 -105 25 -147q13 -87 25 -215q31 67 116 264q46 109 78 195q-65 82 -86.5 125t-21.5 96q0 60 58.5 104.5t131.5 44.5q91 0 131.5 -28t40.5 -86q0 -57 -78 -236q-85 -194 -305 -627q-86 -167 -170 -307q-85 -142 -178 -207t-213 -65q-199 0 -199 127zM242 1307 q0 75 43 115t123 40q65 0 100 -28t35 -80q0 -68 -44.5 -108t-119.5 -40q-64 0 -100.5 27t-36.5 74zM700 1313q0 71 45 110t127 39q62 0 95.5 -27.5t33.5 -78.5q0 -69 -45 -109.5t-122 -40.5q-63 0 -98.5 28t-35.5 79z" />
<glyph unicode="&#x152;" horiz-adv-x="1937" d="M72 584q0 132 30 258t91.5 236t148 193t206.5 131t259 48q90 0 180 -20h930l-43 -343h-107l-73 246h-365l-67 -559h266l108 191h117l-59 -469h-117l-64 182h-266l-69 -582h352l168 234h119l-76 -330h-944q-87 -20 -174 -20q-259 0 -405 160t-146 444zM397 504 q0 -190 66 -299t182 -109q78 0 133 37.5t111 126.5l110 918q-42 87 -92.5 121t-130.5 34q-65 0 -120 -35t-93 -91t-68 -132t-48 -153t-29.5 -159t-16 -144.5t-4.5 -114.5z" />
<glyph unicode="&#x153;" horiz-adv-x="1609" d="M51 430q0 177 77 326t210.5 235t292.5 86q98 0 166.5 -29.5t132.5 -99.5q82 68 165.5 98.5t188.5 30.5q139 0 212 -57t73 -166q0 -108 -68.5 -185.5t-197.5 -115.5q-106 -32 -320 -47q-2 -27 -2 -62q0 -128 45 -204q41 -68 131 -68q55 0 117 30.5t166 110.5l63 -75 q-240 -258 -489 -258q-77 0 -131.5 23.5t-98.5 76.5q-129 -100 -309 -100q-191 0 -307.5 124t-116.5 326zM365 330q0 -123 35 -180.5t110 -57.5q55 0 98 49.5t67.5 120.5t40.5 160t21.5 159t5.5 126q0 140 -29.5 198t-99.5 58q-51 0 -92.5 -36t-67.5 -96.5t-44.5 -129 t-27.5 -143.5t-13 -130t-4 -98zM985 604q151 18 215 58q47 29 75 84.5t28 119.5q0 99 -101 99q-85 0 -144.5 -98.5t-72.5 -262.5z" />
<glyph unicode="&#x178;" horiz-adv-x="1140" d="M0 1358l8 72h641l-10 -72l-137 -72l209 -526l329 526l-122 72l8 72h522l-8 -72l-185 -72l-485 -686l-55 -457l235 -71l-8 -72h-799l9 72l254 71l55 457l-289 686zM424 1679q0 75 43 115.5t123 40.5q65 0 100 -28.5t35 -80.5q0 -67 -44.5 -107t-119.5 -40q-65 0 -101 26.5 t-36 73.5zM883 1686q0 71 45 110t127 39q62 0 95.5 -27.5t33.5 -78.5q0 -69 -45.5 -109.5t-122.5 -40.5q-63 0 -98 28t-35 79z" />
<glyph unicode="&#x2c6;" horiz-adv-x="569" d="M31 1174l436 380l348 -380h-205l-174 129l-200 -129h-205z" />
<glyph unicode="&#x2dc;" horiz-adv-x="569" d="M55 1317q54 61 181 153q42 29 92 29q53 0 110 -26l119 -56q43 -24 70 -24q18 0 41 16t100 80l80 -96q-58 -66 -180 -154q-42 -29 -93 -29t-110 27l-119 55q-45 25 -70 25q-18 0 -41 -16t-100 -80z" />
<glyph unicode="&#x2000;" horiz-adv-x="976" />
<glyph unicode="&#x2001;" horiz-adv-x="1952" />
<glyph unicode="&#x2002;" horiz-adv-x="976" />
<glyph unicode="&#x2003;" horiz-adv-x="1952" />
<glyph unicode="&#x2004;" horiz-adv-x="650" />
<glyph unicode="&#x2005;" horiz-adv-x="488" />
<glyph unicode="&#x2006;" horiz-adv-x="325" />
<glyph unicode="&#x2007;" horiz-adv-x="325" />
<glyph unicode="&#x2008;" horiz-adv-x="244" />
<glyph unicode="&#x2009;" horiz-adv-x="390" />
<glyph unicode="&#x200a;" horiz-adv-x="108" />
<glyph unicode="&#x2010;" horiz-adv-x="645" d="M61 459l27 223h535l-29 -223h-533z" />
<glyph unicode="&#x2011;" horiz-adv-x="645" d="M61 459l27 223h535l-29 -223h-533z" />
<glyph unicode="&#x2012;" horiz-adv-x="645" d="M61 459l27 223h535l-29 -223h-533z" />
<glyph unicode="&#x2013;" horiz-adv-x="1024" d="M0 479l23 183h1001l-23 -183h-1001z" />
<glyph unicode="&#x2014;" horiz-adv-x="2048" d="M205 479l22 183h1616l-22 -183h-1616z" />
<glyph unicode="&#x2018;" horiz-adv-x="606" d="M186 991q0 116 74.5 241t200.5 220l84 -88q-63 -58 -99 -115.5t-53 -126.5h8q56 -2 81.5 -29t25.5 -85q0 -76 -45 -120t-123 -44q-154 0 -154 147z" />
<glyph unicode="&#x2019;" horiz-adv-x="608" d="M172 930q63 59 99 115.5t53 125.5h-9q-55 1 -80.5 28.5t-25.5 86.5q0 76 45 120t123 44t115.5 -36t37.5 -111q0 -116 -74 -241t-200 -220z" />
<glyph unicode="&#x201a;" horiz-adv-x="608" d="M125 -231q63 58 98.5 115t52.5 126h-8q-55 1 -80.5 28.5t-25.5 86.5q0 76 45 120t123 44q153 0 153 -148q0 -116 -74 -240.5t-200 -219.5z" />
<glyph unicode="&#x201c;" horiz-adv-x="987" d="M123 991q0 116 74 241t200 220l84 -88q-118 -109 -151 -242h8q56 -2 81 -29t25 -85q0 -76 -45 -120t-123 -44t-115.5 36t-37.5 111zM582 991q0 116 74 241t200 220l84 -88q-63 -58 -99 -115.5t-53 -126.5h9q56 -2 81 -29t25 -85q0 -76 -45 -120t-123 -44t-115.5 36 t-37.5 111z" />
<glyph unicode="&#x201d;" horiz-adv-x="987" d="M82 930q63 58 98.5 115t52.5 126h-8q-55 1 -80.5 28.5t-25.5 86.5q0 76 45 120t123 44t115.5 -36t37.5 -111q0 -116 -74 -241t-200 -220zM541 930q63 58 98.5 115t52.5 126h-8q-55 1 -80.5 28.5t-25.5 86.5q0 77 44.5 120.5t122.5 43.5q154 0 154 -147q0 -116 -74 -241 t-200 -220z" />
<glyph unicode="&#x201e;" horiz-adv-x="987" d="M2 -231q63 59 99 115.5t53 125.5h-9q-55 1 -80.5 28.5t-25.5 86.5q0 76 45 120t123 44q153 0 153 -148q0 -116 -74 -240.5t-200 -219.5zM463 -231q63 58 98.5 115t52.5 126h-8q-55 1 -80.5 28.5t-25.5 86.5q0 76 45 120t123 44q153 0 153 -148q0 -116 -74 -240.5 t-200 -219.5z" />
<glyph unicode="&#x2022;" horiz-adv-x="1024" d="M141 733q0 154 108.5 262.5t262.5 108.5t262.5 -108.5t108.5 -262.5t-108.5 -262.5t-262.5 -108.5t-262.5 108.5t-108.5 262.5z" />
<glyph unicode="&#x2026;" horiz-adv-x="2048" d="M168 141q0 71 51 121.5t121 50.5q72 0 123 -50.5t51 -121.5q0 -72 -51 -123t-123 -51q-71 0 -121.5 51t-50.5 123zM852 141q0 71 51 121.5t123 50.5q70 0 121 -50.5t51 -121.5q0 -72 -50.5 -123t-121.5 -51q-72 0 -123 51t-51 123zM1534 141q0 71 51 121.5t123 50.5 q70 0 121 -50.5t51 -121.5q0 -72 -50.5 -123t-121.5 -51q-72 0 -123 51t-51 123z" />
<glyph unicode="&#x202f;" horiz-adv-x="390" />
<glyph unicode="&#x2039;" horiz-adv-x="681" d="M102 528l293 420h205l-295 -420l195 -401h-205z" />
<glyph unicode="&#x203a;" horiz-adv-x="681" d="M72 127l297 420l-197 401h205l192 -401l-293 -420h-204z" />
<glyph unicode="&#x205f;" horiz-adv-x="488" />
<glyph unicode="&#x20ac;" horiz-adv-x="1554" d="M6 526l60 113h202l2 20q5 38 15 82h-267l58 113h237q87 253 304 392.5t507 139.5q237 0 418 -65l-35 -332h-118l-76 277q-35 2 -109 2q-211 0 -350 -111.5t-199 -302.5h502l-57 -113h-471q-9 -47 -11 -65q0 -6 -1 -18.5t-1 -18.5h428l-59 -113h-369q8 -201 117 -312.5 t330 -111.5q52 0 131 11l143 274h121l-61 -332q-260 -75 -484 -75q-292 0 -463.5 141.5t-181.5 404.5h-262z" />
<glyph unicode="&#x2122;" horiz-adv-x="1566" d="M0 1307v202h594v-202h-37l-70 129h-96v-551l113 -39v-53h-408v53l113 37v553h-100l-70 -129h-39zM618 793v53l93 37v534l-93 39v53h306l159 -395l160 395h303v-53l-92 -37v-534l92 -39v-53h-364v53l90 37v405l-197 -506h-57l-209 504v-401l92 -39v-53h-283z" />
<glyph unicode="&#x25fc;" horiz-adv-x="1075" d="M0 0v1075h1075v-1075h-1075z" />
</font>
</defs>
</svg>
