<?xml version="1.0" standalone="no"?>
<!DOCTYPE svg PUBLIC "-//W3C//DTD SVG 1.1//EN" "http://www.w3.org/Graphics/SVG/1.1/DTD/svg11.dtd" >
<svg xmlns="http://www.w3.org/2000/svg">
<metadata></metadata>
<defs>
<font id="lydian_mt_stdregular" horiz-adv-x="980" >
<font-face units-per-em="2048" ascent="1483" descent="-565" />
<missing-glyph horiz-adv-x="512" />
<glyph unicode="&#xfb01;" horiz-adv-x="937" d="M41 844l57 92l64 2q2 141 44 239.5t140 174.5q158 123 232 123q18 0 51 -11l-92 -166q-8 1 -34 3.5t-54.5 4.5t-57.5 1q-20 -25 -20 -95v-274l250 -8v33h24q24 0 85 2.5t91 1.5l-6 -967h-194v842h-250v-400q0 -138 4 -442h-215q6 390 6 758v84q-16 2 -125 2zM559 1225 l162 168l149 -80l-153 -160z" />
<glyph unicode="&#xfb02;" horiz-adv-x="937" d="M39 844l57 88h62q2 112 28.5 192.5t68 131.5t114.5 108q135 104 209 104q24 0 49 -10h200v-1458h-213l11 842h-254v-842h-213v840q-74 4 -119 4zM371 936l256 -6l4 352q-129 21 -240 21q-20 -37 -20 -103v-264z" />
<glyph horiz-adv-x="2048" />
<glyph horiz-adv-x="2048" />
<glyph unicode="&#xd;" horiz-adv-x="2048" />
<glyph unicode=" "  horiz-adv-x="512" />
<glyph unicode="&#x09;" horiz-adv-x="512" />
<glyph unicode="&#xa0;" horiz-adv-x="512" />
<glyph unicode="!" horiz-adv-x="598" d="M154 96q84 80 143 156q19 -17 52 -47.5t56.5 -51.5t43.5 -36q-53 -45 -144 -158q-63 70 -151 137zM207 1378q99 15 190 41l-61 -1079l-92 -18q0 17 -1 96t-1.5 102.5t-1.5 97.5t-2 106t-2.5 101t-3 110t-4.5 105t-6 113.5t-6.5 109t-8.5 115.5z" />
<glyph unicode="&#x22;" horiz-adv-x="724" d="M94 1227v239h205v-239l-45 -281h-111zM426 1227v239h205v-239l-47 -281h-109z" />
<glyph unicode="#" horiz-adv-x="1366" d="M88 356v123h223l78 371h-301v123h326l86 403h123l-86 -403h419l86 403h123l-86 -403h197v-123h-221l-78 -371h299v-123h-324l-84 -401h-123l86 401h-423l-82 -401h-125l86 401h-199zM434 479h422l78 371h-424z" />
<glyph unicode="$" horiz-adv-x="1130" d="M195 961q0 158 211 382q20 21 29.5 30.5t30 20.5t44.5 15v109l86 16v-121q33 14 61 14q56 0 127 -36t138 -105l-146 -168q-71 90 -180 111v-365q54 -20 89 -35t79.5 -37.5t72 -45t53.5 -52t38 -66t12 -79.5q0 -78 -62.5 -200.5t-160.5 -217.5q-36 -35 -60 -45t-61 -12 v-158l-86 -18v178q-40 -10 -66 -10q-63 0 -120 34.5t-125 102.5l125 176q58 -55 186 -109v355q-155 72 -235 149.5t-80 186.5zM348 1102q0 -72 39.5 -119t122.5 -88v334q-88 -2 -125 -28.5t-37 -98.5zM596 270q101 5 148 27t47 74q0 66 -49.5 126t-145.5 97v-324z" />
<glyph unicode="%" horiz-adv-x="1748" d="M127 967q0 180 90 352l203 164q40 4 55 4q136 0 216.5 -102.5t80.5 -268.5q0 -117 -37 -222.5t-92.5 -173t-116.5 -106.5t-112 -39q-122 0 -204.5 114.5t-82.5 277.5zM266 1067q0 -150 68 -252t174 -102q21 0 57 6q68 130 68 295q0 102 -25.5 176.5t-63 110t-80 52 t-77 12.5t-53.5 -19q-68 -130 -68 -279zM399 -27l846 1514h94l-845 -1514h-95zM991 358q0 84 23.5 180t66.5 175l203 164q40 4 55 4q136 0 216.5 -102.5t80.5 -268.5q0 -117 -37 -222.5t-92.5 -173t-116.5 -106.5t-112 -39q-122 0 -204.5 113t-82.5 276zM1130 459 q0 -151 68 -252t174 -101q13 0 55 7q70 134 70 295q0 102 -25.5 176.5t-63 110t-80 51.5t-77.5 12t-55 -19q-66 -123 -66 -280z" />
<glyph unicode="&#x26;" horiz-adv-x="1067" d="M104 369q0 127 82 247t234 203q-118 40 -176 107t-58 149q0 65 37 137.5t99 133t151.5 100t185.5 39.5q128 0 228 -80l-146 -188q-64 47 -125.5 72.5t-142.5 25.5q-46 0 -98 -19q-10 -35 -10 -59q0 -61 46 -116t132 -91q49 -21 109 -35t100 -18.5t112 -11.5 q-83 -141 -123 -189q-77 10 -112 10q-139 0 -242.5 -71t-103.5 -178q0 -141 115 -253t280 -112q68 0 117 25q6 24 6 36q0 78 -71.5 145.5t-164.5 67.5h-139l106 158h502l-92 -151l-14 -2q-32 0 -51 12q41 -62 41 -123q0 -55 -27.5 -118t-76 -119.5t-125 -94t-163.5 -37.5 q-178 0 -300 115t-122 283z" />
<glyph unicode="'" horiz-adv-x="385" d="M90 1221v245h205v-245l-47 -275h-113z" />
<glyph unicode="(" horiz-adv-x="532" d="M111 479q0 546 290 1020l95 -49q-106 -227 -164 -457t-58 -499q0 -495 218 -955l-101 -49q-139 242 -209.5 481t-70.5 508z" />
<glyph unicode=")" horiz-adv-x="532" d="M37 1450l94 49q144 -237 217.5 -485t73.5 -535q0 -269 -71 -508t-210 -481l-100 49q217 455 217 955q0 270 -58 500t-163 456z" />
<glyph unicode="*" horiz-adv-x="1130" d="M270 1079l217 109l-217 115l54 86l204 -127l-10 233h98l-8 -238l203 125l47 -86l-209 -108l209 -113l-51 -84l-197 127l11 -246h-103l10 244l-206 -127z" />
<glyph unicode="+" horiz-adv-x="1366" d="M137 596v131h477v479h131v-479h482v-131h-482v-475h-131v475h-477z" />
<glyph unicode="," horiz-adv-x="532" d="M133 147l141 160q64 -38 96.5 -89.5t32.5 -96.5q0 -61 -59 -154.5t-162 -183.5l-30 24q92 107 92 175q0 29 -17 58.5t-35.5 49t-58.5 57.5z" />
<glyph unicode="-" horiz-adv-x="532" d="M84 393l86 185h293l-86 -185h-293z" />
<glyph unicode="." horiz-adv-x="532" d="M125 98q63 48 147 148l148 -142q-55 -43 -146 -141q-82 88 -149 135z" />
<glyph unicode="/" horiz-adv-x="1087" d="M117 -37l717 1462h137l-717 -1462h-137z" />
<glyph unicode="0" horiz-adv-x="1130" d="M35 627q0 137 22.5 247t69 197t98 150.5t127.5 134.5q74 69 127.5 101t102.5 32q235 0 378.5 -178t143.5 -473q0 -224 -77.5 -423.5t-213.5 -321.5t-295 -122q-224 0 -353.5 177t-129.5 479zM221 758q0 -267 132 -429.5t337 -162.5q50 0 115 24q100 221 100 484 q0 144 -34.5 261.5t-94 194.5t-139.5 118.5t-172 41.5q-58 0 -107 -22q-67 -111 -102 -244.5t-35 -265.5z" />
<glyph unicode="1" horiz-adv-x="1130" d="M453 -4q14 495 14 835q0 420 -10 605l231 61q-14 -346 -14 -928q0 -311 12 -571q-37 -4 -104 -4q-21 0 -65.5 1t-63.5 1z" />
<glyph unicode="2" horiz-adv-x="1130" d="M119 0l53 178q35 13 102.5 35.5t105 36t83 35t74.5 43.5q82 64 148.5 217.5t66.5 320.5q0 198 -110 318.5t-286 120.5q-129 0 -211 -64l-18 16l164 179q32 18 52 27t65 19.5t96 10.5q125 0 227.5 -64.5t160.5 -176t58 -244.5q0 -141 -49.5 -289.5t-155.5 -293 t-253 -241.5l477 -4l-62 -184q-53 6 -383 6q-270 0 -405 -2z" />
<glyph unicode="3" horiz-adv-x="1130" d="M143 145l174 160q139 -164 308 -164q56 0 82 32t26 99q0 75 -28.5 146t-79.5 128.5t-131 92.5t-175 35q-27 0 -108 -12l-12 12l178 176q54 12 90 12q65 0 135 -26q53 130 53 231q0 121 -68.5 192.5t-187.5 71.5q-115 0 -198 -57l-15 16l195 174q5 1 31 8t39 10t38 6t48 3 q150 0 250 -86.5t100 -228.5q0 -106 -52 -186t-163 -179q123 -60 188.5 -162.5t65.5 -222.5q0 -57 -10.5 -101t-34 -79.5t-43.5 -57t-56 -53.5q-117 -101 -211 -153q-49 -11 -88 -11q-119 0 -198.5 44.5t-141.5 129.5z" />
<glyph unicode="4" horiz-adv-x="1130" d="M51 494l570 958l194 53v-868h176l-47 -143h-125l6 -494h-219l12 494h-567zM221 637h395v262q0 252 2 414z" />
<glyph unicode="5" horiz-adv-x="1130" d="M166 63l141 197q146 -76 260 -76q101 0 159 61.5t58 172.5q0 149 -101 246.5t-245 97.5q-55 0 -118.5 -14.5t-98.5 -36.5v751h653l-30 -182h-518l-4 -379q134 51 253 51q172 0 280 -105t108 -269q0 -60 -14.5 -115.5t-38 -99.5t-60.5 -90.5t-73.5 -84.5t-86.5 -87 q-19 -18 -28 -27q-45 -43 -110.5 -70t-137.5 -27q-78 0 -134 21t-114 65z" />
<glyph unicode="6" horiz-adv-x="1130" d="M123 586q0 218 49 385.5t141 269.5q121 133 202.5 187.5t158.5 54.5q194 0 350 -160l-135 -203q-107 79 -192.5 118.5t-168.5 39.5q-38 0 -66.5 -12.5t-50 -50t-35 -72.5t-27 -114.5t-21 -139.5t-21.5 -182l185 176q72 69 180 69q165 0 265.5 -112t100.5 -308 q0 -131 -61 -233.5t-213 -237.5q-58 -53 -100 -71.5t-121 -18.5q-205 0 -312.5 157t-107.5 458zM326 643q9 -229 99 -351t228 -122q70 0 144 33q33 38 48 80t15 116q0 155 -84 252t-221 97q-78 0 -130 -27.5t-99 -77.5z" />
<glyph unicode="7" horiz-adv-x="1130" d="M147 1272l46 186h700l-401 -1483h-130l349 1297h-564z" />
<glyph unicode="8" horiz-adv-x="1130" d="M166 299q0 56 13 101.5t46 89.5t66.5 77.5t95.5 87.5q-209 125 -209 359q0 94 35.5 156t116.5 143q97 95 158 134.5t139 39.5q140 0 231.5 -86.5t91.5 -226.5q0 -120 -63 -206.5t-203 -183.5q279 -85 279 -329q0 -24 -4 -47.5t-8 -42t-17 -42.5t-19.5 -38t-27 -39.5 t-29 -37t-36 -40t-37 -38l-43.5 -43.5l-44 -44q-74 -74 -190 -74q-152 0 -247 91t-95 239zM340 1161q0 -121 75 -202.5t222 -141.5q52 48 77 100t25 127q0 123 -66 185.5t-194 62.5q-75 0 -107 -28.5t-32 -102.5zM352 418q0 -116 82 -183t232 -67q65 0 87.5 26.5t22.5 102.5 q0 126 -62.5 182t-265.5 148q-1 1 -2 1.5t-2 0.5q-45 -38 -68.5 -94.5t-23.5 -116.5z" />
<glyph unicode="9" horiz-adv-x="1130" d="M94 918q0 81 14.5 140.5t51 112t72.5 87.5t106 94q87 74 142.5 104.5t117.5 30.5q198 0 300.5 -158t102.5 -471q0 -134 -14.5 -241.5t-32.5 -172.5t-54.5 -126.5t-59 -87.5t-69.5 -71.5t-64 -64.5q-59 -65 -107.5 -94t-128.5 -29q-107 0 -190 38t-156 122l129 197 q90 -74 187 -111t184 -37q88 0 132.5 130.5t76.5 443.5q-47 -36 -100.5 -90t-84.5 -84.5t-84 -54t-121 -23.5q-159 0 -254.5 114.5t-95.5 301.5zM266 1063q0 -161 82 -255.5t227 -94.5q88 0 141 27t95 83q-23 226 -113.5 344.5t-232.5 118.5q-108 0 -153.5 -52.5 t-45.5 -170.5z" />
<glyph unicode=":" horiz-adv-x="532" d="M125 106q55 38 147 148l148 -141q-45 -37 -146 -142q-69 74 -149 135zM129 805q17 18 67 64.5t76 76.5q19 -11 63.5 -60.5t78.5 -74.5q-22 -23 -69.5 -71.5t-70.5 -71.5q-18 16 -66.5 65t-78.5 72z" />
<glyph unicode=";" horiz-adv-x="532" d="M125 813q76 60 145 139q22 -23 70.5 -72.5t71.5 -72.5q-69 -60 -140 -137q-16 11 -37.5 32t-54 55t-55.5 56zM133 147l143 166q119 -88 119 -190q0 -69 -55 -159t-160 -179l-30 22q94 104 94 175q0 29 -18 59.5t-34 47t-59 58.5z" />
<glyph unicode="&#x3c;" horiz-adv-x="1366" d="M139 604v119l1086 457v-144l-910 -372l910 -375v-142z" />
<glyph unicode="=" horiz-adv-x="1366" d="M139 367v131h1086v-131h-1086zM139 836v131h1086v-131h-1086z" />
<glyph unicode="&#x3e;" horiz-adv-x="1366" d="M139 147v142l910 373l-910 374v144l1086 -459v-117z" />
<glyph unicode="?" horiz-adv-x="831" d="M39 1212l164 166q84 47 203 47q150 0 248 -95.5t98 -233.5q0 -85 -48.5 -175.5t-132.5 -164.5q-147 -132 -147 -260q0 -58 16 -95q-153 -53 -198 -77q-4 32 -4 49q0 33 5 60t23 61.5t28 51t46 68.5t51 74q7 10 31 45t32 47.5t26.5 41.5t25.5 45l17.5 40t14 44t3.5 40 q0 114 -70.5 194.5t-181.5 80.5q-114 0 -223 -84zM207 106q27 15 139 134q4 3 6 5l5 5t5 6q18 -21 42.5 -44.5t57.5 -53.5t50 -47q-53 -34 -150 -148q-35 44 -155 143z" />
<glyph unicode="@" horiz-adv-x="2068" d="M111 465q0 202 67.5 388t192.5 329q264 307 729 307q129 0 246 -29t210 -80t169 -122.5t126.5 -156t77.5 -180.5t27 -196q0 -152 -54.5 -291t-140 -234t-192 -151.5t-209.5 -56.5q-60 0 -99.5 13t-59.5 39t-28.5 52t-11.5 64q-68 -78 -148 -123t-155 -45 q-157 0 -261.5 128t-104.5 326q0 150 71.5 297t193.5 242.5t255 95.5q90 0 168 -47t133 -137l33 156h180l-144 -672q-5 -23 -13.5 -62t-12.5 -60.5t-4 -35.5q0 -25 21 -44t52 -19q34 0 81.5 24t100.5 73t97.5 113.5t74 155t29.5 187.5q0 179 -92.5 323t-256.5 225.5 t-367 81.5q-180 0 -336 -66.5t-265 -181.5t-171 -274t-62 -340q0 -362 227.5 -564t638.5 -202q241 0 422.5 81t278.5 220h180q-62 -129 -212 -244.5t-335 -166.5q-147 -41 -336 -41q-239 0 -429.5 64t-318 182t-195.5 284.5t-68 370.5zM678 430q0 -131 61.5 -209t157.5 -78 q60 0 123.5 39t115.5 104.5t85.5 159.5t33.5 195q0 136 -64 212.5t-169 76.5q-96 0 -177 -79.5t-124 -193.5t-43 -227z" />
<glyph unicode="A" horiz-adv-x="1280" d="M41 -16q43 112 93 250.5t117 328.5t109 307q13 36 38 106l40 112t34 101.5t32 108.5l-55 123q33 13 116.5 32t110.5 32q219 -597 573 -1469q-19 -4 -64.5 -11t-88 -15t-82.5 -19l-176 510h-486l-153 -485zM397 612h383l-205 525z" />
<glyph unicode="B" horiz-adv-x="1067" d="M123 -6q20 580 20 1165q0 163 -6 301h500q165 0 266 -99t101 -235q0 -107 -71 -202.5t-210 -165.5q154 -48 231.5 -142t77.5 -215q0 -82 -39 -157.5t-107 -133t-169 -92t-217 -34.5q-20 0 -70.5 1.5t-136.5 4t-170 4.5zM365 113q127 -47 260 -47q84 47 128 130t44 173 q0 133 -113 219q-106 81 -287 80h-26zM371 702l112 101h29q45 0 123 -19q147 93 147 277q0 134 -80.5 206t-222.5 72q-9 0 -102 -6z" />
<glyph unicode="C" horiz-adv-x="1216" d="M70 670q0 110 29 212.5t78 183.5t113 151.5t135.5 121t144.5 87t139.5 54t121.5 17.5q182 0 355 -108l-154 -177q-148 88 -336 88q-109 0 -182 -21.5t-127 -78.5q-58 -60 -94.5 -171.5t-36.5 -240.5q0 -182 80 -325.5t219.5 -222t314.5 -78.5q195 0 320 102l27 -41 q-74 -74 -207 -157q-90 -57 -149 -81t-136 -24q-134 0 -254 52.5t-208.5 144t-140.5 225t-52 287.5z" />
<glyph unicode="D" horiz-adv-x="1366" d="M123 2q8 185 8 717q0 473 -6 743l430 6h15q344 0 542 -174q202 -178 203 -475q0 -152 -58 -301t-157.5 -266.5t-246.5 -189.5q-141 -69 -299 -68h-13zM358 731q0 -263 11 -575q131 -23 235 -23q120 0 233 37t162 84q51 50 84 154.5t33 222.5q0 209 -81.5 370t-233 250.5 t-350.5 89.5q-59 0 -82 -2q-11 -84 -11 -608z" />
<glyph unicode="E" horiz-adv-x="917" d="M123 -4q10 403 10 1051q0 131 -4 409h729l-74 -141l-419 8l-9 -510h492l-70 -141q-66 4 -205 4q-156 0 -217 -2q-2 -23 -2 -76q0 -55 5 -208t6 -251q123 -8 272 -8q96 0 233 10l-67 -151q-435 6 -680 6z" />
<glyph unicode="F" horiz-adv-x="917" d="M135 1458h750l-74 -141l-440 8v-512l477 -6l-68 -135q-80 2 -243 2q-113 0 -166 -2q-4 -78 -4 -117q0 -340 10 -555l-238 -10q4 446 4 657q0 537 -8 811z" />
<glyph unicode="G" horiz-adv-x="1280" d="M53 674q0 242 113 414t358 315q75 43 136.5 64.5t144.5 21.5q205 0 395 -129l-147 -174q-80 61 -168 91t-209 30q-211 0 -307 -90q-57 -53 -97.5 -173t-40.5 -251q0 -116 33.5 -219.5t92.5 -180.5t136 -133.5t167 -85.5t184 -29q30 0 129 17l6 497h-330l139 140l404 -4 v-605q-292 -223 -514 -223q-93 0 -183 29t-170 88.5t-140.5 142t-96 198t-35.5 249.5z" />
<glyph unicode="H" horiz-adv-x="1280" d="M100 -10q15 349 15 833q0 384 -9 637l230 6v-647q215 -10 498 -10q42 0 116 4l-8 647q37 2 113 2h127q-8 -297 -8 -917q0 -408 8 -549l-244 -6l8 676q-435 6 -440 6q-88 0 -174 -6q3 -120 4 -271t3 -245t7 -150z" />
<glyph unicode="I" horiz-adv-x="448" d="M106 -12q13 499 13 960q0 170 -4 514h227q-2 -166 -2 -514q0 -635 4 -952q-24 -2 -84 -2h-33q-6 0 -11 1q-78 0 -110 -7z" />
<glyph unicode="J" horiz-adv-x="747" d="M2 88l148 152q57 -62 109.5 -95.5t80.5 -33.5q45 0 57 152q6 82 6 321v72v147q0 553 -8 649l230 4v-1120q0 -25 -8 -49t-17 -42.5t-32.5 -42.5t-38 -38t-50 -39.5t-52.5 -37t-60 -40.5l-27 -18q-2 -2 -14 -10t-14.5 -9.5t-13 -8t-14 -8.5t-12.5 -7t-13.5 -6.5t-12.5 -5 t-14 -4.5t-13 -2t-14 -1q-100 0 -203 121z" />
<glyph unicode="K" horiz-adv-x="1130" d="M115 -18q14 320 14 819q0 434 -8 657q24 1 109.5 4t127.5 6v-731q437 563 539 721q28 2 88 5t88 5q-88 -112 -264 -338l-264 -339l553 -707l-226 -113q-451 611 -514 670v-86q0 -63 -2 -188q-1 -94 -1 -165q1 -24 1 -46q0 -86 4 -158h-18q-73 0 -227 -16z" />
<glyph unicode="L" horiz-adv-x="917" d="M133 1468q137 4 232 11q3 -300 3 -629.5t1 -491t6 -221.5q123 -6 262 -6q180 0 237 4l-51 -145l-684 6q0 73 1 219.5t1 218.5q0 747 -8 1034z" />
<glyph unicode="M" horiz-adv-x="1599" d="M61 -18q19 164 61 650.5t68 764.5l-20 59l242 12l376 -1169q191 485 414 1161l242 10v-94q0 -81 3.5 -193.5t7.5 -199.5t13 -259t13 -265q1 -12 5.5 -109t10 -179t14.5 -171l-237 -16q-11 435 -53 1159q-186 -469 -414 -1143l-160 -10q-146 480 -356 1126 q-27 -186 -81 -987q-6 -87 -9 -133z" />
<glyph unicode="N" horiz-adv-x="1280" d="M49 1401l221 80l756 -1078v1051q56 6 115 6h18v-86q0 -69 -4 -334.5t-4 -459.5q0 -404 23 -566l-130 -41q-163 246 -423 621q-202 292 -361 516v-66q0 -819 10 -1044l-143 -10q8 433 16 1288z" />
<glyph unicode="O" horiz-adv-x="1429" d="M51 659q0 209 68 365t217 279q109 91 223.5 138.5t210.5 47.5q172 0 308.5 -88.5t214 -252.5t77.5 -376q0 -173 -51.5 -304.5t-167.5 -252.5q-114 -120 -246.5 -184t-255.5 -64q-110 0 -224.5 48.5t-193.5 129.5q-180 183 -180 514zM229 797q0 -150 51 -274.5t134 -204 t185.5 -123t209.5 -43.5q159 0 274 92q47 88 71 176t24 207q0 310 -147.5 493t-403.5 183q-144 0 -260 -64q-72 -103 -105 -206.5t-33 -235.5z" />
<glyph unicode="P" horiz-adv-x="1067" d="M121 -8q12 237 12 940q0 360 -2 530q6 0 26.5 -1t26.5 -1q63 0 184 7.5t175 7.5q231 0 354 -97.5t123 -269.5q0 -239 -242 -401q-60 -41 -104.5 -67t-70.5 -40t-57 -20t-44 -6.5t-51 -0.5h-91v-581h-239zM356 727q59 -16 164 -16q106 0 195 32q44 51 64 111t20 147 q0 336 -381 336q-12 0 -29 -1t-29 -1v-73q0 -367 -4 -535z" />
<glyph unicode="Q" horiz-adv-x="1429" d="M43 668q0 236 93 405.5t288 298.5q180 119 356 119q166 0 304.5 -95.5t218 -260.5t79.5 -363q0 -324 -194 -524l190 -131l-176 -150l-182 137q-10 -6 -42 -27.5t-49 -31.5t-51.5 -27.5t-63.5 -26t-70.5 -15.5t-86.5 -7q-127 0 -239.5 50.5t-195 140.5t-131 222t-48.5 286 zM229 817q0 -306 213 -516q88 60 127 85t99 51t106 26q27 0 56.5 -8t52.5 -17t58.5 -30t54 -33.5t60.5 -41.5t58 -40q36 77 53 150.5t17 174.5q0 319 -154 504t-418 185q-129 0 -243 -60q-69 -106 -104.5 -207.5t-35.5 -222.5zM479 274q159 -118 330 -118q31 0 109 10 q-42 25 -94.5 60t-80.5 53.5t-63.5 32.5t-67.5 14q-84 0 -133 -52z" />
<glyph unicode="R" horiz-adv-x="1067" d="M117 1462q104 3 245.5 11t180.5 8q204 0 318 -90.5t114 -251.5q0 -157 -96 -253.5t-293 -162.5q134 -180 250.5 -332t169.5 -218.5t65 -80.5l-203 -121l-516 695q2 -110 5 -334t5 -336q-139 -4 -235 -14v342q0 398 -10 1138zM354 719l172 108q41 -26 109 -30 q65 42 96 100t31 143q0 135 -84.5 227.5t-235.5 92.5q-63 0 -88 -2v-639z" />
<glyph unicode="S" horiz-adv-x="917" d="M84 178l197 129q98 -182 266 -182q13 0 67 6q50 89 50 197q0 88 -36.5 149.5t-95.5 87.5q-110 48 -286 142q-59 32 -100.5 114t-41.5 176q0 124 65 238t172 183t224 69q178 0 289 -180l-186 -125q-105 153 -273 153q-34 0 -76 -14q-53 -79 -53 -174q0 -31 4.5 -57 t17.5 -50t26 -42.5t40.5 -40t49 -36.5t63.5 -38.5t72.5 -39.5t87.5 -45q11 -5 17 -8.5t16 -8.5l18 -9q164 -84 164 -303q0 -111 -44.5 -208.5t-114 -161t-152 -100t-160.5 -36.5q-93 0 -171.5 56.5t-115.5 158.5z" />
<glyph unicode="T" horiz-adv-x="1067" d="M35 1327l96 137q328 -6 760 -6q60 0 166 4l-105 -137l-305 6q-2 -35 -2 -112q0 -703 8 -1219q-99 0 -239 -12l8 1339h-387z" />
<glyph unicode="U" horiz-adv-x="1280" d="M109 444v1010q83 0 233 14q-4 -258 -4 -389q0 -627 12 -700q20 -118 102 -179t220 -61q76 0 128 19t97 61q24 89 30.5 177t6.5 214q0 51 -1 158.5t-3 309t-4 378.5q80 2 229 10q-6 -384 -6 -772q0 -582 12 -696q-158 -4 -233 -8q4 118 4 141v29q-82 -70 -143.5 -111.5 t-110 -57.5t-72 -19t-67.5 -3q-209 0 -319.5 128t-110.5 347z" />
<glyph unicode="V" horiz-adv-x="1280" d="M45 1444q42 2 246 33q130 -455 397 -1250l406 1223q66 3 145 12q-32 -99 -81.5 -239.5t-125.5 -353t-131 -369.5q-15 -44 -47 -133.5t-48.5 -136.5t-36 -112.5t-30.5 -117.5h-22q-22 0 -46 -1q-35 -2 -88.5 -8t-60.5 -7q-47 195 -172 581q-180 556 -305 879z" />
<glyph unicode="W" horiz-adv-x="1812" d="M51 1462l242 31q201 -687 383 -1217l174 476l-248 712q41 8 121 13.5t113 13.5l131 -430l133 407q23 4 76.5 5.5t74.5 5.5l-229 -592l201 -606l401 1183l141 15q-6 -20 -45.5 -133.5t-130.5 -373.5t-184 -528q0 -1 -18.5 -51t-32 -91.5t-36.5 -124t-42 -169.5 q-86 -2 -197 -18l-174 573q-24 -74 -66.5 -194t-70 -205.5t-43.5 -155.5q-3 0 -8 1t-8 1q-54 0 -191 -20q-246 846 -467 1472z" />
<glyph unicode="X" horiz-adv-x="1130" d="M51 -4q220 346 414 696l-393 768q73 0 258 19q78 -175 270 -566l295 547q5 0 14.5 -1t14.5 -1q23 0 66 5t57 5h14l-397 -682l401 -786q-91 -4 -256 -23l-279 586l-299 -561z" />
<glyph unicode="Y" horiz-adv-x="1067" d="M45 1444q92 3 242 39l313 -729q103 189 295 708h12q43 0 125 8l-370 -870q-3 -62 -3 -127q0 -280 7 -471l-248 -14q5 145 8 352.5t4 255.5z" />
<glyph unicode="Z" horiz-adv-x="1067" d="M53 -6q405 741 660 1272h-621l62 194l823 -14l-647 -1264h674l-48 -196q-307 10 -723 10q-35 0 -90 -1t-90 -1z" />
<glyph unicode="[" horiz-adv-x="532" d="M96 1466h312l69 -96h-219q-14 -227 -14 -610q0 -624 14 -1155h150l65 -90h-373q4 260 4 764q0 915 -8 1187z" />
<glyph unicode="\" horiz-adv-x="1087" d="M117 1425h137l719 -1462h-137z" />
<glyph unicode="]" horiz-adv-x="532" d="M57 1370l70 96h311q-8 -270 -8 -1187q0 -506 4 -764h-373l66 90h149q15 568 15 1155q0 366 -15 610h-219z" />
<glyph unicode="^" horiz-adv-x="960" d="M53 666l355 800h145l354 -800h-162l-266 596l-266 -596h-160z" />
<glyph unicode="_" horiz-adv-x="1024" d="M-12 -154h1048v-102h-1048v102z" />
<glyph unicode="`" horiz-adv-x="681" d="M72 1380l274 -18l131 -252h-112z" />
<glyph unicode="a" horiz-adv-x="917" d="M72 233q0 144 120 242t293 98q31 0 123 -10v33q0 48 -4.5 81t-19.5 65.5t-42 51.5t-72.5 30.5t-109.5 11.5q-148 0 -239 -88l-25 26l178 189q91 24 187 24q95 0 175.5 -32t121.5 -83q55 -66 55 -206v-666q-29 -6 -105 -7t-108 -3q2 16 2.5 54t3.5 58l-248 -131 q-16 -4 -39 -4q-39 0 -81 17.5t-79.5 49.5t-62 84.5t-24.5 114.5zM250 350q0 -89 63.5 -154t153.5 -65q65 0 141 27v272q-97 39 -202 39q-72 0 -123 -20q-33 -45 -33 -99z" />
<glyph unicode="b" d="M109 41l8 1423h16q121 0 182 2v-624l271 131q166 -17 253 -126t87 -276q0 -211 -121 -403l-320 -197q-36 -6 -53 -6q-104 0 -323 76zM313 166q184 -68 283 -68h8q113 122 113 361q0 169 -66 268.5t-172 99.5q-28 0 -73 -10q-42 -49 -63.5 -115t-23.5 -127z" />
<glyph unicode="c" horiz-adv-x="831" d="M61 428q0 142 58.5 267t107.5 153l226 121q37 18 77 18q195 0 275 -225l-182 -96q-35 89 -97 135.5t-127 46.5q-31 0 -69 -19q-70 -120 -70 -280q0 -161 57 -258q47 -81 133.5 -126.5t190.5 -45.5q74 0 152 33l16 -27l-186 -119q-58 -39 -142 -39q-180 0 -300 125.5 t-120 335.5z" />
<glyph unicode="d" d="M55 389q0 124 51.5 247.5t112.5 186.5q53 54 158.5 104t183.5 50q24 0 70.5 -10t50.5 -11v500q37 4 117 4q63 0 88 -2q-2 -405 -13 -1458h-208q4 74 8 98l-244 -131q-175 4 -275 121.5t-100 300.5zM264 469q0 -175 72 -269t184 -94q30 0 74 11q42 60 61.5 121.5 t20.5 152.5l8 387q-50 33 -126 55.5t-138 22.5q-36 0 -66 -10q-43 -77 -66.5 -180t-23.5 -197z" />
<glyph unicode="e" horiz-adv-x="831" d="M63 428q0 133 45.5 255.5t112.5 160.5q34 19 84 47.5t70 39.5t50 25t51 18.5t44 4.5q117 0 204 -97t87 -261v-50l-205 -98l-348 4q13 -166 122 -265t255 -99q101 0 170 34l14 -30l-254 -142q-6 -3 -11.5 -5.5t-12.5 -4t-10.5 -2.5t-12.5 -1.5t-11 -0.5h-13h-13 q-194 0 -306 126.5t-112 340.5zM250 571h354q-1 134 -60.5 202.5t-158.5 68.5q-37 0 -72 -13q-29 -57 -46 -124.5t-17 -116.5v-17z" />
<glyph unicode="f" horiz-adv-x="532" d="M39 844l57 92l64 2q2 141 44 239.5t140 174.5q158 123 231 123q19 0 52 -11l-92 -166q-8 1 -34 3.5t-54.5 4.5t-57.5 1q-20 -25 -20 -95v-274h172l-49 -94h-123v-402q0 -138 4 -442h-215q6 390 6 758v84q-17 2 -125 2z" />
<glyph unicode="g" d="M98 -258q0 16 5 30t12 25t24.5 28t31.5 29t45 38.5t54 46.5q-64 6 -109.5 26t-45.5 47q0 25 44 107t97 139q-139 104 -139 279q0 33 5 62.5t11 51t19.5 43.5t21.5 34t28 29.5t27.5 23.5t30.5 22.5t27 19.5q6 5 34 25.5t35 25.5t31 21.5t33.5 21t30 16t34 15.5t33 9.5 t38 7.5t38.5 2q40 0 167 -4t212 -5l-146 -104q74 -95 74 -207q0 -75 -36.5 -145.5t-93 -121t-123 -89.5t-127.5 -58.5t-105 -19.5q-64 0 -125 27q-23 -46 -23 -68q0 -76 170 -76q26 0 92 5t103 5q140 0 210 -58t70 -154q0 -64 -40 -133t-105.5 -126.5t-161 -95t-196.5 -37.5 q-75 0 -136.5 23t-98.5 59t-57 77t-20 81zM285 -172q0 -81 66.5 -127.5t170.5 -46.5q60 0 119 14t94 41q8 46 8 72q0 100 -58 136t-200 36q-112 0 -156 -24.5t-44 -100.5zM303 625q0 -124 71 -202.5t185 -78.5q47 0 96 21q54 74 54 184q0 130 -79 209.5t-184 79.5 q-52 0 -86 -35.5t-45.5 -80.5t-11.5 -97z" />
<glyph unicode="h" d="M109 0q12 507 12 664q0 750 -12 811q4 0 11 1t11 1q31 0 103 -3l96 -4l-15 -641l252 142q50 4 64 4q73 0 136.5 -35t94.5 -92q27 -48 27 -186v-662h-205v608q0 215 -211 215q-32 0 -80 -16q-35 -47 -54.5 -111t-19.5 -121v-575h-210z" />
<glyph unicode="i" horiz-adv-x="448" d="M70 1225l161 168l148 -80l-152 -160zM129 0v963h25q18 1 80 3q44 2 75 1h23l-6 -967h-197z" />
<glyph unicode="j" horiz-adv-x="448" d="M-4 -453q66 29 94.5 84.5t28.5 149.5q1 92 4.5 490.5t3.5 629.5v55h205v-989q0 -55 -7.5 -101t-18.5 -81.5t-34 -67.5t-45 -55.5t-60 -50.5t-70 -46.5t-85 -49.5zM68 1225l161 168l148 -80l-152 -160z" />
<glyph unicode="k" horiz-adv-x="960" d="M123 2q8 535 8 1135v327h205v-962l399 450l174 11l-387 -400l430 -500l-198 -92l-418 494v-463h-213z" />
<glyph unicode="l" horiz-adv-x="448" d="M119 0q12 798 12 1188q0 96 -4 276h203v-1464h-211z" />
<glyph unicode="m" horiz-adv-x="1429" d="M111 0q6 566 6 743q0 116 -6 218h204v-138l240 142q36 6 51 6q62 0 116 -38t87 -112l211 150q54 4 65 4q132 0 191 -79t59 -241v-655h-205v655q0 71 -47 119.5t-122 48.5q-29 0 -74 -10q-62 -106 -62 -231l4 -582h-208v637q0 84 -49.5 134t-114.5 50q-29 0 -66 -16 q-74 -105 -74 -243v-11l7 -551h-213z" />
<glyph unicode="n" d="M111 0q1 143 3.5 380.5t2.5 321.5q0 124 -6 259h204v-138q19 12 62 40.5t67 43.5t61 36t70 36h31q136 0 208.5 -70t72.5 -209v-700h-205v637q0 91 -54.5 137.5t-154.5 46.5q-42 0 -82 -16q-74 -105 -74 -243v-11l7 -551h-213z" />
<glyph unicode="o" d="M59 401q0 69 16 137t32.5 109.5t46.5 105.5q7 14 10 21l237 189q62 30 146 30q176 0 278.5 -114t102.5 -283q0 -199 -103 -406l-233 -190q-72 -35 -141 -35q-178 0 -285 122t-107 314zM246 535q0 -189 91.5 -291.5t246.5 -102.5q48 0 110 25q47 125 47 289 q0 182 -81.5 284.5t-215.5 102.5q-32 0 -56.5 -5.5t-37.5 -12.5t-31 -19q-73 -116 -73 -270z" />
<glyph unicode="p" d="M113 -504v1454q14 0 48.5 -1t47.5 -1q86 0 117 4v-110l231 129q114 -3 198.5 -62t125.5 -153.5t41 -210.5q0 -138 -54.5 -265.5t-132.5 -189.5q-69 -55 -144 -92t-124 -37q-24 0 -150 19v-484h-204zM317 156q64 -34 137 -54t117 -20q33 0 64 14q74 133 74 367 q0 105 -29 184.5t-74.5 119.5t-95.5 55q-29 8 -56 8q-21 0 -42 -5q-50 -49 -72.5 -141.5t-22.5 -243.5v-284z" />
<glyph unicode="q" d="M59 375q0 117 44 243.5t106 188.5q55 57 167 109.5t163 52.5q21 0 47.5 -6t64 -16t58.5 -15l178 33v-1463l-215 -4l10 592l-254 -129q-369 50 -369 414zM268 489q0 -187 83.5 -281.5t215.5 -94.5q3 0 16.5 1t16.5 1q48 41 65 115.5t17 213.5v334q-149 76 -250 76 q-50 0 -82 -18q-82 -158 -82 -347z" />
<glyph unicode="r" horiz-adv-x="681" d="M129 0l12 821q0 92 -2 135h203v-133q83 75 137 111.5t90 36.5q33 0 78.5 -52t67.5 -114q-143 -91 -191 -131q-10 47 -39 83t-65 48q-39 -42 -59.5 -110.5t-20.5 -143.5l4 -551h-215z" />
<glyph unicode="s" horiz-adv-x="681" d="M47 186l178 84q39 -90 85.5 -135.5t111.5 -52.5q24 18 36.5 52.5t12.5 72.5q0 110 -168 164q-242 77 -242 280q0 49 16.5 92t37.5 66q20 23 91.5 69.5t168.5 88.5q105 -3 164.5 -47.5t113.5 -161.5l-174 -86q-38 82 -78.5 125t-105.5 43q-19 0 -49 -6q-25 -52 -25 -101 q0 -44 22 -75.5t56 -45.5q182 -83 236 -119q82 -55 101 -132q7 -31 7 -70q0 -72 -35 -133.5t-84 -89.5q-32 -18 -67.5 -38.5t-53 -31t-36.5 -20.5t-30.5 -13.5t-21.5 -3.5q-25 0 -55 8t-63.5 25.5t-62.5 43t-52.5 64t-34.5 84.5z" />
<glyph unicode="t" horiz-adv-x="618" d="M6 840l107 104h37l6 184l190 66l8 -250h252l-108 -104h-144q-2 -94 -2 -283q0 -256 2 -283q6 -112 43 -142q23 -17 62 -17q15 0 33.5 3t30.5 6t33.5 9t29.5 8l14 -26l-190 -131q-33 -21 -93 -21q-163 0 -163 148v729h-148z" />
<glyph unicode="u" d="M106 227v740h205v-627q0 -201 219 -201q34 0 54.5 7.5t36.5 33.5q19 33 34 106t15 163v516q10 0 26.5 1t26.5 1q111 0 160 -4q-6 -270 -6 -545q0 -328 4 -418h-205v4q0 6 -1 28.5t-1 30.5q0 37 6 72l-262 -151q-6 0 -16.5 -1t-16.5 -1q-131 0 -205 67t-74 178z" />
<glyph unicode="v" horiz-adv-x="917" d="M43 938q132 16 199 41l268 -784l264 753l123 8l-319 -854q-7 -28 -7 -30q0 -19 19 -70l-203 -22z" />
<glyph unicode="w" horiz-adv-x="1280" d="M20 954l211 27q20 -85 56 -240.5t52.5 -225t39.5 -156.5t41 -142l162 637q-3 54 -27 104q127 7 215 17l184 -760l191 748h129l-283 -967q-24 0 -64.5 -1.5t-69 -1.5t-50.5 3l-160 668l-190 -668h-189q-127 511 -248 958z" />
<glyph unicode="x" horiz-adv-x="917" d="M27 934l211 53l254 -395l268 366l145 7l-350 -461l344 -490l-231 -39l-236 367l-246 -346l-155 -8l342 442z" />
<glyph unicode="y" d="M59 952l217 29q136 -368 291 -739l256 708l138 15q-293 -720 -553 -1444l-156 -17q83 162 211 467z" />
<glyph unicode="z" horiz-adv-x="831" d="M37 0l532 793q-37 2 -108 2q-149 0 -350 -7l59 158l623 6l-517 -794h132q319 0 399 8l-47 -166h-723z" />
<glyph unicode="{" horiz-adv-x="681" d="M57 424v162q52 1 88.5 15t59 49.5t35.5 65t18.5 97.5t6.5 109t1 135v45q0 136 36 219t114 119q10 5 19.5 8.5t20 6.5t18.5 5t19.5 3t17.5 1.5t18.5 1t17.5 0.5h18.5h16.5h55v-157h-31q-54 0 -84.5 -7t-51.5 -30t-28.5 -62.5t-7.5 -107.5v-146q0 -139 -20 -223t-64.5 -136 t-126.5 -91q64 -27 105.5 -66.5t64.5 -98t32 -126t9 -162.5v-145q0 -68 7.5 -107.5t28.5 -62.5t51.5 -30t84.5 -7h31v-158h-55q-40 0 -55.5 0.5t-49.5 7t-61 19.5q-78 36 -114 119t-36 219v45q0 91 -1 134.5t-6.5 109.5t-18.5 97t-35.5 66t-59 49t-88.5 15z" />
<glyph unicode="|" horiz-adv-x="1087" d="M477 -504v1981h133v-1981h-133z" />
<glyph unicode="}" horiz-adv-x="681" d="M47 -299h31q54 0 84.5 7.5t51.5 30.5t28.5 62.5t7.5 106.5v145q0 96 8.5 163t31 125.5t64 98t105.5 66.5q-121 57 -165 151.5t-44 298.5v146q0 67 -7.5 106.5t-28.5 62.5t-51.5 30.5t-84.5 7.5h-31v157h55q39 0 57 -0.5t50 -6.5t59 -19q78 -36 114 -119t36 -219v-45 q0 -91 1 -134.5t6.5 -109.5t18.5 -97t35.5 -66t59 -49t88.5 -15v-162q-52 -1 -88.5 -14.5t-59 -49.5t-35.5 -65t-18.5 -97t-6.5 -109.5t-1 -135.5v-45q0 -136 -36 -219t-114 -119q-57 -27 -166 -27h-55v158z" />
<glyph unicode="~" horiz-adv-x="1343" d="M131 598v143q75 62 152.5 93.5t142.5 31.5q56 0 129 -25t132.5 -55.5t126 -55.5t110.5 -25q73 0 140.5 35.5t149.5 105.5v-146q-151 -127 -286 -127q-58 0 -133 25.5t-134 55.5t-125.5 55.5t-111.5 25.5q-127 0 -293 -137z" />
<glyph unicode="&#xa1;" horiz-adv-x="598" d="M154 791q58 49 143 155q55 -62 152 -135q-81 -78 -144 -158q-16 14 -70.5 66.5t-80.5 71.5zM205 -512q4 74 27 471.5t34 607.5l92 19q0 -20 1.5 -153.5t2.5 -177t3.5 -162t6 -190.5t9.5 -176.5t14 -199.5q-114 -17 -190 -39z" />
<glyph unicode="&#xa2;" horiz-adv-x="1130" d="M152 688q0 122 40.5 232t94.5 161q25 25 94 67t160 83v237l80 19v-234q137 -6 226 -66t124 -169l-189 -80q-48 142 -161 162v-692q70 -27 118 -27q57 0 112.5 14.5t88.5 38.5l18 -33q-95 -74 -171.5 -111.5t-165.5 -41.5v-260l-80 -11v277q-192 25 -290.5 136.5 t-98.5 297.5zM350 821q0 -157 43.5 -242t147.5 -141v678h-107q-84 -64 -84 -295z" />
<glyph unicode="&#xa3;" horiz-adv-x="1044" d="M123 653q37 42 61 82h60v350q0 99 28 158t115 146q95 95 165.5 138.5t139.5 43.5q89 0 182.5 -41.5t165.5 -120.5l-137 -203q-219 174 -364 174q-21 0 -34 -4.5t-23.5 -21t-16 -39.5t-9 -69.5t-4.5 -101t-1 -143.5q0 -40 4 -266h399l-49 -82h-350v-180q0 -143 -11.5 -242 t-44.5 -170h43q51 0 162 -2t170 -2q177 0 301 23q-23 -43 -45.5 -104t-30.5 -99q-371 14 -854 14q52 111 75.5 229.5t23.5 301.5v231h-121z" />
<glyph unicode="&#xa4;" horiz-adv-x="1255" d="M154 356q68 69 139 133q-76 115 -76 236q0 132 76 236q-117 112 -139 135q17 17 48 49.5t48 48.5q94 -90 139 -137q109 76 238 76q137 0 237 -76q24 24 71 69.5t69 67.5l98 -98q-22 -23 -139 -135q75 -106 75 -236q0 -124 -75 -236q71 -64 139 -133l-98 -98 q-11 11 -61.5 60.5t-76.5 76.5q-104 -78 -239 -78t-238 78q-45 -47 -139 -137q-17 16 -48 48.5t-48 49.5zM356 727q0 -110 80.5 -191t190.5 -81q112 0 192 80.5t80 191.5q0 115 -82 191.5t-188 76.5q-116 0 -194.5 -79t-78.5 -189z" />
<glyph unicode="&#xa5;" horiz-adv-x="1067" d="M45 246l57 92h326v166h-383l57 92h328l-385 848q92 3 242 39l313 -729q82 150 295 708h12q43 0 125 8l-370 -874h376l-57 -92h-322v-166h379l-57 -92h-319q0 -76 4 -244l-248 -14q2 58 3.5 148.5t2.5 109.5h-379z" />
<glyph unicode="&#xa6;" horiz-adv-x="1087" d="M477 219h133v-723h-133v723zM477 752v725h133v-725h-133z" />
<glyph unicode="&#xa7;" horiz-adv-x="1024" d="M135 510q0 45 14.5 83.5t34 64.5t58.5 55t67 45.5t81 45.5q9 5 13 7q-46 23 -78.5 45t-69 57.5t-56 85t-19.5 109.5q0 62 31 120.5t78 100.5t101 74.5t101 48.5t78 16q85 0 169 -57.5t139 -171.5l-187 -86q-39 102 -101.5 151.5t-131.5 49.5q-44 0 -71.5 -43t-27.5 -97 q0 -60 30 -106.5t77.5 -76.5t105 -56.5t115.5 -54.5t105.5 -60.5t77.5 -83.5t30 -117q0 -92 -62 -159.5t-212 -155.5q47 -28 76.5 -49.5t64 -57t51.5 -81.5t17 -103q0 -137 -134 -246q-154 -126 -239 -126q-34 0 -76 14t-89.5 42.5t-90 81.5t-66.5 122l189 84 q28 -59 64.5 -104.5t69.5 -68.5t58.5 -34t42.5 -11q40 0 66 44.5t26 103.5q0 21 -2.5 39.5t-11 36.5t-14.5 31t-24.5 29.5t-29 26.5t-39 27t-44 26t-55 28.5t-60 29t-70.5 33.5q-79 37 -124.5 103t-45.5 145zM322 592q0 -61 50 -104.5t187 -110.5q141 87 141 190 q0 71 -51.5 114t-183.5 95q-81 -47 -112 -87.5t-31 -96.5z" />
<glyph unicode="&#xa8;" horiz-adv-x="681" d="M-2 1235q42 36 84 83t47 52q61 -61 133 -129q-53 -44 -133 -133q-22 28 -63.5 67.5t-67.5 59.5zM422 1235q42 36 84 83t47 52q5 -4 21.5 -21t47 -47t64.5 -61q-51 -42 -133 -133q-23 28 -64 67.5t-67 59.5z" />
<glyph unicode="&#xa9;" horiz-adv-x="1515" d="M2 735q0 153 60 292.5t161 240t241 160t294 59.5t293.5 -59.5t240 -160t160 -240t59.5 -292.5q0 -205 -100 -378t-273.5 -274t-379.5 -101q-205 0 -379 100.5t-275.5 274t-101.5 378.5zM127 735q0 -171 85 -317t230.5 -231t315.5 -85q127 0 243.5 50.5t200.5 135.5 t134 202t50 245q0 171 -84 316.5t-228.5 230t-315.5 84.5q-128 0 -245 -50t-201.5 -134.5t-134.5 -201.5t-50 -245zM360 745q0 181 109 296.5t297 115.5q130 0 218 -60.5t122 -174.5l-119 -29q-59 154 -233 154q-114 0 -184 -87t-70 -233q0 -144 68 -224.5t190 -80.5 q81 0 149.5 48t91.5 142l123 -37q-30 -128 -129 -201t-233 -73q-183 0 -291.5 117t-108.5 327z" />
<glyph unicode="&#xaa;" horiz-adv-x="681" d="M78 1022q0 94 81.5 156.5t192.5 62.5q16 0 74 -4v20q0 58 -33.5 85.5t-111.5 27.5q-97 0 -160 -57l-33 37l127 125q66 16 125 16q118 0 181 -52.5t63 -156.5v-412q-25 -4 -81.5 -4.5t-84.5 -3.5q4 23 4 60l-143 -70q-2 0 -13.5 -1t-13.5 -1q-64 0 -119 47.5t-55 124.5z M217 1094q0 -46 36.5 -81.5t96.5 -35.5q36 0 76 10v143q-65 21 -117 21q-49 0 -80 -14q-12 -24 -12 -43z" />
<glyph unicode="&#xab;" horiz-adv-x="1024" d="M20 516l426 436l168 13l-411 -394l436 -510l-186 -90zM358 526l430 418l154 10l-401 -362l469 -526l-183 -91z" />
<glyph unicode="&#xac;" horiz-adv-x="1366" d="M139 844v131h1088v-619h-129v488h-959z" />
<glyph unicode="&#xad;" horiz-adv-x="532" d="M84 393l86 185h293l-86 -185h-293z" />
<glyph unicode="&#xae;" horiz-adv-x="1515" d="M2 735q0 153 60 292.5t161 240t241 160t294 59.5t293.5 -59.5t240 -160t160 -240t59.5 -292.5q0 -205 -100 -378t-273.5 -274t-379.5 -101q-205 0 -379 100.5t-275.5 274t-101.5 378.5zM127 735q0 -171 85 -317t230.5 -231t315.5 -85q127 0 243.5 50.5t200.5 135.5 t134 202t50 245q0 171 -84 316.5t-228.5 230t-315.5 84.5q-128 0 -245 -50t-201.5 -134.5t-134.5 -201.5t-50 -245zM426 317v811h279q60 0 86 -0.5t66.5 -6.5t68.5 -19q57 -26 92 -78t35 -109q0 -95 -64 -161.5t-168 -73.5q51 -21 91 -66t98 -139l98 -158h-160l-71 127 q-73 131 -118.5 174.5t-123.5 43.5h-78v-345h-131zM557 774h160q95 0 145.5 28t50.5 95q0 40 -17 66t-50 37t-63 14.5t-76 3.5h-150v-244z" />
<glyph unicode="&#xaf;" horiz-adv-x="681" d="M-16 1106v151h716v-151h-716z" />
<glyph unicode="&#xb0;" horiz-adv-x="811" d="M127 1212q0 114 82 195.5t197 81.5t195.5 -80.5t80.5 -196.5t-80.5 -197t-195.5 -81q-116 0 -197.5 81.5t-81.5 196.5zM236 1212q0 -69 50 -119.5t120 -50.5t118.5 50t48.5 120q0 69 -48.5 118.5t-118.5 49.5t-120 -49.5t-50 -118.5z" />
<glyph unicode="&#xb1;" horiz-adv-x="1366" d="M137 -45v131h1090v-131h-1090zM137 764v131h477v479h131v-479h482v-131h-482v-477h-131v477h-477z" />
<glyph unicode="&#xb2;" horiz-adv-x="704" d="M72 723l41 113q23 7 67 19.5t68.5 20t53.5 20.5t46 28q44 40 74.5 107t30.5 134q0 91 -61 147t-165 56q-74 0 -123 -33l-30 23l110 102q59 29 135 29q121 0 197 -75t76 -167q0 -224 -223 -401l241 -6l-47 -119q-21 2 -207 2h-284z" />
<glyph unicode="&#xb3;" horiz-adv-x="704" d="M84 809l123 96q41 -41 81.5 -63.5t96.5 -22.5q27 0 40 10.5t13 38.5q0 73 -64 130t-165 57q-14 0 -68 -6l-26 20l121 100q28 7 59 7q29 0 61 -9q37 40 37 97q0 55 -37.5 85.5t-101.5 30.5q-62 0 -119 -30l-26 26l129 99q46 12 98 12q95 0 156 -47t61 -123 q0 -52 -27 -91.5t-84 -84.5q65 -32 100.5 -84t35.5 -111q0 -65 -41 -112q-20 -23 -73 -59.5t-106 -61.5q-28 -4 -53 -4q-78 0 -127 24t-94 76z" />
<glyph unicode="&#xb4;" horiz-adv-x="681" d="M209 1110l125 252l272 18l-284 -270h-113z" />
<glyph unicode="&#xb5;" horiz-adv-x="1130" d="M135 -408v1375h178v-422q0 -206 35 -275q31 -63 86 -98t121 -35q67 0 123.5 30.5t91.5 86.5q45 69 45 287v426h178v-967h-159v125q-49 -74 -109 -112t-162 -38q-63 0 -113 20t-78 45.5t-59 65.5v-514h-178z" />
<glyph unicode="&#xb6;" horiz-adv-x="960" d="M-10 1073q0 182 122.5 287.5t344.5 105.5h514v-57h-140v-1808h-73v1808h-195v-1808h-76v1083q-141 5 -225.5 25t-155.5 84q-116 104 -116 280z" />
<glyph unicode="&#xb7;" horiz-adv-x="532" d="M119 725q57 40 147 147l148 -141q-49 -41 -146 -141q-69 74 -149 135z" />
<glyph unicode="&#xb8;" horiz-adv-x="681" d="M178 -422q128 7 190 53t62 109q0 45 -49 45q-33 0 -127 -23l70 238h61l-39 -131h27q170 0 170 -133q0 -98 -94.5 -159t-270.5 -60v61z" />
<glyph unicode="&#xb9;" horiz-adv-x="704" d="M272 719q9 313 9 426q0 203 -7 313l162 35q-8 -167 -8 -485q0 -152 8 -285q-43 -4 -133 -4h-31z" />
<glyph unicode="&#xba;" horiz-adv-x="724" d="M70 1120q0 45 12 90.5t23.5 70t35.5 71.5q42 39 64 57.5t57 41t70 31.5t78 9q107 0 179.5 -74t72.5 -178q0 -121 -72 -256l-156 -117q-53 -24 -104 -24q-112 0 -186 77.5t-74 200.5zM217 1198q0 -107 56 -163t149 -56q42 0 65 10q27 66 27 158q0 107 -49 165t-129 58 q-41 0 -76 -18q-43 -60 -43 -154z" />
<glyph unicode="&#xbb;" horiz-adv-x="1024" d="M14 870l183 91l469 -551l-430 -418l-154 -10l401 362zM385 874l186 91l433 -545l-426 -436l-168 -13l411 394z" />
<glyph unicode="&#xbc;" horiz-adv-x="1748" d="M369 -27l845 1514h97l-846 -1514h-96zM422 614v867l135 20v-880zM846 266l373 584l127 39v-520h112l-31 -95h-81l6 -280l-144 -4v280zM985 369h223v340z" />
<glyph unicode="&#xbd;" horiz-adv-x="1748" d="M283 -27l845 1514h97l-846 -1514h-96zM328 610v865l135 22v-881zM967 -4l43 119l184 63q82 66 128 155.5t46 174.5q0 109 -62 170t-184 61q-13 0 -24.5 -1t-22.5 -3t-18.5 -3.5t-18 -5l-15 -5t-16 -6.5t-14.5 -6l-10 24q65 81 90 102q52 42 137 42q144 0 220.5 -77 t76.5 -196q0 -123 -71 -246.5t-209 -230.5h297l-49 -131h-508z" />
<glyph unicode="&#xbe;" horiz-adv-x="1748" d="M238 684l112 109q94 -101 185 -101q24 0 40 4q23 38 23 88q0 90 -66.5 156t-177.5 66q-13 0 -35.5 -3t-31 -1t-8.5 12q0 6 4 10l88 96q42 6 53 6q59 0 92 -16q1 2 7 13.5t11.5 24t10 34.5t4.5 45q0 72 -40 110.5t-112 38.5q-57 0 -133 -37l-16 23l121 106q55 17 114 17 q99 0 156 -53.5t57 -135.5q0 -61 -31.5 -106t-95.5 -92q83 -34 125.5 -93.5t42.5 -132.5q0 -71 -50 -143t-116.5 -115t-119.5 -43q-52 0 -114.5 28t-98.5 85zM451 -27l845 1514h97l-848 -1514h-94zM928 268l370 584l129 39l-4 -518h115l-31 -97h-80l7 -280l-144 -6v282z M1067 367h223v342z" />
<glyph unicode="&#xbf;" horiz-adv-x="831" d="M39 -186q0 86 48 176t132 164q148 130 148 260q0 55 -17 94q151 52 199 78q4 -20 4 -41q0 -20 -1 -34.5t-1.5 -27.5t-5.5 -27t-7 -23.5t-12.5 -27t-15.5 -27t-22.5 -34t-27 -38t-35.5 -49.5t-42 -58q-78 -112 -104 -169q-29 -65 -29 -118q0 -110 74 -189t178 -79 q114 0 223 84l27 -31l-164 -166q-84 -47 -203 -47q-150 0 -248 95.5t-98 234.5zM279 799q43 26 149 147q33 -42 156 -143q-29 -16 -156 -150q-18 21 -41 44t-58.5 55.5t-49.5 46.5z" />
<glyph unicode="&#xc0;" horiz-adv-x="1280" d="M41 -16q43 112 93 250.5t117 328.5t109 307q13 36 38 106l40 112t34 101.5t32 108.5l-55 123q33 13 116.5 32t110.5 32q219 -597 573 -1469q-19 -4 -64.5 -11t-88 -15t-82.5 -19l-176 510h-486l-153 -485zM371 1841l274 -18l131 -252h-112zM397 612h383l-205 525z" />
<glyph unicode="&#xc1;" horiz-adv-x="1280" d="M41 -16q43 112 93 250.5t117 328.5t109 307q13 36 38 106l40 112t34 101.5t32 108.5l-55 123q33 13 116.5 32t110.5 32q219 -597 573 -1469q-19 -4 -64.5 -11t-88 -15t-82.5 -19l-176 510h-486l-153 -485zM397 612h383l-205 525zM508 1571l125 252l272 18l-284 -270h-113 z" />
<glyph unicode="&#xc2;" horiz-adv-x="1280" d="M41 -16q43 112 93 250.5t117 328.5t109 307q13 36 38 106l40 112t34 101.5t32 108.5l-55 123q33 13 116.5 32t110.5 32q219 -597 573 -1469q-19 -4 -64.5 -11t-88 -15t-82.5 -19l-176 510h-486l-153 -485zM373 1569l180 240l285 20l69 -260h-100l-141 156l-193 -156h-100 zM397 612h383l-205 525z" />
<glyph unicode="&#xc3;" horiz-adv-x="1280" d="M41 -16q43 112 93 250.5t117 328.5t109 307q13 36 38 106l40 112t34 101.5t32 108.5l-55 123q33 13 116.5 32t110.5 32q219 -597 573 -1469q-19 -4 -64.5 -11t-88 -15t-82.5 -19l-176 510h-486l-153 -485zM233 1571q49 116 126.5 179t152.5 63q71 0 178 -66 q124 -74 133 -74q41 0 82 146l142 -21q-46 -105 -126.5 -166t-162.5 -61q-33 0 -78 17t-77.5 35t-106.5 61q-35 22 -56 22q-25 0 -39.5 -33.5t-29.5 -101.5h-138zM397 612h383l-205 525z" />
<glyph unicode="&#xc4;" horiz-adv-x="1280" d="M41 -16q43 112 93 250.5t117 328.5t109 307q13 36 38 106l40 112t34 101.5t32 108.5l-55 123q33 13 116.5 32t110.5 32q219 -597 573 -1469q-19 -4 -64.5 -11t-88 -15t-82.5 -19l-176 510h-486l-153 -485zM297 1696q42 36 84 83t47 52q61 -61 133 -129q-53 -44 -133 -133 q-22 28 -63.5 67.5t-67.5 59.5zM397 612h383l-205 525zM721 1696q42 36 84 83t47 52q5 -4 21.5 -21t47 -47t64.5 -61q-51 -42 -133 -133q-23 28 -64 67.5t-67 59.5z" />
<glyph unicode="&#xc5;" horiz-adv-x="1280" d="M41 -16q43 112 93 250.5t117 328.5t109 307q13 36 38 106l40 112t34 101.5t32 108.5l-55 123q33 13 116.5 32t110.5 32q219 -597 573 -1469q-19 -4 -64.5 -11t-88 -15t-82.5 -19l-176 510h-486l-153 -485zM397 612h383l-205 525zM487 1706q0 75 53.5 137t127.5 62 q54 0 89.5 -40t35.5 -101q0 -79 -54.5 -138t-128.5 -59q-54 0 -88.5 42.5t-34.5 96.5zM565 1739q0 -40 29 -68t67 -28q21 0 41 10q11 44 11 72q0 46 -27.5 76t-64.5 30q-17 0 -27 -2q-29 -56 -29 -90z" />
<glyph unicode="&#xc6;" horiz-adv-x="1579" d="M-57 -20q186 295 363.5 604.5t305.5 542t189 329.5h588q51 0 137 4l-76 -139q-144 4 -213 4t-205 -4q-1 -139 -3 -259t-3.5 -180.5t-1.5 -64.5q74 -2 225 -2q183 0 269 2l-74 -143h-55q-32 0 -115 2t-133 2q-51 0 -117 -4q0 -18 -1 -58t-1 -57q0 -38 10 -418 q160 -8 244 -8q90 0 258 8l-64 -151q-329 6 -684 10q15 120 15 244v239h-107q-160 0 -313 -6q-200 -356 -262 -487zM455 608q43 1 142.5 3.5t139.5 2.5h64v625z" />
<glyph unicode="&#xc7;" horiz-adv-x="1216" d="M70 670q0 110 29 212.5t78 183.5t113 151.5t135.5 121t144.5 87t139.5 54t121.5 17.5q182 0 355 -108l-154 -177q-148 88 -336 88q-109 0 -182 -21.5t-127 -78.5q-58 -60 -94.5 -171.5t-36.5 -240.5q0 -182 80 -325.5t219.5 -222t314.5 -78.5q195 0 320 102l27 -41 q-92 -92 -229.5 -174t-229.5 -88l-27 -92h25q170 0 170 -133q0 -98 -94.5 -159t-270.5 -60v61q128 7 191 53t63 109q0 45 -49 45q-33 0 -127 -23l57 199q-140 9 -258 67.5t-198.5 152.5t-125 220t-44.5 269z" />
<glyph unicode="&#xc8;" horiz-adv-x="917" d="M123 -4q10 403 10 1051q0 131 -4 409h729l-74 -141l-419 8l-9 -510h492l-70 -141q-66 4 -205 4q-156 0 -217 -2q-2 -23 -2 -76q0 -55 5 -208t6 -251q123 -8 272 -8q96 0 233 10l-67 -151q-435 6 -680 6zM189 1841l274 -18l131 -252h-112z" />
<glyph unicode="&#xc9;" horiz-adv-x="917" d="M123 -4q10 403 10 1051q0 131 -4 409h729l-74 -141l-419 8l-9 -510h492l-70 -141q-66 4 -205 4q-156 0 -217 -2q-2 -23 -2 -76q0 -55 5 -208t6 -251q123 -8 272 -8q96 0 233 10l-67 -151q-435 6 -680 6zM326 1571l125 252l272 18l-284 -270h-113z" />
<glyph unicode="&#xca;" horiz-adv-x="917" d="M123 -4q10 403 10 1051q0 131 -4 409h729l-74 -141l-419 8l-9 -510h492l-70 -141q-66 4 -205 4q-156 0 -217 -2q-2 -23 -2 -76q0 -55 5 -208t6 -251q123 -8 272 -8q96 0 233 10l-67 -151q-435 6 -680 6zM191 1569l180 240l285 20l69 -260h-100l-141 156l-193 -156h-100z " />
<glyph unicode="&#xcb;" horiz-adv-x="917" d="M115 1696q42 36 84 83t47 52q61 -61 133 -129q-53 -44 -133 -133q-22 28 -63.5 67.5t-67.5 59.5zM123 -4q10 403 10 1051q0 131 -4 409h729l-74 -141l-419 8l-9 -510h492l-70 -141q-66 4 -205 4q-156 0 -217 -2q-2 -23 -2 -76q0 -55 5 -208t6 -251q123 -8 272 -8 q96 0 233 10l-67 -151q-435 6 -680 6zM539 1696q42 36 84 83t47 52q5 -4 21.5 -21t47 -47t64.5 -61q-51 -42 -133 -133q-23 28 -64 67.5t-67 59.5z" />
<glyph unicode="&#xcc;" horiz-adv-x="448" d="M-45 1841l274 -18l131 -252h-112zM106 -12q13 499 13 960q0 170 -4 514h227q-2 -166 -2 -514q0 -635 4 -952q-30 -2 -117 -1.5t-121 -6.5z" />
<glyph unicode="&#xcd;" horiz-adv-x="448" d="M92 1571l125 252l272 18l-284 -270h-113zM106 -12q13 499 13 960q0 170 -4 514h227q-2 -166 -2 -514q0 -635 4 -952q-30 -2 -117 -1.5t-121 -6.5z" />
<glyph unicode="&#xce;" horiz-adv-x="448" d="M-43 1569l180 240l285 20l69 -260h-100l-141 156l-193 -156h-100zM106 -12q13 499 13 960q0 170 -4 514h227q-2 -166 -2 -514q0 -635 4 -952q-30 -2 -117 -1.5t-121 -6.5z" />
<glyph unicode="&#xcf;" horiz-adv-x="448" d="M-119 1696q42 36 84 83t47 52q61 -61 133 -129q-53 -44 -133 -133q-22 28 -63.5 67.5t-67.5 59.5zM106 -12q13 499 13 960q0 170 -4 514h227q-2 -166 -2 -514q0 -635 4 -952q-30 -2 -117 -1.5t-121 -6.5zM305 1696q42 36 84 83t47 52q5 -4 21.5 -21t47 -47t64.5 -61 q-51 -42 -133 -133q-23 28 -64 67.5t-67 59.5z" />
<glyph unicode="&#xd0;" horiz-adv-x="1366" d="M0 690v94h129v21q0 430 -4 657l430 6q355 4 556.5 -174t201.5 -475q0 -152 -58 -301t-157.5 -266.5t-246.5 -189t-312 -68.5l-416 8q4 81 5.5 178t1.5 161.5t-0.5 182t-0.5 166.5h-129zM358 690q1 -66 3.5 -253t5.5 -281q131 -23 237 -23q120 0 233 37t162 84 q51 50 83 154.5t32 222.5q0 209 -81.5 370t-233 250.5t-350.5 89.5q-59 0 -82 -2q-4 -27 -5 -88.5t-2 -210t-2 -256.5h377v-94h-377z" />
<glyph unicode="&#xd1;" horiz-adv-x="1280" d="M49 1401l221 80l756 -1078v1051q56 6 115 6h18v-86q0 -69 -4 -334.5t-4 -459.5q0 -404 23 -566l-130 -41q-163 246 -423 621q-202 292 -361 516v-66q0 -819 10 -1044l-143 -10q8 433 16 1288zM233 1571q49 116 126.5 179t152.5 63q71 0 178 -66q124 -74 133 -74 q41 0 82 146l142 -21q-46 -105 -126.5 -166t-162.5 -61q-33 0 -78 17t-77.5 35t-106.5 61q-35 22 -56 22q-25 0 -39.5 -33.5t-29.5 -101.5h-138z" />
<glyph unicode="&#xd2;" horiz-adv-x="1429" d="M51 659q0 209 68 365t217 279q109 91 223.5 138.5t210.5 47.5q172 0 308.5 -88.5t214 -252.5t77.5 -376q0 -173 -51.5 -304.5t-167.5 -252.5q-114 -120 -246.5 -184t-255.5 -64q-110 0 -224.5 48.5t-193.5 129.5q-180 183 -180 514zM229 797q0 -150 51 -274.5t134 -204 t185.5 -123t209.5 -43.5q159 0 274 92q47 88 71 176t24 207q0 310 -147.5 493t-403.5 183q-144 0 -260 -64q-72 -103 -105 -206.5t-33 -235.5zM445 1841l274 -18l131 -252h-112z" />
<glyph unicode="&#xd3;" horiz-adv-x="1429" d="M51 659q0 209 68 365t217 279q109 91 223.5 138.5t210.5 47.5q172 0 308.5 -88.5t214 -252.5t77.5 -376q0 -173 -51.5 -304.5t-167.5 -252.5q-114 -120 -246.5 -184t-255.5 -64q-110 0 -224.5 48.5t-193.5 129.5q-180 183 -180 514zM229 797q0 -150 51 -274.5t134 -204 t185.5 -123t209.5 -43.5q159 0 274 92q47 88 71 176t24 207q0 310 -147.5 493t-403.5 183q-144 0 -260 -64q-72 -103 -105 -206.5t-33 -235.5zM582 1571l125 252l272 18l-284 -270h-113z" />
<glyph unicode="&#xd4;" horiz-adv-x="1429" d="M51 659q0 209 68 365t217 279q109 91 223.5 138.5t210.5 47.5q172 0 308.5 -88.5t214 -252.5t77.5 -376q0 -173 -51.5 -304.5t-167.5 -252.5q-114 -120 -246.5 -184t-255.5 -64q-110 0 -224.5 48.5t-193.5 129.5q-180 183 -180 514zM229 797q0 -150 51 -274.5t134 -204 t185.5 -123t209.5 -43.5q159 0 274 92q47 88 71 176t24 207q0 310 -147.5 493t-403.5 183q-144 0 -260 -64q-72 -103 -105 -206.5t-33 -235.5zM447 1569l180 240l285 20l69 -260h-100l-141 156l-193 -156h-100z" />
<glyph unicode="&#xd5;" horiz-adv-x="1429" d="M51 659q0 209 68 365t217 279q109 91 223.5 138.5t210.5 47.5q172 0 308.5 -88.5t214 -252.5t77.5 -376q0 -173 -51.5 -304.5t-167.5 -252.5q-114 -120 -246.5 -184t-255.5 -64q-110 0 -224.5 48.5t-193.5 129.5q-180 183 -180 514zM229 797q0 -150 51 -274.5t134 -204 t185.5 -123t209.5 -43.5q159 0 274 92q47 88 71 176t24 207q0 310 -147.5 493t-403.5 183q-144 0 -260 -64q-72 -103 -105 -206.5t-33 -235.5zM307 1571q49 116 126.5 179t152.5 63q71 0 178 -66q124 -74 133 -74q41 0 82 146l142 -21q-46 -105 -126.5 -166t-162.5 -61 q-33 0 -78 17t-77.5 35t-106.5 61q-35 22 -56 22q-25 0 -39.5 -33.5t-29.5 -101.5h-138z" />
<glyph unicode="&#xd6;" horiz-adv-x="1429" d="M51 659q0 209 68 365t217 279q109 91 223.5 138.5t210.5 47.5q172 0 308.5 -88.5t214 -252.5t77.5 -376q0 -173 -51.5 -304.5t-167.5 -252.5q-114 -120 -246.5 -184t-255.5 -64q-110 0 -224.5 48.5t-193.5 129.5q-180 183 -180 514zM229 797q0 -150 51 -274.5t134 -204 t185.5 -123t209.5 -43.5q159 0 274 92q47 88 71 176t24 207q0 310 -147.5 493t-403.5 183q-144 0 -260 -64q-72 -103 -105 -206.5t-33 -235.5zM371 1696q42 36 84 83t47 52q61 -61 133 -129q-53 -44 -133 -133q-22 28 -63.5 67.5t-67.5 59.5zM795 1696q42 36 84 83t47 52 q5 -4 21.5 -21t47 -47t64.5 -61q-51 -42 -133 -133q-23 28 -64 67.5t-67 59.5z" />
<glyph unicode="&#xd7;" horiz-adv-x="1366" d="M184 1071l92 92l408 -409l410 409l92 -94l-408 -407l404 -406l-92 -92l-406 405l-405 -405l-93 92l406 406z" />
<glyph unicode="&#xd8;" horiz-adv-x="1429" d="M-49 -31l223 242q-67 98 -95 204t-28 244q0 209 68 365t217 279q109 91 223.5 138.5t210.5 47.5q246 0 414 -180l162 176h120l-227 -246q127 -191 127 -467q0 -173 -50 -305t-165 -252q-115 -119 -247.5 -183.5t-254.5 -64.5q-109 0 -220.5 46t-197.5 130l-159 -174h-121 zM229 797q0 -223 117 -400l674 736q-150 170 -393 170q-141 0 -260 -64q-72 -103 -105 -205.5t-33 -236.5zM403 330q87 -87 193.5 -132.5t212.5 -45.5q157 0 272 92q49 94 74 180t25 203q0 238 -107 432z" />
<glyph unicode="&#xd9;" horiz-adv-x="1280" d="M109 444v1010q83 0 233 14q-4 -258 -4 -389q0 -627 12 -700q20 -118 102 -179t220 -61q76 0 128 19t97 61q24 89 30.5 177t6.5 214q0 51 -1 158.5t-3 309t-4 378.5q80 2 229 10q-6 -384 -6 -772q0 -582 12 -696q-158 -4 -233 -8q4 118 4 141v29q-82 -70 -143.5 -111.5 t-110 -57.5t-72 -19t-67.5 -3q-209 0 -319.5 128t-110.5 347zM371 1841l274 -18l131 -252h-112z" />
<glyph unicode="&#xda;" horiz-adv-x="1280" d="M109 444v1010q83 0 233 14q-4 -258 -4 -389q0 -627 12 -700q20 -118 102 -179t220 -61q76 0 128 19t97 61q24 89 30.5 177t6.5 214q0 51 -1 158.5t-3 309t-4 378.5q80 2 229 10q-6 -384 -6 -772q0 -582 12 -696q-158 -4 -233 -8q4 118 4 141v29q-82 -70 -143.5 -111.5 t-110 -57.5t-72 -19t-67.5 -3q-209 0 -319.5 128t-110.5 347zM508 1571l125 252l272 18l-284 -270h-113z" />
<glyph unicode="&#xdb;" horiz-adv-x="1280" d="M109 444v1010q83 0 233 14q-4 -258 -4 -389q0 -627 12 -700q20 -118 102 -179t220 -61q76 0 128 19t97 61q24 89 30.5 177t6.5 214q0 51 -1 158.5t-3 309t-4 378.5q80 2 229 10q-6 -384 -6 -772q0 -582 12 -696q-158 -4 -233 -8q4 118 4 141v29q-82 -70 -143.5 -111.5 t-110 -57.5t-72 -19t-67.5 -3q-209 0 -319.5 128t-110.5 347zM373 1569l180 240l285 20l69 -260h-100l-141 156l-193 -156h-100z" />
<glyph unicode="&#xdc;" horiz-adv-x="1280" d="M109 444v1010q83 0 233 14q-4 -258 -4 -389q0 -627 12 -700q20 -118 102 -179t220 -61q76 0 128 19t97 61q24 89 30.5 177t6.5 214q0 51 -1 158.5t-3 309t-4 378.5q80 2 229 10q-6 -384 -6 -772q0 -582 12 -696q-158 -4 -233 -8q4 118 4 141v29q-82 -70 -143.5 -111.5 t-110 -57.5t-72 -19t-67.5 -3q-209 0 -319.5 128t-110.5 347zM297 1696q42 36 84 83t47 52q61 -61 133 -129q-53 -44 -133 -133q-22 28 -63.5 67.5t-67.5 59.5zM721 1696q42 36 84 83t47 52q5 -4 21.5 -21t47 -47t64.5 -61q-51 -42 -133 -133q-23 28 -64 67.5t-67 59.5z" />
<glyph unicode="&#xdd;" horiz-adv-x="1067" d="M45 1444q92 3 242 39l313 -729q103 189 295 708h12q43 0 125 8l-370 -870q-3 -62 -3 -127q0 -280 7 -471l-248 -14q5 145 8 352.5t4 255.5zM402 1571l125 252l272 18l-284 -270h-113z" />
<glyph unicode="&#xde;" horiz-adv-x="1067" d="M121 -8q12 237 12 940q0 360 -2 530q6 0 26.5 -1t26.5 -1q81 0 176 6v-288q92 6 170 6q241 0 365.5 -96.5t124.5 -270.5q0 -239 -242 -401q-75 -51 -121.5 -79t-85.5 -39.5t-56 -13t-64 -1.5q-12 0 -44.5 1t-46.5 1v-293h-239zM356 436q61 -16 164 -16q99 0 195 33 q44 51 64 111t20 147q0 336 -381 336q-12 0 -29 -1.5t-29 -1.5v-73q0 -367 -4 -535z" />
<glyph unicode="&#xdf;" horiz-adv-x="1024" d="M162 0v877q0 187 48 296.5t183 206.5q121 86 199 86q71 0 137 -55t102.5 -128.5t36.5 -135.5t-43 -129t-174 -221q-16 -19 -16 -52q0 -17 5 -30.5t20 -30t28 -28.5t44 -38t52 -45q22 -19 57 -48.5t50.5 -43.5t37.5 -37t31 -40t16 -41t7 -52q0 -70 -39.5 -138.5t-94 -114 t-109.5 -73.5t-89 -28q-68 0 -129 67t-96 181l192 74q23 -99 61.5 -150t76.5 -51q26 0 42.5 36.5t16.5 75.5q0 49 -34.5 96.5t-83.5 86.5t-98 77t-83.5 84t-34.5 93q0 49 19 78q82 116 176 266q14 23 14 69q0 51 -35 123q-36 75 -83 108.5t-134 33.5q-5 0 -22.5 -1t-22.5 -1 q-20 -43 -20 -93v-1210h-211z" />
<glyph unicode="&#xe0;" horiz-adv-x="917" d="M72 233q0 144 120 242t293 98q31 0 123 -10v33q0 48 -4.5 81t-19.5 65.5t-42 51.5t-72.5 30.5t-109.5 11.5q-148 0 -239 -88l-25 26l178 189q91 24 187 24q95 0 175.5 -32t121.5 -83q55 -66 55 -206v-666q-29 -6 -105 -7t-108 -3q2 16 2.5 54t3.5 58l-248 -131 q-16 -4 -39 -4q-39 0 -81 17.5t-79.5 49.5t-62 84.5t-24.5 114.5zM189 1380l274 -18l131 -252h-112zM250 350q0 -89 63.5 -154t153.5 -65q65 0 141 27v272q-97 39 -202 39q-72 0 -123 -20q-33 -45 -33 -99z" />
<glyph unicode="&#xe1;" horiz-adv-x="917" d="M72 233q0 144 120 242t293 98q31 0 123 -10v33q0 48 -4.5 81t-19.5 65.5t-42 51.5t-72.5 30.5t-109.5 11.5q-148 0 -239 -88l-25 26l178 189q91 24 187 24q95 0 175.5 -32t121.5 -83q55 -66 55 -206v-666q-29 -6 -105 -7t-108 -3q2 16 2.5 54t3.5 58l-248 -131 q-16 -4 -39 -4q-39 0 -81 17.5t-79.5 49.5t-62 84.5t-24.5 114.5zM250 350q0 -89 63.5 -154t153.5 -65q65 0 141 27v272q-97 39 -202 39q-72 0 -123 -20q-33 -45 -33 -99zM326 1110l125 252l272 18l-284 -270h-113z" />
<glyph unicode="&#xe2;" horiz-adv-x="917" d="M72 233q0 144 120 242t293 98q31 0 123 -10v33q0 48 -4.5 81t-19.5 65.5t-42 51.5t-72.5 30.5t-109.5 11.5q-148 0 -239 -88l-25 26l178 189q91 24 187 24q95 0 175.5 -32t121.5 -83q55 -66 55 -206v-666q-29 -6 -105 -7t-108 -3q2 16 2.5 54t3.5 58l-248 -131 q-16 -4 -39 -4q-39 0 -81 17.5t-79.5 49.5t-62 84.5t-24.5 114.5zM191 1108l180 240l285 20l69 -260h-100l-141 156l-193 -156h-100zM250 350q0 -89 63.5 -154t153.5 -65q65 0 141 27v272q-97 39 -202 39q-72 0 -123 -20q-33 -45 -33 -99z" />
<glyph unicode="&#xe3;" horiz-adv-x="917" d="M51 1110q49 116 126.5 179t152.5 63q71 0 178 -66q124 -74 133 -74q41 0 82 146l142 -21q-46 -105 -126.5 -166t-162.5 -61q-33 0 -78 17t-77.5 35t-106.5 61q-35 22 -56 22q-25 0 -39.5 -33.5t-29.5 -101.5h-138zM72 233q0 144 120 242t293 98q31 0 123 -10v33 q0 48 -4.5 81t-19.5 65.5t-42 51.5t-72.5 30.5t-109.5 11.5q-148 0 -239 -88l-25 26l178 189q91 24 187 24q95 0 175.5 -32t121.5 -83q55 -66 55 -206v-666q-29 -6 -105 -7t-108 -3q2 16 2.5 54t3.5 58l-248 -131q-16 -4 -39 -4q-39 0 -81 17.5t-79.5 49.5t-62 84.5 t-24.5 114.5zM250 350q0 -89 63.5 -154t153.5 -65q65 0 141 27v272q-97 39 -202 39q-72 0 -123 -20q-33 -45 -33 -99z" />
<glyph unicode="&#xe4;" horiz-adv-x="917" d="M72 233q0 144 120 242t293 98q31 0 123 -10v33q0 48 -4.5 81t-19.5 65.5t-42 51.5t-72.5 30.5t-109.5 11.5q-148 0 -239 -88l-25 26l178 189q91 24 187 24q95 0 175.5 -32t121.5 -83q55 -66 55 -206v-666q-29 -6 -105 -7t-108 -3q2 16 2.5 54t3.5 58l-248 -131 q-16 -4 -39 -4q-39 0 -81 17.5t-79.5 49.5t-62 84.5t-24.5 114.5zM115 1235q42 36 84 83t47 52q61 -61 133 -129q-53 -44 -133 -133q-22 28 -63.5 67.5t-67.5 59.5zM250 350q0 -89 63.5 -154t153.5 -65q65 0 141 27v272q-97 39 -202 39q-72 0 -123 -20q-33 -45 -33 -99z M539 1235q42 36 84 83t47 52q5 -4 21.5 -21t47 -47t64.5 -61q-51 -42 -133 -133q-23 28 -64 67.5t-67 59.5z" />
<glyph unicode="&#xe5;" horiz-adv-x="917" d="M72 233q0 144 120 242t293 98q31 0 123 -10v33q0 48 -4.5 81t-19.5 65.5t-42 51.5t-72.5 30.5t-109.5 11.5q-148 0 -239 -88l-25 26l178 189q91 24 187 24q95 0 175.5 -32t121.5 -83q55 -66 55 -206v-666q-29 -6 -105 -7t-108 -3q2 16 2.5 54t3.5 58l-248 -131 q-16 -4 -39 -4q-39 0 -81 17.5t-79.5 49.5t-62 84.5t-24.5 114.5zM250 350q0 -89 63.5 -154t153.5 -65q65 0 141 27v272q-97 39 -202 39q-72 0 -123 -20q-33 -45 -33 -99zM305 1245q0 75 53.5 137t127.5 62q54 0 89.5 -40t35.5 -101q0 -79 -54.5 -138t-128.5 -59 q-54 0 -88.5 42.5t-34.5 96.5zM383 1278q0 -40 29 -68t67 -28q21 0 41 10q11 44 11 72q0 46 -27.5 76t-64.5 30q-17 0 -27 -2q-29 -56 -29 -90z" />
<glyph unicode="&#xe6;" horiz-adv-x="1386" d="M70 231q0 136 118 238t301 102q29 0 121 -10q-2 111 -12 149q-24 90 -126 115q-45 11 -107 11q-77 0 -134 -21t-110 -67l-23 26l176 189q94 24 185 24q103 0 183.5 -37t123.5 -104q49 22 110.5 58.5t102 54.5t80.5 18q123 0 211 -96t88 -260q0 -6 -1 -26t-1 -26l-205 -98 l-346 6q4 -180 102 -272t264 -92q91 0 185 32l12 -26l-190 -109q-35 -21 -49 -28t-43 -14t-66 -7q-255 0 -350 168q-59 -29 -117.5 -59.5t-89 -47t-59 -30.5t-46 -19.5t-32.5 -5.5q-97 0 -176.5 77t-79.5 187zM256 350q0 -92 61 -155.5t160 -63.5q74 0 170 41q-14 40 -20 59 t-12.5 63.5t-6.5 98.5v35q-79 30 -142 35q-22 2 -46 2q-99 0 -131.5 -20t-32.5 -95zM805 573l346 -6q-3 134 -60 203.5t-157 69.5q-13 0 -26.5 -1.5t-26 -4l-17.5 -3.5q-59 -109 -59 -235v-23z" />
<glyph unicode="&#xe7;" horiz-adv-x="831" d="M61 428q0 142 58.5 267t107.5 153l226 121q37 18 77 18q195 0 275 -225l-182 -96q-35 89 -97 135.5t-127 46.5q-31 0 -69 -19q-70 -120 -70 -280q0 -161 57 -258q47 -81 134 -127.5t190 -46.5q69 0 152 35l16 -27l-186 -119q-47 -31 -105 -37l-29 -100h27q170 0 170 -133 q0 -98 -94 -159t-270 -60v61q128 7 189.5 53t61.5 109q0 45 -49 45q-33 0 -127 -23l60 205q-182 13 -289 139t-107 322z" />
<glyph unicode="&#xe8;" horiz-adv-x="831" d="M63 428q0 133 45.5 255.5t112.5 160.5q34 19 84 47.5t70 39.5t50 25t51 18.5t44 4.5q117 0 204 -97t87 -261v-50l-205 -98l-348 4q13 -166 122 -265t255 -99q101 0 170 34l14 -30l-254 -142q-6 -3 -11.5 -5.5t-12.5 -4t-10.5 -2.5t-12.5 -1.5t-11 -0.5h-13h-13 q-194 0 -306 126.5t-112 340.5zM146 1380l274 -18l131 -252h-112zM250 571h354q-1 134 -60.5 202.5t-158.5 68.5q-37 0 -72 -13q-29 -57 -46 -124.5t-17 -116.5v-17z" />
<glyph unicode="&#xe9;" horiz-adv-x="831" d="M63 428q0 133 45.5 255.5t112.5 160.5q34 19 84 47.5t70 39.5t50 25t51 18.5t44 4.5q117 0 204 -97t87 -261v-50l-205 -98l-348 4q13 -166 122 -265t255 -99q101 0 170 34l14 -30l-254 -142q-6 -3 -11.5 -5.5t-12.5 -4t-10.5 -2.5t-12.5 -1.5t-11 -0.5h-13h-13 q-194 0 -306 126.5t-112 340.5zM250 571h354q-1 134 -60.5 202.5t-158.5 68.5q-37 0 -72 -13q-29 -57 -46 -124.5t-17 -116.5v-17zM283 1110l125 252l272 18l-284 -270h-113z" />
<glyph unicode="&#xea;" horiz-adv-x="831" d="M63 428q0 133 45.5 255.5t112.5 160.5q34 19 84 47.5t70 39.5t50 25t51 18.5t44 4.5q117 0 204 -97t87 -261v-50l-205 -98l-348 4q13 -166 122 -265t255 -99q101 0 170 34l14 -30l-254 -142q-6 -3 -11.5 -5.5t-12.5 -4t-10.5 -2.5t-12.5 -1.5t-11 -0.5h-13h-13 q-194 0 -306 126.5t-112 340.5zM148 1108l180 240l285 20l69 -260h-100l-141 156l-193 -156h-100zM250 571h354q-1 134 -60.5 202.5t-158.5 68.5q-37 0 -72 -13q-29 -57 -46 -124.5t-17 -116.5v-17z" />
<glyph unicode="&#xeb;" horiz-adv-x="831" d="M63 428q0 133 45.5 255.5t112.5 160.5q34 19 84 47.5t70 39.5t50 25t51 18.5t44 4.5q117 0 204 -97t87 -261v-50l-205 -98l-348 4q13 -166 122 -265t255 -99q101 0 170 34l14 -30l-254 -142q-6 -3 -11.5 -5.5t-12.5 -4t-10.5 -2.5t-12.5 -1.5t-11 -0.5h-13h-13 q-194 0 -306 126.5t-112 340.5zM72 1235q42 36 84 83t47 52q61 -61 133 -129q-53 -44 -133 -133q-22 28 -63.5 67.5t-67.5 59.5zM250 571h354q-1 134 -60.5 202.5t-158.5 68.5q-37 0 -72 -13q-29 -57 -46 -124.5t-17 -116.5v-17zM496 1235q42 36 84 83t47 52q5 -4 21.5 -21 t47 -47t64.5 -61q-51 -42 -133 -133q-23 28 -64 67.5t-67 59.5z" />
<glyph unicode="&#xec;" horiz-adv-x="448" d="M-45 1380l274 -18l131 -252h-112zM129 0v963h25q24 0 86 2.5t92 1.5l-6 -967h-197z" />
<glyph unicode="&#xed;" horiz-adv-x="448" d="M92 1110l125 252l272 18l-284 -270h-113zM129 0v963h25q24 0 86 2.5t92 1.5l-6 -967h-197z" />
<glyph unicode="&#xee;" horiz-adv-x="448" d="M-43 1108l180 240l285 20l69 -260h-100l-141 156l-193 -156h-100zM129 0v963h25q24 0 86 2.5t92 1.5l-6 -967h-197z" />
<glyph unicode="&#xef;" horiz-adv-x="448" d="M-119 1235q42 36 84 83t47 52q61 -61 133 -129q-53 -44 -133 -133q-22 28 -63.5 67.5t-67.5 59.5zM129 0v963h25q24 0 86 2.5t92 1.5l-6 -967h-197zM305 1235q42 36 84 83t47 52q5 -4 21.5 -21t47 -47t64.5 -61q-51 -42 -133 -133q-23 28 -64 67.5t-67 59.5z" />
<glyph unicode="&#xf0;" d="M49 397q0 175 105 371l194 154q33 27 49 37.5t45.5 21t65.5 10.5q96 0 178 -63q-44 185 -131 299l-244 -88l27 102l154 57q-57 68 -111 111l74 80q76 -52 170 -141l254 92l-29 -109l-164 -55q120 -153 179 -306.5t59 -322.5q0 -130 -37.5 -270t-69.5 -174 q-138 -140 -214 -189t-154 -49t-149.5 29t-128 82t-89.5 136.5t-33 184.5zM248 510q0 -162 87.5 -266.5t237.5 -104.5q65 0 121 27q43 179 43 311q0 179 -77.5 271t-217.5 92q-112 0 -149 -66q-17 -32 -31 -109t-14 -155z" />
<glyph unicode="&#xf1;" d="M84 1110q49 116 126.5 179t152.5 63q71 0 178 -66q124 -74 133 -74q41 0 82 146l142 -21q-46 -105 -126.5 -166t-162.5 -61q-33 0 -78 17t-77.5 35t-106.5 61q-35 22 -56 22q-25 0 -39.5 -33.5t-29.5 -101.5h-138zM111 0q1 143 3.5 380.5t2.5 321.5q0 124 -6 259h204 v-138q19 12 62 40.5t67 43.5t61 36t70 36h31q136 0 208.5 -70t72.5 -209v-700h-205v637q0 91 -54.5 137.5t-154.5 46.5q-42 0 -82 -16q-77 -109 -74 -254l7 -551h-213z" />
<glyph unicode="&#xf2;" d="M59 401q0 69 16 137t32.5 109.5t46.5 105.5q7 14 10 21l237 189q62 30 146 30q176 0 278.5 -114t102.5 -283q0 -199 -103 -406l-233 -190q-72 -35 -141 -35q-178 0 -285 122t-107 314zM222 1380l274 -18l131 -252h-112zM246 535q0 -189 91.5 -291.5t246.5 -102.5 q48 0 110 25q47 125 47 289q0 182 -81.5 284.5t-215.5 102.5q-32 0 -56.5 -5.5t-37.5 -12.5t-31 -19q-73 -116 -73 -270z" />
<glyph unicode="&#xf3;" d="M59 401q0 69 16 137t32.5 109.5t46.5 105.5q7 14 10 21l237 189q62 30 146 30q176 0 278.5 -114t102.5 -283q0 -199 -103 -406l-233 -190q-72 -35 -141 -35q-178 0 -285 122t-107 314zM246 535q0 -189 91.5 -291.5t246.5 -102.5q48 0 110 25q47 125 47 289 q0 182 -81.5 284.5t-215.5 102.5q-32 0 -56.5 -5.5t-37.5 -12.5t-31 -19q-73 -116 -73 -270zM359 1110l125 252l272 18l-284 -270h-113z" />
<glyph unicode="&#xf4;" d="M59 401q0 69 16 137t32.5 109.5t46.5 105.5q7 14 10 21l237 189q62 30 146 30q176 0 278.5 -114t102.5 -283q0 -199 -103 -406l-233 -190q-72 -35 -141 -35q-178 0 -285 122t-107 314zM224 1108l180 240l285 20l69 -260h-100l-141 156l-193 -156h-100zM246 535 q0 -189 91.5 -291.5t246.5 -102.5q48 0 110 25q47 125 47 289q0 182 -81.5 284.5t-215.5 102.5q-32 0 -56.5 -5.5t-37.5 -12.5t-31 -19q-73 -116 -73 -270z" />
<glyph unicode="&#xf5;" d="M59 401q0 69 16 137t32.5 109.5t46.5 105.5q7 14 10 21l237 189q62 30 146 30q176 0 278.5 -114t102.5 -283q0 -199 -103 -406l-233 -190q-72 -35 -141 -35q-178 0 -285 122t-107 314zM84 1110q49 116 126.5 179t152.5 63q71 0 178 -66q124 -74 133 -74q41 0 82 146 l142 -21q-46 -105 -126.5 -166t-162.5 -61q-33 0 -78 17t-77.5 35t-106.5 61q-35 22 -56 22q-25 0 -39.5 -33.5t-29.5 -101.5h-138zM246 535q0 -189 91.5 -291.5t246.5 -102.5q48 0 110 25q47 125 47 289q0 182 -81.5 284.5t-215.5 102.5q-32 0 -56.5 -5.5t-37.5 -12.5 t-31 -19q-73 -116 -73 -270z" />
<glyph unicode="&#xf6;" d="M59 401q0 69 16 137t32.5 109.5t46.5 105.5q7 14 10 21l237 189q62 30 146 30q176 0 278.5 -114t102.5 -283q0 -199 -103 -406l-233 -190q-72 -35 -141 -35q-178 0 -285 122t-107 314zM148 1235q42 36 84 83t47 52q61 -61 133 -129q-53 -44 -133 -133q-22 28 -63.5 67.5 t-67.5 59.5zM246 535q0 -189 91.5 -291.5t246.5 -102.5q48 0 110 25q47 125 47 289q0 182 -81.5 284.5t-215.5 102.5q-32 0 -56.5 -5.5t-37.5 -12.5t-31 -19q-73 -116 -73 -270zM572 1235q42 36 84 83t47 52q5 -4 21.5 -21t47 -47t64.5 -61q-51 -42 -133 -133 q-23 28 -64 67.5t-67 59.5z" />
<glyph unicode="&#xf7;" horiz-adv-x="1366" d="M139 600v125h1088v-125h-1088zM582 256q0 37 20.5 63t49.5 32t58 0.5t49.5 -31t20.5 -62.5q0 -41 -28.5 -70.5t-69.5 -29.5t-70.5 28.5t-29.5 69.5zM582 1087q0 39 29 67t69 28t70 -29.5t30 -69.5q0 -38 -20.5 -63.5t-49.5 -31.5t-58 0.5t-49.5 33.5t-20.5 65z" />
<glyph unicode="&#xf8;" d="M-37 -37l164 176q-68 109 -68 262q0 56 7.5 105t27.5 103t30.5 78.5t39.5 86.5l239 189q62 30 146 30q90 0 152 -25t120 -83l99 106h98l-154 -166q66 -104 66 -229q0 -195 -105 -406l-233 -190q-72 -35 -141 -35q-87 0 -153.5 28t-127.5 89l-111 -119h-96zM246 535 q0 -111 45 -220l383 410q-88 117 -228 117q-73 0 -127 -37q-73 -116 -73 -270zM330 252q92 -111 254 -111q50 0 112 25q47 125 47 289q0 112 -34 204z" />
<glyph unicode="&#xf9;" d="M106 227v740h205v-627q0 -201 219 -201q34 0 54.5 7.5t36.5 33.5q19 33 34 106t15 163v516q10 0 26.5 1t26.5 1q111 0 160 -4q-6 -270 -6 -545q0 -328 4 -418h-205v4q0 6 -1 28.5t-1 30.5q0 37 6 72l-262 -151q-6 0 -16.5 -1t-16.5 -1q-131 0 -205 67t-74 178zM222 1380 l274 -18l131 -252h-112z" />
<glyph unicode="&#xfa;" d="M106 227v740h205v-627q0 -201 219 -201q34 0 54.5 7.5t36.5 33.5q19 33 34 106t15 163v516q10 0 26.5 1t26.5 1q111 0 160 -4q-6 -270 -6 -545q0 -328 4 -418h-205v4q0 6 -1 28.5t-1 30.5q0 37 6 72l-262 -151q-6 0 -16.5 -1t-16.5 -1q-131 0 -205 67t-74 178zM359 1110 l125 252l272 18l-284 -270h-113z" />
<glyph unicode="&#xfb;" d="M106 227v740h205v-627q0 -201 219 -201q34 0 54.5 7.5t36.5 33.5q19 33 34 106t15 163v516q10 0 26.5 1t26.5 1q111 0 160 -4q-6 -270 -6 -545q0 -328 4 -418h-205v4q0 6 -1 28.5t-1 30.5q0 37 6 72l-262 -151q-6 0 -16.5 -1t-16.5 -1q-131 0 -205 67t-74 178zM224 1108 l180 240l285 20l69 -260h-100l-141 156l-193 -156h-100z" />
<glyph unicode="&#xfc;" d="M106 227v740h205v-627q0 -201 219 -201q34 0 54.5 7.5t36.5 33.5q19 33 34 106t15 163v516q10 0 26.5 1t26.5 1q111 0 160 -4q-6 -270 -6 -545q0 -328 4 -418h-205v4q0 6 -1 28.5t-1 30.5q0 37 6 72l-262 -151q-6 0 -16.5 -1t-16.5 -1q-131 0 -205 67t-74 178zM148 1235 q42 36 84 83t47 52q61 -61 133 -129q-53 -44 -133 -133q-22 28 -63.5 67.5t-67.5 59.5zM572 1235q42 36 84 83t47 52q5 -4 21.5 -21t47 -47t64.5 -61q-51 -42 -133 -133q-23 28 -64 67.5t-67 59.5z" />
<glyph unicode="&#xfd;" d="M59 952l217 29q136 -368 291 -739l256 708l138 15q-293 -720 -553 -1444l-156 -17q83 162 211 467zM359 1110l125 252l272 18l-284 -270h-113z" />
<glyph unicode="&#xfe;" d="M109 -504v1968h210v-622l238 129q114 -3 198.5 -62t125.5 -153.5t41 -210.5q0 -138 -54.5 -265.5t-132.5 -189.5q-69 -55 -144 -92t-124 -37q-22 0 -148 19v-484h-210zM319 156q65 -34 136.5 -54t115.5 -20q33 0 64 14q74 133 74 367q0 105 -29 184.5t-74.5 119.5t-96 55 t-97.5 3q-50 -49 -71.5 -140.5t-21.5 -244.5v-284z" />
<glyph unicode="&#xff;" d="M59 952l217 29q136 -368 291 -739l256 708l138 15q-293 -720 -553 -1444l-156 -17q83 162 211 467zM148 1235q42 36 84 83t47 52q61 -61 133 -129q-53 -44 -133 -133q-22 28 -63.5 67.5t-67.5 59.5zM572 1235q42 36 84 83t47 52q5 -4 21.5 -21t47 -47t64.5 -61 q-51 -42 -133 -133q-23 28 -64 67.5t-67 59.5z" />
<glyph unicode="&#x152;" horiz-adv-x="1792" d="M53 637q0 134 46 268.5t137 255t215 199.5q96 60 185.5 81t201.5 21q35 0 207.5 -3t308.5 -3q57 0 143 0.5t142.5 0.5t97.5 -1l-74 -139q-92 2 -266 2q-17 0 -73.5 1.5t-84.5 0.5l-8 -508h63q42 0 147.5 -1t166.5 -1q71 0 116 2l-71 -143q-70 0 -179.5 2t-148.5 2 q-20 0 -94 -4q0 -14 -1 -45t-1 -45q0 -262 10 -441q91 -8 205 -8q215 0 303 8l-70 -153q-270 8 -514 8q-96 0 -210 -2t-130 -2q-183 0 -329.5 48t-242.5 134t-147 204.5t-51 260.5zM252 823q0 -200 78.5 -359.5t228.5 -252t346 -92.5q55 0 90 2q13 379 13 696q0 278 -13 483 q-154 25 -241 25q-124 0 -232.5 -39.5t-150.5 -79.5q-47 -46 -83 -150t-36 -233z" />
<glyph unicode="&#x153;" horiz-adv-x="1515" d="M59 397q0 202 103 371l244 197q77 28 143 28q99 0 178 -51t129 -147q26 34 52.5 55.5t58 37.5t39.5 21q107 70 188 70q125 0 209 -99t84 -264q0 -5 -1 -23.5t-1 -23.5l-205 -98l-344 6q0 -5 -1 -12t-1 -12q0 -139 105.5 -240.5t267.5 -101.5q75 0 172 36l12 -30 l-211 -123q-47 -29 -92 -29q-139 0 -230.5 53.5t-150.5 167.5q-129 -130 -203.5 -175.5t-159.5 -45.5q-76 0 -145 30t-122.5 84t-85.5 137t-32 181zM246 512q0 -169 93 -271t245 -102q56 0 112 27q45 182 45 305q0 178 -76.5 274.5t-213.5 96.5q-42 0 -79.5 -11t-56.5 -30 q-23 -25 -46 -107t-23 -182zM928 573l352 -6q-15 275 -219 275q-26 0 -70 -11q-63 -117 -63 -243v-15z" />
<glyph unicode="&#x178;" horiz-adv-x="1067" d="M45 1444q92 3 242 39l313 -729q103 189 295 708h12q43 0 125 8l-370 -870q-3 -62 -3 -127q0 -280 7 -471l-248 -14q5 145 8 352.5t4 255.5zM191 1696q42 36 84 83t47 52q61 -61 133 -129q-53 -44 -133 -133q-22 28 -63.5 67.5t-67.5 59.5zM615 1696q42 36 84 83t47 52 q5 -4 21.5 -21t47 -47t64.5 -61q-51 -42 -133 -133q-23 28 -64 67.5t-67 59.5z" />
<glyph unicode="&#x2c6;" horiz-adv-x="681" d="M74 1108l180 240l285 20l69 -260h-100l-141 156l-193 -156h-100z" />
<glyph unicode="&#x2dc;" horiz-adv-x="681" d="M-66 1110q49 116 126.5 179t152.5 63q71 0 178 -66q124 -74 133 -74q41 0 82 146l142 -21q-46 -105 -126.5 -166t-162.5 -61q-33 0 -78 17t-77.5 35t-106.5 61q-35 22 -56 22q-25 0 -39.5 -33.5t-29.5 -101.5h-138z" />
<glyph unicode="&#x2000;" horiz-adv-x="952" />
<glyph unicode="&#x2001;" horiz-adv-x="1905" />
<glyph unicode="&#x2002;" horiz-adv-x="952" />
<glyph unicode="&#x2003;" horiz-adv-x="1905" />
<glyph unicode="&#x2004;" horiz-adv-x="635" />
<glyph unicode="&#x2005;" horiz-adv-x="476" />
<glyph unicode="&#x2006;" horiz-adv-x="317" />
<glyph unicode="&#x2007;" horiz-adv-x="317" />
<glyph unicode="&#x2008;" horiz-adv-x="238" />
<glyph unicode="&#x2009;" horiz-adv-x="381" />
<glyph unicode="&#x200a;" horiz-adv-x="105" />
<glyph unicode="&#x2010;" horiz-adv-x="532" d="M84 393l86 185h293l-86 -185h-293z" />
<glyph unicode="&#x2011;" horiz-adv-x="532" d="M84 393l86 185h293l-86 -185h-293z" />
<glyph unicode="&#x2012;" horiz-adv-x="532" d="M84 393l86 185h293l-86 -185h-293z" />
<glyph unicode="&#x2013;" horiz-adv-x="1130" d="M162 410l67 145l744 6l-70 -151h-741z" />
<glyph unicode="&#x2014;" horiz-adv-x="1748" d="M135 401l68 148l1425 12l-69 -151z" />
<glyph unicode="&#x2018;" horiz-adv-x="532" d="M123 1151q0 79 52 158.5t157 179.5l26 -29q-79 -82 -79 -155q0 -106 108 -160l-139 -182q-125 73 -125 188z" />
<glyph unicode="&#x2019;" horiz-adv-x="532" d="M127 1319l129 170q69 -41 106 -91t37 -100q0 -66 -50.5 -154.5t-145.5 -185.5l-31 23q80 89 80 170q0 41 -25 72t-87 85q-9 7 -13 11z" />
<glyph unicode="&#x201a;" horiz-adv-x="532" d="M133 147l141 160q64 -38 96.5 -89.5t32.5 -96.5q0 -61 -59 -154.5t-162 -183.5l-30 24q92 107 92 175q0 29 -17 58.5t-35.5 49t-58.5 57.5z" />
<glyph unicode="&#x201c;" horiz-adv-x="874" d="M123 1151q0 79 52 158.5t157 179.5l26 -29q-79 -82 -79 -155q0 -106 108 -160l-139 -182q-125 73 -125 188zM463 1151q0 79 52 158.5t157 179.5l24 -29q-78 -81 -78 -155q0 -103 109 -160l-139 -182q-125 73 -125 188z" />
<glyph unicode="&#x201d;" horiz-adv-x="874" d="M125 1319l129 170q69 -41 106 -91t37 -100q0 -66 -50.5 -154.5t-145.5 -185.5l-31 23q80 89 80 170q0 41 -25 72t-87 85q-9 7 -13 11zM469 1319l129 170q70 -40 106.5 -90t36.5 -101q0 -65 -50.5 -154.5t-145.5 -185.5l-31 23q80 89 80 170q0 41 -25 72t-87 85 q-9 7 -13 11z" />
<glyph unicode="&#x201e;" horiz-adv-x="874" d="M131 147l141 160q64 -38 96.5 -89.5t32.5 -96.5q0 -61 -59 -154.5t-162 -183.5l-30 24q92 107 92 175q0 29 -17 58.5t-35.5 49t-58.5 57.5zM475 147l141 160q64 -38 96.5 -90.5t32.5 -95.5q0 -62 -58.5 -155t-162.5 -183l-30 24q92 107 92 175q0 30 -17.5 60.5t-35 48.5 t-58.5 56z" />
<glyph unicode="&#x2022;" horiz-adv-x="724" d="M109 719q0 104 74.5 178t178.5 74t178 -74t74 -178t-74 -179t-178 -75t-178.5 75t-74.5 179z" />
<glyph unicode="&#x2026;" horiz-adv-x="2048" d="M193 98q63 48 147 148l147 -142q-51 -40 -145 -141q-82 88 -149 135zM874 98q66 50 148 148q86 -79 149 -142q-58 -45 -147 -141q-70 76 -150 135zM1559 98q57 41 147 148q61 -56 147 -142q-68 -56 -147 -141q-74 79 -147 135z" />
<glyph unicode="&#x202f;" horiz-adv-x="381" />
<glyph unicode="&#x2039;" horiz-adv-x="681" d="M18 526l431 418l155 10l-403 -362l469 -526l-183 -91z" />
<glyph unicode="&#x203a;" horiz-adv-x="681" d="M12 866l183 88l469 -551l-431 -415l-153 -13l401 365z" />
<glyph unicode="&#x205f;" horiz-adv-x="476" />
<glyph unicode="&#x20ac;" horiz-adv-x="1232" d="M14 596q40 46 62 82h65q0 58 9 113h-136q42 49 62 81h90q29 114 89.5 216t135.5 173.5t158 124t160 78t139 25.5q160 0 330 -107l-144 -174q-72 44 -144 65t-167 21q-99 0 -167 -21.5t-120 -76.5q-82 -85 -96 -324h805l-49 -81h-760v-3q0 -63 8 -110h729l-49 -82h-666 q48 -196 188.5 -311t338.5 -115q177 0 295 100l24 -41q-75 -80 -190 -155q-83 -56 -138 -79.5t-126 -23.5q-238 0 -411 174.5t-196 450.5h-129z" />
<glyph unicode="&#x2122;" horiz-adv-x="2048" d="M225 1346v120h666v-120h-266v-695h-136v695h-264zM983 651v815h201l205 -651l198 651h197v-815h-125v684l-209 -684h-123l-221 695v-695h-123z" />
<glyph unicode="&#x25fc;" horiz-adv-x="983" d="M0 0v983h983v-983h-983z" />
</font>
</defs>
</svg>
